<?xml version="1.0" encoding="utf-8"?><svg width="710" height="746" fill="none" xmlns="http://www.w3.org/2000/svg" viewBox="0 0 710 746"><path d="M270.335 636.618a374.862 374.862 0 00-2.873-3.618M52.392 222.386c72.988 40.564 236.363 153.509 305.963 280.779 5.745 10.506 101.94 177.265 109.41 186.354M74.04 141.598c2.124.969 4.326 1.999 6.602 3.088M394.94 433.552a468.85 468.85 0 00-8.273-15.026m8.273 15.026L286.827 641.037M394.94 433.552c21.437 40.7 40.32 77.138 56.721 109.216M532.3 706.812c-5.084-11.39-15.816-34.228-32.475-68.136m138.6 96.572c-72.467-101.869-231.669-326.34-309.824-438.852m-229.2-249.45c2.623.787 5.454 1.712 8.479 2.778m244.914 198.844c21.16 30.576 44.52 65.04 68.522 100.889m-68.522-100.889L255.71 349.881m97.084-101.313a572.622 572.622 0 00-9.672-13.549m299.025 453.832c-2.652-4.592-14.736-23.767-33.087-52.438m33.087 52.438l-.376 47.293m.376-47.293a323.806 323.806 0 013.404 6.036m12.952 45.74c.847-6.039.276-12.205-1.343-18.548M104.397 28.303c42.164 19.259 100.61 35.32 209.113 155.581m373.341 523.607c-.049 20.071-6.809 33.699-10.183 38.004m10.183-38.004c-.103-25.354-1.179-45.118-2.956-60.738m2.956 60.738c.008-3.069-.582-6.996-1.73-11.48m-30.422-54.007c-68.592-70.819-124.786-130.653-171.635-181.674m171.635 181.674l-.196-102.525m.196 102.525a104.193 104.193 0 013.885 4.243M320.278 140.458c102.469 91.16 312.227 278.051 331.511 296.334 22.25 21.095 38.535 43.648 45.027 69.05M320.278 140.458c17.61 13.234 33.955 25.161 49.265 36.038m-49.265-36.038l-81.46 50.654m81.46-50.654a425.172 425.172 0 00-9.799-11.234m9.799 11.234c20.782 24.687 45.317 53.829 71.511 84.955m262.714 314.066c-8.674-11.384-69.51-84.147-141.103-169.42m141.103 169.42a245.574 245.574 0 004.399 5.574m24.993 101.7c-5.882-51.691-19.445-58.001-30.838-71.283-11.868-13.838-194.325-223.198-284.07-326.149-19.838-24.713-38.286-46.382-55.477-65.437m370.385 462.869c.115-5.448.153-10.552.117-15.34M111.57 1.533c6.104-.768 13.692-.67 22.446.366m188.63 104.865C221.975 28.144 139.556 5.444 110.93 3.923m211.716 102.841l315.477 214.672c15.342 9.234 49.624 38.3 64.025 80.688m-379.502-295.36c12.724 11.759 27.158 25.096 42.711 39.464m-42.711-39.464a375.531 375.531 0 00-27.333-26.105m357.272 330.216c-9.787-8.777-51.381-47.033-103.817-95.368m103.817 95.368l-2.192 73.193m2.192-73.193a472.567 472.567 0 014.946 4.488m45.577 159.684c.203 23.008-12.647 47.164-19.096 56.366m19.096-56.366c-1.199-25.059-2.811-45.653-4.874-62.79m4.874 62.79c.299-4.522-.475-11.547-3.173-20.32m-15.923 76.686c-.056-7.314-.283-13.892-.665-19.838m14.887-99.318c7.593-12.196 13.843-34.012 8.755-60.674m-8.755 60.674c-1.004-8.335-2.114-15.853-3.336-22.669m3.336 22.669a99.694 99.694 0 00-1.418-6.415m-59.592-152.368l2.164-50.144m-2.164 50.144a284.94 284.94 0 016.777 5.301m-6.777-5.301c-22.126-16.787-42.161-30.893-61.31-43.668m74.479 174.262c-17.74-15.732-63.625-55.654-119.007-103.691m119.007 103.691a229.58 229.58 0 017.186 6.646M280.796 163.518a581.623 581.623 0 016.481 6.407m-6.481-6.407a585.54 585.54 0 00-7.136-6.829m7.136 6.829c29.368 25.37 67.845 58.629 108.991 94.224m-108.991-94.224c-12.618-13.268-33.083-32.756-57.473-52.703M101.835 37.864c36.398 11.507 76.12 37.252 109.985 63.747m-39.629-91.124a286.982 286.982 0 0111.147 3.77m-11.147-3.77c4.157.204 9.747.948 16.52 2.406m-16.52-2.406a261.2 261.2 0 00-9.497-2.8m9.497 2.8l-31.962 5.678m171.518 60.524a373.75 373.75 0 00-13.977-10.938m13.977 10.938c7.362 6.046 17.452 13.758 29.536 22.666m-29.536-22.666c9.311 4.595 19.91 9.823 31.453 15.51M639.388 303.33a130.501 130.501 0 015.397 3.76m-5.397-3.76a13779.196 13779.196 0 01-54.14-36.008m121.741 184.261a110.555 110.555 0 00-2.02-8.662m2.02 8.662c-.12-14.26-1.211-27.349-3.056-39.332m-1.785-10.127c4.238-11.147 6.45-28.696 1.858-49.201m-1.858 49.201a192.837 192.837 0 00-1.664-7.557m1.664 7.557c.128.644.254 1.292.378 1.943m-685.23-50.698c33.748-1.705 114.304 31.211 214.138 156.905m95.31 141.459c-33.03-56.753-65.055-103.367-95.31-141.459M64.049 178.885c4.24 2.063 9.696 5.113 16.234 9.207m463.968 521.922c-24.81-31.943-65.4-83.771-110.997-141.232M246.504 71.599c37.661 21.392 71.341 38.709 102.453 53.613M246.504 71.599L189.317 90.94m57.187-19.34c1.14.83 2.281 1.672 3.423 2.522m-3.423-2.523a415.156 415.156 0 00-7.529-5.363m465.031 286.687a112.48 112.48 0 00-1.21-4.885m1.21 4.885c.269-6.755-.096-15.121-1.396-24.43m-83.898-116.268l-4.286 36.073m4.286-36.073c2.187.913 4.322 1.868 6.405 2.865m-6.405-2.865c-14.733-6.142-34.12-15.057-56.39-25.7M232.228 27.357c5.081 1.152 14.579 4.883 27.403 10.55m-27.403-10.55a297.108 297.108 0 018.904 4.057m-8.904-4.057l-10.331 3.738m10.331-3.738a281.19 281.19 0 00-8.392-3.499m474.885 285.123c-5.392-17.328-29.635-58.357-83.468-83.849C567.786 202.655 429.273 134.617 343.2 92.2M698.721 308.98c.522-6.874.179-15.435-1.479-24.99m1.479 24.99a172.21 172.21 0 00-1.905-6.77m1.905 6.77l1.921 32.025m-1.921-32.025a174.716 174.716 0 011.862 7.928M584.561 165.672c-17.812-5.819-38.336-12.292-60.46-19.118m60.46 19.118l7.173-26.77m-7.173 26.77c2.554.835 5.055 1.7 7.502 2.595M230.519 60.507c39.068 10.994 104.097 29.577 171.472 49.388M230.519 60.506a415.56 415.56 0 013.755 2.507m-3.755-2.507c-.581-.384-1.162-.765-1.743-1.144m468.466 224.629C695.21 197.78 624.434 157.399 589.3 147.985L297.77 65.751m399.472 218.24c.605-9.521-.091-21.886-2.949-35.465m2.949 35.465a130.37 130.37 0 00-2.71-12.117M591.734 138.902c-16.144-4.693-34.17-9.918-53.248-15.438m53.248 15.438c2.579.75 5.098 1.545 7.559 2.382m-309.567-89.49c49.36 5.585 173.027 19.606 274.213 31.177M289.726 51.794c20.368 5.848 49.655 14.264 83.012 23.863m-83.012-23.862c11.778 5.595 24.828 11.928 38.775 18.778m-38.775-18.778c-8.353-3.968-16.066-7.565-23.005-10.71M297.77 65.75a357.025 357.025 0 00-21.404-14.771M685.75 220.966a87.55 87.55 0 00-.896-7.005m.896 7.005c.204-4.06.181-8.55-.124-13.355m.124 13.355a149.631 149.631 0 00-2.3-5.235m2.3 5.235c.239.575.475 1.151.706 1.726M410.078 86.406c11.586.741 41.54 3.68 142.109 12.695.586.053 1.169.108 1.749.165m-143.858-12.86l18.313 5.276m-18.313-5.276c-12.822-3.693-25.344-7.297-37.34-10.75M231.434 510.275l-71.287 96.819M80.642 144.686l-8.267 3.127m8.267-3.127c6.761 3.237 14.176 6.999 22.13 11.271m1.304.703L65.97 171.714m38.106-15.054a702.935 702.935 0 0122.694 12.826m-22.694-12.826l-1.304-.703m23.998 13.529L58.477 199.68m68.293-30.194a801.414 801.414 0 0122.011 13.459m0 0l-98.95 49.002m98.95-49.002a851.177 851.177 0 0121.358 13.988m0 0L39.968 268.756m130.171-71.823a869.941 869.941 0 0120.934 14.612m0 0l-162.12 98.323m162.12-98.323a867.881 867.881 0 0120.3 15.067m0 0L16.335 356.954m195.038-130.342a852.363 852.363 0 0120.09 15.85m0 0L33.338 388.153 1.54 412.168c9.122 5.825 19.946 12.966 31.984 21.178m197.938-190.884a827.94 827.94 0 0119.035 15.966m0 0L67.363 406.493l-33.838 26.853m216.973-174.918a797.131 797.131 0 0117.784 15.85m0 0L99.54 424.081l-35.158 30.823m203.9-180.626a762.008 762.008 0 0116.756 15.866m0 0L129.182 442.527l-35.017 34.121m190.873-186.504a721.493 721.493 0 0116.538 16.678m0 0L122.038 497.87m179.538-191.048a682.574 682.574 0 0115.506 16.704M122.038 497.87a1570.832 1570.832 0 0125.769 20.472m-25.769-20.472a1734.828 1734.828 0 00-27.873-21.222m222.917-153.122L147.807 518.342m169.275-194.816a643.108 643.108 0 0113.9 16.006m-183.175 178.81a1361.55 1361.55 0 0124.93 20.731m0 0l158.245-199.541M172.737 539.073c14.928 12.725 29.478 25.736 43.151 38.779m115.094-238.32a609.27 609.27 0 0113.095 16.14m0 0L230.239 509.954m113.838-154.282a576.61 576.61 0 0111.917 15.759M215.888 577.852l140.106-206.421M215.888 577.852a758.672 758.672 0 0119.044 18.798m121.062-225.219a545.51 545.51 0 0111.312 16.105m0 0L234.932 596.65m132.374-209.114c3.35 4.96 6.618 9.98 9.798 15.059M234.932 596.65a587.294 587.294 0 0117.529 18.716m0 0l124.643-212.771M252.461 615.366c5.305 5.93 10.322 11.816 15.001 17.634m109.642-230.405a492.367 492.367 0 019.563 15.931m0 0L267.462 633m86.545-163.328c-32.177-39.895-63.897-78.737-91.882-112.184a1247.907 1247.907 0 00-6.415-7.607m98.297 119.791l67.309-120.215m-67.309 120.215c26.727 33.138 53.769 67.003 79.247 99.11m-11.938-219.325a14512.324 14512.324 0 0157.859 87.143m-66.682-54.215l43.024-81.214m-43.024 81.214a7404.243 7404.243 0 0070.571 77.945m-70.571-77.945C274.025 227.24 240.608 176.583 156.349 119.371m299.168 181.8c19.536 23.235 39.081 46.493 57.883 68.888m-57.883-68.888c-21.59-25.678-43.17-51.329-63.728-75.758M463.9 321.89l27.762-59.05M463.9 321.89c23.197 20.09 46.053 39.896 67.486 58.487M463.9 321.89a184677.006 184677.006 0 00-74.113-64.148m101.875 5.098c19.749 18.222 39.069 36.041 57.106 52.667m-57.106-52.667a269076.767 269076.767 0 01-60.589-55.923m100.313 173.46l17.382-64.87M513.4 370.059l-30.336 90.271m-3.889-23.73l-45.921 132.182M479.175 436.6a18972.509 18972.509 0 0149.113 74.915m-76.627 31.253l-43.651 130.74m43.651-130.74c17.706 34.631 32.52 64.182 44.532 88.53m-12.892 62.384l12.892-62.384m0 0a5765.2 5765.2 0 013.632 7.378m0 0l28.463-127.161m0 0a19921.85 19921.85 0 0143.332 66.721m0 0l-18.047 134.276m18.047-134.276a15227.517 15227.517 0 0137.44 58.177m0 0l-6.727 89.164m43.218-30.69l.284 42.346m-.284-42.346a206.693 206.693 0 013.909 7.452m0 0l-.04 35.855m.04-35.855c.883 1.777 1.72 3.537 2.502 5.282m0 0l.326 31.341m-.326-31.341a110.89 110.89 0 012.292 5.482m0 0l.745 26.586m-.745-26.586c1.171 3.034 2.152 6.024 2.906 8.976m0 0l-.092 18.164m1.834-195.19l-.318 101.194m.318-101.194c1.308 1.618 2.593 3.191 3.847 4.764m-4.165 96.43a116.083 116.083 0 015.452 6.803m0 0l-1.287-103.233m1.287 103.233a128.032 128.032 0 014.553 6.554m-5.84-109.787c1.634 2.049 3.216 4.098 4.731 6.246m0 0l1.109 103.541m-1.109-103.541a77.983 77.983 0 013.444 5.311m-2.335 98.23a136.056 136.056 0 013.459 5.615m0 0l-1.124-103.845m1.124 103.845a139.618 139.618 0 013.444 6.268m-4.568-110.113a68.607 68.607 0 013.545 6.847m0 0l1.023 103.266m-1.023-103.266a72.826 72.826 0 011.523 3.659m-.5 99.607a140.84 140.84 0 012.959 6.085m0 0l-2.459-105.692m2.459 105.692a130.089 130.089 0 012.926 6.933m-5.385-112.625a83.548 83.548 0 012.342 7.032m0 0l3.043 105.593m-3.043-105.593c.962 3.362 1.82 7.074 2.56 11.224m.483 94.369a116 116 0 011.751 4.824m0 0l-2.234-99.193m2.234 99.193a94.13 94.13 0 011.993 6.682m-4.227-105.875c1.088 6.106 1.921 13.159 2.453 21.439m0 0l1.774 84.436m-27.542-205.297l-.048-75.351m.048 75.351a213.75 213.75 0 016.256 6.291m-6.304-81.642a199.887 199.887 0 015.71 5.459m0 0l.594 76.183m-.594-76.183c1.513 1.51 2.98 3.039 4.402 4.608m-3.808 71.575a202.739 202.739 0 015.157 5.612m0 0l-1.349-77.187m1.349 77.187a191.183 191.183 0 014.87 5.727m-6.219-82.914a99.519 99.519 0 014.475 5.288m0 0l1.744 77.626m-1.744-77.626a87.637 87.637 0 014.478 6.232m-2.734 71.394a181.024 181.024 0 014.769 6.103m0 0l-2.035-77.497m2.035 77.497a166.858 166.858 0 015.2 7.365m-7.235-84.862a87.608 87.608 0 013.712 6.225m0 0l3.523 78.637m-3.523-78.637a96.943 96.943 0 012.997 6.026m.526 72.611a156.029 156.029 0 013.059 4.78m0 0l-3.585-77.391m3.585 77.391a146.125 146.125 0 013.737 6.443m-7.322-83.834a115.714 115.714 0 013.738 9.296m0 0l3.584 74.538m-3.584-74.538a147.38 147.38 0 012.459 7.614m1.125 66.924a134.696 134.696 0 012.905 5.63m0 0l-4.03-72.554m4.03 72.554a124.694 124.694 0 012.283 4.967m-6.313-77.521c1.199 4.077 2.325 8.496 3.381 13.313m0 0l2.932 64.208m-2.932-64.208a269.808 269.808 0 012.015 10.164m.917 54.044c.68 1.57 1.304 3.105 1.876 4.601m0 0l-2.793-58.645m2.793 58.645a102.677 102.677 0 012.244 6.494m-3.119-48.885l3.119 48.885m-55.934-195.952l.784-51.685m-.784 51.685a267.941 267.941 0 016.493 5.408m-5.709-57.093a131.242 131.242 0 016.77 5.329m0 0l-1.061 51.764m1.061-51.764a135.03 135.03 0 013.943 3.45m-5.004 48.314a250.258 250.258 0 016.412 5.709m0 0l-1.408-54.023m1.408 54.023a232.119 232.119 0 015.307 5.05m-6.715-59.073a138.088 138.088 0 016.303 6.116m0 0l.412 52.957m-.412-52.957a140.204 140.204 0 015.163 5.642m-4.751 47.315a215.273 215.273 0 016.233 6.378m0 0l-1.482-53.693m1.482 53.693a201.297 201.297 0 015.527 6.143m-7.009-59.836a142.748 142.748 0 015.957 7.354m0 0l1.052 52.482m-1.052-52.482a146.16 146.16 0 014.473 6.251m-3.421 46.231a186.75 186.75 0 014.647 5.603m0 0l-1.226-51.834m1.226 51.834a174.569 174.569 0 014.737 6.225m-5.963-58.059a147.515 147.515 0 013.555 5.513m0 0l2.408 52.546m-2.408-52.546a152.118 152.118 0 014.258 7.397m-1.85 45.149a162.226 162.226 0 014.792 6.974m0 0l-2.942-52.123m2.942 52.123a150.16 150.16 0 014.623 7.603m-7.565-59.726a156.394 156.394 0 014.819 9.74m0 0l2.746 49.986m-2.746-49.986a162.926 162.926 0 013.421 8.142m-.675 41.844a141.621 141.621 0 012.697 4.977m-2.022-46.821l2.022 46.821m-2.022-46.821a171.257 171.257 0 013.803 10.855m-1.781 35.966a137.346 137.346 0 012.01 4.059m-.229-40.025l.229 40.025m-.229-40.025a178.809 178.809 0 011.993 6.837m-1.764 33.188a130.06 130.06 0 012.254 5.022m-.49-38.21l.49 38.21m-.49-38.21c.43 1.592.844 3.208 1.241 4.851m-.751 33.359a124.107 124.107 0 012.183 5.511m-1.432-38.87l1.432 38.87m0 0c.508 1.377.984 2.746 1.43 4.105m0 0l-.82-33.475m.82 33.475c.594 1.81 1.134 3.603 1.623 5.379m-2.443-38.854c.508 2.669.978 5.396 1.407 8.184m1.036 30.67l-1.036-30.67m-89.507-163.953c-.369-.21-.74-.42-1.112-.629-21.222-11.949-41.416-22.367-61.134-31.9m62.246 32.529a299.954 299.954 0 016.643 3.891m0 0l4.048-37.099m-4.048 37.099a279.68 279.68 0 017.242 4.522m-3.194-41.621a132.876 132.876 0 016.756 3.471m0 0l-3.562 38.15m3.562-38.15a130.881 130.881 0 015.759 3.366m-9.321 34.784a261.717 261.717 0 016.52 4.351m0 0l2.801-39.135m-2.801 39.135a246.216 246.216 0 016.452 4.603m-3.651-43.738a128.262 128.262 0 016.526 4.324m-2.875 39.414l2.875-39.414m-2.875 39.414a229.984 229.984 0 016.682 5.122m-3.807-44.536a126.98 126.98 0 015.125 3.821m0 0l-1.318 40.715m1.318-40.715a127.784 127.784 0 015.654 4.713m-6.972 36.002a218.417 218.417 0 015.365 4.414m0 0l1.607-40.416m-1.607 40.416a205.596 205.596 0 016.622 5.881m-5.015-46.297a127.809 127.809 0 015.123 4.783m0 0l-.108 41.514m.108-41.514a129.641 129.641 0 014.808 5.001m-4.916 36.513a188.813 188.813 0 015.494 5.308m0 0l-.578-41.821m.578 41.821a179.59 179.59 0 014.605 4.805m-5.183-46.626a132.312 132.312 0 013.724 4.268m0 0l1.459 42.358m-1.459-42.358a135.553 135.553 0 015.156 6.572m-3.697 35.786a169.723 169.723 0 015.12 5.804m0 0l-1.423-41.59m1.423 41.59a159.682 159.682 0 014.601 5.721m-6.024-47.311a139.14 139.14 0 014.253 6.117m0 0l1.771 41.194m-1.771-41.194a143.09 143.09 0 013.407 5.45m-1.636 35.744a151.468 151.468 0 014.31 5.905m0 0l-2.674-41.649m2.674 41.649c1.089 1.57 2.13 3.137 3.126 4.7m-5.8-46.349a148.756 148.756 0 014.282 7.714m0 0l1.518 38.635m-1.518-38.635a155.496 155.496 0 013.461 7.133m-1.943 31.502a139.132 139.132 0 013.686 6.12m0 0l-1.743-37.622m1.743 37.622a133.708 133.708 0 013.343 6.273m-5.086-43.895a159.254 159.254 0 012.564 5.963m2.522 37.932l-2.522-37.932m2.522 37.932a129.224 129.224 0 012.658 5.671m-5.18-43.603c.853 2.1 1.654 4.197 2.406 6.287m2.774 37.316l-2.774-37.316m2.774 37.316a123.142 123.142 0 011.983 4.789m-4.757-42.105a169.7 169.7 0 012.695 8.138m2.062 33.967l-2.062-33.967m2.062 33.967a119.864 119.864 0 011.764 4.828m0 0c.385 1.129.749 2.251 1.092 3.367m0 0l-1.151-27.464m1.151 27.464c.379 1.23.732 2.452 1.062 3.665m-2.213-31.129c.838 3.984 1.508 7.86 2.027 11.584m.186 19.545l-.186-19.545M563.939 82.971l1.242.142c1.842.21 3.658.446 5.448.704m-6.69-.846l-10.003 16.295m0 0c2.273.223 4.509.483 6.709.777m9.984-16.226l-9.984 16.226m9.984-16.226c1.996.289 3.961.607 5.893.953m-15.877 15.273c2.253.301 4.469.638 6.646 1.01m9.231-16.283l-9.231 16.283m9.231-16.283c2.399.43 4.748.903 7.049 1.418m-16.28 14.865c2.737.467 5.416.988 8.036 1.562m8.244-16.427l-8.244 16.427m8.244-16.427c2.207.494 4.37 1.027 6.489 1.596m-14.733 14.831c2.29.501 4.536 1.042 6.738 1.621m7.995-16.452l-7.995 16.452m7.995-16.452c2.066.556 4.089 1.146 6.072 1.77m-14.067 14.682c2.185.574 4.327 1.185 6.427 1.831m0 0l7.64-16.513m-7.64 16.513c1.999.615 3.961 1.262 5.885 1.939m1.755-18.452c1.792.563 3.55 1.154 5.276 1.771m0 0l-7.031 16.681m7.031-16.68c2.151.769 4.251 1.578 6.301 2.427m-13.332 14.253c2.463.867 4.864 1.783 7.205 2.746m0 0l6.127-17m-6.127 17c2.357.969 4.653 1.985 6.889 3.044m-.762-20.043c1.869.774 3.698 1.58 5.485 2.416m0 0l-4.723 17.627m4.723-17.627c1.69.79 3.343 1.608 4.96 2.452m-9.683 15.175c1.686.798 3.338 1.621 4.956 2.467m0 0l4.727-17.642m-4.727 17.642a137.388 137.388 0 016.464 3.601m-1.737-21.243c1.831.954 3.615 1.942 5.355 2.961m-3.618 18.282l3.618-18.282m-3.618 18.282a137.08 137.08 0 015.268 3.288m-1.65-21.57c1.653.967 3.264 1.962 4.837 2.983m-3.187 18.587l3.187-18.587m-3.187 18.587a134.862 134.862 0 016.259 4.368m-3.072-22.955a120.692 120.692 0 014.763 3.259m-1.691 19.696l1.691-19.696m-1.691 19.696a133.408 133.408 0 0110.288 8.452m-8.597-28.148a119.084 119.084 0 015.106 3.889m-.963 18.891l.963-18.891m0 0a118.195 118.195 0 015.005 4.267m-1.514 19.992l1.514-19.992m-1.514 19.992a133.87 133.87 0 014.894 4.679m-3.38-24.671a117.847 117.847 0 014.29 4.067m-.91 20.604l.91-20.604m-.91 20.604c1.166 1.172 2.3 2.356 3.404 3.55m-2.494-24.154c1.445 1.44 2.84 2.906 4.188 4.393m-1.694 19.761l1.694-19.761m-1.694 19.761a135.587 135.587 0 015.29 6.074m-3.596-25.835a120.547 120.547 0 014.382 5.121m-.786 20.714l.786-20.714m-.786 20.714a138.118 138.118 0 014.382 5.634m-3.596-26.348c1.222 1.512 2.4 3.043 3.534 4.59m.062 21.758l-.062-21.758m.062 21.758c.83 1.126 1.638 2.257 2.422 3.39m-2.484-25.148a125.2 125.2 0 014.24 6.167m-1.756 18.981l1.756-18.981m-1.756 18.981a141.51 141.51 0 014.356 6.69m-2.6-25.671c1.26 1.956 2.456 3.93 3.59 5.918m-.99 19.753l.99-19.753m-.99 19.753a143.23 143.23 0 013.157 5.425m-2.167-25.178a132.181 132.181 0 013.878 7.322m-1.711 17.856l1.711-17.856m-1.711 17.856a143.887 143.887 0 012.607 4.937m-.896-22.793a137.94 137.94 0 013.382 7.456m-2.486 15.337l2.486-15.337m-2.486 15.337a145.66 145.66 0 013.052 6.452m-.566-21.789a141.53 141.53 0 012.298 5.859m-1.732 15.93l1.732-15.93m-1.732 15.93a144.085 144.085 0 012.296 5.485m-.564-21.415a145.645 145.645 0 012.417 7.169m-1.853 14.246l1.853-14.246m-1.853 14.246c.489 1.239.954 2.467 1.395 3.683m.458-17.929a147.806 147.806 0 012.213 7.964m-2.671 9.965l2.671-9.965m-2.671 9.965a138.572 138.572 0 011.559 4.537m1.112-14.502c.467 1.883.891 3.751 1.274 5.599m-2.386 8.903l2.386-8.903m-2.386 8.903c.398 1.226.771 2.437 1.121 3.628m1.265-12.531c.318 1.534.608 3.055.871 4.56m-2.136 7.971l2.136-7.971m-2.136 7.971c.498 1.698.949 3.359 1.354 4.977m.782-12.948c.321 1.84.603 3.656.846 5.443m-1.628 7.505l1.628-7.505m-1.628 7.505c.375 1.495.711 2.952 1.01 4.368m.618-11.873c.313 2.298.564 4.549.756 6.743m-1.374 5.13l1.374-5.13m-1.374 5.13c.326 1.545.608 3.041.849 4.48m.525-9.61c.097 1.102.179 2.189.247 3.26m-.772 6.35l.772-6.35m-147.14-84.147l-14.385 23.09m14.385-23.09a82654.66 82654.66 0 00-57.302-16.558m42.917 39.648a7990.019 7990.019 0 00-62.069-18.847m43.419 31.086l-18.363 27.421m18.363-27.421c20.161 9.972 39.403 19.383 56.871 27.732m-56.871-27.732c-18.937-9.367-38.686-19.228-58.536-29.165m40.173 56.586c21.613 9.348 43.054 18.899 65.092 29.555m-65.092-29.555c-43.3-18.728-87.286-36.644-138.131-61.002m213.365 61.313l-10.142 29.244m33.068 51.553l-9.334 42.484m9.334-42.484a16283.888 16283.888 0 01-57.758-38.762m48.424 81.246c-22.801-15.211-44.344-28.536-66.661-42.253m18.237-38.993l-18.237 38.993m18.237-38.993a12563.937 12563.937 0 01-59.744-40.523m41.507 79.516c-21.41-13.159-43.532-26.68-68.161-42.575m26.654-36.941l-26.654 36.941m26.654-36.941a8433.022 8433.022 0 01-46.6-32.031m19.946 68.972c-21.534-13.897-44.984-29.609-71.549-48.482m34.496-32.383l-34.496 32.383m34.496-32.383c5.602 3.91 11.315 7.88 17.107 11.893m-17.107-11.893c-23.611-16.476-45.271-31.87-62.756-44.758m79.863 56.651l25.769-26.378m0 0c-19.658-9.842-39.416-19.758-58.586-29.345m-39.372 24.929l39.372-24.929m0 0c-20.945-10.474-41.187-20.553-59.828-29.71m73.49 39.322l26.4-18.213m-26.4 18.213a12306.069 12306.069 0 0160.041 17.812m-33.641-36.025c17.429 5.022 35.206 10.148 52.793 15.224m-19.152 20.801l19.152-20.801m-139.901-7.552l-41.192 20.837-88.235 47.254M343.2 92.2l29.538-16.543m-44.237-5.084l-54.088 23.268m0 0c1.92 1.669 3.839 3.367 5.755 5.096m-5.755-5.096a413.458 413.458 0 00-5.672-4.843m323.322 79.269l7.23-26.983m-7.23 26.983c2.292.837 4.537 1.7 6.736 2.588m.494-29.571c2.307.785 4.563 1.608 6.769 2.467m0 0l-7.263 27.104m7.263-27.104c1.882.732 3.728 1.491 5.539 2.275m-12.802 24.829c2.272.916 4.496 1.859 6.672 2.826m0 0l6.13-27.655m-6.13 27.655c2.094.931 4.144 1.884 6.151 2.859m-.021-30.514c1.864.806 3.69 1.64 5.478 2.498m0 0l-5.457 28.016m5.457-28.016a150.149 150.149 0 016.536 3.333m-11.993 24.683a189.425 189.425 0 018.103 4.177m3.89-28.86l-3.89 28.86m3.89-28.86a144.678 144.678 0 016.878 3.971m-10.768 24.889a181.342 181.342 0 016.441 3.69m4.327-28.579l-4.327 28.579m4.327-28.579a141.411 141.411 0 015.025 3.236m-9.352 25.343a174.822 174.822 0 016.138 3.861m0 0l3.214-29.204m-3.214 29.204a168.612 168.612 0 016.784 4.708m-3.57-33.912a138.81 138.81 0 015.796 4.13m0 0l-2.226 29.782m2.226-29.782a135.158 135.158 0 014.456 3.5m-6.682 26.282a162.437 162.437 0 015.232 3.99m0 0l1.45-30.272m-1.45 30.272a158 158 0 016.276 5.259m-4.826-35.531a133.892 133.892 0 015.408 4.675m0 0l-.582 30.856m.582-30.856a135.416 135.416 0 014.69 4.489m-5.272 26.367a154.922 154.922 0 014.93 4.548m0 0l.342-30.915m-.342 30.915a150.683 150.683 0 015.438 5.518m-5.096-36.433a134.305 134.305 0 014.792 5.071m0 0l.304 31.362m-.304-31.362a134.947 134.947 0 014.865 5.736m-4.561 25.626a148.1 148.1 0 014.218 4.701m0 0l.343-30.327m-.343 30.327a148.036 148.036 0 013.545 4.286m-3.202-34.613a137.691 137.691 0 013.794 4.963m0 0l-.592 29.65m.592-29.65a138.44 138.44 0 013.698 5.333m-4.29 24.317c1.439 1.81 2.816 3.63 4.134 5.457m0 0l.156-29.774m-.156 29.774a143.62 143.62 0 014.674 6.893m-4.518-36.667a140.061 140.061 0 013.231 5.138m0 0l1.287 31.529m-1.287-31.529a142.563 142.563 0 013.306 5.826m-2.019 25.703a144.673 144.673 0 013.342 5.522m0 0l-1.323-31.225m1.323 31.225a142.05 142.05 0 013.121 5.732m-4.444-36.957a145.821 145.821 0 013.896 7.806m.548 29.151l-.548-29.151m.548 29.151a142.531 142.531 0 012.158 4.374m0 0l.3-26.564m-.3 26.564a140.076 140.076 0 012.87 6.498m-2.57-33.062a151.016 151.016 0 012.046 5.378m0 0l.524 27.684m-.524-27.684a155.014 155.014 0 013.489 10.997m-2.965 16.687a139.499 139.499 0 012.994 7.95m-.029-24.637l.029 24.637m-.029-24.637a154.867 154.867 0 012.302 9.459m-2.273 15.178c.945 2.763 1.78 5.491 2.512 8.17m-.239-23.348l.239 23.348m-381.022-87.99l51.847-37.656m0 0c20.423 18.865 42.775 39.508 65.716 60.689m-192.255-15.805c28.413 26.353 56.451 57.142 80.62 92.069 2.911 4.208 5.969 8.618 9.163 13.215m-89.783-105.284a649.843 649.843 0 00-13.203-11.914m30.095 170.683a1230.669 1230.669 0 00-13.888-16.05m0 0l101.3-98.812m-101.3 98.812a1172.749 1172.749 0 00-14.004-15.619m115.304-83.193a571.474 571.474 0 00-10.43-13.733m0 0l-104.874 96.926m104.874-96.926a573.539 573.539 0 00-10.385-12.87m-94.489 109.796a1124.349 1124.349 0 00-15.919-17.077m0 0l110.408-92.719m-110.408 92.719a1058.013 1058.013 0 00-16.068-16.519m126.476-76.2a576.12 576.12 0 00-11.712-13.655m0 0l-114.764 89.855m114.764-89.855a577.353 577.353 0 00-11.483-12.596M195.831 284.616a995.839 995.839 0 00-16.832-16.536m0 0l120.113-85.915M178.999 268.08a919.101 919.101 0 00-17.657-16.501m137.77-69.414a581.666 581.666 0 00-11.835-12.24m0 0l-125.935 81.654m0 0a824.066 824.066 0 00-19.231-16.969m0 0l131.549-77.921M142.111 234.61a716.324 716.324 0 00-19.51-16.103m151.059-61.818a582.979 582.979 0 00-13.175-12.02m49.994-15.445l-84.864 49.974m84.864-49.974a420.636 420.636 0 00-19.86-20.531m-65.004 70.505a669.219 669.219 0 00-13.759-11.753m-89.255 51.062l137.884-73.838m-137.884 73.838a578.268 578.268 0 00-20.642-15.704m158.526-58.134a577.17 577.17 0 00-44.937-35.938m-3.692 58.714a681.477 681.477 0 00-46.172-35.153m-63.725 70.511l188.66-94.11m-188.66 94.11c-8.142-5.898-15.407-10.785-21.676-14.711m210.336-79.399a419.563 419.563 0 00-10.451-9.756M80.283 188.092l199.885-89.155m-177.396 57.02l112.776-47.226m0 0a561.087 561.087 0 00-14.258-9.942m-35.606 33.503c-31.484-21.91-59.144-37.14-77.042-45.19l63.646-17.633m13.396 62.823l103.057-43.294m0 0a417.525 417.525 0 00-11.157-9.033m28.389-7.108l-74.153 28.754m74.153-28.754a376.972 376.972 0 019.34 7.802m-9.34-7.802a375.356 375.356 0 00-10.161-7.93M211.82 101.61a678.142 678.142 0 0111.503 9.204m34.261-30.85l-101.235 39.406m101.235-39.406a415.048 415.048 0 00-7.657-5.843m-93.578 45.249a739.38 739.38 0 00-16.558-10.911m61.499-9.67L71.266 146.215M201.29 98.789a545.36 545.36 0 00-11.973-7.849M78.975 123.179l105.52-35.274m0 0a531.92 531.92 0 014.822 3.035m-4.822-3.035a520.566 520.566 0 00-10.801-6.539m15.623 9.574l-49.526 17.52m94.483-45.447l-60.58 18.353m60.58-18.353a409.172 409.172 0 014.701 3.223m-65.281 15.13a506.407 506.407 0 00-5.165-3m5.165 3l-51.65 16.014m36.522-24.569l62.332-18.464M158.566 72.81a464.013 464.013 0 00-6.278-3.342m6.278 3.342a487.492 487.492 0 019.963 5.555m-9.963-5.555l-51.563 15.56m113.895-34.024a412.704 412.704 0 017.878 5.015m-7.878-5.015a417.754 417.754 0 00-4.494-2.75m-8.097-4.758l-65.944 17.603m65.944-17.603c-.668-.383-1.335-.762-2.001-1.138m2.001 1.138a408.963 408.963 0 018.097 4.758m-74.041 12.845a434.893 434.893 0 019.925 5.027m-9.925-5.027L90.82 78.975a1500.81 1500.81 0 0116.183 9.396m35.36-23.929a400.143 400.143 0 00-7.039-3.368m-9.833-4.414l69.861-16.925M125.491 56.66c3.159 1.36 6.44 2.831 9.833 4.414m-9.833-4.414l-30.629 7.228m30.629-7.228a310.105 310.105 0 00-8.996-3.714m78.857-13.211a395.237 395.237 0 00-12.19-6.132m12.19 6.132l28.758-7.497m-28.758 7.497a402.845 402.845 0 0110.954 5.966m-23.144-12.098L107.88 49.724m75.282-16.121a385.169 385.169 0 00-10.072-4.672m10.072 4.672l32.278-5.735M107.88 49.725a253.23 253.23 0 018.615 3.222m-8.615-3.222l-9.974 2.806m2.969-11.081l68.135-14.31m0 0a363.133 363.133 0 00-7.832-3.278m7.832 3.278c1.349.583 2.709 1.18 4.08 1.792m-17.704-7.356l-52.294 11.597m52.294-11.597a336.5 336.5 0 00-4.188-1.578m4.188 1.578c1.9.73 3.831 1.492 5.792 2.286m-17.667-6.597l-38.089 7.215m38.089-7.215a315.436 315.436 0 00-3.282-1.1m3.282 1.1c2.491.85 5.056 1.76 7.687 2.733m-20.234-6.708l-23.332 2.941m23.332-2.941a238.258 238.258 0 00-10.415-2.791m10.415 2.79l31.73-5.601m-31.73 5.602c2.947.859 6.04 1.815 9.265 2.876m-23.4-6.533a155.581 155.581 0 00-7.052-1.407l33.888-4.883m-26.836 6.29l-7.813 1.432m7.813-1.432c1.198.266 2.439.555 3.72.866m47.98 67.868l-84.37 25.467m55.632 4.627a933.608 933.608 0 00-17.747-11.08m0 0c-4.841-2.95-9.849-5.949-15.041-9.009m28.321-27.297l-42.352 9.87m23.523-17.998L96.177 58.98m232.424 237.416l63.188-70.983m-2.002 32.329l41.286-50.825M94.165 476.648a1822.075 1822.075 0 00-29.783-21.744m0 0a1727.674 1727.674 0 00-30.857-21.558m189.798-322.531l71.99-30.156m-45.386-6.537l25.885-9.196m0 0a375.527 375.527 0 00-9.951-7.245m-26.886 8.555l26.886-8.555m0 0a379.945 379.945 0 00-3.023-2.104m-34.062 3.785l27.334-8.314m0 0a377.245 377.245 0 016.728 4.529m-6.728-4.529a375.445 375.445 0 00-3.492-2.267m10.22 6.796l13.528-4.597m0 0a340.756 340.756 0 00-9.458-5.814m0 0l-14.29 3.615m14.29-3.615a334.198 334.198 0 00-4.654-2.707m-9.636 6.322a370.45 370.45 0 00-7.681-4.797m0 0l13.978-3.406m-13.978 3.406a366.955 366.955 0 00-7.74-4.576m7.74 4.576l-28.533 7.613m42.511-11.019c1.108.616 2.221 1.243 3.339 1.88m-3.339-1.88a327.292 327.292 0 00-3.575-1.956m6.914 3.837l4.467-1.375m0 0a820.785 820.785 0 00-7.09-3.176m0 0l-4.291.714m0 0a318.583 318.583 0 00-5.162-2.724m0 0l-12.981 3.51m12.981-3.51a310.212 310.212 0 00-9.046-4.484m-3.935 7.994c-.89-.512-1.779-1.018-2.667-1.518m-4.908-2.717l11.51-3.76m-11.51 3.76a360.788 360.788 0 00-5.512-2.935m5.512 2.935c1.632.887 3.268 1.792 4.908 2.717m-12.633-6.795a350.393 350.393 0 00-6.457-3.226m6.457 3.226c.737.377 1.474.758 2.213 1.143m-11.124-5.552l10.85-2.828m-10.85 2.828a341.42 341.42 0 00-7.793-3.6m7.793 3.6c.816.39 1.634.784 2.454 1.183m8.396-4.01a263.746 263.746 0 00-8.509-3.22m0 0l-10.134 2.447m10.134-2.447a242.74 242.74 0 00-8.692-2.936m-1.442 5.383c-.459-.205-.916-.408-1.374-.61m-6.604-2.83l9.42-1.943m-9.42 1.943c-.946-.393-1.89-.78-2.83-1.16m2.83 1.16c2.185.908 4.387 1.851 6.604 2.83m2.816-4.773a215.03 215.03 0 00-9.503-2.775m-6.219 2.176l6.219-2.176m-6.219 2.176a310.045 310.045 0 00-7.575-2.847m7.575 2.847c1.152.45 2.309.911 3.472 1.382m2.747-3.558a179.528 179.528 0 00-8.421-2.035m-5.373 1.364l5.373-1.364m-5.373 1.364l-32.14 5.74M134.016 1.899l-23.482 3.5m23.482-3.5c3.077.364 6.298.844 9.649 1.443m0 0c2.964.53 6.03 1.154 9.188 1.873m0 0l-32.304 5.283m32.304-5.283a232.33 232.33 0 019.841 2.472m31.691 10.799l-33.207 5.375m11.912 5.07l30.729-6.455m2.487 23.225l28.224-7.811" stroke="#414756"/></svg>