<?xml version="1.0" encoding="utf-8"?><svg width="15" height="22" fill="none" xmlns="http://www.w3.org/2000/svg" viewBox="0 0 15 22"><path d="M13.33 0H1.67C.749 0 0 .725 0 1.615v18.77C0 21.275.749 22 1.669 22H13.33c.92 0 1.669-.725 1.669-1.615V1.615C15 .725 14.251 0 13.33 0zm-.046 1.661v12.837H1.716V1.66h11.568zM1.716 20.34v-4.18h11.567v4.18H1.716zm3.125-16.49v-.766c0-.246.208-.447.462-.447h4.393c.254 0 .462.201.462.447v.766a.456.456 0 01-.462.448H5.303a.456.456 0 01-.462-.448zm4.104 13.976v.742c0 .567-.475 1.027-1.061 1.027h-.768c-.586 0-1.061-.46-1.061-1.027v-.742c0-.567.475-1.028 1.061-1.028h.767c.586 0 1.062.46 1.062 1.028z" fill="currentColor"/></svg>