<?xml version="1.0" encoding="utf-8"?><svg width="39" height="44" fill="none" xmlns="http://www.w3.org/2000/svg" viewBox="0 0 39 44"><path d="M38.53 16.154a.952.952 0 00-.953-.022l-6.25 3.419v-2.928a.976.976 0 00-.965-.983h-1.57a8.848 8.848 0 003.216-6.838C32.008 3.947 28.12 0 23.348 0c-4.076 0-7.507 2.878-8.42 6.738-1.199-1.468-3.01-2.41-5.033-2.41-3.6 0-6.53 2.978-6.53 6.639 0 1.823.724 3.473 1.896 4.673H4.38a.976.976 0 00-.967.983v4.46H.966a.976.976 0 00-.966.982v3.86c0 .541.434.982.966.982h2.447v4.46c0 .541.434.982.967.982h11.398L10.54 42.561a.988.988 0 00.411 1.323c.139.073.29.114.447.114a.967.967 0 00.86-.527l5.117-9.976 5.118 9.976a.958.958 0 001.302.418.989.989 0 00.411-1.323l-5.243-10.217h11.399a.976.976 0 00.966-.981v-2.929l6.25 3.42c.3.163.661.154.952-.023a.984.984 0 00.47-.841V17a.992.992 0 00-.47-.846zM3.41 24.943h-1.48v-1.896h1.48v1.896zM23.343 1.96c3.708 0 6.728 3.069 6.728 6.838 0 3.774-3.02 6.838-6.728 6.838-3.709 0-6.728-3.069-6.728-6.838 0-3.77 3.02-6.838 6.728-6.838zm-7.377 11.448a8.732 8.732 0 001.932 2.232h-3.373a6.664 6.664 0 001.44-2.232zM9.89 6.293c2.536 0 4.599 2.096 4.599 4.674 0 2.577-2.063 4.673-4.6 4.673-2.536 0-4.598-2.096-4.598-4.673 0-2.578 2.062-4.674 4.599-4.674zm19.504 14.904v9.188H5.341v-12.78h24.054v3.592zm7.673 8.147l-5.74-3.142v-4.424l5.74-3.141v10.707zM23.343 13.085c2.326 0 4.214-1.923 4.214-4.283 0-2.364-1.892-4.283-4.214-4.283-2.326 0-4.214 1.924-4.214 4.283 0 2.36 1.892 4.283 4.214 4.283zm0-6.601c1.257 0 2.281 1.04 2.281 2.318s-1.024 2.32-2.281 2.32c-1.257 0-2.282-1.042-2.282-2.32 0-1.282 1.025-2.318 2.282-2.318zM9.89 13.949c1.62 0 2.934-1.336 2.934-2.982 0-1.646-1.315-2.983-2.934-2.983-1.62 0-2.935 1.337-2.935 2.983 0 1.646 1.32 2.982 2.935 2.982zm0-4.196c.658 0 1.194.545 1.194 1.214 0 .668-.537 1.213-1.194 1.213a1.207 1.207 0 01-1.195-1.213c0-.669.537-1.214 1.195-1.214zM9.72 27.53h10.508a.926.926 0 00.917-.932v-5.201a.926.926 0 00-.917-.932H9.721a.926.926 0 00-.917.932v5.201c0 .514.411.932.917.932zm.917-5.201h8.67v3.332h-8.67V22.33zm13.689.05c0-.541.434-.982.966-.982.533 0 .966.44.966.982 0 .54-.429.982-.966.982a.973.973 0 01-.966-.982zm0 3.232c0-.54.434-.982.966-.982.533 0 .966.441.966.982a.976.976 0 01-.966.982.973.973 0 01-.966-.982z" fill="currentColor"/></svg>