<?xml version="1.0" encoding="utf-8"?><svg width="155" height="49" fill="none" xmlns="http://www.w3.org/2000/svg" viewBox="0 0 155 49"><path fill-rule="evenodd" clip-rule="evenodd" d="M6.555 8.82c-.203-2.401.406-3.84 2.398-3.527 1.992.314 10.572 2.25 12.003 2.62 1.43.37 1.841.912 1.841 2.947 0 .496 0 .938-.01 1.31-.006.596-.011 1.017.01 1.2H15.85c-2.093 0-3.575 1.099-3.624 3.035-.042 1.548-.017 11.874 0 16.843-.239.11-.92.388-1.737.68-1.021.367-2.144.523-2.298-1.412C8.07 30.968 7.05 16.073 6.555 8.82zM4.31 8.401c-.307-3.4.408-5.283 3.064-4.813 1.435.255 5.198 1.136 8.603 1.934 2.896.677 5.532 1.294 6.26 1.419 1.583.262 1.838 1.622 1.838 3.61v2.772h3.73c1.606 0 1.592 1.419 1.582 2.554v.27c0 .546-.044 1.29-.084 1.98-.035.59-.066 1.136-.066 1.473h4.696l-.412 1.125h-4.287l-.358 7.24-1.279 1.6c.222-4.046.613-12.293.613-13.426 0-1.538-.613-1.695-1.787-1.695h-9.96c-1.634 0-2.551 1.067-2.551 2.584V38.48c0 1.31.41 1.935 1.635 1.464.98-.377 2.996-1.31 3.881-1.726l-1.94 1.988c-.768.498-1.591.9-2.452 1.2-1.379.472-2.758.525-2.758-1.2v-5.858c-.762.376-1.545.708-2.344.993-1.328.47-3.269.68-3.422-1.31-.13-1.588-1.521-17.748-2.202-25.63z" fill="currentColor"/><path d="M1.138 46.314c-2.874-4.586.344-13.998 2.527-18.27.31-.623.62 0 0 1.375s-4.54 11.656 0 15.677c4.54 4.022 15.787-2.595 25.693-15.066S40.244 6.462 35.806 3.458C31.37.454 24.611 4.832 22.6 6.156c-1.615 1.062-1.651.743-1.548.306 3.457-3.157 11.811-7.86 16.763-4.756 2.941 1.844 7.687 10.64-6.551 29.88C18.832 48.382 4.614 51.863 1.138 46.315zM22.746 43.859l-1.541 1.193v2.443c0 1.352 1.85 1.508 2.93.988 1.079-.52 10.385-5.251 11.721-5.979 1.08-.587 1.491-1.61 1.646-2.963.123-1.084.497-10.328.668-14.817l-1.08 2.028c-.155 3.587-.473 10.97-.514 11.801-.059 1.193-.257 2.586-1.44 3.224-1.542.831-9.356 4.882-10.487 5.407-.905.415-1.903.26-1.903-.676v-2.65zM66.852 19.687a2.54 2.54 0 01-.022.296c-.01.133-.03.266-.057.397a4.795 4.795 0 01-.091.42c-.036.13-.081.255-.136.376a1.181 1.181 0 01-.183.284.26.26 0 01-.192.102 1.008 1.008 0 01-.477-.193 8.86 8.86 0 00-.8-.432 6.961 6.961 0 00-1.191-.432 6.362 6.362 0 00-1.67-.192 5.3 5.3 0 00-1.773.284 5.441 5.441 0 00-1.478.76 5.715 5.715 0 00-1.17 1.142c-.334.432-.62.901-.852 1.397a7.47 7.47 0 00-.512 1.556 7.738 7.738 0 00-.17 1.597c-.01.523.075 1.042.25 1.534.152.417.397.794.716 1.102.329.302.718.53 1.141.67a4.65 4.65 0 001.5.229c.371 0 .74-.038 1.103-.114.35-.072.69-.187 1.012-.342l.684-3.398h-2.772a.257.257 0 01-.216-.103.615.615 0 01-.08-.352c.002-.099.01-.198.023-.296.015-.12.034-.245.057-.374s.064-.273.102-.41c.034-.125.08-.246.137-.362.052-.096.117-.184.193-.263a.317.317 0 01.228-.101h4.966a.585.585 0 01.534.25c.106.166.128.4.068.704l-1.182 5.886a2.009 2.009 0 01-.114.375 1.09 1.09 0 01-.181.272c-.083.092-.277.201-.58.33-.364.141-.736.263-1.113.364-.478.128-.963.227-1.453.297-.545.084-1.095.126-1.647.125a9.628 9.628 0 01-2.784-.364 5.382 5.382 0 01-2.023-1.079 4.739 4.739 0 01-1.227-1.772 6.439 6.439 0 01-.419-2.41c0-.81.087-1.617.261-2.408.178-.774.446-1.526.799-2.238a9.51 9.51 0 011.307-1.966 8.346 8.346 0 011.806-1.569 8.775 8.775 0 012.296-1.026 9.662 9.662 0 012.761-.376 8.593 8.593 0 011.568.137c.447.072.888.179 1.318.318.342.1.673.233.988.398.188.091.364.206.523.342a.557.557 0 01.183.261c.03.12.045.244.04.367zM126.621 32.084c-.063.16-.151.31-.261.443a.892.892 0 01-.398.238c-.207.06-.42.094-.635.103-.251.015-.569.023-.955.023-.409 0-.743-.008-1-.023a2.587 2.587 0 01-.591-.091.515.515 0 01-.284-.229.895.895 0 01-.091-.386l-.534-9.42h-.023l-4.079 9.341a1.925 1.925 0 01-.249.443.751.751 0 01-.343.238c-.191.062-.39.096-.591.103-.249.015-.571.023-.966.023-.456 0-.82-.008-1.091-.023a2.405 2.405 0 01-.635-.103.488.488 0 01-.296-.25 1.447 1.447 0 01-.08-.465l-.798-12.931a4.152 4.152 0 01.011-.58.445.445 0 01.193-.318.92.92 0 01.466-.136c.294-.026.59-.037.886-.034.262-.002.523.01.784.034.16.003.319.038.466.102.045.015.086.04.12.074a.312.312 0 01.073.12c.034.106.05.217.046.328l.295 11.215h.023l4.965-11.203c.048-.123.113-.238.193-.342a.689.689 0 01.307-.206c.16-.06.329-.093.5-.101.212-.016.493-.023.841-.023s.625.007.829.023c.16.004.319.039.467.101a.346.346 0 01.204.205c.035.118.054.24.057.363l.57 11.181h.023l4.828-11.34a.804.804 0 01.149-.26.62.62 0 01.284-.172c.167-.044.338-.07.511-.078.212-.016.485-.023.818-.023.254-.005.509.01.761.045a.573.573 0 01.387.159.413.413 0 01.034.375 5.766 5.766 0 01-.239.636l-5.952 12.821zM139.452 25.334a2.933 2.933 0 00-.886-.932 1.96 1.96 0 00-1.114-.318 1.744 1.744 0 00-.875.228 2.445 2.445 0 00-.704.614 4.292 4.292 0 00-.545.875 7.78 7.78 0 00-.387 1.045 8.809 8.809 0 00-.228 1.09 7.965 7.965 0 00-.068 1.013c-.001.216.014.432.045.647.033.192.098.376.193.546a.983.983 0 00.944.523c.362-.008.716-.11 1.026-.296.367-.22.696-.496.978-.818a6.01 6.01 0 001.306-2.682l.315-1.535zm1.409 7.113c-.031.16-.151.272-.364.342a3.455 3.455 0 01-.999.103c-.235 0-.429-.008-.58-.023a1.739 1.739 0 01-.352-.069.354.354 0 01-.182-.135.41.41 0 01-.011-.217l.317-1.625a3.103 3.103 0 01-.545.773 4.771 4.771 0 01-.885.728c-.358.226-.741.41-1.141.545a3.82 3.82 0 01-1.274.216c-.608 0-1.112-.107-1.51-.319a2.63 2.63 0 01-.966-.852 3.705 3.705 0 01-.523-1.238c-.1-.478-.15-.966-.148-1.454a9.678 9.678 0 01.137-1.558c.092-.575.233-1.141.419-1.693.19-.56.434-1.1.728-1.613.286-.51.641-.976 1.057-1.386a4.85 4.85 0 011.42-.954 4.371 4.371 0 011.819-.364 3.43 3.43 0 011.67.397c.506.278.941.668 1.272 1.14l.182-.896c.03-.16.148-.273.352-.342.33-.082.671-.117 1.011-.103.191-.002.381.01.57.034.121.008.24.035.353.08a.29.29 0 01.182.136c.031.06.039.129.022.194l-2.031 10.153zM146.537 32.435a.393.393 0 01-.114.206.645.645 0 01-.25.136 1.976 1.976 0 01-.456.08 7.135 7.135 0 01-1.397 0 1.544 1.544 0 01-.409-.08.443.443 0 01-.204-.136.31.31 0 01-.023-.206l2.988-14.945a.433.433 0 01.103-.205.555.555 0 01.261-.148c.148-.051.301-.086.456-.102a6.03 6.03 0 01.705-.035c.229-.003.458.009.685.035.145.013.286.048.421.102.08.024.149.077.193.148.03.064.038.136.023.205l-2.982 14.945zM152.01 32.436a.393.393 0 01-.114.205.634.634 0 01-.249.136 1.989 1.989 0 01-.457.08c-.23.025-.462.036-.693.034a5.854 5.854 0 01-.704-.034 1.548 1.548 0 01-.41-.08.437.437 0 01-.204-.136.31.31 0 01-.023-.205l2.988-14.946a.444.444 0 01.103-.205.56.56 0 01.261-.148c.148-.051.301-.086.456-.102a6.04 6.04 0 01.705-.035c.229-.003.458.009.685.035.145.013.286.047.421.102.08.024.149.076.193.148.03.063.038.136.022.205l-2.98 14.946zM70.05 32.435a.39.39 0 01-.114.206.633.633 0 01-.25.136 1.964 1.964 0 01-.456.08c-.23.025-.462.036-.694.034a5.848 5.848 0 01-.704-.035 1.56 1.56 0 01-.41-.08.44.44 0 01-.203-.135.318.318 0 01-.023-.206l2.989-14.945a.441.441 0 01.102-.205.57.57 0 01.26-.148c.148-.052.302-.086.457-.102.234-.026.469-.037.704-.035.229-.003.457.009.684.035.145.013.286.048.42.102.08.024.15.076.193.148.032.063.04.136.023.205L70.05 32.435zM81.104 25.335a2.94 2.94 0 00-.886-.933 1.96 1.96 0 00-1.114-.318 1.742 1.742 0 00-.875.228c-.272.158-.51.366-.704.614-.216.269-.4.563-.545.875a7.805 7.805 0 00-.387 1.045c-.1.359-.175.723-.228 1.091a8.194 8.194 0 00-.068 1.012c-.001.216.014.433.045.647.033.192.098.377.193.546a.98.98 0 00.944.523c.362-.007.716-.11 1.026-.296a4.13 4.13 0 00.978-.818 6.022 6.022 0 001.306-2.682l.315-1.534zm1.41 7.112c-.031.16-.152.273-.365.342a3.458 3.458 0 01-.999.103c-.235 0-.429-.008-.58-.023a1.734 1.734 0 01-.352-.068.353.353 0 01-.181-.136.399.399 0 01-.012-.217l.318-1.625a3.153 3.153 0 01-.546.773 4.75 4.75 0 01-.885.728 5.29 5.29 0 01-1.141.545 3.818 3.818 0 01-1.266.215c-.608 0-1.112-.107-1.51-.319-.388-.2-.72-.492-.967-.852a3.716 3.716 0 01-.522-1.238c-.1-.478-.15-.966-.148-1.454.004-.522.05-1.043.137-1.558.092-.575.233-1.141.42-1.693.19-.56.433-1.1.727-1.613.286-.51.642-.976 1.057-1.386.413-.4.894-.723 1.42-.954a4.37 4.37 0 011.819-.364 3.43 3.43 0 011.67.397c.506.278.941.668 1.272 1.14l.182-.896c.03-.16.148-.273.352-.342.33-.082.67-.117 1.01-.103a3.9 3.9 0 01.571.035c.121.007.24.034.353.08a.292.292 0 01.182.135c.031.06.04.129.022.194l-2.039 10.154zM93.858 22.744a2.83 2.83 0 01-.045.41c-.025.18-.063.358-.115.533a2.33 2.33 0 01-.192.477c-.069.13-.147.193-.239.193a.831.831 0 01-.352-.102 4.492 4.492 0 00-.477-.24c-.216-.099-.44-.179-.671-.238a3.434 3.434 0 00-.886-.101 2.36 2.36 0 00-.716.101c-.188.06-.362.156-.51.284a1.185 1.185 0 00-.32.41 1.279 1.279 0 00-.102.511.74.74 0 00.284.591c.226.178.47.33.728.456.287.137.598.282.931.433.333.15.646.343.932.57a2.9 2.9 0 01.715.83c.202.376.3.8.285 1.226a3.9 3.9 0 01-.329 1.598 3.537 3.537 0 01-.966 1.255 4.584 4.584 0 01-1.534.84 6.482 6.482 0 01-2.034.296c-.35.001-.7-.026-1.045-.08a7.713 7.713 0 01-.886-.193 3.392 3.392 0 01-.66-.261 2.069 2.069 0 01-.408-.273.646.646 0 01-.137-.193.846.846 0 01-.034-.26c0-.07 0-.157.01-.263.012-.106.035-.228.058-.352.023-.123.06-.258.091-.386.035-.12.076-.238.125-.353a.932.932 0 01.148-.25.217.217 0 01.17-.101.626.626 0 01.352.135c.162.111.328.214.5.307.242.122.492.225.75.307.366.1.745.145 1.125.136.272.005.544-.029.806-.102.212-.063.409-.167.58-.306.144-.12.257-.272.33-.444.076-.168.115-.35.114-.534a.822.822 0 00-.284-.647 3.202 3.202 0 00-.694-.467c-.28-.143-.587-.291-.92-.442a4.667 4.667 0 01-.913-.557 2.852 2.852 0 01-.706-.818 2.5 2.5 0 01-.272-1.228c-.004-.516.1-1.026.307-1.499a3.4 3.4 0 01.898-1.205 4.122 4.122 0 011.431-.806 5.728 5.728 0 011.909-.296c.308 0 .616.022.92.069.273.031.543.084.807.158.215.059.424.135.626.228.144.06.275.148.386.258a.506.506 0 01.13.385zM103.27 22.744a2.814 2.814 0 01-.044.41c-.024.18-.063.358-.114.533a2.402 2.402 0 01-.193.477c-.069.13-.149.193-.239.193a.821.821 0 01-.352-.102 4.541 4.541 0 00-.477-.24c-.216-.099-.44-.179-.671-.238a3.435 3.435 0 00-.886-.101 2.36 2.36 0 00-.716.101 1.443 1.443 0 00-.51.284 1.185 1.185 0 00-.32.41 1.28 1.28 0 00-.102.511.744.744 0 00.284.591c.226.178.47.33.727.456.289.137.6.282.932.433.333.151.646.343.932.57.289.229.532.51.716.83.201.376.299.8.284 1.226a3.885 3.885 0 01-.33 1.598 3.54 3.54 0 01-.965 1.255 4.592 4.592 0 01-1.535.84 6.472 6.472 0 01-2.033.296c-.35.001-.7-.026-1.046-.08a7.845 7.845 0 01-.886-.193 3.402 3.402 0 01-.659-.261 2.083 2.083 0 01-.41-.273.642.642 0 01-.135-.193.843.843 0 01-.034-.26c0-.07 0-.157.011-.263.011-.106.034-.228.057-.352.023-.123.06-.258.09-.386a3.29 3.29 0 01.126-.353.96.96 0 01.147-.25.221.221 0 01.171-.101.62.62 0 01.351.135c.162.111.329.214.501.307.242.122.492.225.75.307.366.1.745.145 1.125.136.272.005.544-.029.806-.102a1.69 1.69 0 00.58-.306c.144-.12.257-.272.33-.444a1.28 1.28 0 00.114-.534.822.822 0 00-.284-.647 3.168 3.168 0 00-.693-.467c-.28-.143-.588-.291-.92-.442a4.713 4.713 0 01-.913-.557 2.863 2.863 0 01-.704-.818 2.5 2.5 0 01-.273-1.228c-.004-.516.1-1.026.307-1.499.205-.464.512-.875.898-1.205a4.121 4.121 0 011.432-.806 5.727 5.727 0 011.908-.296c.308 0 .616.022.92.069.273.031.543.084.808.158.214.059.423.135.624.228.144.058.275.143.387.25a.516.516 0 01.105.183c.021.068.029.14.021.21zM110.754 26.448c-.002.084-.01.167-.022.25-.01.126-.029.251-.057.374-.03.137-.068.278-.115.421a3.01 3.01 0 01-.159.387 1.01 1.01 0 01-.216.296.41.41 0 01-.284.114h-4.727a.357.357 0 01-.295-.114.795.795 0 01-.08-.41c0-.06 0-.147.011-.261a3.64 3.64 0 01.046-.376c.031-.138.069-.274.114-.408.041-.134.094-.263.159-.387a.853.853 0 01.215-.284.458.458 0 01.296-.102h4.726a.311.311 0 01.296.136c.068.109.1.236.092.364z" fill="currentColor"/></svg>