<?xml version="1.0" encoding="utf-8"?><svg width="20" height="18" fill="none" xmlns="http://www.w3.org/2000/svg" viewBox="0 0 20 18"><path fill-rule="evenodd" clip-rule="evenodd" d="M17.6 6.353c.15.15.15.394 0 .544l-7.575 7.561c-1.652 1.65-4.27 1.709-5.922.06l-.577-.575a4.216 4.216 0 010-5.97l5.761-5.75c.08-.08.155-.159.242-.228v-.001c.008-.009.02-.011.03-.02.455-.455.472-1.177.016-1.632a1.17 1.17 0 00-1.652 0c-.01.008-.012.02-.02.03L7.89.36 1.919 6.32a6.532 6.532 0 000 9.25l.546.544c2.559 2.554 6.648 2.494 9.207-.06l7.538-7.523a2.69 2.69 0 000-3.808l-3.227-3.214a2.7 2.7 0 00-3.814 0L4.612 9.052a2.688 2.688 0 000 3.807l.52.52a2.7 2.7 0 003.815 0l5.812-5.802c.048-.035.087-.07.13-.114.456-.455.473-1.177.017-1.632a1.17 1.17 0 00-1.653 0c-.013.013-.017.03-.028.043l-5.908 5.897a.382.382 0 01-.54 0l-.546-.544a.381.381 0 010-.54l7.655-7.639a.376.376 0 01.295-.107l3.42 3.412z" fill="currentColor"/></svg>