<?xml version="1.0" encoding="utf-8"?><svg width="108" height="117" fill="none" xmlns="http://www.w3.org/2000/svg" viewBox="0 0 108 117"><path d="M0 0h108v117H0V0z" fill="#AF9368"/><path d="M57.688 15.36V31h-2.674V15.36h2.674zm4.91 0v2.148h-12.45v-2.149h12.45zM46.162 26.972a2.3 2.3 0 00-.15-.86 1.678 1.678 0 00-.505-.687c-.244-.208-.587-.408-1.031-.602-.437-.2-.996-.404-1.676-.612a18.562 18.562 0 01-2.063-.763 7.847 7.847 0 01-1.633-.988 4.228 4.228 0 01-1.084-1.3c-.258-.494-.387-1.063-.387-1.708 0-.637.132-1.217.397-1.74a4.06 4.06 0 011.15-1.354 5.5 5.5 0 011.772-.891 7.466 7.466 0 012.256-.322c1.16 0 2.16.214 2.997.644.845.43 1.493 1.006 1.944 1.73.459.723.688 1.521.688 2.395h-2.675c0-.516-.11-.97-.333-1.364a2.258 2.258 0 00-.988-.945c-.437-.23-.992-.344-1.665-.344-.638 0-1.168.096-1.59.29-.423.193-.738.455-.945.784a2.05 2.05 0 00-.312 1.117c0 .294.068.562.204.806.136.236.344.458.623.666.28.2.63.39 1.053.57.422.178.92.35 1.493.515.867.258 1.622.544 2.267.86.644.307 1.181.658 1.611 1.052.43.394.752.841.967 1.343.215.494.322 1.056.322 1.686 0 .659-.132 1.253-.397 1.783-.265.523-.645.97-1.139 1.343-.487.365-1.074.648-1.762.849-.68.193-1.44.29-2.277.29-.752 0-1.493-.1-2.224-.3A6.56 6.56 0 0139.094 30a4.718 4.718 0 01-1.418-1.547c-.351-.623-.527-1.35-.527-2.18h2.697c0 .508.086.941.258 1.3.179.357.426.65.74.88.316.222.681.387 1.096.494.423.108.874.161 1.354.161.63 0 1.157-.09 1.579-.268.43-.18.752-.43.967-.752.215-.322.322-.695.322-1.117zM35.731 28.862V31h-8.303v-2.138h8.303zm-7.54-13.503V31h-2.697V15.36h2.696zm6.456 6.532v2.105h-7.22v-2.105h7.22zm1.03-6.532v2.149h-8.25v-2.149h8.25zM17.459 23.932h-3.985l-.022-1.966h3.48c.588 0 1.086-.086 1.494-.258.415-.179.73-.433.945-.763.215-.336.322-.74.322-1.214 0-.522-.1-.948-.3-1.278-.2-.33-.509-.57-.924-.72-.409-.15-.931-.225-1.569-.225h-2.61V31h-2.696V15.36H16.9c.86 0 1.626.082 2.3.246.68.165 1.256.423 1.729.774.48.344.841.78 1.085 1.31.25.53.376 1.16.376 1.891a3.5 3.5 0 01-.462 1.773c-.308.53-.763.963-1.364 1.3-.602.336-1.35.536-2.246.6l-.859.678zM17.341 31h-4.716l1.214-2.138h3.502c.608 0 1.117-.1 1.525-.3.408-.208.713-.491.913-.85.208-.364.312-.79.312-1.277 0-.509-.09-.95-.269-1.322a1.85 1.85 0 00-.848-.87c-.387-.207-.892-.311-1.515-.311h-3.03l.022-1.966h3.943l.612.741c.86.029 1.565.218 2.116.57.559.35.974.805 1.246 1.364.272.558.408 1.16.408 1.804 0 .996-.218 1.83-.655 2.503-.43.673-1.05 1.186-1.858 1.536-.81.344-1.784.516-2.922.516zM81.834 51.862V54H73.53v-2.138h8.304zM74.293 38.36V54h-2.696V38.36h2.696zm6.456 6.532v2.105H73.53v-2.105h7.219zm1.031-6.532v2.149h-8.25v-2.149h8.25zM66.462 48.908h2.685c-.086 1.024-.372 1.937-.859 2.74-.487.794-1.17 1.421-2.052 1.88-.88.458-1.951.687-3.212.687-.966 0-1.837-.172-2.61-.516a5.721 5.721 0 01-1.987-1.482c-.552-.645-.974-1.422-1.268-2.331-.286-.91-.43-1.927-.43-3.051v-1.3c0-1.124.147-2.141.44-3.05.302-.91.731-1.687 1.29-2.332a5.572 5.572 0 012.009-1.493c.787-.344 1.672-.515 2.653-.515 1.246 0 2.299.229 3.158.687a4.966 4.966 0 011.998 1.901c.48.81.774 1.737.881 2.783h-2.685c-.072-.674-.23-1.25-.473-1.73a2.436 2.436 0 00-1.053-1.096c-.465-.257-1.074-.386-1.826-.386-.616 0-1.153.114-1.611.343a3.04 3.04 0 00-1.15 1.01c-.308.444-.54.992-.698 1.644-.15.644-.225 1.382-.225 2.213v1.321c0 .788.068 1.504.204 2.148.143.638.358 1.186.644 1.644.294.458.666.813 1.117 1.063.451.251.992.376 1.622.376.767 0 1.386-.121 1.859-.365.48-.243.841-.598 1.085-1.063.25-.473.415-1.05.494-1.73zM53.872 38.36V54h-2.696V38.36h2.696zM41.572 38.36V54h-2.696V38.36h2.696zm6.381 6.842v2.138h-7.068v-2.138h7.068zm.892-6.843v2.149h-7.96v-2.149h7.96zM29.455 38.36V54H26.76V38.36h2.696zm6.38 6.842v2.138h-7.067v-2.138h7.068zm.892-6.843v2.149h-7.96v-2.149h7.96zM24.063 45.75v.86c0 1.181-.154 2.24-.462 3.18-.308.937-.749 1.736-1.322 2.395a5.683 5.683 0 01-2.04 1.514c-.796.344-1.677.516-2.643.516-.96 0-1.837-.172-2.632-.516a5.912 5.912 0 01-2.052-1.514c-.58-.66-1.031-1.458-1.353-2.396-.316-.938-.473-1.998-.473-3.18v-.859c0-1.182.157-2.238.473-3.169.315-.938.759-1.737 1.332-2.396a5.737 5.737 0 012.051-1.514c.795-.351 1.673-.526 2.632-.526.967 0 1.848.175 2.643.526a5.617 5.617 0 012.052 1.514c.573.66 1.013 1.458 1.32 2.396.316.931.474 1.987.474 3.169zm-2.697.86v-.882c0-.873-.086-1.643-.258-2.31-.164-.672-.411-1.234-.74-1.686a3.099 3.099 0 00-1.193-1.03 3.53 3.53 0 00-1.6-.355c-.595 0-1.125.118-1.59.354-.466.23-.864.573-1.193 1.031-.322.452-.57 1.014-.741 1.687-.172.666-.258 1.436-.258 2.31v.88c0 .874.086 1.648.258 2.32.172.674.422 1.243.752 1.709.336.458.737.805 1.203 1.042.465.229.995.343 1.59.343.601 0 1.135-.114 1.6-.343.466-.237.86-.584 1.182-1.042.322-.466.566-1.035.73-1.708.172-.673.258-1.447.258-2.32zM95.242 73.154c0-.43-.071-.813-.215-1.15a2.335 2.335 0 00-.709-.901c-.322-.273-.759-.523-1.31-.752a16.251 16.251 0 00-2.041-.699 18.623 18.623 0 01-2.116-.73 7.398 7.398 0 01-1.623-.913 3.61 3.61 0 01-1.02-1.203c-.236-.466-.355-1.007-.355-1.622a3.5 3.5 0 01.387-1.644 3.85 3.85 0 011.085-1.278 5.254 5.254 0 011.665-.827 7.338 7.338 0 012.116-.29c1.096 0 2.041.207 2.836.623.803.415 1.422.977 1.859 1.686.444.702.666 1.49.666 2.363h-1.322c0-.68-.16-1.285-.483-1.815-.315-.537-.773-.956-1.375-1.257-.594-.308-1.321-.462-2.18-.462-.86 0-1.583.133-2.17.398-.58.258-1.021.605-1.322 1.042-.293.43-.44.91-.44 1.44 0 .371.071.715.215 1.03.143.308.376.598.698.87.33.266.763.516 1.3.752.537.23 1.2.448 1.987.656.83.229 1.568.483 2.213.762.644.28 1.189.602 1.633.967a3.6 3.6 0 011.01 1.257c.229.48.343 1.038.343 1.676 0 .637-.136 1.21-.408 1.719-.265.5-.64.927-1.128 1.278-.48.35-1.05.62-1.708.806a7.76 7.76 0 01-2.138.279c-.694 0-1.385-.09-2.073-.269a6.403 6.403 0 01-1.89-.827 4.369 4.369 0 01-1.365-1.46c-.336-.595-.505-1.304-.505-2.128h1.31c0 .66.133 1.214.398 1.665.265.451.616.817 1.053 1.096.444.28.931.483 1.461.612a7.271 7.271 0 001.611.183c.824 0 1.537-.122 2.138-.365.609-.244 1.078-.584 1.407-1.02a2.49 2.49 0 00.505-1.548zM76.25 77h-3.545l.022-1.128h3.523c1.124 0 2.091-.25 2.9-.752a5.084 5.084 0 001.891-2.105c.444-.895.666-1.934.666-3.116v-1.46c0-.903-.129-1.72-.387-2.45a5.245 5.245 0 00-1.085-1.869 4.768 4.768 0 00-1.697-1.203c-.652-.28-1.382-.419-2.191-.419H72.64v-1.139h3.706c.974 0 1.865.169 2.675.505.816.33 1.521.81 2.116 1.44a6.348 6.348 0 011.385 2.245c.33.873.495 1.847.495 2.922v1.428c0 1.075-.165 2.049-.495 2.922a6.348 6.348 0 01-1.385 2.245A6.19 6.19 0 0179 76.506c-.824.33-1.74.494-2.75.494zm-2.954-15.64V77h-1.321V61.36h1.32zM57.956 61.36h5.081c1.081 0 2.02.175 2.815.526.794.35 1.407.87 1.837 1.557.436.68.655 1.519.655 2.514 0 .738-.158 1.407-.473 2.009a4.346 4.346 0 01-1.278 1.515 4.81 4.81 0 01-1.89.827l-.463.171h-5.425l-.021-1.127h4.544c.816 0 1.497-.158 2.04-.473.545-.315.953-.73 1.225-1.246.28-.523.42-1.082.42-1.676 0-.709-.154-1.321-.462-1.837-.301-.523-.749-.924-1.343-1.203-.595-.28-1.322-.419-2.18-.419h-3.76V77h-1.322V61.36zM67.613 77l-4.05-6.993 1.418-.01 4.04 6.863V77h-1.408zM49.373 62.294L43.959 77h-1.375l5.908-15.64h.956l-.075.934zM54.293 77l-5.425-14.706-.075-.935h.956L55.668 77h-1.375zm-.967-5.522v1.14h-8.303v-1.14h8.303zM28.952 72.864l3.395-11.505h1.063l-.86 3.416L28.93 77h-1.02l1.042-4.136zM25.01 61.36l2.857 11.398.86 4.243h-1.064l-4.007-15.64h1.354zm12.976 11.398l2.815-11.398h1.353L38.158 77h-1.063l.891-4.243zm-4.458-11.398l3.352 11.505L37.91 77h-1.02l-3.545-12.225-.87-3.416h1.052zM17.125 62.294L11.711 77h-1.375l5.908-15.64h.956l-.075.934zM22.045 77L16.62 62.294l-.075-.935h.956L23.42 77h-1.375zm-.967-5.522v1.14h-8.304v-1.14h8.304zM55.484 84.241h.183v1.128h-.183c-.988 0-1.869.161-2.642.484a5.224 5.224 0 00-1.944 1.396c-.523.602-.92 1.332-1.193 2.191-.272.86-.408 1.823-.408 2.89v2.16c0 .723.097 1.37.29 1.944.193.565.462 1.049.806 1.45.343.4.744.705 1.203.913.458.208.952.311 1.482.311.523 0 .992-.107 1.407-.322a3.03 3.03 0 001.053-.902c.294-.387.516-.83.666-1.332a5.487 5.487 0 00.236-1.633c0-.551-.071-1.07-.214-1.558a3.846 3.846 0 00-.634-1.31 3.017 3.017 0 00-1.074-.892c-.43-.215-.935-.322-1.515-.322-.659 0-1.275.15-1.848.451a4.03 4.03 0 00-1.407 1.203 2.96 2.96 0 00-.57 1.644l-.74-.011a5.02 5.02 0 01.461-1.815 4.328 4.328 0 011.02-1.386c.43-.387.921-.68 1.473-.881a5.137 5.137 0 011.804-.311c.752 0 1.407.136 1.966.408a3.883 3.883 0 011.407 1.128c.38.472.663 1.02.849 1.643a6.49 6.49 0 01.29 1.955c0 .752-.107 1.454-.322 2.106a4.995 4.995 0 01-.924 1.697A4.209 4.209 0 0155 99.807c-.566.272-1.207.408-1.923.408-.788 0-1.493-.151-2.116-.451a4.772 4.772 0 01-1.6-1.246 5.813 5.813 0 01-1.01-1.827 7.053 7.053 0 01-.344-2.223v-1.375c0-1.332.154-2.539.462-3.62.308-1.089.77-2.023 1.386-2.804a6.132 6.132 0 012.33-1.794c.939-.422 2.038-.634 3.298-.634zM41.863 84.295V100h-1.278V85.917l-4.254 1.58v-1.215l5.317-1.987h.215zM33.108 90.837v2.632c0 1.146-.107 2.145-.322 2.997-.215.845-.53 1.547-.945 2.105-.408.552-.91.963-1.504 1.236-.587.272-1.26.408-2.02.408a5.07 5.07 0 01-1.654-.258 3.899 3.899 0 01-1.343-.784 4.704 4.704 0 01-.988-1.343c-.272-.537-.48-1.167-.623-1.89a12.906 12.906 0 01-.215-2.471v-2.632c0-1.153.108-2.148.322-2.986.222-.838.538-1.533.946-2.084.415-.552.92-.96 1.514-1.225.595-.272 1.268-.408 2.02-.408.602 0 1.153.09 1.654.268.509.172.956.43 1.343.774.394.343.723.784.988 1.321.272.53.477 1.157.613 1.88.143.723.214 1.543.214 2.46zm-1.278 2.782v-2.943c0-.71-.05-1.354-.15-1.934a6.536 6.536 0 00-.42-1.525 3.53 3.53 0 00-.708-1.096 2.627 2.627 0 00-.988-.655 3.361 3.361 0 00-1.268-.226c-.58 0-1.092.118-1.536.355-.437.229-.802.573-1.096 1.031-.294.451-.516 1.017-.666 1.697-.143.68-.215 1.465-.215 2.353v2.943c0 .702.047 1.343.14 1.923.093.573.236 1.081.43 1.525.193.444.43.82.708 1.128.287.301.616.53.989.688.38.15.802.225 1.267.225.595 0 1.11-.118 1.547-.354a3.048 3.048 0 001.096-1.064c.294-.472.512-1.049.655-1.73.144-.687.215-1.467.215-2.34zM21.27 98.894V100h-9.786v-.999l5.124-5.812a22.078 22.078 0 001.526-1.9c.38-.552.651-1.054.816-1.505.172-.458.258-.902.258-1.332 0-.63-.125-1.185-.376-1.665a2.64 2.64 0 00-1.096-1.128c-.487-.272-1.088-.408-1.804-.408s-1.34.154-1.87.462c-.53.308-.938.738-1.224 1.289-.28.544-.42 1.164-.42 1.858h-1.277c0-.859.19-1.647.569-2.363a4.356 4.356 0 011.654-1.708c.716-.43 1.572-.645 2.568-.645.945 0 1.758.169 2.438.505.68.33 1.203.806 1.569 1.43.372.622.558 1.374.558 2.255 0 .473-.086.949-.258 1.429-.165.48-.394.96-.687 1.44-.287.472-.616.94-.988 1.406-.366.466-.749.924-1.15 1.375l-4.361 4.91h8.217z" fill="#fff"/></svg>