<?xml version="1.0" encoding="utf-8"?><svg width="160" height="40" fill="none" xmlns="http://www.w3.org/2000/svg" viewBox="0 0 160 40"><path d="M0 19.762C0 9.4 8.4 1 18.762 1s18.762 8.4 18.762 18.762-8.4 18.762-18.762 18.762S0 30.124 0 19.762z" fill="#717A90"/><path d="M.992 19.762C.992 9.947 8.947 1.99 18.764 1.99c9.815 0 17.77 7.957 17.77 17.772 0 9.815-7.955 17.772-17.77 17.772-9.817 0-17.772-7.957-17.772-17.772z" fill="#171C28"/><path d="M2.25 19.762c0-9.12 7.393-16.515 16.513-16.515 9.122 0 16.515 7.395 16.515 16.515 0 9.12-7.393 16.513-16.515 16.513-9.12 0-16.513-7.393-16.513-16.513z" fill="#717A90"/><path d="M10.698 22.964c-1.19 1.28-1.339 2.723-1.025 4.732 0 .045.089.193.089.193s-.09-.09-.223-.148c-1.236-.73-2.113-2.098-2.144-3.498-.015-.997.269-1.918.952-2.544.104-.089.268-.163.268-.163l-.238.059c-2.054.507-3.273-.698-4.33-1.65-.12-.106-.208-.134-.297-.18.089-.015.178-.045.297-.18 1.057-.936 2.276-2.156 4.33-1.65.12.03.238.075.238.075s-.164-.09-.268-.178c-.683-.626-.967-1.549-.952-2.53.03-1.414.908-2.753 2.144-3.512.134-.06.223-.15.223-.15s-.09.15-.09.194c-.313 2.009-.164 3.467 1.026 4.761 1.786 1.89 5.446 1.146 6.28 1.459-.43-.595.595-4.478-1.384-6.354-1.296-1.175-2.752-1.338-4.761-1.026-.046 0-.195.089-.195.089s.09-.089.15-.223c.758-1.235 2.099-2.113 3.51-2.143.984-.014 1.905.268 2.531.953.09.104.178.267.178.267s-.044-.118-.074-.239c-.507-2.052.713-3.257 1.682-4.328a.543.543 0 00.148-.297c.045.089.073.178.18.297.95 1.07 2.156 2.276 1.65 4.328-.03.121-.073.239-.073.239s.087-.163.208-.267c.594-.685 1.519-.967 2.514-.953 1.398.03 2.768.908 3.496 2.143.06.134.15.223.15.223s-.15-.089-.194-.089c-2.009-.312-3.452-.178-4.73 1.026-1.995 1.86-1 5.684-1.416 6.354.774-.356 4.465.461 6.28-1.459 1.206-1.294 1.368-2.752 1.026-4.761 0-.044-.089-.193-.089-.193s.09.089.223.15c1.266.758 2.143 2.097 2.159 3.51 0 .982-.284 1.905-.969 2.531-.104.087-.267.178-.267.178s.133-.045.252-.076c2.07-.505 3.26.715 4.33 1.652.12.134.195.164.284.18-.09.045-.165.073-.284.18-1.07.95-2.26 2.156-4.33 1.649-.119-.03-.252-.059-.252-.059s.163.074.267.163c.685.626.969 1.547.969 2.544-.015 1.4-.893 2.768-2.159 3.498-.134.059-.223.148-.223.148s.09-.148.09-.193c.341-2.01.179-3.453-1.026-4.732-1.786-1.95-5.492-1.146-6.28-1.473.46.596-.595 4.48 1.414 6.339 1.279 1.19 2.722 1.37 4.731 1.027.044 0 .193-.089.193-.089s-.089.089-.149.223c-.728 1.264-2.098 2.113-3.496 2.157-.995 0-1.92-.282-2.514-.967a1.076 1.076 0 01-.208-.268s.043.119.074.253c.505 2.068-.7 3.258-1.652 4.33-.106.12-.134.208-.18.282a.561.561 0 00-.147-.282c-.968-1.072-2.189-2.262-1.682-4.33.03-.134.074-.253.074-.253s-.089.164-.178.268c-.626.685-1.547.967-2.53.967-1.412-.044-2.753-.893-3.512-2.157-.059-.134-.15-.223-.15-.223s.15.089.195.089c2.01.342 3.466.163 4.762-1.027 1.979-1.86.953-5.728 1.385-6.34-.835.328-4.495-.446-6.28 1.474z" fill="#171C28"/><path d="M52.923 4.958c-.804 0-2.445.084-3.86.084-1.34.045-3.063.042-3.063.042v.503h.84c.996 0 1.216.277 1.216 1.72v11.79c0 1.073-.285 1.721-1.343 1.721h-.63v.504h6.337v-.504h-.756c-.892 0-1.468-.617-1.468-1.762v-4.951c.565.178 1.146.335 2.56.335 2.825 0 5.034-2.294 5.034-5.076 0-2.337-1.757-4.406-4.867-4.406zm-.713.755c2.47 0 3.189 1.877 3.189 3.944 0 2.47-1.348 3.976-3.357 3.902-.787-.015-1.445-.221-1.846-.503V5.923c.283-.104 1.329-.21 2.014-.21zM140.406 8.4c-3.364 0-5.958 2.695-5.958 6.713 0 4.092 2.643 6.671 5.916 6.671 3.437 0 5.916-2.818 5.916-6.671 0-4.315-2.853-6.713-5.874-6.713zm-23.119.167c-3.63-.03-6.584 2.144-6.42 6.756.089 3.736 2.315 6.17 5.958 6.377 2.709.163 4.087-.604 5.203-1.259v-3.692c0-.938.188-1.3 1.007-1.3h.252v-.504h-5.077v.503h.755c.656 0 1.175.452 1.175 1.301v3.357c-.403.372-1.318.839-2.643.839-2.291 0-4.322-2.064-4.322-5.874 0-3.6 1.519-5.832 4.196-5.832 2.009 0 3.304 1.428 3.944 2.81l.377-.083-.377-3.273h-.462c-.059.49-.231.615-.797.42-.446-.163-1.489-.546-2.769-.546zm-58.406.294v.504h.504c.713 0 1.007.535 1.007 1.384v8.98c0 .758-.183 1.09-1.091 1.09h-.42v.504h5.287v-.504h-.42c-.713 0-1.133-.203-1.133-1.259v-8.937c0-.908.2-1.258 1.05-1.258h.503V8.86H58.88zm7.3 0v.504h.504c.73 0 1.007.41 1.007 1.258v8.937c0 .803-.156 1.26-1.049 1.26h-.461v.503h8.895l.965-3.399-.42-.084c-.788 2.007-1.695 2.644-3.272 2.644h-1.888c-.52 0-.504-.373-.504-.924v-8.937c0-.908.188-1.258 1.007-1.258h.504V8.86h-5.287zm10.28 0v.504h.504c.893 0 .965.246.965 1.258v8.937c0 1.012-.198 1.26-1.09 1.26h-.379v.503h5.245v-.504h-.377c-.67 0-1.26-.158-1.26-1.259v-4.615s3.906 4.365 4.323 4.825c.522.58.307 1.05-.378 1.05h-.42v.503h5.455v-.546h-.336c-.64 0-1.383-.681-1.888-1.217l-4.993-5.412c1.623-1.591 3.26-3.119 3.944-3.818.594-.594 1.05-.965 1.72-.965h.546V8.86h-4.28v.504h.462c.58 0 .643.355.42.713-.417.64-2.416 2.72-4.574 4.49v-3.945c0-.743.106-1.258 1.133-1.258h.503V8.86h-5.245zm13.343 0v.504h.504c.743 0 1.007.535 1.007 1.384v8.98c0 .758-.156 1.09-1.05 1.09h-.46v.504h5.286v-.504h-.42c-.671 0-1.09-.203-1.09-1.259v-8.937c0-.908.187-1.258 1.006-1.258h.504V8.86h-5.287zm7.007 0v.504c.388.015 1.057.078 1.846 1.3v8.937c0 .967-.292 1.217-1.258 1.217h-.42v.504h4.531v-.504h-.503c-.967 0-1.259-.307-1.259-1.259v-7.762l8.434 10.07v-11.16c0-1.236.319-1.385 1.049-1.385h.461V8.86h-4.195v.462h.377c1.101 0 1.301.344 1.301 1.342v6.672L99.958 8.86h-3.147zm26.644 0l-.126 3.063h.419c.148-1.146.339-2.224 2.14-2.224h1.595v9.902c0 .79-.21 1.217-1.133 1.217h-.462v.504h5.287v-.504h-.42c-.685 0-1.091-.173-1.091-1.259V9.7h1.679c1.101 0 1.958.408 2.181 2.224h.378l-.084-3.063h-10.363zm23.664 0v.504c.401.015 1.047.078 1.804 1.3v8.937c0 .967-.252 1.217-1.217 1.217h-.461v.504h4.573v-.504h-.503c-.982 0-1.259-.307-1.259-1.259v-7.762l8.434 10.07v-11.16c0-1.236.333-1.385 1.048-1.385H160V8.86h-4.196v.462h.378c1.101 0 1.301.344 1.301 1.342v6.672l-7.217-8.476h-3.147zm-6.713.336c2.097 0 3.482 1.987 3.482 5.916 0 3.675-1.515 5.916-3.524 5.916-2.128 0-3.483-2.063-3.483-5.916 0-3.72 1.323-5.916 3.525-5.916zM53.678 27.867c-.993 0-2.056.554-2.056 1.678 0 1.03.821 1.338 1.637 1.553.809.215 1.636.33 1.636.923 0 .562-.668.671-1.09.671-.647 0-1.218-.275-1.218-1.007h-1.174c-.015 1.355 1.134 1.972 2.35 1.972 1.493 0 2.307-.752 2.307-1.762 0-1.245-1.235-1.537-1.636-1.636-1.378-.356-1.637-.373-1.637-.797 0-.462.455-.63.84-.63.578 0 1.01.178 1.048.84h1.175c0-1.271-1.035-1.805-2.182-1.805zm5.58 0c-1.701 0-2.685 1.306-2.685 2.937 0 1.586.984 2.853 2.686 2.853.532 0 1.087-.21 1.51-.755l.126.587h.755v-2.937h-2.307v.881h1.216c-.07.763-.515 1.175-1.3 1.175-1.086 0-1.469-.89-1.469-1.804 0-.961.383-1.888 1.469-1.888.569 0 1.035.314 1.175.923h1.132c-.13-1.248-1.183-1.972-2.307-1.972zm8.14 0c-1.701 0-2.727 1.306-2.727 2.937 0 1.586 1.026 2.853 2.728 2.853.53 0 1.087-.21 1.51-.755l.126.587h.755v-2.937h-2.308v.881H68.7c-.07.763-.515 1.175-1.3 1.175-1.086 0-1.51-.89-1.51-1.804 0-.961.424-1.888 1.51-1.888.569 0 .993.314 1.132.923h1.175c-.132-1.248-1.183-1.972-2.307-1.972zm40.364 0c-1.7 0-2.685 1.306-2.685 2.937 0 1.586.985 2.853 2.685 2.853.532 0 1.088-.21 1.511-.755l.126.587h.797v-2.937h-2.308v.881h1.217c-.069.763-.557 1.175-1.343 1.175-1.086 0-1.468-.89-1.468-1.804 0-.961.382-1.888 1.468-1.888.571 0 1.036.314 1.175.923h1.175c-.131-1.248-1.225-1.972-2.35-1.972zm-61.678.126v5.497h1.133v-3.65l2.308 3.65h1.216v-5.497h-1.133v3.692h-.042l-2.265-3.692h-1.217zm43.385 0v5.497h1.216v-2.266h2.266V30.3h-2.266v-1.26h2.644v-1.048h-3.86zm4.321 0v5.497h1.091v-5.497h-1.09zm17.203 0v5.497h1.091v-5.497h-1.091zm16.909 0v5.497h2.685c.994 0 1.93-.479 1.93-1.595 0-.685-.337-1.192-1.007-1.384.477-.23.756-.595.756-1.133 0-1.024-.715-1.385-1.763-1.385h-2.601zm13.72.042v.881h1.091v-.881h-1.091zm-41.119.294v1.216h-.67v.714h.67v2.35c0 .791.591.964 1.259.964.217 0 .445-.011.63-.042v-.88c-.115.021-.22.041-.336.041-.369 0-.462-.092-.462-.461v-1.972h.798v-.714h-.798V28.33h-1.091zm28.616.629h1.133c.431 0 .839.106.839.63 0 .46-.331.67-.755.67h-1.217v-1.3zm-56.224.462c-.53 0-1.057.339-1.259.839h-.042v-.714h-1.007v3.944h1.091v-1.762c0-.701.25-1.3 1.05-1.3.13 0 .32.018.419.041v-1.006a.89.89 0 00-.252-.043zm2.518 0c-1.247 0-2.056.827-2.056 2.097 0 1.262.809 2.098 2.056 2.098 1.255 0 2.056-.836 2.056-2.098 0-1.27-.801-2.098-2.056-2.098zm9.356 0c-.492 0-.955.206-1.217.629v-.504h-1.049v5.371h1.091v-1.888h.042c.262.393.699.587 1.175.587 1.163 0 1.762-.993 1.762-2.056 0-1.13-.557-2.14-1.804-2.14zm12.713 0c-.892 0-1.827.317-1.888 1.342h1.091c.039-.431.3-.587.714-.587.384 0 .713.033.713.503 0 .447-.631.445-1.3.546-.677.092-1.343.315-1.343 1.216 0 .816.589 1.175 1.342 1.175.485 0 .997-.14 1.343-.503a1.6 1.6 0 00.084.377h1.133c-.101-.16-.168-.52-.168-.88v-2.057c0-.953-.927-1.133-1.72-1.133zm17.245 0c-.893 0-1.826.317-1.888 1.342h1.091c.037-.431.341-.587.755-.587.386 0 .672.033.672.503 0 .447-.589.445-1.259.546-.678.092-1.385.315-1.385 1.216 0 .816.63 1.175 1.385 1.175.483 0 .997-.14 1.343-.503.008.13.005.255.042.377h1.132c-.1-.16-.125-.52-.125-.88v-2.057c0-.953-.969-1.133-1.763-1.133zm4.28 0c-.856 0-1.72.285-1.72 1.3 0 .702.627.91 1.258 1.05.786.167 1.259.298 1.259.629 0 .384-.398.503-.713.503-.431 0-.833-.195-.839-.671h-1.049c.045 1.054.923 1.384 1.846 1.384.908 0 1.846-.337 1.846-1.384 0-.739-.621-.987-1.259-1.133-.624-.146-1.258-.195-1.258-.587 0-.325.34-.336.587-.336.393 0 .723.079.755.503h1.049c-.085-.978-.893-1.259-1.762-1.259zm4.154 0c-.854 0-1.72.285-1.72 1.3 0 .702.627.91 1.258 1.05.786.167 1.259.298 1.259.629 0 .384-.398.503-.713.503-.432 0-.831-.195-.839-.671h-1.049c.045 1.054.963 1.384 1.888 1.384.908 0 1.804-.337 1.804-1.384 0-.739-.621-.987-1.259-1.133-.624-.146-1.259-.195-1.259-.587 0-.325.385-.336.63-.336.393 0 .725.079.755.503h1.007c-.086-.978-.893-1.259-1.762-1.259zm16.112 0c-.855 0-1.763.285-1.763 1.3 0 .702.628.91 1.259 1.05.786.167 1.259.298 1.259.629 0 .384-.398.503-.713.503-.432 0-.831-.195-.839-.671h-1.049c.045 1.054.965 1.384 1.888 1.384.909 0 1.804-.337 1.804-1.384 0-.739-.619-.987-1.259-1.133-.623-.146-1.259-.195-1.259-.587 0-.325.385-.336.63-.336.394 0 .725.079.755.503h1.007c-.084-.978-.851-1.259-1.72-1.259zm6.461 0a1.43 1.43 0 00-1.217.67h-.041v-.545h-1.007v3.944h1.09v-2.055c0-.81.247-1.133.84-1.133.508 0 .713.31.713.965v2.224h1.091v-2.434c0-.987-.306-1.637-1.469-1.637zm4.07 0c-1.208 0-2.014.904-2.014 2.097 0 1.232.759 2.098 2.014 2.098.901 0 1.579-.402 1.888-1.342h-.965c-.069.246-.443.503-.881.503-.607 0-.933-.314-.965-1.007h2.853c.077-1.223-.575-2.35-1.93-2.35zm4.28 0c-.854 0-1.72.285-1.72 1.3 0 .702.627.91 1.258 1.05.786.167 1.259.298 1.259.629 0 .384-.398.503-.713.503-.431 0-.833-.195-.839-.671h-1.049c.047 1.054.923 1.384 1.846 1.384.908 0 1.846-.337 1.846-1.384 0-.739-.621-.987-1.259-1.133-.624-.146-1.258-.195-1.258-.587 0-.325.382-.336.629-.336.393 0 .683.079.713.503h1.049c-.085-.978-.891-1.259-1.762-1.259zm4.07 0c-.854 0-1.762.285-1.762 1.3 0 .702.669.91 1.3 1.05.786.167 1.217.298 1.217.629 0 .384-.398.503-.713.503-.432 0-.831-.195-.839-.671h-1.049c.045 1.054.965 1.384 1.888 1.384.908 0 1.804-.337 1.804-1.384 0-.739-.621-.987-1.259-1.133-.624-.146-1.217-.195-1.217-.587 0-.325.341-.336.588-.336.393 0 .723.079.755.503h1.049c-.086-.978-.891-1.259-1.762-1.259zm-80.056.125v2.434c0 .985.305 1.636 1.468 1.636.462 0 .94-.224 1.217-.671v.545h1.05v-3.944H80.74v2.056c0 .808-.245 1.175-.839 1.175-.507 0-.713-.352-.713-1.007v-2.224h-1.091zm54.965 0v2.434c0 .985.305 1.636 1.468 1.636.464 0 .94-.224 1.217-.671v.545h1.049v-3.944h-1.091v2.056c0 .808-.246 1.175-.839 1.175-.508 0-.713-.352-.713-1.007v-2.224h-1.091zm8.559 0v3.944h1.091v-3.944h-1.091zm-66.21.714c.747 0 .966.62.966 1.258 0 .631-.219 1.26-.965 1.26-.739 0-.965-.629-.965-1.26 0-.637.226-1.258.965-1.258zm9.105 0c.702 0 .966.627.966 1.258 0 .647-.25 1.26-.966 1.26-.708 0-.965-.613-.965-1.26 0-.646.25-1.258.965-1.258zm65.287 0c.531 0 .739.285.839.839h-1.762c.017-.307.23-.84.923-.84zm-20.685.797h1.343c.516 0 .839.235.839.797 0 .57-.405.713-.881.713h-1.301v-1.51zm-31.007.503v.42c0 .238-.027.923-.881.923-.353 0-.672-.096-.672-.503 0-.4.333-.519.672-.588.339-.062.696-.089.88-.252zm17.245 0v.42c0 .238-.027.923-.881.923-.353 0-.672-.096-.672-.503 0-.4.333-.519.672-.588.337-.062.696-.089.881-.252z" fill="#717A90"/></svg>