<?xml version="1.0" encoding="utf-8"?><svg width="169" height="40" fill="none" xmlns="http://www.w3.org/2000/svg" viewBox="0 0 169 40"><path d="M52.656 20.262c-.589 0-1.01.113-7.85.113-6.702 0-6.169-.057-6.842-.057-.449 0-.533.113-.533.253v.532c0 .169.084.309.533.309l.533-.028c1.85 0 1.962.336 1.962 1.598v4.206c0 1.794-.588 2.916-2.159 3.28-2.467.561-4.486.841-8.355.841-5.075 0-7.823-.672-11.328-2.355-4.037-1.934-6.589-5.636-6.589-9.73 0-3.14 2.356-6.28 5.776-8.186a18.033 18.033 0 015.832-2.16c.898-.168 1.795-.308 2.748-.364 2.636-.224 6.785-.196 10.851 1.262 1.738.617 3.252 1.738 4.01 2.523l.14.337-5.075 1.037v-.028l-6.786 1.374c-.056-.252-.224-.364-.14-.476v-.028c.168-.169.112 0 .337.084.112.028.196-.14.308-.28.056-.085.112.083.168-.057a3.04 3.04 0 00.225-.533c.112-.336-.084-.616-.337-.813a.637.637 0 00-.7 0c-.253.14-.393.449-.421.785-.028.42-.561.056-1.178.028h-.112c-.533-.028-.925.393-1.29.561-.112.056-.196.084-.252.112-.225.113-.449.197-.533.365.056.224.14.42.224.476.169.113.337.28.561.421l-7.29 1.43v.028h-.028l-.196.449 7.346-1.458h-.028c-.365.196-.617.617-.589.953l.084.224c-.336-.168-.056.309-.336.449l-2.019-.337c-1.093-.112-1.99.617-3 .898-1.15.14-2.019 1.43-3.225 1.093-.616-.168-1.654-.617-2.13-.7-.59-.085-1.15.195-1.655.56.533-.112 1.01.056 1.458.392.449.365.87 1.206 1.599 1.346 1.037.225 2.747.169 3.224-1.43.028-.056.196-.448.364-.588l.113.028c-.057.672-.057 1.317.252 1.85l.084.112c.336.757 1.037 1.038 1.514 1.655.617.392-.14 1.009-.224 1.514a.379.379 0 00.336.224c.365.084-.056.589.253.729.84.533 1.43 1.43 1.85 2.327.084.112.252.084.393.112.252.168-.14.42-.028.617.252.196.757.196 1.065.028a1.361 1.361 0 00-.224-.589c-.617-.532-1.038-1.261-1.627-1.822-.084-.252-.28-.477-.252-.757l.645.336c.056.253.309.337.505.42l-.14.225c-.085.253.056.449.224.589.112.084.364.168.42.084.253-.336-.084-.981-.196-1.43l-.196-.224c-.533-.196-.953-.589-1.43-.897l.028-.477c-.196-.729.533-1.206.757-1.822.617.448 1.346.729 2.13.897.365.392 1.15.084 1.459.532.364.673.841 1.346 1.346 1.907-.337.42-1.01.168-1.374.224-.309-.308-.673.225-.953-.084l.112-.224-.309-.112c-.392-.056-.645.196-.869.476l-.028.225c.365.112.757.084 1.15.168.168.084.336.28.532.196.786-.448 1.767.28 2.44-.533.168-.28-.056-.476-.112-.729-.057-.42-.14-.869-.14-1.29.813.029 1.401.029 2.186.113a.588.588 0 01.113.308c-.253.533-.533 1.01-.954 1.458-.168.197.14.449-.196.59-.14.027-.168-.113-.28-.085-.421.196-.337.729-.421 1.094l.196.056c.197-.253.561-.393.645-.701.897-.617.897-1.655 1.654-2.328.113-.336.113-.7-.14-.925-.532-.14-1.01-.42-1.402-.729l.225-.224c.196-.42.532-.813.7-1.262a1.31 1.31 0 00.085-.477l.56-.672c.225-.309.393-.645.645-.926l.028-.056.225-.28c0-.14.196-.252.308-.337.224.365.757.253 1.094.449l-.028.028a.763.763 0 01.448.224l.028.056c.084.084.14.225.168.337.113.224.337-.084.45.112.28.196.392-.224.588-.364.084-.309.112-.617.056-.898-.364-.504-.673-1.065-.981-1.626l-.253-.449a4.993 4.993 0 01-.056-.645c.056-.224-.028-.448-.028-.616-.112.084-.336.504-.617.588-.196.028-.56-.196-1.01-.056-.532.197-1.289.253-1.737.056-.056.225.14.309.14.337-.309.224-.673.196-.925.14-.029.14.084.28.14.337 0 0-.197.056-.701.056 0 0-.28-.028-.477.168-.308-.084-.56-.14-.589-.196-.14-.14-.224-.113-.112-.393l.112-.252 7.094-1.402 11.16-2.187c.56-.028.28.224 1.12-.14.169-.056.87-.505.87-.505s-.589-.14-.981-.168c-.898-.084-.59.084-1.234.364-.028 0 0 0-.168.056h-.028c-1.178-.504-5.047-2.159-7.88-2.888-5.69-1.43-10.598-1.486-12.14-1.458-8.019-.028-13.458 1.262-18.561 3.365C3.196 12.72 0 16.085 0 19.253c0 4.206 2.3 7.15 6.841 9.561 5.131 2.804 13.851 4.038 21.59 4.038 2.888 0 5.664-.169 8.72-.561 1.037-.14 1.206-.196 2.916-.42 3.757-.477 4.402-.477 7.234-.197a15.62 15.62 0 013.477.785s.028-3.084.028-3.589v-6.28c0-1.01.084-1.262 1.43-1.262h.588c.449 0 .533-.056.533-.28v-.533c-.028-.169-.084-.253-.7-.253zM155.947 9.776h.224c.197 0 .393 0 .393-.28 0-.225-.168-.253-.336-.253h-.309v.533h.028zm-.224-.701h.561c.364 0 .532.14.532.448 0 .28-.168.42-.392.42l.42.702h-.252l-.393-.673h-.252v.673h-.224v-1.57zm.476 1.962c.589 0 1.038-.504 1.038-1.15 0-.644-.477-1.149-1.038-1.149-.588 0-1.037.505-1.037 1.15 0 .645.449 1.15 1.037 1.15zm0-2.523c.701 0 1.262.589 1.262 1.346 0 .785-.589 1.346-1.262 1.346-.7 0-1.261-.59-1.261-1.346 0-.757.589-1.346 1.261-1.346zM69.34 9.047h-7.962v7.402h7.963V13.84h-4.15v-1.99h6.617v4.037c0 1.094-.196 1.823-.56 2.187-.394.365-1.094.561-2.16.561h-7.57c-1.038 0-1.767-.196-2.131-.56-.393-.365-.561-1.122-.561-2.188v-6.14c0-1.094.196-1.823.56-2.187C59.78 7.196 60.48 7 61.519 7h7.57c1.01 0 1.739.196 2.131.56.393.365.589 1.066.589 2.104v.28l-2.496.477V9.047h.029zM76.211 9.075v7.795h6.225V9.075h2.215v7.29c0 .897-.168 1.486-.505 1.795-.336.308-.953.476-1.85.476H76.35c-.897 0-1.514-.168-1.85-.476-.337-.309-.477-.898-.477-1.795v-7.29h2.187zM89.972 14.795h4.122l-2.103-3.981-2.019 3.981zm-4.234 3.841l5.328-9.56h2.103l5.411 9.56h-2.467l-1.122-2.103h-5.944l-1.122 2.103h-2.187zM106.825 10.73h-4.991v2.635h4.991c.673 0 1.009-.252 1.009-.757v-1.122c0-.504-.336-.757-1.009-.757zm-7.15 7.906v-9.56h8.103c1.402 0 2.103.616 2.103 1.85v2.27c0 1.235-.701 1.823-2.103 1.823h-1.233l4.262 3.617h-3.141l-3.757-3.617h-2.047v3.617h-2.187zM114.372 16.842h2.832c1.458 0 2.495-.224 3.112-.645.701-.477 1.037-1.318 1.037-2.523 0-1.935-1.037-2.916-3.112-2.916h-3.869v6.084zm-2.215 1.794v-9.56h6.056c1.766 0 3.084.42 4.01 1.233.925.841 1.373 1.99 1.373 3.505 0 3.224-1.99 4.822-5.944 4.822h-5.495zM127.743 9.075h-2.187v9.561h2.187v-9.56zM132.85 14.795h4.122l-2.103-3.981-2.019 3.981zm-4.234 3.841l5.328-9.56h2.103l5.411 9.56h-2.467l-1.122-2.103h-5.944l-1.122 2.103h-2.187zM142.544 18.636v-9.56h1.515l7.626 6.364V9.075h1.963v9.561h-1.486l-7.627-6.448v6.448h-1.991zM68.555 23.598h-7.206v2.524h6.841c1.037 0 1.766.196 2.159.56.392.365.589 1.122.589 2.188v1.598c0 1.093-.197 1.822-.59 2.187-.392.364-1.12.56-2.158.56h-6.757c-1.038 0-1.767-.196-2.16-.56-.392-.365-.588-1.122-.588-2.187v-.309l2.243-.504v1.373h7.739v-2.663h-6.842c-1.037 0-1.766-.196-2.159-.56-.392-.365-.56-1.122-.56-2.188v-1.29c0-1.093.196-1.822.56-2.187.393-.364 1.094-.56 2.16-.56h6.224c1.01 0 1.71.168 2.103.532.392.365.616 1.038.616 2.02v.251l-2.243.561v-1.346h.029zM75.594 23.655v7.794h6.224v-7.794h2.215v7.318c0 .897-.168 1.486-.504 1.794-.337.309-.954.477-1.85.477h-5.945c-.897 0-1.514-.168-1.85-.477-.337-.308-.477-.897-.477-1.794v-7.318h2.187zM86.523 33.244v-9.59h1.487l7.626 6.366v-6.365h1.99v9.589h-1.513l-7.599-6.449v6.449h-1.99zM110.585 23.655h-7.963v7.402h7.963V28.45h-4.15v-1.991h6.645v4.038c0 1.093-.196 1.822-.56 2.187-.393.364-1.094.56-2.159.56h-7.571c-1.037 0-1.766-.196-2.131-.56-.392-.365-.56-1.122-.56-2.187v-6.14c0-1.094.196-1.823.56-2.188.393-.364 1.094-.56 2.131-.56h7.571c1.009 0 1.738.196 2.131.56.392.365.588 1.066.588 2.103v.28l-2.495.477v-1.374zM117.766 23.655v7.794h6.225v-7.794h2.215v7.318c0 .897-.168 1.486-.505 1.794-.336.309-.953.477-1.85.477h-5.945c-.897 0-1.514-.168-1.85-.477-.337-.308-.477-.897-.477-1.794v-7.318h2.187zM131.335 29.402h4.121l-2.103-3.981-2.018 3.981zm-4.262 3.841l5.327-9.56h2.103l5.411 9.56h-2.467l-1.122-2.102h-5.944l-1.121 2.102h-2.187zM148.292 25.31h-4.991v2.635h4.991c.673 0 1.009-.253 1.009-.757v-1.122c0-.477-.336-.757-1.009-.757zm-7.15 7.934v-9.59h8.103c1.402 0 2.103.618 2.103 1.851v2.271c0 1.234-.701 1.823-2.103 1.823h-1.234l4.262 3.617h-3.14l-3.757-3.617h-2.075v3.617h-2.159v.028zM156.057 31.45h2.832c1.458 0 2.496-.225 3.113-.645.7-.477 1.037-1.318 1.037-2.524 0-1.934-1.037-2.916-3.112-2.916h-3.87v6.085zm-2.187 1.794v-9.59h6.057c1.766 0 3.084.421 4.009 1.235.925.84 1.374 1.99 1.374 3.504 0 3.225-1.991 4.823-5.944 4.823h-5.496v.028zM166.69 24.917h.225c.196 0 .392 0 .392-.28 0-.225-.168-.253-.336-.253h-.309v.533h.028zm-.224-.729h.561c.364 0 .532.14.532.449 0 .28-.168.42-.392.42l.42.701h-.252l-.392-.673h-.253v.673h-.224v-1.57zm.505 1.963c.588 0 1.037-.505 1.037-1.15 0-.645-.477-1.15-1.037-1.15-.589 0-1.038.505-1.038 1.15-.028.645.449 1.15 1.038 1.15zm0-2.524c.701 0 1.261.589 1.261 1.346 0 .785-.588 1.346-1.261 1.346-.701 0-1.262-.589-1.262-1.346a1.277 1.277 0 011.262-1.346z" fill="#717A90"/></svg>