<?xml version="1.0" encoding="utf-8"?><svg width="146" height="40" fill="none" xmlns="http://www.w3.org/2000/svg" viewBox="0 0 146 40"><path fill-rule="evenodd" clip-rule="evenodd" d="M98.833 10.784v7.174h-5.9v-7.174h-3.42v17.433h3.42v-7.175h5.9v7.175h3.419V10.784h-3.42zM80.46 13.399c1.61 0 2.682 1.005 2.95 2.749h3.487c-.47-3.822-3.085-5.767-6.437-5.767-1.878 0-3.42.604-4.694 1.878a5.017 5.017 0 00-1.408 2.615c-.2 1.005-.268 2.682-.268 4.626 0 1.878.067 3.621.268 4.627a5.017 5.017 0 001.408 2.615c1.274 1.274 2.816 1.944 4.694 1.944 3.352 0 5.967-1.944 6.437-5.766h-3.42c-.268 1.743-1.274 2.749-2.95 2.749-.939 0-1.676-.268-2.146-.939-.737-.737-.871-1.81-.871-5.23 0-3.352.134-4.425.871-5.23.47-.603 1.207-.871 2.079-.871zM60.279 28.217h11.465V25.2h-8.046v-4.158h6.906v-3.017h-6.906v-4.157h8.046v-3.017H60.28v17.366zM45.393 13.8h4.56v14.416h3.42V13.8h4.559v-3.017H45.393V13.8zm-5.43 8.582c0 2.012-1.208 3.219-3.018 3.219-1.81 0-3.017-1.207-3.017-3.219v-11.6h-3.42v11.734c0 3.688 2.816 6.102 6.437 6.102 3.554 0 6.437-2.414 6.437-6.102V10.784h-3.353v11.6h-.067zm-18.91-11.6h-3.419v17.434h11.332V25.2h-7.912V10.784zM5.566 22.25l2.213-6.37 2.146 6.37H5.565zm.805-11.465L0 28.217h3.554l1.073-3.084h6.168l1.006 3.084h3.554l-6.37-17.433H6.37zM129.942 21.042h-.805V37h3.085a9.846 9.846 0 001.609-2.682c1.944-4.894.268-10.325-3.889-13.276zM134.501 37h10.594v-6.638c-4.626-.2-8.85 2.481-10.594 6.638zm-1.341-15.958c1.811 4.828 6.772 7.845 11.935 7.108v-7.108H133.16z" fill="#717A90"/><path fill-rule="evenodd" clip-rule="evenodd" d="M137.452 32.977A10.852 10.852 0 01141.408 37h3.687v-6.638c-2.883-.134-5.565.872-7.643 2.615zm-8.315-3.084V37h3.085a9.846 9.846 0 001.609-2.682c.872-2.078 1.073-4.291.603-6.37-1.609 1.14-3.419 1.81-5.297 1.945zm11.935-8.85h-7.912c1.073 2.95 3.42 5.23 6.169 6.37-.067-2.28.536-4.493 1.743-6.37zM121.963 29.021a15.807 15.807 0 004.157-7.979h-15.958V37h15.958a17.566 17.566 0 00-4.157-7.979z" fill="#717A90"/><path fill-rule="evenodd" clip-rule="evenodd" d="M121.561 21.042h-11.399v2.883c2.817 0 5.499.738 7.778 2.012 1.408-1.408 2.682-3.084 3.621-4.895zm-3.621 11.064c-2.346 1.274-4.961 2.011-7.778 2.011V37h11.399c-.939-1.81-2.213-3.486-3.621-4.894z" fill="#171C28"/><path fill-rule="evenodd" clip-rule="evenodd" d="M110.162 23.992v3.42c1.341.402 2.615 1.006 3.755 1.676 1.475-.872 2.816-1.877 4.023-3.084-2.346-1.341-4.961-2.012-7.778-2.012zm0 6.705v3.42c2.817 0 5.499-.738 7.778-2.012-1.207-1.207-2.548-2.212-4.023-3.084-1.207.67-2.481 1.274-3.755 1.676zM129.137 18.026h15.958v-6.907h-15.958v6.907zm0-15.959v7.577h15.958V2.067h-15.958z" fill="#717A90"/><path fill-rule="evenodd" clip-rule="evenodd" d="M129.137 15.813h15.958v-3.286h-15.958v3.286zm0-13.746V7.7h15.958V2.067h-15.958zM118.258 13.136c-1.073-.67-1.793-1.48-2.463-2.486-.269-1.14-.134-2.347.536-3.42 1.274-2.078 4.023-2.749 6.169-1.475 2.078 1.274 2.749 4.023 1.475 6.169-.201.335-.469.603-.738.872-.737.469-.983.836-2.414.871 2.012.201 4.024-.67 5.297-2.347V2.067h-15.958v15.959h15.958V13.8c-2.48 1.006-5.448.81-7.862-.665z" fill="#717A90"/><path fill-rule="evenodd" clip-rule="evenodd" d="M115.057 9.309c-.469-1.878-.268-4.024.872-5.834.335-.536.737-1.073 1.207-1.475h-1.811c-1.207 2.347-1.274 5.029-.268 7.309zm8.65 8.716h2.413v-1.61a15.116 15.116 0 01-2.413 1.61zM111.101 2.067h-.939v1.341c.067-.067.067-.134.135-.201.201-.402.469-.805.804-1.14zm-.939 11.868v4.09h4.426c-.268-.134-.604-.335-.872-.47a10.192 10.192 0 01-3.554-3.62z" fill="#171C28"/><path fill-rule="evenodd" clip-rule="evenodd" d="M118.41 13.198c-3.822-2.347-5.096-7.242-3.084-11.13h-2.414c-2.615 4.224-1.274 9.722 2.883 12.337 3.285 2.011 8.918 1.184 10.326-.738-2.481 1.006-5.297 1.006-7.711-.47zm6.035-10.661c-.336-.201-.671-.336-.939-.47h-4.425a6.09 6.09 0 00-2.951 2.414c-.536.872-.804 1.81-.871 2.816a6.153 6.153 0 01.603-1.542c1.475-2.414 4.694-3.218 7.174-1.676 2.414 1.475 3.219 4.693 1.677 7.174-.872 1.476-2.414 2.28-3.956 2.414 2.011.201 4.09-.445 5.364-2.121V4.079c-.402-.604-1.006-1.14-1.676-1.542z" fill="#717A90"/></svg>