<svg width="710" height="746" viewBox="0 0 710 746" fill="none" xmlns="http://www.w3.org/2000/svg">
<path d="M270.335 636.618C269.392 635.415 268.434 634.209 267.462 633M52.3927 222.386C125.38 262.95 288.755 375.895 358.355 503.165C364.1 513.671 460.295 680.43 467.765 689.519M74.04 141.598C76.1636 142.567 78.3656 143.597 80.6416 144.686M394.94 433.552C392.274 428.491 389.514 423.482 386.667 418.526M394.94 433.552L286.827 641.037M394.94 433.552C416.377 474.252 435.26 510.69 451.661 542.768M532.3 706.812C527.216 695.422 516.484 672.584 499.825 638.676M638.425 735.248C565.958 633.379 406.756 408.908 328.601 296.396M99.4018 46.9464C102.024 47.7331 104.855 48.658 107.88 49.7242M352.794 248.568C373.954 279.144 397.314 313.608 421.316 349.457M352.794 248.568L255.71 349.881M352.794 248.568C349.608 243.965 346.382 239.448 343.122 235.019M642.147 688.851C639.495 684.259 627.411 665.084 609.06 636.413M642.147 688.851L641.771 736.144M642.147 688.851C643.321 690.885 644.458 692.896 645.551 694.887M658.503 740.627C659.35 734.588 658.779 728.422 657.16 722.079M104.397 28.3028C146.561 47.5618 205.007 63.6236 313.51 183.884M686.851 707.491C686.802 727.562 680.042 741.19 676.668 745.495M686.851 707.491C686.748 682.137 685.672 662.373 683.895 646.753M686.851 707.491C686.859 704.422 686.269 700.495 685.121 696.011M654.699 642.004C586.107 571.185 529.913 511.351 483.064 460.33M654.699 642.004L654.503 539.479M654.699 642.004C656.031 643.379 657.326 644.796 658.584 646.247M320.278 140.458C422.747 231.618 632.505 418.509 651.789 436.792C674.039 457.887 690.324 480.44 696.816 505.842M320.278 140.458C337.888 153.692 354.233 165.619 369.543 176.496M320.278 140.458L238.818 191.112M320.278 140.458C317.04 136.612 313.772 132.868 310.479 129.224M320.278 140.458C341.06 165.145 365.595 194.287 391.789 225.413M654.503 539.479C645.829 528.095 584.993 455.332 513.4 370.059M654.503 539.479C655.991 541.432 657.461 543.27 658.902 545.053M683.895 646.753C678.013 595.062 664.45 588.752 653.057 575.47C641.189 561.632 458.732 352.272 368.987 249.321C349.149 224.608 330.701 202.939 313.51 183.884M683.895 646.753C684.01 641.305 684.048 636.201 684.012 631.413M111.57 1.53264C117.674 0.765209 125.262 0.862546 134.016 1.89879M322.646 106.764C221.975 28.1439 139.556 5.44483 110.93 3.92284M322.646 106.764L638.123 321.436C653.465 330.67 687.747 359.736 702.148 402.124M322.646 106.764C335.37 118.523 349.804 131.86 365.357 146.228M322.646 106.764C313.757 97.3736 304.606 88.6813 295.313 80.6593M652.585 410.875C642.798 402.098 601.204 363.842 548.768 315.507M652.585 410.875L650.393 484.068M652.585 410.875C654.28 412.395 655.928 413.884 657.531 415.363M703.108 575.047C703.311 598.055 690.461 622.211 684.012 631.413M703.108 575.047C701.909 549.988 700.297 529.394 698.234 512.257M703.108 575.047C703.407 570.525 702.633 563.5 699.935 554.727M684.012 631.413C683.956 624.099 683.729 617.521 683.347 611.575M698.234 512.257C705.827 500.061 712.077 478.245 706.989 451.583M698.234 512.257C697.23 503.922 696.12 496.404 694.898 489.588M698.234 512.257C697.831 510.099 697.358 507.96 696.816 505.842M637.224 353.474L639.388 303.33M637.224 353.474C639.552 355.24 641.811 357.007 644.001 358.775M637.224 353.474C615.098 336.687 595.063 322.581 575.914 309.806M650.393 484.068C632.653 468.336 586.768 428.414 531.386 380.377M650.393 484.068C652.899 486.29 655.293 488.506 657.579 490.714M280.796 163.518C282.959 165.623 285.12 167.759 287.277 169.925M280.796 163.518C278.419 161.205 276.04 158.928 273.66 156.689M280.796 163.518C310.164 188.888 348.641 222.147 389.787 257.742M280.796 163.518C268.178 150.25 247.713 130.762 223.323 110.815M101.835 37.8636C138.233 49.3709 177.955 75.1157 211.82 101.611M172.191 10.4866C175.83 11.6334 179.549 12.8893 183.338 14.2566M172.191 10.4866C176.348 10.6911 181.938 11.4353 188.711 12.8934M172.191 10.4866C168.959 9.46787 165.791 8.53513 162.694 7.68662M172.191 10.4866L140.229 16.1647M311.747 76.689C307.058 72.838 302.395 69.1954 297.77 65.7512M311.747 76.689C319.109 82.7351 329.199 90.4467 341.283 99.3545M311.747 76.689C321.058 81.2841 331.657 86.5115 343.2 92.1998M639.388 303.33C640.95 304.361 642.768 305.608 644.785 307.09M639.388 303.33C635.553 300.797 614.792 287.061 585.248 267.322M706.989 451.583C706.448 448.748 705.779 445.859 704.969 442.921M706.989 451.583C706.869 437.323 705.778 424.234 703.933 412.251M702.148 402.124C706.386 390.977 708.598 373.428 704.006 352.923M702.148 402.124C701.634 399.546 701.078 397.027 700.484 394.567M702.148 402.124C702.276 402.768 702.402 403.416 702.526 404.067M17.296 353.369C51.0437 351.664 131.6 384.58 231.434 510.274M326.744 651.733C293.714 594.98 261.689 548.366 231.434 510.274M64.0489 178.885C68.2891 180.948 73.7448 183.998 80.283 188.092M544.251 710.014C519.441 678.071 478.851 626.243 433.254 568.782M246.504 71.5994C284.165 92.9909 317.845 110.308 348.957 125.212M246.504 71.5994L189.317 90.94M246.504 71.5994C247.644 72.4307 248.785 73.2716 249.927 74.1223M246.504 71.5994C243.988 69.7647 241.478 67.9772 238.975 66.236M704.006 352.923C703.645 351.312 703.243 349.684 702.796 348.038M704.006 352.923C704.275 346.168 703.91 337.802 702.61 328.493M618.712 212.225L614.426 248.298M618.712 212.225C620.899 213.138 623.034 214.093 625.117 215.09M618.712 212.225C603.979 206.083 584.592 197.168 562.322 186.525M232.228 27.3569C237.309 28.5085 246.807 32.2399 259.631 37.9076M232.228 27.3569C235.135 28.6236 238.105 29.9745 241.132 31.4139M232.228 27.3569L221.897 31.0947M232.228 27.3569C229.368 26.1105 226.569 24.9456 223.836 23.8583M698.721 308.981C693.329 291.653 669.086 250.624 615.253 225.132C567.786 202.655 429.273 134.617 343.2 92.1998M698.721 308.981C699.243 302.107 698.9 293.546 697.242 283.991M698.721 308.981C698.141 306.746 697.507 304.487 696.816 302.211M698.721 308.981L700.642 341.006M698.721 308.981C699.417 311.662 700.036 314.309 700.583 316.909M584.561 165.672C566.749 159.853 546.225 153.38 524.101 146.554M584.561 165.672L591.734 138.902M584.561 165.672C587.115 166.507 589.616 167.372 592.063 168.267M230.519 60.5061C269.587 71.5009 334.616 90.0842 401.991 109.895M230.519 60.5061C231.768 61.3303 233.02 62.166 234.274 63.0132M230.519 60.5061C229.938 60.1224 229.357 59.7411 228.776 59.3624M697.242 283.991C695.21 197.78 624.434 157.399 589.3 147.985L297.77 65.7512M697.242 283.991C697.847 274.47 697.151 262.105 694.293 248.526M697.242 283.991C696.567 280.101 695.674 276.046 694.532 271.874M591.734 138.902C575.59 134.209 557.564 128.984 538.486 123.464M591.734 138.902C594.313 139.652 596.832 140.447 599.293 141.284M289.726 51.7945C339.086 57.3787 462.753 71.4002 563.939 82.9711M289.726 51.7945C310.094 57.6418 339.381 66.0582 372.738 75.6569M289.726 51.7945C301.504 57.3896 314.554 63.723 328.501 70.5732M289.726 51.7945C281.373 47.8268 273.66 44.2303 266.721 41.0841M297.77 65.7512C290.521 60.3522 283.368 55.441 276.366 50.9796M685.75 220.966C685.569 218.823 685.274 216.478 684.854 213.961M685.75 220.966C685.954 216.906 685.931 212.416 685.626 207.611M685.75 220.966C685.023 219.222 684.257 217.476 683.45 215.731M685.75 220.966C685.989 221.541 686.225 222.117 686.456 222.692M410.078 86.4064C421.664 87.1474 451.618 90.0864 552.187 99.1012C552.773 99.1537 553.356 99.2085 553.936 99.2657M410.078 86.4064C416.124 88.1475 422.236 89.9082 428.391 91.6818M410.078 86.4064C397.256 82.7133 384.734 79.1087 372.738 75.6569M231.434 510.274L160.147 607.093M80.6416 144.686L72.3747 147.813M80.6416 144.686C87.4031 147.923 94.818 151.685 102.772 155.957M104.076 156.66L65.9703 171.714M104.076 156.66C111.242 160.531 118.834 164.81 126.77 169.486M104.076 156.66C103.64 156.424 103.205 156.19 102.772 155.957M126.77 169.486L58.477 199.68M126.77 169.486C133.852 173.659 141.209 178.148 148.781 182.945M148.781 182.945L49.8309 231.947M148.781 182.945C155.733 187.35 162.868 192.014 170.139 196.933M170.139 196.933L39.9679 268.756M170.139 196.933C177.007 201.578 183.998 206.451 191.073 211.545M191.073 211.545L28.9522 309.868M191.073 211.545C197.775 216.37 204.552 221.393 211.373 226.612M211.373 226.612L16.3353 356.954M211.373 226.612C218.038 231.711 224.745 236.995 231.463 242.462M231.463 242.462L33.3376 388.153L1.54086 412.168C10.663 417.993 21.4867 425.134 33.5248 433.346M231.463 242.462C237.806 247.623 244.159 252.946 250.498 258.428M250.498 258.428L67.3629 406.493L33.5248 433.346M250.498 258.428C256.446 263.573 262.381 268.857 268.282 274.278M268.282 274.278L99.5401 424.081L64.3821 454.904M268.282 274.278C273.904 279.443 279.495 284.733 285.038 290.144M285.038 290.144L129.182 442.527L94.1649 476.648M285.038 290.144C290.606 295.581 296.125 301.141 301.576 306.822M301.576 306.822L122.038 497.87M301.576 306.822C306.812 312.279 311.987 317.848 317.082 323.526M122.038 497.87C130.599 504.529 139.219 511.368 147.807 518.342M122.038 497.87C112.636 490.559 103.306 483.464 94.1649 476.648M317.082 323.526L147.807 518.342M317.082 323.526C321.787 328.768 326.424 334.104 330.982 339.532M147.807 518.342C156.175 525.138 164.513 532.062 172.737 539.073M172.737 539.073L330.982 339.532M172.737 539.073C187.665 551.798 202.215 564.809 215.888 577.852M330.982 339.532C335.427 344.825 339.796 350.206 344.077 355.672M344.077 355.672L230.239 509.954M344.077 355.672C348.132 360.849 352.107 366.102 355.994 371.431M215.888 577.852L355.994 371.431M215.888 577.852C222.457 584.12 228.824 590.395 234.932 596.65M355.994 371.431C359.856 376.726 363.63 382.094 367.306 387.536M367.306 387.536L234.932 596.65M367.306 387.536C370.656 392.496 373.924 397.516 377.104 402.595M234.932 596.65C241.053 602.918 246.915 609.166 252.461 615.366M252.461 615.366L377.104 402.595M252.461 615.366C257.766 621.296 262.783 627.182 267.462 633M377.104 402.595C380.389 407.842 383.579 413.153 386.667 418.526M386.667 418.526L267.462 633M354.007 469.672C321.83 429.777 290.11 390.935 262.125 357.488C259.979 354.922 257.84 352.387 255.71 349.881M354.007 469.672L421.316 349.457M354.007 469.672C380.734 502.81 407.776 536.675 433.254 568.782M421.316 349.457C440.458 378.047 460.008 407.518 479.175 436.6M412.493 382.385L455.517 301.171M412.493 382.385C433.434 405.849 456.778 431.702 483.064 460.33M412.493 382.385C274.025 227.24 240.608 176.583 156.349 119.371M455.517 301.171C475.053 324.406 494.598 347.664 513.4 370.059M455.517 301.171C433.927 275.493 412.347 249.842 391.789 225.413M463.9 321.89L491.662 262.84M463.9 321.89C487.097 341.98 509.953 361.786 531.386 380.377M463.9 321.89C439.147 300.453 414.005 278.693 389.787 257.742M491.662 262.84C511.411 281.062 530.731 298.881 548.768 315.507M491.662 262.84C471.611 244.339 451.117 225.423 431.073 206.917M531.386 380.377L548.768 315.507M513.4 370.059L483.064 460.33M479.175 436.6L433.254 568.782M479.175 436.6C496.02 462.159 512.57 487.418 528.288 511.515M451.661 542.768L408.01 673.508M451.661 542.768C469.367 577.399 484.181 606.95 496.193 631.298M483.301 693.682L496.193 631.298M496.193 631.298C497.433 633.813 498.644 636.272 499.825 638.676M499.825 638.676L528.288 511.515M528.288 511.515C543.7 535.144 558.313 557.654 571.62 578.236M571.62 578.236L553.573 712.512M571.62 578.236C585.782 600.14 598.465 619.859 609.06 636.413M609.06 636.413L602.333 725.577M645.551 694.887L645.835 737.233M645.551 694.887C646.932 697.403 648.241 699.886 649.46 702.339M649.46 702.339L649.42 738.194M649.46 702.339C650.343 704.116 651.18 705.876 651.962 707.621M651.962 707.621L652.288 738.962M651.962 707.621C652.789 709.464 653.555 711.291 654.254 713.103M654.254 713.103L654.999 739.689M654.254 713.103C655.425 716.137 656.406 719.127 657.16 722.079M657.16 722.079L657.068 740.243M658.902 545.053L658.584 646.247M658.902 545.053C660.21 546.671 661.495 548.244 662.749 549.817M658.584 646.247C660.488 648.444 662.306 650.721 664.036 653.05M664.036 653.05L662.749 549.817M664.036 653.05C665.63 655.197 667.149 657.388 668.589 659.604M662.749 549.817C664.383 551.866 665.965 553.915 667.48 556.063M667.48 556.063L668.589 659.604M667.48 556.063C668.673 557.755 669.823 559.509 670.924 561.374M668.589 659.604C669.797 661.462 670.951 663.338 672.048 665.219M672.048 665.219L670.924 561.374M672.048 665.219C673.266 667.307 674.415 669.402 675.492 671.487M670.924 561.374C672.174 563.49 673.36 565.749 674.469 568.221M674.469 568.221L675.492 671.487M674.469 568.221C674.994 569.391 675.502 570.607 675.992 571.88M675.492 671.487C676.547 673.531 677.534 675.564 678.451 677.572M678.451 677.572L675.992 571.88M678.451 677.572C679.525 679.927 680.501 682.246 681.377 684.505M675.992 571.88C676.827 574.05 677.61 576.382 678.334 578.912M678.334 578.912L681.377 684.505M678.334 578.912C679.296 582.274 680.154 585.986 680.894 590.136M681.377 684.505C682.014 686.148 682.598 687.759 683.128 689.329M683.128 689.329L680.894 590.136M683.128 689.329C683.914 691.659 684.579 693.897 685.121 696.011M680.894 590.136C681.982 596.242 682.815 603.295 683.347 611.575M683.347 611.575L685.121 696.011M657.579 490.714L657.531 415.363M657.579 490.714C659.761 492.82 661.845 494.918 663.835 497.005M657.531 415.363C659.503 417.183 661.406 418.989 663.241 420.822M663.241 420.822L663.835 497.005M663.241 420.822C664.754 422.332 666.221 423.861 667.643 425.43M663.835 497.005C665.629 498.886 667.347 500.757 668.992 502.617M668.992 502.617L667.643 425.43M668.992 502.617C670.693 504.54 672.315 506.45 673.862 508.344M667.643 425.43C669.187 427.135 670.678 428.887 672.118 430.718M672.118 430.718L673.862 508.344M672.118 430.718C673.671 432.693 675.163 434.758 676.596 436.95M673.862 508.344C675.539 510.399 677.127 512.434 678.631 514.447M678.631 514.447L676.596 436.95M678.631 514.447C680.491 516.938 682.222 519.395 683.831 521.812M676.596 436.95C677.881 438.914 679.118 440.98 680.308 443.175M680.308 443.175L683.831 521.812M680.308 443.175C681.342 445.081 682.34 447.084 683.305 449.201M683.831 521.812C684.904 523.424 685.923 525.018 686.89 526.592M686.89 526.592L683.305 449.201M686.89 526.592C688.234 528.781 689.478 530.93 690.627 533.035M683.305 449.201C684.614 452.075 685.859 455.159 687.043 458.497M687.043 458.497L690.627 533.035M687.043 458.497C687.894 460.898 688.713 463.431 689.502 466.111M690.627 533.035C691.672 534.95 692.639 536.828 693.532 538.665M693.532 538.665L689.502 466.111M693.532 538.665C694.354 540.356 695.114 542.013 695.815 543.632M689.502 466.111C690.701 470.188 691.827 474.607 692.883 479.424M692.883 479.424L695.815 543.632M692.883 479.424C693.586 482.63 694.257 486.013 694.898 489.588M695.815 543.632C696.495 545.202 697.119 546.737 697.691 548.233M697.691 548.233L694.898 489.588M697.691 548.233C698.554 550.489 699.298 552.656 699.935 554.727M696.816 505.842L699.935 554.727M644.001 358.775L644.785 307.09M644.001 358.775C646.236 360.578 648.399 362.381 650.494 364.183M644.785 307.09C646.854 308.611 649.132 310.38 651.555 312.419M651.555 312.419L650.494 364.183M651.555 312.419C652.832 313.493 654.149 314.642 655.498 315.869M650.494 364.183C652.707 366.087 654.844 367.991 656.906 369.892M656.906 369.892L655.498 315.869M656.906 369.892C658.733 371.577 660.502 373.261 662.213 374.942M655.498 315.869C657.538 317.726 659.65 319.761 661.801 321.985M661.801 321.985L662.213 374.942M661.801 321.985C663.503 323.746 665.229 325.624 666.964 327.627M662.213 374.942C664.381 377.072 666.458 379.198 668.446 381.32M668.446 381.32L666.964 327.627M668.446 381.32C670.37 383.373 672.211 385.421 673.973 387.463M666.964 327.627C668.946 329.914 670.94 332.363 672.921 334.981M672.921 334.981L673.973 387.463M672.921 334.981C674.422 336.966 675.917 339.049 677.394 341.232M673.973 387.463C675.588 389.336 677.137 391.204 678.62 393.066M678.62 393.066L677.394 341.232M678.62 393.066C680.279 395.149 681.857 397.224 683.357 399.291M677.394 341.232C678.592 343.002 679.779 344.839 680.949 346.745M680.949 346.745L683.357 399.291M680.949 346.745C682.397 349.104 683.82 351.569 685.207 354.142M683.357 399.291C685.053 401.627 686.648 403.953 688.149 406.265M688.149 406.265L685.207 354.142M688.149 406.265C689.804 408.816 691.344 411.352 692.772 413.868M685.207 354.142C686.872 357.23 688.484 360.475 690.026 363.882M690.026 363.882L692.772 413.868M690.026 363.882C691.211 366.5 692.354 369.213 693.447 372.024M692.772 413.868C693.719 415.535 694.617 417.195 695.469 418.845M693.447 372.024L695.469 418.845M693.447 372.024C694.795 375.491 696.068 379.107 697.25 382.879M695.469 418.845C696.17 420.204 696.84 421.558 697.479 422.904M697.25 382.879L697.479 422.904M697.25 382.879C697.947 385.104 698.613 387.383 699.243 389.716M697.479 422.904C698.278 424.589 699.029 426.263 699.733 427.926M699.243 389.716L699.733 427.926M699.243 389.716C699.673 391.308 700.087 392.924 700.484 394.567M699.733 427.926C700.518 429.777 701.244 431.615 701.916 433.437M700.484 394.567L701.916 433.437M701.916 433.437C702.424 434.814 702.9 436.183 703.346 437.542M703.346 437.542L702.526 404.067M703.346 437.542C703.94 439.352 704.48 441.145 704.969 442.921M702.526 404.067C703.034 406.736 703.504 409.463 703.933 412.251M704.969 442.921L703.933 412.251M614.426 248.298C614.057 248.088 613.686 247.878 613.314 247.669C592.092 235.72 571.898 225.302 552.18 215.769M614.426 248.298C616.692 249.587 618.906 250.884 621.069 252.189M621.069 252.189L625.117 215.09M621.069 252.189C623.549 253.686 625.963 255.194 628.311 256.711M625.117 215.09C627.432 216.197 629.684 217.356 631.873 218.561M631.873 218.561L628.311 256.711M631.873 218.561C633.842 219.646 635.761 220.768 637.632 221.927M628.311 256.711C630.543 258.153 632.716 259.604 634.831 261.062M634.831 261.062L637.632 221.927M634.831 261.062C637.044 262.588 639.194 264.123 641.283 265.665M637.632 221.927C639.877 223.318 642.052 224.761 644.158 226.251M641.283 265.665L644.158 226.251M641.283 265.665C643.585 267.364 645.811 269.072 647.965 270.787M644.158 226.251C645.914 227.493 647.622 228.767 649.283 230.072M649.283 230.072L647.965 270.787M649.283 230.072C651.231 231.603 653.115 233.175 654.937 234.785M647.965 270.787C649.806 272.254 651.594 273.725 653.33 275.201M653.33 275.201L654.937 234.785M653.33 275.201C655.627 277.155 657.833 279.116 659.952 281.082M654.937 234.785C656.703 236.345 658.41 237.941 660.06 239.568M660.06 239.568L659.952 281.082M660.06 239.568C661.72 241.204 663.322 242.873 664.868 244.569M659.952 281.082C661.854 282.847 663.684 284.617 665.446 286.39M665.446 286.39L664.868 244.569M665.446 286.39C667.037 287.99 668.571 289.592 670.051 291.195M664.868 244.569C666.147 245.973 667.388 247.396 668.592 248.837M668.592 248.837L670.051 291.195M668.592 248.837C670.393 250.992 672.111 253.185 673.748 255.409M670.051 291.195C671.836 293.129 673.542 295.064 675.171 296.999M675.171 296.999L673.748 255.409M675.171 296.999C676.778 298.907 678.311 300.814 679.772 302.72M673.748 255.409C675.231 257.424 676.648 259.465 678.001 261.526M678.001 261.526L679.772 302.72M678.001 261.526C679.185 263.328 680.32 265.146 681.408 266.976M679.772 302.72C681.284 304.691 682.72 306.66 684.082 308.625M684.082 308.625L681.408 266.976M684.082 308.625C685.171 310.195 686.212 311.762 687.208 313.325M681.408 266.976C682.926 269.527 684.351 272.102 685.69 274.69M685.69 274.69L687.208 313.325M685.69 274.69C686.916 277.059 688.068 279.44 689.151 281.823M687.208 313.325C688.514 315.373 689.741 317.414 690.894 319.445M690.894 319.445L689.151 281.823M690.894 319.445C692.086 321.547 693.2 323.639 694.237 325.718M689.151 281.823C690.054 283.81 690.908 285.799 691.715 287.786M694.237 325.718L691.715 287.786M694.237 325.718C695.185 327.62 696.07 329.511 696.895 331.389M691.715 287.786C692.568 289.886 693.369 291.983 694.121 294.073M696.895 331.389L694.121 294.073M696.895 331.389C697.6 332.995 698.26 334.592 698.878 336.178M694.121 294.073C695.102 296.802 695.999 299.518 696.816 302.211M698.878 336.178L696.816 302.211M698.878 336.178C699.51 337.799 700.097 339.409 700.642 341.006M700.642 341.006C701.027 342.135 701.391 343.257 701.734 344.373M701.734 344.373L700.583 316.909M701.734 344.373C702.113 345.603 702.466 346.825 702.796 348.038M700.583 316.909C701.421 320.893 702.091 324.769 702.61 328.493M702.796 348.038L702.61 328.493M563.939 82.9711C564.353 83.0185 564.767 83.0659 565.181 83.1132C567.023 83.3239 568.839 83.5588 570.629 83.8173M563.939 82.9711L553.936 99.2657M553.936 99.2657C556.209 99.4894 558.445 99.7489 560.645 100.043M570.629 83.8173L560.645 100.043M570.629 83.8173C572.625 84.1058 574.59 84.4235 576.522 84.7696M560.645 100.043C562.898 100.344 565.114 100.681 567.291 101.053M576.522 84.7696L567.291 101.053M576.522 84.7696C578.921 85.1993 581.27 85.6727 583.571 86.1879M567.291 101.053C570.028 101.52 572.707 102.041 575.327 102.615M583.571 86.1879L575.327 102.615M583.571 86.1879C585.778 86.6822 587.941 87.2149 590.06 87.7845M575.327 102.615C577.617 103.116 579.863 103.657 582.065 104.236M590.06 87.7845L582.065 104.236M590.06 87.7845C592.126 88.3398 594.149 88.93 596.132 89.5537M582.065 104.236C584.25 104.81 586.392 105.421 588.492 106.067M588.492 106.067L596.132 89.5537M588.492 106.067C590.491 106.682 592.453 107.329 594.377 108.006M596.132 89.5537C597.924 90.1173 599.682 90.7082 601.408 91.3253M601.408 91.3253L594.377 108.006M601.408 91.3253C603.559 92.0945 605.659 92.9044 607.709 93.7529M594.377 108.006C596.84 108.873 599.241 109.789 601.582 110.752M601.582 110.752L607.709 93.7529M601.582 110.752C603.939 111.721 606.235 112.737 608.471 113.796M607.709 93.7529C609.578 94.5268 611.407 95.3327 613.194 96.1691M613.194 96.1691L608.471 113.796M613.194 96.1691C614.884 96.9597 616.537 97.7774 618.154 98.6209M608.471 113.796C610.157 114.594 611.809 115.417 613.427 116.263M613.427 116.263L618.154 98.6209M613.427 116.263C615.644 117.421 617.798 118.623 619.891 119.864M618.154 98.6209C619.985 99.5754 621.769 100.563 623.509 101.582M619.891 119.864L623.509 101.582M619.891 119.864C621.692 120.932 623.447 122.029 625.159 123.152M623.509 101.582C625.162 102.549 626.773 103.544 628.346 104.565M625.159 123.152L628.346 104.565M625.159 123.152C627.314 124.567 629.4 126.025 631.418 127.52M628.346 104.565C629.976 105.624 631.563 106.711 633.109 107.824M631.418 127.52L633.109 107.824M631.418 127.52C635.066 130.224 638.492 133.051 641.706 135.972M633.109 107.824C634.864 109.087 636.565 110.385 638.215 111.713M637.252 130.604L638.215 111.713M638.215 111.713C639.94 113.103 641.608 114.526 643.22 115.98M641.706 135.972L643.22 115.98M641.706 135.972C643.395 137.507 645.026 139.068 646.6 140.651M643.22 115.98C644.696 117.311 646.126 118.667 647.51 120.047M646.6 140.651L647.51 120.047M646.6 140.651C647.766 141.823 648.9 143.007 650.004 144.201M647.51 120.047C648.955 121.487 650.35 122.953 651.698 124.44M650.004 144.201L651.698 124.44M650.004 144.201C651.852 146.199 653.614 148.227 655.294 150.275M651.698 124.44C653.219 126.12 654.679 127.828 656.08 129.561M655.294 150.275L656.08 129.561M655.294 150.275C656.822 152.138 658.282 154.018 659.676 155.909M656.08 129.561C657.302 131.073 658.48 132.604 659.614 134.151M659.676 155.909L659.614 134.151M659.676 155.909C660.506 157.035 661.314 158.166 662.098 159.299M659.614 134.151C661.102 136.182 662.514 138.239 663.854 140.318M662.098 159.299L663.854 140.318M662.098 159.299C663.637 161.522 665.087 163.755 666.454 165.989M663.854 140.318C665.114 142.274 666.31 144.248 667.444 146.236M666.454 165.989L667.444 146.236M666.454 165.989C667.561 167.799 668.613 169.609 669.611 171.414M667.444 146.236C668.827 148.659 670.118 151.103 671.322 153.558M669.611 171.414L671.322 153.558M669.611 171.414C670.524 173.065 671.393 174.712 672.218 176.351M671.322 153.558C672.536 156.035 673.662 158.524 674.704 161.014M672.218 176.351L674.704 161.014M672.218 176.351C673.309 178.518 674.325 180.672 675.27 182.803M674.704 161.014C675.521 162.967 676.286 164.922 677.002 166.873M675.27 182.803L677.002 166.873M675.27 182.803C676.088 184.65 676.853 186.48 677.566 188.288M677.002 166.873C677.881 169.271 678.685 171.664 679.419 174.042M677.566 188.288L679.419 174.042M677.566 188.288C678.055 189.527 678.52 190.755 678.961 191.971M679.419 174.042C680.244 176.718 680.98 179.377 681.632 182.006M678.961 191.971L681.632 182.006M678.961 191.971C679.518 193.505 680.037 195.019 680.52 196.508M681.632 182.006C682.099 183.889 682.523 185.757 682.906 187.605M680.52 196.508L682.906 187.605M680.52 196.508C680.918 197.734 681.291 198.945 681.641 200.136M682.906 187.605C683.224 189.139 683.514 190.66 683.777 192.165M681.641 200.136L683.777 192.165M681.641 200.136C682.139 201.834 682.59 203.495 682.995 205.113M683.777 192.165C684.098 194.005 684.38 195.821 684.623 197.608M682.995 205.113L684.623 197.608M682.995 205.113C683.37 206.608 683.706 208.065 684.005 209.481M684.623 197.608C684.936 199.906 685.187 202.157 685.379 204.351M684.005 209.481L685.379 204.351M684.005 209.481C684.331 211.026 684.613 212.522 684.854 213.961M685.379 204.351C685.476 205.453 685.558 206.54 685.626 207.611M684.854 213.961L685.626 207.611M538.486 123.464L524.101 146.554M538.486 123.464C520.114 118.147 500.767 112.558 481.184 106.906M524.101 146.554C504.417 140.481 483.466 134.128 462.032 127.707M505.451 158.793L487.088 186.214M505.451 158.793C525.612 168.765 544.854 178.176 562.322 186.525M505.451 158.793C486.514 149.426 466.765 139.565 446.915 129.628M487.088 186.214C508.701 195.562 530.142 205.113 552.18 215.769M487.088 186.214C443.788 167.486 399.802 149.57 348.957 125.212M562.322 186.525L552.18 215.769M585.248 267.322L575.914 309.806M585.248 267.322C568.359 256.039 548.599 242.794 527.49 228.56M575.914 309.806C553.113 294.595 531.57 281.27 509.253 267.553M527.49 228.56L509.253 267.553M527.49 228.56C508.309 215.626 488.015 201.876 467.746 188.037M509.253 267.553C487.843 254.394 465.721 240.873 441.092 224.978M467.746 188.037L441.092 224.978M467.746 188.037C452.019 177.299 436.308 166.509 421.146 156.006M441.092 224.978C419.558 211.081 396.108 195.369 369.543 176.496M404.039 144.113L369.543 176.496M404.039 144.113C409.641 148.023 415.354 151.993 421.146 156.006M404.039 144.113C380.428 127.637 358.768 112.243 341.283 99.3545M421.146 156.006L446.915 129.628M446.915 129.628C427.257 119.786 407.499 109.87 388.329 100.283M348.957 125.212L388.329 100.283M388.329 100.283C367.384 89.8092 347.142 79.7295 328.501 70.5732M401.991 109.895L428.391 91.6818M401.991 109.895C422.004 115.78 442.224 121.772 462.032 127.707M428.391 91.6818C445.82 96.7041 463.597 101.83 481.184 106.906M462.032 127.707L481.184 106.906M341.283 99.3545L300.091 120.191L211.856 167.445M343.2 92.1998L372.738 75.6569M328.501 70.5732L274.413 93.8405M274.413 93.8405C276.333 95.5097 278.252 97.2083 280.168 98.9367M274.413 93.8405C272.524 92.1981 270.633 90.5841 268.741 88.9981M592.063 168.267L599.293 141.284M592.063 168.267C594.355 169.104 596.6 169.967 598.799 170.855M599.293 141.284C601.6 142.069 603.856 142.892 606.062 143.751M606.062 143.751L598.799 170.855M606.062 143.751C607.944 144.483 609.79 145.242 611.601 146.026M598.799 170.855C601.071 171.771 603.295 172.714 605.471 173.681M605.471 173.681L611.601 146.026M605.471 173.681C607.565 174.612 609.615 175.565 611.622 176.54M611.601 146.026C613.465 146.832 615.291 147.666 617.079 148.524M617.079 148.524L611.622 176.54M617.079 148.524C619.316 149.597 621.494 150.709 623.615 151.857M611.622 176.54C614.405 177.892 617.106 179.285 619.725 180.717M623.615 151.857L619.725 180.717M623.615 151.857C625.978 153.137 628.27 154.461 630.493 155.828M619.725 180.717C621.929 181.921 624.075 183.151 626.166 184.407M630.493 155.828L626.166 184.407M630.493 155.828C632.209 156.882 633.883 157.962 635.518 159.064M626.166 184.407C628.268 185.67 630.314 186.957 632.304 188.268M632.304 188.268L635.518 159.064M632.304 188.268C634.641 189.807 636.901 191.377 639.088 192.976M635.518 159.064C637.509 160.407 639.44 161.785 641.314 163.194M641.314 163.194L639.088 192.976M641.314 163.194C642.837 164.34 644.323 165.507 645.77 166.694M639.088 192.976C640.881 194.287 642.625 195.618 644.32 196.966M644.32 196.966L645.77 166.694M644.32 196.966C646.491 198.692 648.582 200.446 650.596 202.225M645.77 166.694C647.635 168.221 649.437 169.781 651.178 171.369M651.178 171.369L650.596 202.225M651.178 171.369C652.793 172.842 654.355 174.339 655.868 175.858M650.596 202.225C652.293 203.724 653.936 205.241 655.526 206.773M655.526 206.773L655.868 175.858M655.526 206.773C657.413 208.592 659.225 210.433 660.964 212.291M655.868 175.858C657.525 177.523 659.122 179.214 660.66 180.929M660.66 180.929L660.964 212.291M660.66 180.929C662.352 182.815 663.973 184.728 665.525 186.665M660.964 212.291C662.42 213.846 663.826 215.414 665.182 216.992M665.182 216.992L665.525 186.665M665.182 216.992C666.403 218.413 667.584 219.842 668.727 221.278M665.525 186.665C666.838 188.304 668.102 189.959 669.319 191.628M669.319 191.628L668.727 221.278M669.319 191.628C670.604 193.391 671.836 195.17 673.017 196.961M668.727 221.278C670.166 223.088 671.543 224.908 672.861 226.735M672.861 226.735L673.017 196.961M672.861 226.735C674.511 229.023 676.068 231.323 677.535 233.628M673.017 196.961C674.14 198.663 675.216 200.377 676.248 202.099M676.248 202.099L677.535 233.628M676.248 202.099C677.406 204.032 678.507 205.975 679.554 207.925M677.535 233.628C678.705 235.467 679.818 237.309 680.877 239.15M680.877 239.15L679.554 207.925M680.877 239.15C681.976 241.062 683.015 242.974 683.998 244.882M679.554 207.925C680.948 210.519 682.244 213.124 683.45 215.731M683.998 244.882L683.45 215.731M683.998 244.882C684.75 246.343 685.469 247.801 686.156 249.256M686.156 249.256L686.456 222.692M686.156 249.256C687.184 251.432 688.139 253.6 689.026 255.754M686.456 222.692C687.179 224.489 687.861 226.283 688.502 228.07M688.502 228.07L689.026 255.754M688.502 228.07C689.831 231.773 690.989 235.448 691.991 239.067M689.026 255.754C690.128 258.43 691.123 261.083 692.02 263.704M691.991 239.067L692.02 263.704M691.991 239.067C692.878 242.27 693.642 245.43 694.293 248.526M692.02 263.704C692.965 266.467 693.8 269.195 694.532 271.874M694.293 248.526L694.532 271.874M313.51 183.884L365.357 146.228M365.357 146.228C385.78 165.093 408.132 185.736 431.073 206.917M238.818 191.112C267.231 217.465 295.269 248.254 319.438 283.181C322.349 287.389 325.407 291.799 328.601 296.396M238.818 191.112C234.422 187.034 230.016 183.062 225.615 179.198M255.71 349.881C251.038 344.387 246.407 339.038 241.822 333.831M241.822 333.831L343.122 235.019M241.822 333.831C237.104 328.474 232.435 323.269 227.818 318.212M343.122 235.019C339.682 230.345 336.204 225.768 332.692 221.286M332.692 221.286L227.818 318.212M332.692 221.286C329.261 216.906 325.797 212.616 322.307 208.416M227.818 318.212C222.437 312.319 217.128 306.628 211.899 301.135M211.899 301.135L322.307 208.416M211.899 301.135C206.454 295.415 201.095 289.91 195.831 284.616M322.307 208.416C318.433 203.754 314.527 199.203 310.595 194.761M310.595 194.761L195.831 284.616M310.595 194.761C306.789 190.46 302.959 186.262 299.112 182.165M195.831 284.616C190.103 278.856 184.489 273.345 178.999 268.08M178.999 268.08L299.112 182.165M178.999 268.08C172.957 262.285 167.066 256.787 161.342 251.579M299.112 182.165C295.183 177.98 291.235 173.901 287.277 169.925M287.277 169.925L161.342 251.579M161.342 251.579C154.699 245.535 148.281 239.882 142.111 234.61M142.111 234.61L273.66 156.689M142.111 234.61C135.293 228.783 128.779 223.42 122.601 218.507M273.66 156.689C269.269 152.558 264.874 148.552 260.485 144.669M310.479 129.224L225.615 179.198M310.479 129.224C303.942 121.991 297.308 115.153 290.619 108.693M225.615 179.198C221.019 175.163 216.428 171.245 211.856 167.445M122.601 218.507L260.485 144.669M122.601 218.507C115.221 212.638 108.322 207.412 101.959 202.803M260.485 144.669C245.311 131.245 230.203 119.292 215.548 108.731M211.856 167.445C196.033 154.295 180.439 142.56 165.684 132.292M101.959 202.803L290.619 108.693M101.959 202.803C93.8166 196.905 86.5522 192.018 80.283 188.092M290.619 108.693C287.148 105.34 283.662 102.089 280.168 98.9367M80.283 188.092L280.168 98.9367M102.772 155.957L215.548 108.731M215.548 108.731C210.742 105.269 205.985 101.955 201.29 98.7892M165.684 132.292C134.2 110.382 106.54 95.1512 88.6422 87.1016L152.288 69.4693M165.684 132.292L268.741 88.9981M268.741 88.9981C265.022 85.88 261.301 82.8701 257.584 79.9653M285.973 72.8571L211.82 101.611M285.973 72.8571C289.099 75.384 292.214 77.9843 295.313 80.6593M285.973 72.8571C282.598 70.1283 279.209 67.4852 275.812 64.9264M211.82 101.611C215.738 104.676 219.577 107.751 223.323 110.815M257.584 79.9653L156.349 119.371M257.584 79.9653C255.029 77.9683 252.476 76.021 249.927 74.1223M156.349 119.371C151.044 115.769 145.538 112.141 139.791 108.46M201.29 98.7892L71.2655 146.216M201.29 98.7892C197.25 96.0645 193.256 93.4487 189.317 90.94M78.9752 123.179L184.495 87.9046M184.495 87.9046C186.093 88.8984 187.7 89.9102 189.317 90.94M184.495 87.9046C180.841 85.6319 177.238 83.453 173.694 81.3662M189.317 90.94L139.791 108.46M234.274 63.0132L173.694 81.3662M234.274 63.0132C235.838 64.0694 237.405 65.1436 238.975 66.236M173.694 81.3662C171.958 80.3442 170.236 79.3443 168.529 78.3663M173.694 81.3662L122.044 97.3799M158.566 72.811L220.898 54.3468M158.566 72.811C156.445 71.6613 154.352 70.5475 152.288 69.4693M158.566 72.811C161.824 74.5775 165.147 76.4288 168.529 78.3663M158.566 72.811L107.003 88.3711M220.898 54.3468C223.51 55.9685 226.137 57.64 228.776 59.3624M220.898 54.3468C219.395 53.4137 217.896 52.497 216.404 51.5966M208.307 46.8385L142.363 64.4424M208.307 46.8385C207.639 46.456 206.972 46.0768 206.306 45.7009M208.307 46.8385C210.986 48.3716 213.686 49.9572 216.404 51.5966M142.363 64.4424C145.587 66.0231 148.898 67.6982 152.288 69.4693M142.363 64.4424L90.8197 78.975C96.4118 82.1772 101.8 85.3049 107.003 88.3711M142.363 64.4424C139.968 63.2677 137.62 62.1452 135.324 61.0741M125.491 56.66L195.352 39.7346M125.491 56.66C128.65 58.0204 131.931 59.4911 135.324 61.0741M125.491 56.66L94.8623 63.8877M125.491 56.66C122.369 55.3151 119.367 54.0778 116.495 52.9462M195.352 39.7346C191.218 37.5654 187.151 35.5233 183.162 33.6028M195.352 39.7346L224.11 32.2383M195.352 39.7346C198.956 41.6256 202.61 43.6132 206.306 45.7009M183.162 33.6028L107.88 49.7242M183.162 33.6028C179.744 31.9574 176.384 30.4014 173.09 28.9311M183.162 33.6028L215.44 27.8685M107.88 49.7242C110.6 50.6831 113.475 51.7563 116.495 52.9462M107.88 49.7242L97.9056 52.53M100.875 41.4489L169.01 27.1391M169.01 27.1391C166.352 25.9902 163.74 24.8983 161.178 23.8613M169.01 27.1391C170.359 27.7217 171.719 28.319 173.09 28.9311M155.386 21.5754L103.092 33.1724M155.386 21.5754C153.973 21.0319 152.576 20.5057 151.198 19.9966M155.386 21.5754C157.286 22.3057 159.217 23.0674 161.178 23.8613M143.511 17.2641L105.422 24.4785M143.511 17.2641C142.402 16.8859 141.308 16.5195 140.229 16.1647M143.511 17.2641C146.002 18.1144 148.567 19.0244 151.198 19.9966M130.964 13.2886L107.632 16.2301M130.964 13.2886C127.252 12.2068 123.772 11.2804 120.549 10.4978M130.964 13.2886L162.694 7.68662M130.964 13.2886C133.911 14.1475 137.004 15.1043 140.229 16.1647M116.829 9.63215C114.282 9.06592 111.926 8.59923 109.777 8.22517L143.665 3.3425M116.829 9.63215L109.016 11.0638M116.829 9.63215C118.027 9.89845 119.268 10.1868 120.549 10.4978M168.529 78.3663L84.159 103.833M139.791 108.46C134.122 104.828 128.218 101.143 122.044 97.3799M122.044 97.3799C117.203 94.4297 112.195 91.4311 107.003 88.3711M135.324 61.0741L92.9717 70.9435M116.495 52.9462L96.1774 58.9797M328.601 296.396L391.789 225.413M389.787 257.742L431.073 206.917M94.1649 476.648C83.9433 469.025 73.9598 461.749 64.3821 454.904M64.3821 454.904C53.4891 447.119 43.1211 439.892 33.5248 433.346M223.323 110.815L295.313 80.6593M249.927 74.1223L275.812 64.9264M275.812 64.9264C272.501 62.4314 269.182 60.0166 265.861 57.6807M238.975 66.236L265.861 57.6807M265.861 57.6807C264.853 56.9721 263.846 56.2708 262.838 55.5767M228.776 59.3624L256.11 51.0484M256.11 51.0484C258.351 52.5222 260.595 54.0315 262.838 55.5767M256.11 51.0484C254.945 50.2831 253.782 49.5273 252.618 48.781M262.838 55.5767L276.366 50.9796M276.366 50.9796C273.181 48.9498 270.026 47.0131 266.908 45.166M266.908 45.166L252.618 48.781M266.908 45.166C265.347 44.2413 263.796 43.3391 262.254 42.4589M252.618 48.781C250.054 47.1359 247.493 45.537 244.937 43.9839M244.937 43.9839L258.915 40.5785M244.937 43.9839C242.351 42.412 239.77 40.8869 237.197 39.408M244.937 43.9839L216.404 51.5966M258.915 40.5785C260.023 41.1938 261.136 41.8206 262.254 42.4589M258.915 40.5785C257.717 39.913 256.525 39.2608 255.34 38.6217M262.254 42.4589L266.721 41.0841M266.721 41.0841C264.258 39.9674 261.893 38.9074 259.631 37.9076M259.631 37.9076L255.34 38.6217M255.34 38.6217C253.605 37.6859 251.884 36.7782 250.178 35.898M250.178 35.898L237.197 39.408M250.178 35.898C247.112 34.316 244.095 32.8226 241.132 31.4139M237.197 39.408C236.307 38.8964 235.418 38.3903 234.53 37.8896M229.622 35.1726L241.132 31.4139M229.622 35.1726C227.779 34.1709 225.941 33.1928 224.11 32.2383M229.622 35.1726C231.254 36.0596 232.89 36.9653 234.53 37.8896M221.897 31.0947C219.735 29.9865 217.582 28.9113 215.44 27.8685M221.897 31.0947C222.634 31.4721 223.371 31.8533 224.11 32.2383M212.986 26.6858L223.836 23.8583M212.986 26.6858C210.37 25.4374 207.771 24.2377 205.193 23.0861M212.986 26.6858C213.802 27.0753 214.62 27.4695 215.44 27.8685M223.836 23.8583C220.922 22.6985 218.083 21.627 215.327 20.6388M215.327 20.6388L205.193 23.0861M215.327 20.6388C212.329 19.5635 209.428 18.587 206.635 17.7029M205.193 23.0861C204.734 22.8812 204.277 22.6779 203.819 22.4761M197.215 19.6463L206.635 17.7029M197.215 19.6463C196.269 19.2529 195.325 18.866 194.385 18.4857M197.215 19.6463C199.4 20.5542 201.602 21.4974 203.819 22.4761M206.635 17.7029C203.31 16.6504 200.137 15.729 197.132 14.9281M190.913 17.1044L197.132 14.9281M190.913 17.1044C188.359 16.1063 185.833 15.1573 183.338 14.2566M190.913 17.1044C192.065 17.5548 193.222 18.0152 194.385 18.4857M197.132 14.9281C194.156 14.1351 191.344 13.4603 188.711 12.8934M183.338 14.2566L188.711 12.8934M183.338 14.2566L151.198 19.9966M134.016 1.89879L110.534 5.39951M134.016 1.89879C137.093 2.26298 140.314 2.74314 143.665 3.3425M143.665 3.3425C146.629 3.8726 149.695 4.49595 152.853 5.21476M152.853 5.21476L120.549 10.4978M152.853 5.21476C156.043 5.9406 159.326 6.76379 162.694 7.68662M194.385 18.4857L161.178 23.8613M173.09 28.9311L203.819 22.4761M206.306 45.7009L234.53 37.8896" stroke="#414756"/>
</svg>
