<svg width="20" height="18" viewBox="0 0 20 18" fill="none" xmlns="http://www.w3.org/2000/svg">
<path fill-rule="evenodd" clip-rule="evenodd" d="M17.6004 6.35306C17.7508 6.50317 17.7508 6.74698 17.6004 6.89709L10.0246 14.4584C8.37281 16.1071 5.75476 16.167 4.10263 14.5184L3.52627 13.9428C1.87445 12.2941 1.87445 9.62109 3.52627 7.97241L9.28701 2.22259C9.36748 2.14228 9.4422 2.0642 9.52905 1.99472L9.52809 1.99376C9.53735 1.98516 9.54917 1.98261 9.55811 1.974C10.0144 1.51857 10.0313 0.79701 9.57503 0.341576C9.11873 -0.113859 8.37888 -0.113859 7.92258 0.341576C7.91364 0.3505 7.91109 0.362611 7.90278 0.371534C7.89895 0.36771 7.8948 0.363566 7.89097 0.359742L1.91948 6.31959C-0.639826 8.87404 -0.639826 13.0153 1.91948 15.5698L2.46455 16.1138C5.02353 18.6683 9.11298 18.6084 11.6723 16.0542L19.2097 8.53111C20.2634 7.47937 20.2634 5.77428 19.2097 4.72254L15.983 1.50901C14.9296 0.457904 13.2222 0.457904 12.1691 1.50901L4.61161 9.0522C3.55852 10.1033 3.55852 11.8078 4.61161 12.8589L5.13273 13.379C6.18615 14.4301 7.89352 14.4301 8.94662 13.379L14.7594 7.57721C14.8073 7.54216 14.8456 7.50646 14.8887 7.46344C15.345 7.008 15.362 6.28645 14.9057 5.83101C14.4494 5.37558 13.7095 5.37558 13.2532 5.83101C13.2404 5.84376 13.2363 5.86097 13.2245 5.87436L7.31652 11.7711C7.1674 11.9199 6.92568 11.9199 6.77656 11.7711L6.23149 11.2271C6.08238 11.0782 6.08238 10.837 6.23149 10.6878L13.8858 3.04805C13.9666 2.9671 14.0748 2.93427 14.1808 2.94128L17.6004 6.35306Z" fill="currentColor"/>
</svg>
