<svg width="15" height="11" viewBox="0 0 15 11" fill="none" xmlns="http://www.w3.org/2000/svg">
<path d="M14.3142 4.91571L9.63985 0.241379C9.31801 -0.0804598 8.79694 -0.0804598 8.49042 0.241379C8.16858 0.563218 8.16858 1.08429 8.49042 1.3908L11.7854 4.68582H0.812261C0.367816 4.68582 0 5.05364 0 5.49808C0 5.94253 0.367816 6.31034 0.812261 6.31034H11.7701L8.49042 9.60536C8.16858 9.9272 8.16858 10.4483 8.49042 10.7548C8.64368 10.908 8.85824 11 9.0728 11C9.28736 11 9.48659 10.9234 9.65517 10.7548L14.3448 6.06513C14.4981 5.91188 14.59 5.69732 14.59 5.48276C14.5594 5.28352 14.4674 5.06897 14.3142 4.91571Z" fill="currentColor"/>
</svg>
