<svg width="16" height="13" viewBox="0 0 16 13" fill="none" xmlns="http://www.w3.org/2000/svg">
<path d="M15.6946 5.38977L10.5695 0.264657C10.2166 -0.0882191 9.64529 -0.0882191 9.30922 0.264657C8.95634 0.617534 8.95634 1.18886 9.30922 1.52493L12.922 5.13771H0.890593C0.403287 5.13771 0 5.541 0 6.02831C0 6.51561 0.403287 6.9189 0.890593 6.9189H12.9052L9.30922 10.5317C8.95634 10.8846 8.95634 11.4559 9.30922 11.792C9.47725 11.96 9.71251 12.0608 9.94776 12.0608C10.183 12.0608 10.4015 11.9768 10.5863 11.792L15.7282 6.65004C15.8962 6.48201 15.9971 6.24676 15.9971 6.0115C15.9635 5.79306 15.8626 5.55781 15.6946 5.38977Z" fill="currentColor"/>
</svg>
