<svg width="39" height="44" viewBox="0 0 39 44" fill="none" xmlns="http://www.w3.org/2000/svg">
<path d="M38.5303 16.1543C38.2395 15.977 37.8772 15.9679 37.5774 16.1316L31.3279 19.5507V16.6226C31.3279 16.0816 30.894 15.6405 30.3617 15.6405H28.7915C30.7509 14.0265 32.0079 11.5576 32.0079 8.80235C32.0079 3.94651 28.1204 0 23.3472 0C19.2719 0 15.8407 2.87804 14.9281 6.73816C13.7292 5.26959 11.9174 4.32843 9.89539 4.32843C6.29422 4.32843 3.36407 7.30649 3.36407 10.9666C3.36407 12.7898 4.08878 14.4402 5.26084 15.6405H4.37956C3.84721 15.6405 3.41328 16.0816 3.41328 16.6226V21.0829H0.966277C0.43393 21.0829 0 21.5239 0 22.065V25.9251C0 26.4662 0.43393 26.9072 0.966277 26.9072H3.41328V31.3675C3.41328 31.9085 3.84721 32.3495 4.37956 32.3495H15.778L10.5396 42.5614C10.2935 43.0433 10.4769 43.6344 10.9511 43.8844C11.0898 43.9572 11.2419 43.9981 11.3985 43.9981C11.7474 43.9981 12.0829 43.8071 12.2574 43.4707L17.3751 33.4953L22.4928 43.4707C22.7388 43.9526 23.3248 44.139 23.7946 43.889C24.2688 43.6389 24.4522 43.0433 24.2061 42.5659L18.9632 32.3495H30.3617C30.894 32.3495 31.3279 31.9085 31.3279 31.3675V28.4394L37.5774 31.8585C37.8772 32.0222 38.2395 32.0131 38.5303 31.8358C38.8211 31.6584 39 31.3402 39 30.9946V17C39 16.6544 38.8211 16.3316 38.5303 16.1543ZM3.40881 24.943H1.92808V23.0471H3.40881V24.943ZM23.3427 1.95961C27.0513 1.95961 30.0709 5.02861 30.0709 8.7978C30.0709 12.5715 27.0513 15.636 23.3427 15.636C19.6342 15.636 16.6146 12.567 16.6146 8.7978C16.6146 5.02861 19.6342 1.95961 23.3427 1.95961ZM15.9659 13.4081C16.4804 14.2583 17.1335 15.0131 17.8985 15.6405H14.5255C15.1473 15.004 15.6394 14.2447 15.9659 13.4081ZM9.89092 6.29259C12.4274 6.29259 14.4897 8.3886 14.4897 10.9666C14.4897 13.5445 12.4274 15.6405 9.89092 15.6405C7.35444 15.6405 5.29215 13.5445 5.29215 10.9666C5.29215 8.3886 7.35444 6.29259 9.89092 6.29259ZM29.3954 21.1966V30.3854H5.34136V17.6047H29.3954V21.1966ZM37.0675 29.3442L31.3279 26.2024V21.7785L37.0675 18.6368V29.3442ZM23.3427 13.0853C25.669 13.0853 27.5568 11.1621 27.5568 8.80235C27.5568 6.43808 25.6645 4.51939 23.3427 4.51939C21.0165 4.51939 19.1287 6.44263 19.1287 8.80235C19.1287 11.1621 21.021 13.0853 23.3427 13.0853ZM23.3427 6.48355C24.5998 6.48355 25.6242 7.52473 25.6242 8.80235C25.6242 10.08 24.5998 11.1211 23.3427 11.1211C22.0857 11.1211 21.0613 10.08 21.0613 8.80235C21.0613 7.52019 22.0857 6.48355 23.3427 6.48355ZM9.89092 13.9492C11.5103 13.9492 12.8255 12.6125 12.8255 10.9666C12.8255 9.32067 11.5103 7.98395 9.89092 7.98395C8.27151 7.98395 6.9563 9.32067 6.9563 10.9666C6.9563 12.6125 8.27598 13.9492 9.89092 13.9492ZM9.89092 9.7526C10.5485 9.7526 11.0853 10.2982 11.0853 10.9666C11.0853 11.6349 10.5485 12.1805 9.89092 12.1805C9.23331 12.1805 8.69649 11.6349 8.69649 10.9666C8.69649 10.2982 9.23331 9.7526 9.89092 9.7526ZM9.72092 27.5301H20.2292C20.7347 27.5301 21.1463 27.1118 21.1463 26.598V21.3966C21.1463 20.8828 20.7347 20.4646 20.2292 20.4646H9.72092C9.21542 20.4646 8.80385 20.8828 8.80385 21.3966V26.598C8.80385 27.1118 9.21542 27.5301 9.72092 27.5301ZM10.638 22.3287H19.3076V25.6614H10.638V22.3287ZM24.3269 22.3787C24.3269 21.8376 24.7608 21.3966 25.2932 21.3966C25.8255 21.3966 26.2595 21.8376 26.2595 22.3787C26.2595 22.9198 25.83 23.3608 25.2932 23.3608C24.7564 23.3608 24.3269 22.9198 24.3269 22.3787ZM24.3269 25.6114C24.3269 25.0703 24.7608 24.6293 25.2932 24.6293C25.8255 24.6293 26.2595 25.0703 26.2595 25.6114C26.2595 26.1524 25.8255 26.5935 25.2932 26.5935C24.7608 26.5935 24.3269 26.157 24.3269 25.6114Z" fill="currentColor"/>
</svg>
