<svg width="13" height="16" viewBox="0 0 13 16" fill="none" xmlns="http://www.w3.org/2000/svg">
<path d="M5.38977 0.302467L0.264657 5.42758C-0.0882197 5.78045 -0.0882196 6.35178 0.264657 6.68785C0.617533 7.04073 1.18886 7.04073 1.52493 6.68785L5.13771 3.07507L5.13771 15.1065C5.13771 15.5938 5.541 15.9971 6.02831 15.9971C6.51561 15.9971 6.9189 15.5938 6.9189 15.1065L6.9189 3.09187L10.5317 6.68785C10.8846 7.04073 11.4559 7.04073 11.792 6.68785C11.96 6.51982 12.0608 6.28456 12.0608 6.04931C12.0608 5.81406 11.9768 5.59561 11.792 5.41077L6.65004 0.268861C6.48201 0.100824 6.24675 2.64014e-06 6.0115 2.64845e-06C5.79306 0.0336101 5.5578 0.134431 5.38977 0.302467Z" fill="currentColor"/>
</svg>
