<svg width="16" height="13" viewBox="0 0 16 13" fill="none" xmlns="http://www.w3.org/2000/svg">
<path d="M0.305397 5.38977L5.43051 0.264657C5.78338 -0.0882191 6.35471 -0.0882191 6.69078 0.264657C7.04366 0.617534 7.04366 1.18886 6.69078 1.52493L3.078 5.13771H15.1094C15.5967 5.13771 16 5.541 16 6.02831C16 6.51561 15.5967 6.9189 15.1094 6.9189H3.0948L6.69078 10.5317C7.04366 10.8846 7.04366 11.4559 6.69078 11.792C6.52275 11.96 6.28749 12.0608 6.05224 12.0608C5.81699 12.0608 5.59855 11.9768 5.4137 11.792L0.271791 6.65004C0.103754 6.48201 0.00293255 6.24676 0.00293255 6.0115C0.03654 5.79306 0.137361 5.55781 0.305397 5.38977Z" fill="currentColor"/>
</svg>
