<svg width="15" height="22" viewBox="0 0 15 22" fill="none" xmlns="http://www.w3.org/2000/svg">
<path d="M13.3309 0.000174364H1.66869C0.748778 0.000174364 0 0.724823 0 1.61509V20.3847C0 21.2754 0.748778 22 1.66869 22H13.3309C14.2512 22 15 21.2754 15 20.3847V1.61509C15 0.724416 14.2512 0 13.3309 0V0.000174364ZM13.2839 1.66115V14.4979L1.71609 14.4977V1.66092L13.2839 1.66115ZM1.71609 20.3388V16.1588H13.2833V20.3391L1.71609 20.3388ZM4.84099 3.84946V3.08323C4.84099 2.83744 5.04895 2.63618 5.30293 2.63618H9.69626C9.95024 2.63618 10.1582 2.83744 10.1582 3.08323V3.84946C10.1582 4.09525 9.95024 4.29652 9.69626 4.29652L5.30317 4.29674C5.04919 4.29674 4.84099 4.09548 4.84099 3.84946L4.84099 3.84946ZM8.94493 17.8249V18.567C8.94493 19.1343 8.46985 19.5945 7.88351 19.5945H7.1164C6.53029 19.5945 6.05498 19.1347 6.05498 18.567V17.8249C6.05498 17.2577 6.53006 16.7974 7.1164 16.7974H7.88327C8.46938 16.7977 8.94493 17.2574 8.94493 17.8249Z" fill="currentColor"/>
</svg>
