<svg width="10" height="10" viewBox="0 0 10 10" fill="none" xmlns="http://www.w3.org/2000/svg">
<path d="M0.512325 1.92654L3.69537 5.10958L0.512327 8.29262C0.122702 8.68225 0.122864 9.31525 0.513388 9.70578C0.906634 10.099 1.5366 10.0968 1.92654 9.70683L5.10958 6.52379L8.29262 9.70683C8.68225 10.0965 9.31525 10.0963 9.70578 9.70578C10.099 9.31253 10.0968 8.68256 9.70683 8.29262L6.52379 5.10958L9.70683 1.92654C10.0965 1.53692 10.0963 0.903912 9.70577 0.513388C9.31253 0.120141 8.68256 0.122388 8.29262 0.512327L5.10958 3.69537L1.92654 0.512327C1.53691 0.122703 0.903909 0.122864 0.513385 0.513388C0.120138 0.906635 0.122385 1.5366 0.512325 1.92654Z" fill="currentColor"/>
</svg>
