<svg width="155" height="49" viewBox="0 0 155 49" fill="none" xmlns="http://www.w3.org/2000/svg">
<path fill-rule="evenodd" clip-rule="evenodd" d="M6.55526 8.82016C6.35171 6.4188 6.96131 4.98018 8.95318 5.29344C10.9451 5.60671 19.5253 7.54308 20.9556 7.9131C22.3858 8.28313 22.7971 8.82452 22.7971 10.8602C22.7971 11.3558 22.7972 11.7978 22.7876 12.17C22.7812 12.766 22.7758 13.1873 22.7971 13.3707H15.8496C13.7565 13.3707 12.2751 14.4688 12.2261 16.4052C12.1845 17.9529 12.209 28.2788 12.2261 33.2485C11.9873 33.3576 11.3063 33.636 10.4889 33.9285C9.46792 34.2953 8.34464 34.4513 8.19117 32.5161C8.06968 30.9683 7.04977 16.0733 6.55526 8.82016ZM4.30867 8.40102C4.00174 5.00092 4.71685 3.11804 7.37268 3.58848C8.80823 3.84281 12.5714 4.72367 15.9764 5.52157C18.872 6.19941 21.5076 6.81612 22.2355 6.94056C23.8192 7.20252 24.0739 8.56256 24.0739 10.5502V13.3227H27.804C29.4101 13.3227 29.3962 14.7417 29.3856 15.8769C29.3856 15.9696 29.3856 16.0602 29.3856 16.1476C29.3856 16.6933 29.3419 17.4377 29.3024 18.1276C29.2673 18.717 29.2364 19.2628 29.2364 19.6001H33.932L33.5196 20.7254H29.2332L28.8751 27.9644L27.5962 29.5646C27.8179 25.5194 28.209 17.2718 28.209 16.1388C28.209 14.6009 27.5962 14.4437 26.4217 14.4437H16.4613C14.8275 14.4437 13.911 15.5112 13.911 17.0284V38.4802C13.911 39.79 14.3203 40.4154 15.5459 39.9439C16.5263 39.5673 18.5416 38.6341 19.4273 38.2182L17.4866 40.2059C16.7186 40.7038 15.8958 41.1068 15.0354 41.4065C13.6563 41.8781 12.2772 41.9305 12.2772 40.2059V34.3476C11.5147 34.724 10.7319 35.0557 9.93259 35.3409C8.60468 35.8114 6.66396 36.021 6.5105 34.0311C6.38154 32.4429 4.98968 16.2829 4.30867 8.40102Z" fill="currentColor"/>
<path d="M1.13787 46.3137C-1.73638 41.7284 1.48235 32.3155 3.66548 28.0446C3.97551 27.4211 4.28555 28.0446 3.66548 29.4191C3.04542 30.7935 -0.874101 41.0751 3.66548 45.0965C8.20507 49.1178 19.4523 42.5005 29.3582 30.0298C39.2641 17.559 40.2437 6.46165 35.8064 3.45788C31.3691 0.454109 24.6109 4.83231 22.6 6.15576C20.9852 7.21791 20.9486 6.89926 21.052 6.46166C24.5086 3.30493 32.8633 -1.39829 37.8152 1.70639C40.7562 3.55029 45.5024 12.346 31.2636 31.5869C18.8322 48.3806 4.61495 51.8624 1.13787 46.3137Z" fill="currentColor"/>
<path d="M22.7463 43.8589L21.2047 45.0522V47.4951C21.2047 48.8468 23.0552 49.003 24.1344 48.4834C25.2136 47.9638 34.5197 43.2319 35.8563 42.504C36.9355 41.9171 37.3474 40.8931 37.5019 39.5414C37.6253 38.4566 37.9986 29.213 38.1702 24.7241L37.09 26.7516C36.9355 30.339 36.6169 37.7211 36.5761 38.5531C36.5171 39.7464 36.3187 41.1393 35.1365 41.7772C33.5939 42.6081 25.78 46.6588 24.6493 47.1838C23.7439 47.5993 22.7463 47.4431 22.7463 46.508V43.8589Z" fill="currentColor"/>
<path d="M66.8516 19.6874C66.8501 19.7862 66.8429 19.8849 66.8299 19.9829C66.8199 20.1163 66.8009 20.249 66.7729 20.3799C66.75 20.5168 66.7192 20.6571 66.6816 20.8009C66.6464 20.9294 66.601 21.0549 66.5458 21.1762C66.4989 21.2792 66.4374 21.3748 66.3633 21.4603C66.3404 21.4902 66.3113 21.5147 66.278 21.5322C66.2447 21.5498 66.208 21.5599 66.1705 21.5618C65.9975 21.5399 65.8332 21.4734 65.6936 21.369C65.4349 21.2113 65.1684 21.067 64.8949 20.9366C64.5115 20.7569 64.1124 20.6126 63.7027 20.5054C63.1569 20.3675 62.5953 20.3027 62.0324 20.3126C61.4296 20.3058 60.83 20.4018 60.2595 20.5967C59.731 20.7732 59.2327 21.0298 58.7821 21.3576C58.3396 21.6799 57.9458 22.0642 57.6126 22.4985C57.2776 22.9313 56.9918 23.4001 56.7604 23.8961C56.5331 24.3945 56.3613 24.9163 56.2481 25.4523C56.1362 25.9773 56.0792 26.5126 56.0781 27.0495C56.0679 27.5716 56.1526 28.0911 56.328 28.5829C56.4799 29 56.7249 29.3769 57.0445 29.685C57.3729 29.987 57.7618 30.2157 58.1854 30.3558C58.6696 30.5135 59.1764 30.5906 59.6856 30.584C60.056 30.5842 60.4253 30.546 60.7877 30.4699C61.1379 30.3981 61.4778 30.2831 61.7997 30.1276L62.4842 26.7301H59.7119C59.6703 26.7317 59.629 26.7232 59.5914 26.7053C59.5538 26.6874 59.5212 26.6607 59.4963 26.6274C59.4349 26.5205 59.4071 26.3977 59.4164 26.2749C59.4183 26.176 59.426 26.0773 59.4392 25.9794C59.454 25.8584 59.4734 25.7341 59.4963 25.6052C59.5191 25.4762 59.5601 25.3325 59.5978 25.1956C59.6317 25.0705 59.6776 24.9491 59.7347 24.8328C59.7871 24.7372 59.8519 24.6489 59.9275 24.5704C59.9567 24.5389 59.992 24.5136 60.0312 24.4962C60.0704 24.4787 60.1128 24.4694 60.1557 24.4688H65.122C65.2251 24.4594 65.329 24.4776 65.4228 24.5215C65.5166 24.5654 65.5971 24.6334 65.6559 24.7187C65.7616 24.8853 65.7845 25.1199 65.7244 25.4226L64.5424 31.3085C64.5167 31.437 64.4785 31.5627 64.4283 31.6838C64.3819 31.7833 64.3208 31.8752 64.2469 31.9565C64.1636 32.0478 63.9697 32.1573 63.6673 32.2862C63.3029 32.4271 62.9312 32.5486 62.5538 32.6502C62.076 32.7775 61.591 32.8765 61.1015 32.9468C60.5564 33.0314 60.0056 33.0733 59.454 33.0723C58.5133 33.0876 57.5754 32.965 56.6703 32.7083C55.9263 32.498 55.2364 32.1299 54.6475 31.6291C54.1076 31.1406 53.6875 30.5343 53.4199 29.8573C53.1277 29.0882 52.9855 28.2703 53.0012 27.4477C53.0001 26.6378 53.0877 25.8301 53.2624 25.0393C53.4404 24.2645 53.7084 23.5133 54.061 22.8008C54.4135 22.0938 54.8527 21.4335 55.3685 20.8351C55.8921 20.2282 56.5003 19.6998 57.1745 19.2664C57.8864 18.8157 58.6595 18.4699 59.47 18.2396C60.3674 17.9817 61.2973 17.8553 62.231 17.8642C62.7566 17.8618 63.2813 17.9076 63.7986 18.0011C64.2457 18.0733 64.6866 18.1797 65.1174 18.3194C65.459 18.4191 65.7899 18.5521 66.1054 18.7165C66.2931 18.8084 66.4687 18.9234 66.628 19.0587C66.713 19.1262 66.7764 19.217 66.8105 19.32C66.8418 19.4398 66.8557 19.5636 66.8516 19.6874Z" fill="currentColor"/>
<path d="M126.621 32.0841C126.558 32.2445 126.47 32.3939 126.36 32.5268C126.251 32.6401 126.113 32.7223 125.962 32.7653C125.755 32.825 125.542 32.8595 125.327 32.8679C125.076 32.8831 124.758 32.8908 124.372 32.8908C123.963 32.8908 123.629 32.8828 123.372 32.8679C123.172 32.8605 122.974 32.8298 122.781 32.7767C122.662 32.738 122.561 32.6568 122.497 32.5485C122.438 32.428 122.407 32.2958 122.406 32.1617L121.872 22.7425H121.849L117.77 32.083C117.707 32.241 117.623 32.3899 117.521 32.5257C117.431 32.636 117.313 32.7187 117.178 32.7641C116.987 32.8258 116.788 32.8604 116.587 32.8668C116.338 32.882 116.016 32.8896 115.621 32.8896C115.165 32.8896 114.801 32.882 114.53 32.8668C114.315 32.8612 114.101 32.8266 113.895 32.7641C113.831 32.7449 113.772 32.7128 113.721 32.6699C113.67 32.6269 113.629 32.5739 113.599 32.5143C113.547 32.3645 113.52 32.2073 113.519 32.0488L112.721 19.1179C112.711 18.9247 112.715 18.7311 112.732 18.5384C112.739 18.4744 112.76 18.4128 112.793 18.3578C112.827 18.3028 112.872 18.2557 112.925 18.22C113.065 18.134 113.226 18.0871 113.391 18.0843C113.685 18.058 113.981 18.0466 114.277 18.05C114.539 18.0478 114.8 18.0592 115.061 18.0843C115.221 18.0873 115.38 18.1218 115.527 18.1858C115.572 18.201 115.613 18.2264 115.647 18.26C115.68 18.2937 115.705 18.3347 115.72 18.3798C115.754 18.4859 115.77 18.597 115.766 18.7083L116.061 29.9233H116.084L121.049 18.7197C121.097 18.5973 121.162 18.4821 121.242 18.3775C121.324 18.2822 121.43 18.2112 121.549 18.1721C121.709 18.1128 121.878 18.0786 122.049 18.0706C122.261 18.0546 122.542 18.0478 122.89 18.0478C123.238 18.0478 123.515 18.0546 123.719 18.0706C123.879 18.0753 124.038 18.1097 124.186 18.1721C124.233 18.1894 124.275 18.2167 124.311 18.2521C124.346 18.2876 124.373 18.3304 124.39 18.3775C124.425 18.4954 124.444 18.6174 124.447 18.7403L125.017 29.921H125.04L129.868 18.5817C129.901 18.4861 129.951 18.3975 130.017 18.3204C130.094 18.2389 130.192 18.1798 130.301 18.1493C130.468 18.1055 130.639 18.0792 130.812 18.0706C131.024 18.0546 131.297 18.0478 131.63 18.0478C131.884 18.0429 132.139 18.0581 132.391 18.0934C132.535 18.0954 132.673 18.1521 132.778 18.252C132.813 18.3071 132.835 18.3701 132.841 18.4355C132.847 18.5008 132.837 18.5667 132.812 18.6273C132.745 18.8436 132.665 19.0558 132.573 19.2628L126.621 32.0841Z" fill="currentColor"/>
<path d="M139.452 25.3345C139.229 24.9621 138.927 24.6438 138.566 24.4024C138.235 24.1865 137.847 24.0755 137.452 24.0841C137.146 24.0817 136.844 24.1605 136.577 24.3123C136.305 24.4698 136.066 24.6782 135.873 24.9261C135.657 25.1945 135.474 25.4884 135.328 25.8011C135.174 26.1398 135.045 26.4891 134.941 26.8462C134.842 27.2045 134.766 27.5688 134.713 27.9369C134.669 28.2725 134.646 28.6104 134.645 28.9488C134.644 29.1653 134.659 29.3815 134.69 29.5957C134.723 29.7875 134.788 29.9723 134.883 30.1422C134.972 30.312 135.109 30.4521 135.276 30.5449C135.444 30.6378 135.635 30.6795 135.827 30.6647C136.189 30.6575 136.543 30.5556 136.853 30.3692C137.22 30.1488 137.549 29.8729 137.831 29.5512C138.485 28.7809 138.934 27.8585 139.137 26.869L139.452 25.3345ZM140.861 32.4468C140.83 32.6065 140.71 32.7195 140.497 32.7891C140.171 32.8718 139.834 32.9064 139.498 32.8918C139.263 32.8918 139.069 32.8838 138.918 32.8689C138.799 32.8584 138.681 32.8354 138.566 32.8005C138.492 32.7764 138.428 32.7286 138.384 32.6647C138.361 32.5949 138.357 32.5199 138.373 32.448L138.69 30.8233C138.549 31.107 138.365 31.3675 138.145 31.5957C137.88 31.8732 137.583 32.1176 137.26 32.3236C136.902 32.5504 136.519 32.7334 136.119 32.8689C135.71 33.0126 135.279 33.0855 134.845 33.0846C134.237 33.0846 133.733 32.9785 133.335 32.7663C132.947 32.5663 132.615 32.2735 132.369 31.914C132.121 31.5366 131.943 31.1171 131.846 30.6762C131.746 30.1978 131.696 29.7102 131.698 29.2215C131.702 28.6996 131.747 28.1788 131.835 27.6642C131.927 27.0892 132.068 26.5228 132.254 25.9711C132.444 25.411 132.688 24.8707 132.982 24.3579C133.268 23.8487 133.623 23.382 134.039 22.9717C134.452 22.5721 134.933 22.2492 135.459 22.0179C136.032 21.7679 136.653 21.6437 137.278 21.654C137.859 21.6426 138.434 21.7792 138.948 22.051C139.454 22.329 139.889 22.7193 140.22 23.1919L140.402 22.2952C140.432 22.1354 140.55 22.0225 140.754 21.9529C141.084 21.8709 141.425 21.8363 141.765 21.8502C141.956 21.8477 142.146 21.8591 142.335 21.8844C142.456 21.8924 142.575 21.9193 142.688 21.9643C142.726 21.9736 142.762 21.9904 142.793 22.0137C142.824 22.037 142.851 22.0664 142.87 22.1001C142.901 22.1598 142.909 22.2289 142.892 22.294L140.861 32.4468Z" fill="currentColor"/>
<path d="M146.537 32.4355C146.521 32.5139 146.481 32.5855 146.423 32.6409C146.351 32.704 146.266 32.7504 146.173 32.7767C146.025 32.821 145.872 32.8478 145.717 32.8565C145.252 32.9022 144.784 32.9022 144.32 32.8565C144.18 32.8484 144.043 32.8216 143.911 32.7767C143.832 32.7517 143.761 32.7046 143.707 32.6409C143.676 32.5772 143.668 32.5046 143.684 32.4355L146.672 17.4899C146.687 17.4134 146.723 17.3425 146.775 17.2845C146.847 17.2125 146.937 17.1616 147.036 17.1374C147.184 17.0856 147.337 17.0511 147.492 17.0347C147.727 17.0095 147.962 16.9981 148.197 17.0005C148.426 16.9975 148.655 17.0089 148.882 17.0347C149.027 17.0481 149.168 17.0827 149.303 17.1374C149.383 17.1612 149.452 17.2136 149.496 17.2845C149.526 17.3485 149.534 17.4208 149.519 17.4899L146.537 32.4355Z" fill="currentColor"/>
<path d="M152.01 32.4356C151.994 32.5139 151.954 32.5855 151.896 32.6409C151.824 32.7045 151.739 32.751 151.647 32.7767C151.498 32.8211 151.345 32.8479 151.19 32.8566C150.96 32.8815 150.728 32.8929 150.497 32.8908C150.261 32.8935 150.026 32.8821 149.793 32.8566C149.653 32.8485 149.515 32.8217 149.383 32.7767C149.303 32.7518 149.233 32.7047 149.179 32.6409C149.148 32.5771 149.14 32.5046 149.156 32.4356L152.144 17.4899C152.16 17.4136 152.195 17.3428 152.247 17.2846C152.319 17.2128 152.409 17.1619 152.508 17.1374C152.656 17.0856 152.809 17.0511 152.964 17.0347C153.198 17.0096 153.434 16.9981 153.669 17.0005C153.898 16.9975 154.127 17.0089 154.354 17.0347C154.499 17.0479 154.64 17.0825 154.775 17.1374C154.855 17.1607 154.924 17.2132 154.968 17.2846C154.998 17.3484 155.006 17.4208 154.99 17.4899L152.01 32.4356Z" fill="currentColor"/>
<path d="M70.0503 32.4355C70.0342 32.5141 69.9944 32.5858 69.9362 32.6409C69.8643 32.7045 69.7788 32.751 69.6863 32.7767C69.5379 32.8212 69.3847 32.848 69.23 32.8565C68.9996 32.8815 68.768 32.8929 68.5363 32.8908C68.3012 32.8935 68.0661 32.8821 67.8324 32.8565C67.6929 32.8484 67.5551 32.8215 67.4228 32.7767C67.3432 32.7517 67.2724 32.7046 67.2186 32.6409C67.1884 32.5769 67.1803 32.5046 67.1958 32.4355L70.1849 17.4899C70.2001 17.4137 70.2351 17.3429 70.2865 17.2845C70.3589 17.213 70.4491 17.1622 70.5477 17.1373C70.6953 17.0855 70.8485 17.0511 71.0041 17.0347C71.2378 17.0095 71.4729 16.9981 71.708 17.0004C71.9367 16.9975 72.1653 17.0089 72.3925 17.0347C72.5368 17.048 72.6783 17.0826 72.8124 17.1373C72.8928 17.1606 72.9615 17.2131 73.0052 17.2845C73.0365 17.3482 73.0446 17.4209 73.028 17.4899L70.0503 32.4355Z" fill="currentColor"/>
<path d="M81.1044 25.3346C80.8813 24.9623 80.5786 24.6439 80.2179 24.4025C79.8873 24.1866 79.4991 24.0757 79.1044 24.0842C78.7977 24.0819 78.4958 24.1606 78.2293 24.3124C77.9575 24.47 77.7185 24.6784 77.5254 24.9262C77.3087 25.1946 77.1256 25.4885 76.98 25.8013C76.8264 26.14 76.6971 26.4892 76.5933 26.8463C76.4939 27.2046 76.4177 27.5689 76.3651 27.937C76.3214 28.2726 76.2985 28.6106 76.2966 28.949C76.2957 29.1655 76.3109 29.3817 76.3423 29.5959C76.375 29.7877 76.4402 29.9725 76.5351 30.1424C76.624 30.3122 76.7608 30.4522 76.9285 30.5451C77.0962 30.638 77.2875 30.6796 77.4786 30.6649C77.8408 30.6577 78.1948 30.5558 78.5054 30.3694C78.8717 30.149 79.2015 29.873 79.4831 29.5514C80.1367 28.781 80.5859 27.8587 80.7895 26.8692L81.1044 25.3346ZM82.5133 32.447C82.4825 32.6067 82.3616 32.7196 82.1494 32.7892C81.823 32.8719 81.4864 32.9065 81.15 32.8919C80.915 32.8919 80.721 32.8839 80.5704 32.8691C80.4509 32.8585 80.3327 32.8356 80.2179 32.8006C80.1442 32.7765 80.0804 32.7288 80.0365 32.6649C80.0127 32.595 80.0088 32.52 80.0251 32.4481L80.3434 30.8235C80.2011 31.107 80.0169 31.3674 79.7969 31.5959C79.5323 31.8733 79.235 32.1177 78.9116 32.3237C78.5544 32.5505 78.1714 32.7336 77.7707 32.8691C77.364 33.0115 76.9363 33.084 76.5054 33.0836C75.8969 33.0836 75.3934 32.9775 74.9949 32.7653C74.6074 32.5653 74.2754 32.2725 74.0285 31.913C73.7806 31.5356 73.6035 31.1161 73.506 30.6752C73.4058 30.1968 73.3561 29.7093 73.3577 29.2205C73.3616 28.6986 73.4074 28.1778 73.4946 27.6632C73.5873 27.0882 73.7277 26.5219 73.9145 25.9701C74.1041 25.41 74.3479 24.8697 74.6423 24.3569C74.9279 23.8477 75.2835 23.3811 75.6988 22.9707C76.112 22.5711 76.593 22.2482 77.1192 22.0169C77.6924 21.7669 78.3125 21.6428 78.9378 21.653C79.5192 21.6416 80.094 21.7782 80.6081 22.05C81.1138 22.328 81.549 22.7183 81.8802 23.1909L82.0616 22.2942C82.0924 22.1345 82.2099 22.0215 82.4141 21.9519C82.7445 21.8699 83.0848 21.8353 83.4249 21.8492C83.6157 21.8467 83.8063 21.8581 83.9954 21.8835C84.1164 21.8914 84.2353 21.9183 84.3479 21.9633C84.3859 21.9726 84.4216 21.9894 84.4529 22.0127C84.4843 22.036 84.5106 22.0654 84.5304 22.0991C84.5613 22.1588 84.5691 22.2279 84.5521 22.293L82.5133 32.447Z" fill="currentColor"/>
<path d="M93.8582 22.7438C93.853 22.8812 93.8377 23.0181 93.8126 23.1533C93.7884 23.334 93.7503 23.5125 93.6985 23.6873C93.652 23.8529 93.5874 24.0128 93.5057 24.1642C93.4372 24.2931 93.3585 24.357 93.2672 24.357C93.1436 24.3498 93.0232 24.3151 92.9147 24.2554C92.7606 24.1662 92.6014 24.0862 92.4378 24.0159C92.222 23.916 91.9974 23.8362 91.767 23.7774C91.4772 23.7052 91.1792 23.671 90.8805 23.6759C90.6383 23.6728 90.397 23.7071 90.1652 23.7774C89.9773 23.8365 89.8034 23.9331 89.6541 24.0615C89.519 24.1728 89.4103 24.3127 89.3357 24.4711C89.2668 24.6326 89.2318 24.8066 89.2331 24.9822C89.232 25.0959 89.2571 25.2083 89.3064 25.3107C89.3556 25.4132 89.4277 25.503 89.5171 25.5732C89.7428 25.7508 89.9868 25.9038 90.245 26.0295C90.5325 26.1664 90.8429 26.3106 91.176 26.4619C91.5091 26.6129 91.8221 26.8045 92.1081 27.0324C92.3971 27.2609 92.6399 27.5424 92.8235 27.8618C93.0252 28.2382 93.1233 28.6615 93.1075 29.0883C93.1118 29.6379 92.9998 30.1822 92.779 30.6855C92.5559 31.1715 92.2255 31.6006 91.8126 31.9405C91.3602 32.3166 90.8396 32.602 90.2793 32.7813C89.6212 32.9874 88.9345 33.0871 88.2451 33.0768C87.8951 33.0781 87.5457 33.0514 87.2 32.9969C86.901 32.9501 86.605 32.8857 86.3135 32.8041C86.0852 32.7403 85.8642 32.6528 85.6541 32.5429C85.5076 32.4685 85.3705 32.377 85.2457 32.2702C85.1885 32.2149 85.1421 32.1495 85.1087 32.0774C85.0837 31.9926 85.0722 31.9045 85.0745 31.8161C85.0745 31.7477 85.0745 31.6598 85.0859 31.5537C85.0973 31.4476 85.1202 31.3255 85.143 31.2023C85.1658 31.0791 85.2034 30.9445 85.2342 30.8156C85.2685 30.6956 85.31 30.5779 85.3586 30.463C85.3947 30.3725 85.4447 30.2882 85.5069 30.2132C85.5252 30.184 85.5502 30.1596 85.5797 30.142C85.6093 30.1243 85.6426 30.1139 85.6769 30.1116C85.8056 30.1195 85.9287 30.1669 86.0294 30.2474C86.1906 30.3582 86.3574 30.4607 86.5292 30.5543C86.7706 30.676 87.0212 30.7786 87.2787 30.8612C87.6453 30.9601 88.0241 31.0058 88.4036 30.997C88.676 31.0023 88.9477 30.9681 89.2102 30.8954C89.4217 30.8322 89.6187 30.7279 89.7898 30.5885C89.9342 30.4696 90.0474 30.3173 90.1195 30.1447C90.196 29.9772 90.2349 29.795 90.2336 29.6108C90.2374 29.4886 90.2138 29.3671 90.1647 29.2552C90.1155 29.1433 90.042 29.0438 89.9495 28.9639C89.7397 28.7787 89.5065 28.6219 89.2559 28.4973C88.976 28.3535 88.6691 28.206 88.3352 28.0546C88.0106 27.9046 87.7044 27.7178 87.4225 27.4979C87.1375 27.2726 86.8982 26.9949 86.7174 26.6798C86.5234 26.3006 86.4295 25.878 86.4447 25.4522C86.4405 24.9365 86.545 24.4257 86.7516 23.9531C86.9573 23.4896 87.2641 23.0779 87.6495 22.7483C88.0678 22.3861 88.5547 22.1117 89.0813 21.9417C89.6962 21.7359 90.3417 21.6359 90.99 21.6462C91.2982 21.6455 91.606 21.6684 91.9107 21.7147C92.1834 21.7462 92.4531 21.7992 92.7173 21.8733C92.9317 21.9318 93.1409 22.0081 93.3425 22.1014C93.487 22.1615 93.6184 22.249 93.7293 22.3593C93.7761 22.411 93.8117 22.4719 93.8339 22.5381C93.8561 22.6042 93.8644 22.6743 93.8582 22.7438Z" fill="currentColor"/>
<path d="M103.27 22.7438C103.265 22.8812 103.251 23.0181 103.226 23.1533C103.202 23.334 103.163 23.5125 103.112 23.6873C103.065 23.8529 103 24.0128 102.919 24.1642C102.85 24.2931 102.77 24.357 102.68 24.357C102.557 24.3501 102.436 24.3154 102.328 24.2554C102.174 24.1662 102.014 24.0862 101.851 24.0159C101.635 23.916 101.411 23.8362 101.18 23.7774C100.89 23.7052 100.592 23.671 100.294 23.6759C100.051 23.6728 99.8101 23.7071 99.5783 23.7774C99.3903 23.8362 99.2163 23.9329 99.0671 24.0615C98.9321 24.1728 98.8234 24.3127 98.7488 24.4711C98.6799 24.6326 98.6449 24.8066 98.6461 24.9822C98.6451 25.0959 98.6702 25.2083 98.7194 25.3107C98.7687 25.4132 98.8408 25.503 98.9302 25.5732C99.1556 25.7506 99.3993 25.9036 99.657 26.0295C99.946 26.1664 100.257 26.3106 100.589 26.4619C100.922 26.6131 101.235 26.8047 101.521 27.0324C101.81 27.2609 102.053 27.5424 102.237 27.8618C102.438 28.2382 102.536 28.6615 102.521 29.0883C102.525 29.638 102.413 30.1825 102.191 30.6855C101.968 31.1716 101.638 31.6007 101.226 31.9405C100.773 32.3166 100.252 32.602 99.6912 32.7813C99.0336 32.9874 98.3472 33.0872 97.6581 33.0768C97.3078 33.0781 96.958 33.0514 96.6119 32.9969C96.313 32.9498 96.017 32.8854 95.7255 32.8041C95.4976 32.7402 95.2769 32.6526 95.0672 32.5429C94.9204 32.4685 94.7829 32.377 94.6576 32.2702C94.6008 32.2149 94.5548 32.1495 94.5218 32.0774C94.4968 31.9926 94.4852 31.9045 94.4876 31.8161C94.4876 31.7477 94.4876 31.6598 94.499 31.5537C94.5104 31.4476 94.5332 31.3255 94.5561 31.2023C94.5789 31.0791 94.6165 30.9445 94.6462 30.8156C94.6813 30.6958 94.7232 30.5781 94.7717 30.463C94.8078 30.3728 94.8575 30.2885 94.9189 30.2132C94.9375 30.1841 94.9627 30.1597 94.9924 30.1421C95.0221 30.1245 95.0555 30.114 95.09 30.1116C95.2184 30.1193 95.3412 30.1668 95.4414 30.2474C95.6028 30.3584 95.77 30.4609 95.9422 30.5543C96.1837 30.676 96.4343 30.7786 96.6918 30.8612C97.0583 30.9602 97.4372 31.0059 97.8167 30.997C98.0891 31.0023 98.3608 30.9681 98.6233 30.8954C98.8347 30.8319 99.0316 30.7277 99.2029 30.5885C99.3473 30.4696 99.4605 30.3173 99.5326 30.1447C99.6086 29.977 99.6475 29.7949 99.6467 29.6108C99.6505 29.4886 99.6269 29.3671 99.5778 29.2552C99.5286 29.1433 99.4551 29.0438 99.3626 28.9639C99.1534 28.7785 98.9205 28.6216 98.6701 28.4973C98.3895 28.3535 98.0825 28.206 97.7494 28.0546C97.425 27.9042 97.1188 27.7175 96.8367 27.4979C96.5523 27.2723 96.3135 26.9947 96.1328 26.6798C95.9388 26.3006 95.8449 25.878 95.8601 25.4522C95.8558 24.9365 95.9604 24.4257 96.167 23.9531C96.3723 23.4893 96.6791 23.0776 97.0649 22.7483C97.4831 22.3861 97.9701 22.1117 98.4967 21.9417C99.1116 21.7359 99.757 21.6359 100.405 21.6462C100.713 21.6455 101.021 21.6684 101.325 21.7147C101.598 21.7461 101.868 21.7991 102.133 21.8733C102.347 21.9316 102.556 22.0079 102.757 22.1014C102.901 22.159 103.032 22.2438 103.144 22.3513C103.191 22.4042 103.227 22.4665 103.249 22.5341C103.27 22.6017 103.278 22.6731 103.27 22.7438Z" fill="currentColor"/>
<path d="M110.754 26.4483C110.752 26.5319 110.744 26.6153 110.732 26.6981C110.722 26.8241 110.703 26.9492 110.675 27.0723C110.645 27.2092 110.607 27.3496 110.56 27.4933C110.516 27.6257 110.463 27.7549 110.401 27.8801C110.348 27.9909 110.274 28.0911 110.185 28.1756C110.109 28.2487 110.007 28.2895 109.901 28.2897H105.174C105.12 28.2947 105.064 28.287 105.013 28.2672C104.962 28.2474 104.916 28.216 104.879 28.1756C104.816 28.0485 104.789 27.9072 104.799 27.766C104.799 27.7055 104.799 27.6188 104.81 27.5047C104.819 27.3789 104.834 27.2536 104.856 27.1294C104.887 26.9914 104.925 26.8551 104.97 26.7209C105.011 26.5875 105.064 26.4581 105.129 26.3342C105.18 26.2254 105.253 26.1286 105.344 26.0501C105.428 25.9825 105.532 25.9466 105.64 25.9485H110.366C110.423 25.9416 110.481 25.9507 110.533 25.9746C110.586 25.9986 110.63 26.0366 110.662 26.0843C110.73 26.193 110.762 26.3203 110.754 26.4483Z" fill="currentColor"/>
</svg>
