<svg width="108" height="117" viewBox="0 0 108 117" fill="none" xmlns="http://www.w3.org/2000/svg">
<path d="M0 0H108V117H0V0Z" fill="#AF9368"/>
<path d="M57.6885 15.3594V31H55.0137V15.3594H57.6885ZM62.5977 15.3594V17.5078H50.1475V15.3594H62.5977Z" fill="white"/>
<path d="M46.1621 26.9717C46.1621 26.6494 46.112 26.363 46.0117 26.1123C45.9186 25.8617 45.7503 25.6325 45.5068 25.4248C45.2633 25.2171 44.9196 25.0166 44.4756 24.8232C44.0387 24.6227 43.4801 24.4186 42.7998 24.2109C42.055 23.9818 41.3675 23.7275 40.7373 23.4482C40.1143 23.1618 39.57 22.8324 39.1045 22.46C38.639 22.0804 38.2773 21.6471 38.0195 21.1602C37.7617 20.666 37.6328 20.0967 37.6328 19.4521C37.6328 18.8148 37.7653 18.2347 38.0303 17.7119C38.3024 17.1891 38.6855 16.738 39.1797 16.3584C39.681 15.9717 40.2718 15.6745 40.9521 15.4668C41.6325 15.252 42.3844 15.1445 43.208 15.1445C44.3682 15.1445 45.3672 15.3594 46.2051 15.7891C47.0501 16.2188 47.6982 16.7952 48.1494 17.5186C48.6077 18.2419 48.8369 19.0404 48.8369 19.9141H46.1621C46.1621 19.3984 46.0511 18.9437 45.8291 18.5498C45.6143 18.1488 45.2848 17.8337 44.8408 17.6045C44.404 17.3753 43.849 17.2607 43.1758 17.2607C42.5384 17.2607 42.0085 17.3574 41.5859 17.5508C41.1634 17.7441 40.8483 18.0055 40.6406 18.335C40.4329 18.6644 40.3291 19.0368 40.3291 19.4521C40.3291 19.7458 40.3971 20.0143 40.5332 20.2578C40.6693 20.4941 40.877 20.7161 41.1562 20.9238C41.4355 21.1243 41.7865 21.3141 42.209 21.4932C42.6315 21.6722 43.1292 21.8441 43.7021 22.0088C44.5687 22.2666 45.3242 22.5531 45.9688 22.8682C46.6133 23.1761 47.1504 23.527 47.5801 23.9209C48.0098 24.3148 48.332 24.7624 48.5469 25.2637C48.7617 25.7578 48.8691 26.32 48.8691 26.9502C48.8691 27.609 48.7367 28.2035 48.4717 28.7334C48.2067 29.2562 47.8271 29.7038 47.333 30.0762C46.846 30.4414 46.2588 30.7243 45.5713 30.9248C44.891 31.1182 44.1318 31.2148 43.2939 31.2148C42.542 31.2148 41.8008 31.1146 41.0703 30.9141C40.347 30.7135 39.6882 30.4092 39.0938 30.001C38.4993 29.5856 38.0267 29.07 37.6758 28.4541C37.3249 27.8311 37.1494 27.1042 37.1494 26.2734H39.8457C39.8457 26.7819 39.9316 27.2152 40.1035 27.5732C40.2826 27.9313 40.5296 28.2249 40.8447 28.4541C41.1598 28.6761 41.5251 28.8408 41.9404 28.9482C42.363 29.0557 42.8141 29.1094 43.2939 29.1094C43.9242 29.1094 44.4505 29.0199 44.873 28.8408C45.3027 28.6618 45.625 28.4111 45.8398 28.0889C46.0547 27.7666 46.1621 27.3942 46.1621 26.9717Z" fill="white"/>
<path d="M35.7314 28.8623V31H27.4277V28.8623H35.7314ZM28.1904 15.3594V31H25.4941V15.3594H28.1904ZM34.6465 21.8906V23.9961H27.4277V21.8906H34.6465ZM35.6777 15.3594V17.5078H27.4277V15.3594H35.6777Z" fill="white"/>
<path d="M17.459 23.9316H13.4736L13.4521 21.9658H16.9326C17.5199 21.9658 18.0176 21.8799 18.4258 21.708C18.8411 21.529 19.1562 21.2747 19.3711 20.9453C19.5859 20.6087 19.6934 20.2041 19.6934 19.7314C19.6934 19.2087 19.5931 18.7826 19.3926 18.4531C19.1921 18.1237 18.8841 17.8838 18.4688 17.7334C18.0605 17.583 17.5378 17.5078 16.9004 17.5078H14.29V31H11.5938V15.3594H16.9004C17.7598 15.3594 18.526 15.4417 19.1992 15.6064C19.8796 15.7712 20.4561 16.029 20.9287 16.3799C21.4085 16.7236 21.7702 17.1605 22.0137 17.6904C22.2643 18.2204 22.3896 18.8506 22.3896 19.5811C22.3896 20.2256 22.2357 20.8164 21.9277 21.3535C21.6198 21.8835 21.165 22.3167 20.5635 22.6533C19.9619 22.9899 19.2135 23.1904 18.3184 23.2549L17.459 23.9316ZM17.3408 31H12.625L13.8389 28.8623H17.3408C17.9495 28.8623 18.458 28.762 18.8662 28.5615C19.2744 28.3538 19.5788 28.071 19.7793 27.7129C19.987 27.3477 20.0908 26.9215 20.0908 26.4346C20.0908 25.9261 20.0013 25.4857 19.8223 25.1133C19.6432 24.7337 19.3604 24.4437 18.9736 24.2432C18.5869 24.0355 18.082 23.9316 17.459 23.9316H14.4297L14.4512 21.9658H18.3936L19.0059 22.707C19.8652 22.7357 20.5706 22.9255 21.1221 23.2764C21.6807 23.6273 22.096 24.082 22.3682 24.6406C22.6403 25.1992 22.7764 25.8008 22.7764 26.4453C22.7764 27.4408 22.5579 28.2751 22.1211 28.9482C21.6914 29.6214 21.0719 30.1335 20.2627 30.4844C19.4535 30.8281 18.4795 31 17.3408 31Z" fill="white"/>
<path d="M81.834 51.8623V54H73.5303V51.8623H81.834ZM74.293 38.3594V54H71.5967V38.3594H74.293ZM80.749 44.8906V46.9961H73.5303V44.8906H80.749ZM81.7803 38.3594V40.5078H73.5303V38.3594H81.7803Z" fill="white"/>
<path d="M66.4619 48.9082H69.1475C69.0615 49.9323 68.7751 50.8454 68.2881 51.6475C67.8011 52.4424 67.1172 53.069 66.2363 53.5273C65.3555 53.9857 64.2848 54.2148 63.0244 54.2148C62.0576 54.2148 61.1875 54.043 60.4141 53.6992C59.6406 53.3483 58.9782 52.8542 58.4268 52.2168C57.8753 51.5723 57.4528 50.7952 57.1592 49.8857C56.8727 48.9762 56.7295 47.9593 56.7295 46.835V45.5352C56.7295 44.4108 56.8763 43.3939 57.1699 42.4844C57.4707 41.5749 57.9004 40.7979 58.459 40.1533C59.0176 39.5016 59.6872 39.0039 60.4678 38.6602C61.2555 38.3164 62.14 38.1445 63.1211 38.1445C64.3672 38.1445 65.4199 38.3737 66.2793 38.832C67.1387 39.2904 67.8047 39.9242 68.2773 40.7334C68.7572 41.5426 69.0508 42.4701 69.1582 43.5156H66.4727C66.401 42.8424 66.2435 42.266 66 41.7861C65.7637 41.3063 65.4128 40.9411 64.9473 40.6904C64.4818 40.4326 63.873 40.3037 63.1211 40.3037C62.5052 40.3037 61.9681 40.4183 61.5098 40.6475C61.0514 40.8766 60.6683 41.2132 60.3604 41.6572C60.0524 42.1012 59.8197 42.6491 59.6621 43.3008C59.5117 43.9453 59.4365 44.6829 59.4365 45.5137V46.835C59.4365 47.6227 59.5046 48.3389 59.6406 48.9834C59.7839 49.6208 59.9987 50.1686 60.2852 50.627C60.5788 51.0853 60.9512 51.4398 61.4023 51.6904C61.8535 51.9411 62.3942 52.0664 63.0244 52.0664C63.7907 52.0664 64.4102 51.9447 64.8828 51.7012C65.3626 51.4577 65.7243 51.1032 65.9678 50.6377C66.2184 50.165 66.3831 49.5885 66.4619 48.9082Z" fill="white"/>
<path d="M53.8721 38.3594V54H51.1758V38.3594H53.8721Z" fill="white"/>
<path d="M41.5723 38.3594V54H38.876V38.3594H41.5723ZM47.9531 45.2021V47.3398H40.8848V45.2021H47.9531ZM48.8447 38.3594V40.5078H40.8848V38.3594H48.8447Z" fill="white"/>
<path d="M29.4551 38.3594V54H26.7588V38.3594H29.4551ZM35.8359 45.2021V47.3398H28.7676V45.2021H35.8359ZM36.7275 38.3594V40.5078H28.7676V38.3594H36.7275Z" fill="white"/>
<path d="M24.0625 45.75V46.6094C24.0625 47.791 23.9085 48.8509 23.6006 49.7891C23.2926 50.7272 22.8522 51.5257 22.2793 52.1846C21.7135 52.8434 21.0332 53.3483 20.2383 53.6992C19.4434 54.043 18.5625 54.2148 17.5957 54.2148C16.6361 54.2148 15.7588 54.043 14.9639 53.6992C14.1761 53.3483 13.4922 52.8434 12.9121 52.1846C12.332 51.5257 11.8809 50.7272 11.5586 49.7891C11.2435 48.8509 11.0859 47.791 11.0859 46.6094V45.75C11.0859 44.5684 11.2435 43.512 11.5586 42.5811C11.8737 41.6429 12.3177 40.8444 12.8906 40.1855C13.4707 39.5195 14.1546 39.0146 14.9424 38.6709C15.7373 38.32 16.6146 38.1445 17.5742 38.1445C18.541 38.1445 19.4219 38.32 20.2168 38.6709C21.0117 39.0146 21.6956 39.5195 22.2686 40.1855C22.8415 40.8444 23.2819 41.6429 23.5898 42.5811C23.9049 43.512 24.0625 44.5684 24.0625 45.75ZM21.3662 46.6094V45.7285C21.3662 44.8548 21.2803 44.085 21.1084 43.4189C20.9437 42.7458 20.6966 42.1836 20.3672 41.7324C20.0449 41.2741 19.6475 40.9303 19.1748 40.7012C18.7021 40.4648 18.1686 40.3467 17.5742 40.3467C16.9798 40.3467 16.4499 40.4648 15.9844 40.7012C15.5189 40.9303 15.1214 41.2741 14.792 41.7324C14.4697 42.1836 14.2227 42.7458 14.0508 43.4189C13.8789 44.085 13.793 44.8548 13.793 45.7285V46.6094C13.793 47.4831 13.8789 48.2565 14.0508 48.9297C14.2227 49.6029 14.4733 50.1722 14.8027 50.6377C15.1393 51.096 15.5404 51.4434 16.0059 51.6797C16.4714 51.9089 17.0013 52.0234 17.5957 52.0234C18.1973 52.0234 18.7308 51.9089 19.1963 51.6797C19.6618 51.4434 20.0557 51.096 20.3779 50.6377C20.7002 50.1722 20.9437 49.6029 21.1084 48.9297C21.2803 48.2565 21.3662 47.4831 21.3662 46.6094Z" fill="white"/>
<path d="M95.2422 73.1543C95.2422 72.7246 95.1706 72.3415 95.0273 72.0049C94.8841 71.6683 94.6478 71.3675 94.3184 71.1025C93.9961 70.8304 93.5592 70.5798 93.0078 70.3506C92.4635 70.1143 91.7832 69.8815 90.9668 69.6523C90.1862 69.4303 89.4808 69.1868 88.8506 68.9219C88.2204 68.6569 87.6797 68.3525 87.2285 68.0088C86.7845 67.665 86.4443 67.264 86.208 66.8057C85.9717 66.3402 85.8535 65.7995 85.8535 65.1836C85.8535 64.582 85.9824 64.0342 86.2402 63.54C86.498 63.0459 86.8597 62.6198 87.3252 62.2617C87.7979 61.9036 88.3529 61.6279 88.9902 61.4346C89.6348 61.2412 90.3402 61.1445 91.1064 61.1445C92.2021 61.1445 93.1475 61.3522 93.9424 61.7676C94.7445 62.1829 95.3639 62.7451 95.8008 63.4541C96.2448 64.1559 96.4668 64.9437 96.4668 65.8174H95.1455C95.1455 65.137 94.9844 64.5319 94.6621 64.002C94.347 63.4648 93.8887 63.0459 93.2871 62.7451C92.6927 62.4372 91.9658 62.2832 91.1064 62.2832C90.2471 62.2832 89.5238 62.4157 88.9365 62.6807C88.3564 62.9385 87.916 63.2858 87.6152 63.7227C87.3216 64.1523 87.1748 64.6322 87.1748 65.1621C87.1748 65.5345 87.2464 65.8783 87.3896 66.1934C87.5329 66.5013 87.7656 66.7913 88.0879 67.0635C88.4173 67.3285 88.8506 67.5791 89.3877 67.8154C89.9248 68.0446 90.5872 68.263 91.375 68.4707C92.2057 68.6999 92.9434 68.9541 93.5879 69.2334C94.2324 69.5127 94.7767 69.835 95.2207 70.2002C95.6647 70.5583 96.0013 70.9772 96.2305 71.457C96.4596 71.9368 96.5742 72.4954 96.5742 73.1328C96.5742 73.7702 96.4382 74.3431 96.166 74.8516C95.901 75.3529 95.5251 75.779 95.0381 76.1299C94.5583 76.4808 93.9889 76.7493 93.3301 76.9355C92.6784 77.1217 91.9658 77.2148 91.1924 77.2148C90.4977 77.2148 89.8066 77.1253 89.1191 76.9463C88.4316 76.7673 87.8014 76.4915 87.2285 76.1191C86.6628 75.7396 86.208 75.2526 85.8643 74.6582C85.5277 74.0638 85.3594 73.3548 85.3594 72.5312H86.6699C86.6699 73.1901 86.8024 73.7451 87.0674 74.1963C87.3324 74.6475 87.6833 75.0127 88.1201 75.292C88.5641 75.5713 89.0511 75.7754 89.5811 75.9043C90.1182 76.026 90.6553 76.0869 91.1924 76.0869C92.016 76.0869 92.7285 75.9652 93.3301 75.7217C93.9388 75.4782 94.4079 75.138 94.7373 74.7012C95.0739 74.2572 95.2422 73.7415 95.2422 73.1543Z" fill="white"/>
<path d="M76.25 77H72.7051L72.7266 75.8721H76.25C77.3743 75.8721 78.3411 75.6214 79.1504 75.1201C79.9668 74.6117 80.597 73.9098 81.041 73.0146C81.485 72.1195 81.707 71.0811 81.707 69.8994V68.4385C81.707 67.5361 81.5781 66.7197 81.3203 65.9893C81.0697 65.2588 80.708 64.6357 80.2354 64.1201C79.7627 63.5973 79.1969 63.1963 78.5381 62.917C77.8864 62.6377 77.1559 62.498 76.3467 62.498H72.6406V61.3594H76.3467C77.3206 61.3594 78.2122 61.5277 79.0215 61.8643C79.8379 62.1937 80.5433 62.6735 81.1377 63.3037C81.7393 63.9268 82.2012 64.6751 82.5234 65.5488C82.8529 66.4225 83.0176 67.3965 83.0176 68.4707V69.8994C83.0176 70.9736 82.8529 71.9476 82.5234 72.8213C82.2012 73.695 81.7393 74.4434 81.1377 75.0664C80.5361 75.6895 79.8236 76.1693 79 76.5059C78.1764 76.8353 77.2598 77 76.25 77ZM73.2959 61.3594V77H71.9746V61.3594H73.2959Z" fill="white"/>
<path d="M57.9561 61.3594H63.0371C64.1185 61.3594 65.0566 61.5348 65.8516 61.8857C66.6465 62.2367 67.2588 62.7559 67.6885 63.4434C68.1253 64.1237 68.3438 64.9616 68.3438 65.957C68.3438 66.6947 68.1862 67.3643 67.8711 67.9658C67.5632 68.5674 67.137 69.0723 66.5928 69.4805C66.0485 69.8815 65.4183 70.1572 64.7021 70.3076L64.2402 70.4795H58.8154L58.7939 69.3516H63.3379C64.1543 69.3516 64.8346 69.194 65.3789 68.8789C65.9232 68.5638 66.3314 68.1484 66.6035 67.6328C66.8828 67.11 67.0225 66.5514 67.0225 65.957C67.0225 65.248 66.8685 64.6357 66.5605 64.1201C66.2598 63.5973 65.8122 63.1963 65.2178 62.917C64.6234 62.6377 63.8965 62.498 63.0371 62.498H59.2773V77H57.9561V61.3594ZM67.6133 77L63.5635 70.0068L64.9814 69.9961L69.0205 76.8604V77H67.6133Z" fill="white"/>
<path d="M49.373 62.2939L43.959 77H42.584L48.4922 61.3594H49.4482L49.373 62.2939ZM54.293 77L48.8682 62.2939L48.793 61.3594H49.749L55.668 77H54.293ZM53.3262 71.4785V72.6172H45.0225V71.4785H53.3262Z" fill="white"/>
<path d="M28.9521 72.8643L32.3467 61.3594H33.4102L32.5508 64.7754L28.9307 77H27.9102L28.9521 72.8643ZM25.0098 61.3594L27.8672 72.7568L28.7266 77H27.6631L23.6562 61.3594H25.0098ZM37.9863 72.7568L40.8008 61.3594H42.1543L38.1582 77H37.0947L37.9863 72.7568ZM33.5283 61.3594L36.8799 72.8643L37.9111 77H36.8906L33.3457 64.7754L32.4756 61.3594H33.5283Z" fill="white"/>
<path d="M17.125 62.2939L11.7109 77H10.3359L16.2441 61.3594H17.2002L17.125 62.2939ZM22.0449 77L16.6201 62.2939L16.5449 61.3594H17.501L23.4199 77H22.0449ZM21.0781 71.4785V72.6172H12.7744V71.4785H21.0781Z" fill="white"/>
<path d="M55.4844 84.2412H55.667V85.3691H55.4844C54.4961 85.3691 53.6152 85.5303 52.8418 85.8525C52.0755 86.1748 51.4274 86.6403 50.8975 87.249C50.3747 87.8506 49.9772 88.5811 49.7051 89.4404C49.4329 90.2998 49.2969 91.263 49.2969 92.3301V94.4893C49.2969 95.2126 49.3936 95.8607 49.5869 96.4336C49.7803 96.9993 50.0488 97.4827 50.3926 97.8838C50.7363 98.2848 51.1374 98.5892 51.5957 98.7969C52.054 99.0046 52.5482 99.1084 53.0781 99.1084C53.6009 99.1084 54.07 99.001 54.4854 98.7861C54.9007 98.5713 55.2516 98.2705 55.5381 97.8838C55.8317 97.4971 56.0537 97.0531 56.2041 96.5518C56.3617 96.0433 56.4404 95.499 56.4404 94.9189C56.4404 94.3675 56.3688 93.8483 56.2256 93.3613C56.0895 92.8672 55.8783 92.4303 55.5918 92.0508C55.3053 91.6712 54.9473 91.374 54.5176 91.1592C54.0879 90.9443 53.583 90.8369 53.0029 90.8369C52.3441 90.8369 51.7282 90.9873 51.1553 91.2881C50.5824 91.5889 50.1133 91.9899 49.748 92.4912C49.39 92.9925 49.2002 93.5404 49.1787 94.1348L48.4375 94.124C48.4876 93.4508 48.6416 92.8457 48.8994 92.3086C49.1572 91.7643 49.4974 91.3024 49.9199 90.9229C50.3496 90.5361 50.8402 90.2425 51.3916 90.042C51.9502 89.8343 52.5518 89.7305 53.1963 89.7305C53.9482 89.7305 54.6035 89.8665 55.1621 90.1387C55.7279 90.4108 56.1969 90.7868 56.5693 91.2666C56.9489 91.7393 57.2318 92.2871 57.418 92.9102C57.6113 93.526 57.708 94.1777 57.708 94.8652C57.708 95.6172 57.6006 96.319 57.3857 96.9707C57.1781 97.6152 56.8701 98.181 56.4619 98.668C56.0609 99.1549 55.5739 99.5345 55.001 99.8066C54.4352 100.079 53.7943 100.215 53.0781 100.215C52.2904 100.215 51.585 100.064 50.9619 99.7637C50.3389 99.4629 49.8053 99.0475 49.3613 98.5176C48.9245 97.9876 48.5879 97.3789 48.3516 96.6914C48.1224 95.9967 48.0078 95.2555 48.0078 94.4678V93.0928C48.0078 91.7607 48.1618 90.554 48.4697 89.4727C48.7777 88.3841 49.2396 87.4495 49.8555 86.6689C50.4785 85.8883 51.2555 85.2904 52.1865 84.875C53.1247 84.4525 54.224 84.2412 55.4844 84.2412Z" fill="white"/>
<path d="M41.8633 84.2949V100H40.585V85.917L36.3311 87.4961V86.2822L41.6484 84.2949H41.8633Z" fill="white"/>
<path d="M33.1084 90.8369V93.4688C33.1084 94.6146 33.001 95.6136 32.7861 96.4658C32.5713 97.3109 32.2562 98.0127 31.8408 98.5713C31.4326 99.1227 30.9313 99.5345 30.3369 99.8066C29.7497 100.079 29.0765 100.215 28.3174 100.215C27.7158 100.215 27.1644 100.129 26.6631 99.957C26.1618 99.7852 25.7142 99.5238 25.3203 99.1729C24.9336 98.8148 24.6042 98.3672 24.332 97.8301C24.0599 97.293 23.8522 96.6628 23.709 95.9395C23.5658 95.209 23.4941 94.3854 23.4941 93.4688V90.8369C23.4941 89.6839 23.6016 88.6885 23.8164 87.8506C24.0384 87.0127 24.3535 86.318 24.7617 85.7666C25.1771 85.2152 25.682 84.807 26.2764 84.542C26.8708 84.2699 27.5439 84.1338 28.2959 84.1338C28.8975 84.1338 29.4489 84.2233 29.9502 84.4023C30.4587 84.5742 30.9062 84.832 31.293 85.1758C31.6868 85.5195 32.0163 85.96 32.2812 86.4971C32.5534 87.027 32.7575 87.6536 32.8936 88.377C33.0368 89.1003 33.1084 89.9202 33.1084 90.8369ZM31.8301 93.6191V90.6758C31.8301 89.9668 31.7799 89.3223 31.6797 88.7422C31.5866 88.1621 31.4469 87.6536 31.2607 87.2168C31.0745 86.7799 30.8382 86.4147 30.5518 86.1211C30.2725 85.8275 29.943 85.609 29.5635 85.4658C29.1911 85.3154 28.7686 85.2402 28.2959 85.2402C27.7158 85.2402 27.2038 85.3584 26.7598 85.5947C26.3229 85.8239 25.9577 86.1676 25.6641 86.626C25.3704 87.0771 25.1484 87.6429 24.998 88.3232C24.8548 89.0036 24.7832 89.7878 24.7832 90.6758V93.6191C24.7832 94.321 24.8298 94.9619 24.9229 95.542C25.016 96.1149 25.1592 96.6234 25.3525 97.0674C25.5459 97.5114 25.7822 97.8874 26.0615 98.1953C26.348 98.4961 26.6774 98.7253 27.0498 98.8828C27.4294 99.0332 27.8519 99.1084 28.3174 99.1084C28.9118 99.1084 29.4274 98.9902 29.8643 98.7539C30.3011 98.5104 30.6663 98.1559 30.96 97.6904C31.2536 97.2178 31.472 96.6413 31.6152 95.9609C31.7585 95.2734 31.8301 94.4928 31.8301 93.6191Z" fill="white"/>
<path d="M21.2705 98.8936V100H11.4844V99.001L16.6084 93.1895C17.2458 92.4661 17.7542 91.8324 18.1338 91.2881C18.5133 90.7367 18.7855 90.2354 18.9502 89.7842C19.1221 89.3258 19.208 88.8818 19.208 88.4521C19.208 87.8219 19.0827 87.2669 18.832 86.7871C18.5885 86.3073 18.2233 85.9313 17.7363 85.6592C17.2493 85.387 16.6478 85.251 15.9316 85.251C15.2155 85.251 14.5924 85.4049 14.0625 85.7129C13.5326 86.0208 13.1243 86.4505 12.8379 87.002C12.5586 87.5462 12.4189 88.1657 12.4189 88.8604H11.1406C11.1406 88.001 11.3304 87.2132 11.71 86.4971C12.0967 85.7809 12.6481 85.2116 13.3643 84.7891C14.0804 84.3594 14.9362 84.1445 15.9316 84.1445C16.877 84.1445 17.6898 84.3128 18.3701 84.6494C19.0505 84.9788 19.5732 85.4551 19.9385 86.0781C20.3109 86.7012 20.4971 87.4531 20.4971 88.334C20.4971 88.8066 20.4111 89.2829 20.2393 89.7627C20.0745 90.2425 19.8454 90.7223 19.5518 91.2021C19.2653 91.6748 18.9359 92.1439 18.5635 92.6094C18.1982 93.0749 17.8151 93.5332 17.4141 93.9844L13.0527 98.8936H21.2705Z" fill="white"/>
</svg>
