<svg width="169" height="40" viewBox="0 0 169 40" fill="none" xmlns="http://www.w3.org/2000/svg">
<path d="M52.6562 20.2623C52.0674 20.2623 51.6468 20.3745 44.8054 20.3745C38.1042 20.3745 38.637 20.3184 37.9641 20.3184C37.5154 20.3184 37.4313 20.4306 37.4313 20.5708V21.1035C37.4313 21.2717 37.5154 21.4119 37.9641 21.4119L38.4968 21.3839C40.3473 21.3839 40.4595 21.7203 40.4595 22.9821V27.1878C40.4595 28.9823 39.8707 30.1038 38.3005 30.4683C35.8331 31.0291 33.8144 31.3095 29.9451 31.3095C24.8701 31.3095 22.1223 30.6366 18.6175 28.9543C14.58 27.0196 12.0285 23.3185 12.0285 19.2249C12.0285 16.0846 14.3837 12.9443 17.8044 11.0377C19.7391 9.91616 21.6737 9.24323 23.6364 8.87873C24.5336 8.7105 25.4309 8.57031 26.3842 8.51423C29.0198 8.28993 33.1695 8.31796 37.2351 9.77596C38.9734 10.3928 40.4875 11.5143 41.2445 12.2994L41.3847 12.6359L36.3098 13.6733V13.6453L29.5245 15.0192C29.4684 14.7668 29.3002 14.6547 29.3843 14.5425V14.5145C29.5525 14.3462 29.4964 14.5145 29.7207 14.5986C29.8329 14.6266 29.917 14.4584 30.0292 14.3182C30.0852 14.2341 30.1413 14.4023 30.1974 14.2621C30.2815 14.0939 30.3656 13.9257 30.4217 13.7294C30.5339 13.3929 30.3376 13.1125 30.0852 12.9163C29.889 12.7761 29.5806 12.7761 29.3843 12.9163C29.1319 13.0565 28.9917 13.3649 28.9637 13.7013C28.9357 14.1219 28.4029 13.7574 27.7861 13.7294H27.6739C27.1412 13.7013 26.7487 14.1219 26.3842 14.2902C26.272 14.3462 26.1879 14.3743 26.1318 14.4023C25.9075 14.5145 25.6832 14.5986 25.5991 14.7668C25.6552 14.9911 25.7393 15.1874 25.8234 15.2435C25.9916 15.3556 26.1599 15.5238 26.3842 15.664L19.0942 17.094V17.122H19.0661L18.8699 17.5706L26.2159 16.1127H26.1879C25.8234 16.3089 25.5711 16.7295 25.5991 17.066L25.6832 17.2903C25.3468 17.122 25.6271 17.5987 25.3468 17.7389L23.328 17.4024C22.2345 17.2903 21.3373 18.0193 20.3279 18.2996C19.1783 18.4398 18.3091 19.7296 17.1034 19.3931C16.4866 19.2249 15.4492 18.7763 14.9725 18.6922C14.3837 18.6081 13.823 18.8885 13.3183 19.253C13.851 19.1408 14.3276 19.309 14.7763 19.6455C15.2249 20.01 15.6455 20.8511 16.3745 20.9913C17.4119 21.2156 19.1222 21.1596 19.5989 19.5614C19.6269 19.5053 19.7951 19.1128 19.9634 18.9726L20.0755 19.0006C20.0194 19.6735 20.0194 20.3184 20.3279 20.8511L20.412 20.9633C20.7484 21.7203 21.4494 22.0007 21.9261 22.6176C22.5429 23.0101 21.7859 23.627 21.7018 24.1317C21.7578 24.2438 21.87 24.356 22.0382 24.356C22.4027 24.4401 21.9821 24.9448 22.2906 25.085C23.1317 25.6177 23.7205 26.5149 24.1411 27.4121C24.2252 27.5243 24.3934 27.4963 24.5336 27.5243C24.786 27.6925 24.3934 27.9449 24.5056 28.1411C24.7579 28.3374 25.2626 28.3374 25.5711 28.1692C25.543 27.9449 25.4589 27.7486 25.3468 27.5804C24.7299 27.0476 24.3093 26.3186 23.7205 25.7579C23.6364 25.5055 23.4401 25.2812 23.4682 25.0008L24.1131 25.3373C24.1691 25.5896 24.4215 25.6738 24.6178 25.7579L24.4776 25.9822C24.3934 26.2345 24.5336 26.4308 24.7019 26.571C24.814 26.6551 25.0664 26.7392 25.1224 26.6551C25.3748 26.3186 25.0383 25.6738 24.9262 25.2251L24.7299 25.0008C24.1972 24.8046 23.7766 24.412 23.2999 24.1036L23.328 23.627C23.1317 22.898 23.8607 22.4213 24.085 21.8045C24.7019 22.2531 25.4309 22.5335 26.2159 22.7017C26.5804 23.0942 27.3655 22.7858 27.6739 23.2344C28.0384 23.9073 28.5151 24.5803 29.0198 25.141C28.6833 25.5616 28.0104 25.3093 27.6459 25.3653C27.3375 25.0569 26.973 25.5896 26.6926 25.2812L26.8048 25.0569L26.4963 24.9448C26.1038 24.8887 25.8514 25.141 25.6271 25.4214L25.5991 25.6457C25.9636 25.7579 26.3561 25.7298 26.7487 25.814C26.9169 25.8981 27.0851 26.0943 27.2814 26.0102C28.0665 25.5616 29.0478 26.2906 29.7207 25.4775C29.889 25.1971 29.6647 25.0008 29.6086 24.7485C29.5525 24.3279 29.4684 23.8793 29.4684 23.4587C30.2815 23.4868 30.8703 23.4868 31.6554 23.5709C31.7115 23.655 31.7676 23.7671 31.7676 23.8793C31.5152 24.412 31.2348 24.8887 30.8142 25.3373C30.646 25.5336 30.9544 25.7859 30.618 25.9261C30.4778 25.9541 30.4497 25.8139 30.3376 25.842C29.917 26.0383 30.0011 26.571 29.917 26.9355L30.1133 26.9916C30.3096 26.7392 30.6741 26.599 30.7582 26.2906C31.6554 25.6738 31.6554 24.6363 32.4124 23.9634C32.5246 23.627 32.5246 23.2625 32.2722 23.0381C31.7395 22.898 31.2629 22.6176 30.8703 22.3092L31.0946 22.0848C31.2909 21.6643 31.6274 21.2717 31.7956 20.8231C31.8517 20.6829 31.8797 20.5147 31.8797 20.3465L32.4405 19.6735C32.6648 19.3651 32.833 19.0287 33.0854 18.7483L33.1134 18.6922L33.3377 18.4118C33.3377 18.2716 33.534 18.1595 33.6461 18.0753C33.8704 18.4398 34.4032 18.3277 34.7396 18.524L34.7116 18.552C34.8798 18.58 35.02 18.6361 35.1602 18.7763L35.1882 18.8324C35.2724 18.9165 35.3284 19.0567 35.3565 19.1688C35.4686 19.3931 35.6929 19.0847 35.8051 19.281C36.0855 19.4773 36.1976 19.0567 36.3939 18.9165C36.478 18.6081 36.5061 18.2996 36.45 18.0193C36.0855 17.5146 35.7771 16.9538 35.4686 16.393L35.2163 15.9444C35.1882 15.7482 35.1602 15.4958 35.1602 15.2995C35.2163 15.0752 35.1322 14.8509 35.1322 14.6827C35.02 14.7668 34.7957 15.1874 34.5153 15.2715C34.3191 15.2995 33.9546 15.0752 33.5059 15.2154C32.9732 15.4117 32.2162 15.4678 31.7676 15.2715C31.7115 15.4958 31.9077 15.5799 31.9077 15.608C31.5993 15.8323 31.2348 15.8042 30.9825 15.7481C30.9544 15.8883 31.0666 16.0285 31.1227 16.0846C31.1227 16.0846 30.9264 16.1407 30.4217 16.1407C30.4217 16.1407 30.1413 16.1126 29.9451 16.3089C29.6366 16.2248 29.3843 16.1687 29.3562 16.1127C29.2161 15.9725 29.1319 16.0005 29.2441 15.7201L29.3562 15.4678L36.45 14.0658L47.6093 11.8788C48.17 11.8508 47.8897 12.1032 48.7308 11.7387C48.899 11.6826 49.6 11.234 49.6 11.234C49.6 11.234 49.0112 11.0938 48.6187 11.0657C47.7214 10.9816 48.0299 11.1498 47.385 11.4302C47.3569 11.4302 47.385 11.4302 47.2167 11.4863H47.1887C46.0111 10.9816 42.1418 9.32734 39.3099 8.59834C33.6181 7.16838 28.7114 7.11231 27.1693 7.14035C19.1503 7.11231 13.7108 8.40208 8.6078 10.505C3.19638 12.72 0 16.0846 0 19.253C0 23.4587 2.29915 26.4028 6.84138 28.8141C11.9724 31.6179 20.6924 32.8516 28.431 32.8516C31.3189 32.8516 34.0947 32.6834 37.1509 32.2908C38.1884 32.1506 38.3566 32.0946 40.0669 31.8703C43.8241 31.3936 44.469 31.3936 47.3009 31.674C49.2075 31.8703 50.7776 32.4591 50.7776 32.4591C50.7776 32.4591 50.8057 29.3748 50.8057 28.8701V22.5895C50.8057 21.5802 50.8898 21.3278 52.2356 21.3278H52.8244C53.273 21.3278 53.3572 21.2717 53.3572 21.0474V20.5147C53.3291 20.3465 53.273 20.2623 52.6562 20.2623Z" fill="#717A90"/>
<path d="M155.947 9.77565H156.171C156.368 9.77565 156.564 9.77565 156.564 9.49526C156.564 9.27095 156.396 9.24292 156.228 9.24292H155.919V9.77565H155.947ZM155.723 9.07468H156.284C156.648 9.07468 156.816 9.21488 156.816 9.5233C156.816 9.80369 156.648 9.94388 156.424 9.94388L156.844 10.6448H156.592L156.199 9.97192H155.947V10.6448H155.723V9.07468ZM156.199 11.0374C156.788 11.0374 157.237 10.5327 157.237 9.8878C157.237 9.24291 156.76 8.73822 156.199 8.73822C155.611 8.73822 155.162 9.24291 155.162 9.8878C155.162 10.5327 155.611 11.0374 156.199 11.0374ZM156.199 8.51392C156.9 8.51392 157.461 9.10272 157.461 9.85976C157.461 10.6448 156.872 11.2056 156.199 11.2056C155.499 11.2056 154.938 10.6168 154.938 9.85976C154.938 9.10272 155.527 8.51392 156.199 8.51392Z" fill="#717A90"/>
<path d="M69.3405 9.0468H61.3776V16.4489H69.3405V13.8414H65.1908V11.8506H71.8079V15.8882C71.8079 16.9817 71.6116 17.7107 71.2471 18.0752C70.8545 18.4397 70.1536 18.636 69.0881 18.636H61.5177C60.4803 18.636 59.7513 18.4397 59.3868 18.0752C58.9943 17.7107 58.826 16.9536 58.826 15.8882V9.74776C58.826 8.65426 59.0223 7.92527 59.3868 7.56077C59.7794 7.19627 60.4803 7 61.5177 7H69.0881C70.0975 7 70.8265 7.19627 71.219 7.56077C71.6116 7.92527 71.8079 8.62623 71.8079 9.66365V9.94404L69.3124 10.4207V9.0468H69.3405Z" fill="#717A90"/>
<path d="M76.2113 9.0752V16.8699H82.4358V9.0752H84.6509V16.3652C84.6509 17.2624 84.4826 17.8512 84.1462 18.1596C83.8097 18.4681 83.1929 18.6363 82.2956 18.6363H76.3515C75.4543 18.6363 74.8374 18.4681 74.5009 18.1596C74.1645 17.8512 74.0243 17.2624 74.0243 16.3652V9.0752H76.2113Z" fill="#717A90"/>
<path d="M89.9722 14.795H94.0939L91.991 10.8136L89.9722 14.795ZM85.7384 18.6363L91.0657 9.0752H93.1686L98.58 18.6363H96.1126L94.9911 16.5334H89.0469L87.9254 18.6363H85.7384Z" fill="#717A90"/>
<path d="M106.825 10.7295H101.834V13.3651H106.825C107.498 13.3651 107.834 13.1127 107.834 12.608V11.4865C107.834 10.9818 107.498 10.7295 106.825 10.7295ZM99.6753 18.6363V9.0752H107.778C109.18 9.0752 109.881 9.69204 109.881 10.9257V13.1969C109.881 14.4305 109.18 15.0193 107.778 15.0193H106.545L110.807 18.6363H107.666L103.909 15.0193H101.862V18.6363H99.6753Z" fill="#717A90"/>
<path d="M114.372 16.8418H117.204C118.662 16.8418 119.699 16.6175 120.316 16.197C121.017 15.7203 121.353 14.8792 121.353 13.6735C121.353 11.7388 120.316 10.7575 118.241 10.7575H114.372V16.8418ZM112.157 18.6363V9.0752H118.213C119.979 9.0752 121.297 9.49577 122.223 10.3089C123.148 11.15 123.596 12.2996 123.596 13.8137C123.596 17.0381 121.606 18.6363 117.652 18.6363H112.157Z" fill="#717A90"/>
<path d="M127.743 9.0752H125.556V18.6363H127.743V9.0752Z" fill="#717A90"/>
<path d="M132.85 14.795H136.972L134.869 10.8136L132.85 14.795ZM128.616 18.6363L133.944 9.0752H136.047L141.458 18.6363H138.991L137.869 16.5334H131.925L130.803 18.6363H128.616Z" fill="#717A90"/>
<path d="M142.544 18.6363V9.0752H144.059L151.685 15.4399V9.0752H153.648V18.6363H152.162L144.535 12.1875V18.6363H142.544Z" fill="#717A90"/>
<path d="M68.5545 23.5984H61.3486V26.1218H68.19C69.2274 26.1218 69.9564 26.3181 70.3489 26.6826C70.7415 27.0471 70.9377 27.8041 70.9377 28.8696V30.4678C70.9377 31.5613 70.7415 32.2903 70.3489 32.6548C69.9564 33.0193 69.2274 33.2155 68.19 33.2155H61.4327C60.3953 33.2155 59.6663 33.0193 59.2737 32.6548C58.8812 32.2903 58.6849 31.5332 58.6849 30.4678V30.1594L60.928 29.6547V31.0285H68.6666V28.3649H61.8252C60.7878 28.3649 60.0588 28.1686 59.6663 27.8041C59.2737 27.4396 59.1055 26.6826 59.1055 25.6171V24.3274C59.1055 23.2339 59.3018 22.5049 59.6663 22.1404C60.0588 21.7759 60.7598 21.5796 61.8252 21.5796H68.0498C69.0592 21.5796 69.7601 21.7478 70.1527 22.1123C70.5452 22.4768 70.7695 23.1497 70.7695 24.1311V24.3834L68.5264 24.9442V23.5984H68.5545Z" fill="#717A90"/>
<path d="M75.5939 23.6548V31.4495H81.8184V23.6548H84.0334V30.9728C84.0334 31.8701 83.8652 32.4589 83.5287 32.7673C83.1923 33.0757 82.5754 33.2439 81.6782 33.2439H75.734C74.8368 33.2439 74.22 33.0757 73.8835 32.7673C73.547 32.4589 73.4069 31.8701 73.4069 30.9728V23.6548H75.5939Z" fill="#717A90"/>
<path d="M86.5234 33.2439V23.6548H88.0095L95.6359 30.0195V23.6548H97.6267V33.2439H96.1126L88.5142 26.7951V33.2439H86.5234Z" fill="#717A90"/>
<path d="M110.585 23.6552H102.622V31.0573H110.585V28.4498H106.435V26.459H113.08V30.4966C113.08 31.5901 112.884 32.3191 112.52 32.6836C112.127 33.0481 111.426 33.2444 110.361 33.2444H102.79C101.753 33.2444 101.024 33.0481 100.659 32.6836C100.267 32.3191 100.099 31.562 100.099 30.4966V24.3562C100.099 23.2627 100.295 22.5337 100.659 22.1692C101.052 21.8047 101.753 21.6084 102.79 21.6084H110.361C111.37 21.6084 112.099 21.8047 112.492 22.1692C112.884 22.5337 113.08 23.2346 113.08 24.2721V24.5524L110.585 25.0291V23.6552Z" fill="#717A90"/>
<path d="M117.766 23.6548V31.4495H123.991V23.6548H126.206V30.9728C126.206 31.8701 126.038 32.4589 125.701 32.7673C125.365 33.0757 124.748 33.2439 123.851 33.2439H117.906C117.009 33.2439 116.392 33.0757 116.056 32.7673C115.719 32.4589 115.579 31.8701 115.579 30.9728V23.6548H117.766Z" fill="#717A90"/>
<path d="M131.335 29.4022H135.456L133.353 25.4208L131.335 29.4022ZM127.073 33.2435L132.4 23.6824H134.503L139.914 33.2435H137.447L136.325 31.1406H130.381L129.26 33.2435H127.073Z" fill="#717A90"/>
<path d="M148.292 25.3091H143.301V27.9447H148.292C148.965 27.9447 149.301 27.6923 149.301 27.1876V26.0661C149.301 25.5894 148.965 25.3091 148.292 25.3091ZM141.142 33.2439V23.6548H149.245C150.647 23.6548 151.348 24.2716 151.348 25.5053V27.7764C151.348 29.0101 150.647 29.5989 149.245 29.5989H148.011L152.273 33.2159H149.133L145.376 29.5989H143.301V33.2159H141.142V33.2439Z" fill="#717A90"/>
<path d="M156.057 31.4495H158.889C160.347 31.4495 161.385 31.2252 162.002 30.8046C162.702 30.3279 163.039 29.4868 163.039 28.2811C163.039 26.3465 162.002 25.3651 159.927 25.3651H156.057V31.4495ZM153.87 33.2439V23.6548H159.927C161.693 23.6548 163.011 24.0754 163.936 24.8885C164.861 25.7296 165.31 26.8792 165.31 28.3933C165.31 31.6177 163.319 33.2159 159.366 33.2159H153.87V33.2439Z" fill="#717A90"/>
<path d="M166.69 24.917H166.915C167.111 24.917 167.307 24.917 167.307 24.6366C167.307 24.4123 167.139 24.3842 166.971 24.3842H166.662V24.917H166.69ZM166.466 24.188H167.027C167.391 24.188 167.559 24.3282 167.559 24.6366C167.559 24.917 167.391 25.0572 167.167 25.0572L167.587 25.7581H167.335L166.943 25.0852H166.69V25.7581H166.466V24.188ZM166.971 26.1507C167.559 26.1507 168.008 25.646 168.008 25.0011C168.008 24.3562 167.531 23.8515 166.971 23.8515C166.382 23.8515 165.933 24.3562 165.933 25.0011C165.905 25.646 166.382 26.1507 166.971 26.1507ZM166.971 23.6272C167.672 23.6272 168.232 24.216 168.232 24.973C168.232 25.7581 167.644 26.3189 166.971 26.3189C166.27 26.3189 165.709 25.7301 165.709 24.973C165.681 24.216 166.27 23.6272 166.971 23.6272Z" fill="#717A90"/>
</svg>
