<svg width="146" height="40" viewBox="0 0 146 40" fill="none" xmlns="http://www.w3.org/2000/svg">
<path fill-rule="evenodd" clip-rule="evenodd" d="M98.8327 10.7837V17.9581H92.9323V10.7837H89.5127V28.2168H92.9323V21.0424H98.8327V28.2168H102.252V10.7837H98.8327ZM80.4608 13.3986C82.0701 13.3986 83.1429 14.4044 83.4111 16.1477H86.8977C86.4284 12.3258 83.8134 10.3813 80.4608 10.3813C78.5834 10.3813 77.0413 10.9848 75.7673 12.2588C75.0297 12.9963 74.5604 13.868 74.3592 14.8737C74.1581 15.8795 74.091 17.5558 74.091 19.5002C74.091 21.3777 74.1581 23.121 74.3592 24.1267C74.5604 25.1325 75.0297 26.0042 75.7673 26.7417C77.0413 28.0157 78.5834 28.6862 80.4608 28.6862C83.8134 28.6862 86.4284 26.7417 86.8977 22.9198H83.4781C83.2099 24.6631 82.2042 25.6689 80.5279 25.6689C79.5892 25.6689 78.8516 25.4007 78.3823 24.7302C77.6447 23.9926 77.5106 22.9198 77.5106 19.5002C77.5106 16.1477 77.6447 15.0749 78.3823 14.2703C78.8516 13.6668 79.5892 13.3986 80.4608 13.3986ZM60.2786 28.2168H71.7442V25.1996H63.6982V21.0424H70.6044V18.0251H63.6982V13.868H71.7442V10.8507H60.2786V28.2168ZM45.3933 13.8009H49.9528V28.2168H53.3724V13.8009H57.9318V10.7837H45.3933V13.8009ZM39.9622 22.3834C39.9622 24.3949 38.7553 25.6019 36.9449 25.6019C35.1346 25.6019 33.9277 24.3949 33.9277 22.3834V10.7837H30.5081V22.5175C30.5081 26.2053 33.3242 28.6191 36.9449 28.6191C40.4986 28.6191 43.3818 26.2053 43.3818 22.5175V10.7837H40.0293V22.3834H39.9622ZM21.0539 10.7837H17.6343V28.2168H28.9659V25.1996H21.0539V10.7837ZM5.56521 22.2493L7.77788 15.8795L9.9235 22.2493H5.56521ZM6.36982 10.7837L0 28.2168H3.55369L4.6265 25.1325H10.7952L11.8009 28.2168H15.3546L8.98479 10.7837H6.36982Z" fill="#717A90"/>
<path fill-rule="evenodd" clip-rule="evenodd" d="M129.942 21.0422H129.137V37.0003H132.222C132.892 36.1957 133.429 35.324 133.831 34.3183C135.775 29.4236 134.099 23.9925 129.942 21.0422ZM134.501 37.0003H145.095V30.3623C140.469 30.1611 136.245 32.8432 134.501 37.0003ZM133.16 21.0422C134.971 25.8699 139.932 28.8872 145.095 28.1496V21.0422H133.16Z" fill="#717A90"/>
<path fill-rule="evenodd" clip-rule="evenodd" d="M137.452 32.9773C139.061 33.916 140.469 35.324 141.408 37.0003H145.095V30.3623C142.212 30.2282 139.53 31.2339 137.452 32.9773ZM129.137 29.8929V37.0003H132.222C132.892 36.1957 133.429 35.324 133.831 34.3183C134.703 32.2397 134.904 30.027 134.434 27.9485C132.825 29.0883 131.015 29.7588 129.137 29.8929ZM141.072 21.0422H133.16C134.233 23.9925 136.58 26.2722 139.329 27.4121C139.262 25.1323 139.865 22.9197 141.072 21.0422Z" fill="#717A90"/>
<path fill-rule="evenodd" clip-rule="evenodd" d="M121.963 29.0213C124.042 26.8756 125.517 24.1266 126.12 21.0422H110.162V37.0003H126.12C125.45 33.983 123.975 31.2339 121.963 29.0213Z" fill="#717A90"/>
<path fill-rule="evenodd" clip-rule="evenodd" d="M121.561 21.0422H110.162V23.9254C112.979 23.9254 115.661 24.663 117.94 25.9369C119.348 24.5289 120.622 22.8526 121.561 21.0422ZM117.94 32.1056C115.594 33.3796 112.979 34.1171 110.162 34.1171V37.0003H121.561C120.622 35.1899 119.348 33.5137 117.94 32.1056Z" fill="#171C28"/>
<path fill-rule="evenodd" clip-rule="evenodd" d="M110.162 23.9922V27.4118C111.503 27.8141 112.777 28.4175 113.917 29.088C115.392 28.2164 116.733 27.2106 117.94 26.0037C115.594 24.6627 112.979 23.9922 110.162 23.9922ZM110.162 30.6973V34.1168C112.979 34.1168 115.661 33.3793 117.94 32.1053C116.733 30.8984 115.392 29.8926 113.917 29.021C112.71 29.6915 111.436 30.295 110.162 30.6973Z" fill="#717A90"/>
<path fill-rule="evenodd" clip-rule="evenodd" d="M129.137 18.0255H145.095V11.1192H129.137V18.0255ZM129.137 2.06738V9.64415H145.095V2.06738H129.137Z" fill="#717A90"/>
<path fill-rule="evenodd" clip-rule="evenodd" d="M129.137 15.8127H145.095V12.5273H129.137V15.8127ZM129.137 2.06738V7.69961H145.095V2.06738H129.137Z" fill="#717A90"/>
<path fill-rule="evenodd" clip-rule="evenodd" d="M118.258 13.1364C117.185 12.4659 116.465 11.6557 115.795 10.6499C115.526 9.51004 115.661 8.30313 116.331 7.23032C117.605 5.15172 120.354 4.48121 122.5 5.75517C124.578 7.02913 125.249 9.77825 123.975 11.9239C123.774 12.2591 123.506 12.5273 123.237 12.7955C122.5 13.2648 122.254 13.6315 120.823 13.6672C122.835 13.8683 124.847 12.9967 126.12 11.3204V2.06738H110.162V18.0255H126.12V13.8012C123.64 14.807 120.672 14.6116 118.258 13.1364Z" fill="#717A90"/>
<path fill-rule="evenodd" clip-rule="evenodd" d="M115.057 9.30852C114.588 7.4311 114.789 5.28549 115.929 3.47512C116.264 2.93872 116.666 2.4023 117.136 2H115.325C114.118 4.34677 114.051 7.02882 115.057 9.30852ZM123.707 18.0251H126.12V16.4159C125.383 17.0193 124.578 17.5558 123.707 18.0251ZM111.101 2.06706H110.162V3.40807C110.229 3.34102 110.229 3.27398 110.297 3.20693C110.498 2.80462 110.766 2.40231 111.101 2.06706ZM110.162 13.935V18.0251H114.588C114.32 17.891 113.984 17.6899 113.716 17.5558C112.174 16.617 110.967 15.3431 110.162 13.935Z" fill="#171C28"/>
<path fill-rule="evenodd" clip-rule="evenodd" d="M118.41 13.1978C114.588 10.8511 113.314 5.95632 115.326 2.06738H112.912C110.297 6.29158 111.638 11.7897 115.795 14.4047C119.08 16.4162 124.713 15.5891 126.121 13.6672C123.64 14.6729 120.824 14.6729 118.41 13.1978ZM124.445 2.53674C124.109 2.33559 123.774 2.20148 123.506 2.06738H119.081C117.874 2.53674 116.868 3.34135 116.13 4.48121C115.594 5.35287 115.326 6.29159 115.259 7.29737C115.393 6.76095 115.594 6.22453 115.862 5.75517C117.337 3.34135 120.556 2.53674 123.036 4.0789C125.45 5.55402 126.255 8.77249 124.713 11.2534C123.841 12.7285 122.299 13.5331 120.757 13.6672C122.768 13.8683 124.847 13.2218 126.121 11.5455V4.0789C125.719 3.47545 125.115 2.93905 124.445 2.53674Z" fill="#717A90"/>
</svg>
