<svg width="68" height="40" viewBox="0 0 68 40" fill="none" xmlns="http://www.w3.org/2000/svg">
<mask id="mask0_217_144" style="mask-type:luminance" maskUnits="userSpaceOnUse" x="0" y="8" width="69" height="24">
<path d="M0 8H68.4V32H0V8Z" fill="white"/>
</mask>
<g mask="url(#mask0_217_144)">
<path fill-rule="evenodd" clip-rule="evenodd" d="M67.495 9.44905C67.495 9.44905 65.4 8.42505 61.098 8.42505C56.797 8.42505 48.016 10.365 48.016 19.951C48.016 29.204 55.952 31.761 61.751 31.761C64.617 31.761 66.731 31.059 67.888 30.576L66.809 26.063C65.916 26.477 64.346 26.859 62.285 26.859C59.84 26.859 55.1 26.078 55.1 19.951C55.1 13.823 59.93 13.323 61.654 13.323C63.379 13.323 65.104 13.652 66.277 14.297L67.495 9.44905ZM9.98 21.98L11.08 18.209L12.137 14.017H12.27L13.327 18.209L14.406 21.979L9.98 21.98ZM17.089 31.47H24.441L16.75 9.07005H7.76L-0.0359955 31.47H7.319L8.617 26.816H15.782L17.09 31.469L17.089 31.47ZM44.252 9.63505C44.252 9.63505 41.652 8.42505 37.058 8.42505C32.831 8.42505 24.143 10.213 24.143 20.022C24.143 29.555 32.153 31.717 37.194 31.717C40.841 31.717 43.397 31.2031 45 30.607V17.6H39.3V26.838C38.737 26.978 37.903 27.036 36.864 27.036C35.3 27.036 30.906 26.261 30.906 20.022C30.906 14.044 35.266 13.354 37.54 13.354C39.469 13.354 41.681 13.788 43.029 14.471L44.252 9.63505Z" fill="#717A90"/>
<path fill-rule="evenodd" clip-rule="evenodd" d="M35.4 22.4001H39.3L45 17.6001H35.4V22.4001Z" fill="#717A90"/>
</g>
</svg>
