<svg width="160" height="40" viewBox="0 0 160 40" fill="none" xmlns="http://www.w3.org/2000/svg">
<path d="M0 19.762C0 9.4 8.39999 1 18.7619 1C29.1239 1 37.5239 9.4 37.5239 19.762C37.5239 30.1239 29.1239 38.5239 18.7619 38.5239C8.39999 38.5239 0 30.1239 0 19.762Z" fill="#717A90"/>
<path d="M0.992188 19.762C0.992188 9.94715 8.94743 1.99023 18.7639 1.99023C28.5788 1.99023 36.534 9.94715 36.534 19.762C36.534 29.5768 28.5788 37.5337 18.7639 37.5337C8.94743 37.5337 0.992188 29.5768 0.992188 19.762Z" fill="#171C28"/>
<path d="M2.25 19.7618C2.25 10.6418 9.64301 3.24707 18.763 3.24707C27.8847 3.24707 35.2777 10.6418 35.2777 19.7618C35.2777 28.8818 27.8847 36.2748 18.763 36.2748C9.64301 36.2748 2.25 28.8818 2.25 19.7618Z" fill="#717A90"/>
<path d="M10.6983 22.9644C9.50833 24.2433 9.35896 25.6866 9.6728 27.6956C9.6728 27.7409 9.76174 27.8886 9.76174 27.8886C9.76174 27.8886 9.6728 27.7996 9.53853 27.7409C8.30329 27.0108 7.42552 25.643 7.39531 24.2433C7.3802 23.2464 7.66385 22.325 8.34693 21.6989C8.45098 21.61 8.61545 21.5361 8.61545 21.5361C8.61545 21.5361 8.49628 21.5647 8.37712 21.5949C6.32286 22.1017 5.10441 20.8967 4.04707 19.9451C3.92791 19.8394 3.83895 19.8108 3.75 19.7655C3.83895 19.7504 3.92791 19.7202 4.04707 19.5859C5.10441 18.6494 6.32286 17.4293 8.37712 17.9345C8.49628 17.9647 8.61545 18.01 8.61545 18.01C8.61545 18.01 8.45098 17.9194 8.34693 17.8321C7.66385 17.2061 7.3802 16.283 7.39531 15.3012C7.42552 13.888 8.30329 12.5487 9.53853 11.7901C9.6728 11.7297 9.76174 11.6408 9.76174 11.6408C9.76174 11.6408 9.6728 11.7901 9.6728 11.8338C9.35896 13.8427 9.50833 15.3012 10.6983 16.5952C12.484 18.485 16.1444 17.7415 16.9785 18.0536C16.5472 17.4595 17.5726 13.5759 15.5939 11.6995C14.2982 10.5247 12.8415 10.3619 10.8325 10.674C10.7872 10.674 10.6378 10.763 10.6378 10.763C10.6378 10.763 10.7284 10.6741 10.7872 10.5398C11.5458 9.30454 12.8868 8.42677 14.2982 8.39656C15.2817 8.38314 16.2031 8.6651 16.8291 9.34986C16.9181 9.45391 17.0071 9.61671 17.0071 9.61671C17.0071 9.61671 16.9634 9.49922 16.9332 9.37838C16.4264 7.3258 17.6465 6.12076 18.6149 5.04999C18.7189 4.93083 18.7492 4.84188 18.7626 4.75293C18.8079 4.84188 18.8364 4.93083 18.9422 5.04999C19.8938 6.12076 21.0988 7.3258 20.5936 9.37838C20.5634 9.49922 20.5198 9.61671 20.5198 9.61671C20.5198 9.61671 20.6071 9.45391 20.7279 9.34986C21.322 8.6651 22.2468 8.38314 23.242 8.39656C24.6401 8.42677 26.0096 9.30454 26.738 10.5398C26.7984 10.6741 26.8873 10.763 26.8873 10.763C26.8873 10.763 26.738 10.674 26.6943 10.674C24.6854 10.3619 23.242 10.4961 21.9631 11.6995C19.9693 13.5608 20.9645 17.384 20.5483 18.0536C21.322 17.6978 25.0127 18.5152 26.8286 16.5952C28.0336 15.3012 28.1964 13.8427 27.8541 11.8338C27.8541 11.7901 27.7651 11.6408 27.7651 11.6408C27.7651 11.6408 27.8541 11.7297 27.9883 11.7901C29.2538 12.5487 30.1315 13.888 30.1466 15.3012C30.1466 16.283 29.863 17.2061 29.1783 17.8321C29.0742 17.9194 28.9114 18.01 28.9114 18.01C28.9114 18.01 29.044 17.9647 29.1632 17.9345C31.2325 17.4293 32.4224 18.6494 33.4932 19.5859C33.6124 19.7202 33.6879 19.7504 33.7769 19.7655C33.6879 19.8108 33.6124 19.8394 33.4932 19.9451C32.4224 20.8967 31.2325 22.1017 29.1632 21.5949C29.044 21.5647 28.9114 21.5361 28.9114 21.5361C28.9114 21.5361 29.0742 21.61 29.1783 21.6989C29.863 22.325 30.1466 23.2464 30.1466 24.2433C30.1315 25.643 29.2538 27.0108 27.9883 27.7409C27.8541 27.7996 27.7651 27.8886 27.7651 27.8886C27.7651 27.8886 27.8541 27.7409 27.8541 27.6956C28.1964 25.6866 28.0336 24.2433 26.8286 22.9644C25.0429 21.0142 21.3371 21.8181 20.5483 21.4908C21.0099 22.0866 19.9542 25.9703 21.9631 27.8299C23.242 29.0198 24.6854 29.1994 26.6943 28.857C26.738 28.857 26.8873 28.768 26.8873 28.768C26.8873 28.768 26.7984 28.857 26.738 28.9913C26.0096 30.255 24.6401 31.1043 23.242 31.1479C22.2468 31.1479 21.322 30.8659 20.7279 30.1812C20.6071 30.0771 20.5198 29.9127 20.5198 29.9127C20.5198 29.9127 20.5634 30.0318 20.5936 30.1661C21.0988 32.2338 19.8938 33.4237 18.9422 34.4961C18.8364 34.6153 18.8079 34.7043 18.7626 34.7781C18.7492 34.7043 18.7189 34.6153 18.6149 34.4961C17.6465 33.4237 16.4264 32.2338 16.9332 30.1661C16.9634 30.0318 17.0071 29.9127 17.0071 29.9127C17.0071 29.9127 16.9181 30.0771 16.8291 30.1812C16.2031 30.8659 15.2817 31.1479 14.2982 31.1479C12.8868 31.1043 11.5458 30.255 10.7872 28.9913C10.7284 28.857 10.6378 28.768 10.6378 28.768C10.6378 28.768 10.7872 28.857 10.8325 28.857C12.8415 29.1994 14.2982 29.0198 15.5939 27.8299C17.5726 25.9703 16.5472 22.1017 16.9785 21.4908C16.1444 21.8181 12.484 21.0444 10.6983 22.9644Z" fill="#171C28"/>
<path d="M52.9231 4.95801C52.1192 4.95801 50.4778 5.04192 49.0629 5.04192C47.7236 5.08724 46 5.08388 46 5.08388V5.58738H46.8392C47.8361 5.58738 48.0559 5.8643 48.0559 7.30766V19.0979C48.0559 20.1703 47.7706 20.8182 46.7133 20.8181H46.0839V21.3216H52.4196V20.8181H51.6643C50.7715 20.8181 50.1958 20.2005 50.1958 19.0559V14.1049C50.7614 14.2828 51.3421 14.4405 52.7552 14.4405C55.5815 14.4405 57.7902 12.1463 57.7902 9.3636C57.7902 7.02738 56.033 4.95801 52.9231 4.95801ZM52.2098 5.71325C54.6803 5.71325 55.3986 7.58962 55.3986 9.65731C55.3986 12.1278 54.0509 13.6333 52.042 13.5594C51.2548 13.5443 50.5969 13.3379 50.1958 13.0559V5.92304C50.4794 5.81899 51.525 5.71325 52.2098 5.71325ZM140.406 8.39857C137.042 8.39857 134.448 11.094 134.448 15.1119C134.448 19.2036 137.091 21.7832 140.364 21.7832C143.801 21.7832 146.28 18.9653 146.28 15.1119C146.28 10.7969 143.427 8.39857 140.406 8.39857ZM117.287 8.5664C113.657 8.53619 110.703 10.7096 110.867 15.3216C110.956 19.0576 113.182 21.4912 116.825 21.6993C119.534 21.8621 120.912 21.0951 122.028 20.4405V16.7482C122.028 15.81 122.216 15.4475 123.035 15.4475H123.287V14.944H118.21V15.4475H118.965C119.621 15.4475 120.14 15.899 120.14 16.7482V20.1049C119.737 20.4775 118.822 20.944 117.497 20.944C115.206 20.944 113.175 18.8797 113.175 15.0699C113.175 11.4699 114.694 9.23773 117.371 9.23773C119.38 9.23773 120.675 10.666 121.315 12.0489L121.692 11.965L121.315 8.69227H120.853C120.794 9.18234 120.622 9.30654 120.056 9.11185C119.61 8.94906 118.567 8.5664 117.287 8.5664ZM58.8811 8.86011V9.3636H59.3846C60.0979 9.3636 60.3916 9.89899 60.3916 10.7482V19.7272C60.3916 20.4858 60.2087 20.8181 59.3007 20.8181H58.8811V21.3216H64.1678V20.8181H63.7483C63.035 20.8181 62.6154 20.6151 62.6154 19.5594V10.6223C62.6154 9.71437 62.8151 9.3636 63.6643 9.3636H64.1678V8.86011H58.8811ZM66.1818 8.86011V9.3636H66.6853C67.4154 9.3636 67.6923 9.77479 67.6923 10.6223V19.5594C67.6923 20.3616 67.5362 20.8181 66.6434 20.8181H66.1818V21.3216H75.0769L76.042 17.923L75.6224 17.8391C74.8336 19.8464 73.9273 20.4825 72.3497 20.4825H70.4615C69.9413 20.4825 69.958 20.1099 69.958 19.5594V10.6223C69.958 9.71437 70.146 9.3636 70.965 9.3636H71.4685V8.86011H66.1818ZM76.4615 8.86011V9.3636H76.965C77.8579 9.3636 77.9301 9.61032 77.9301 10.6223V19.5594C77.9301 20.5714 77.732 20.8181 76.8392 20.8181H76.4615V21.3216H81.7063V20.8181H81.3287C80.659 20.8181 80.0699 20.6604 80.0699 19.5594V14.944C80.0699 14.944 83.9754 19.3093 84.3916 19.7692C84.9136 20.3499 84.6987 20.8181 84.014 20.8181H83.5944V21.3216H89.049V20.7762H88.7133C88.0738 20.7762 87.3303 20.0948 86.8252 19.5594L81.8322 14.1468C83.4551 12.5558 85.0915 11.0285 85.7762 10.3286C86.3703 9.73451 86.8269 9.3636 87.4965 9.3636H88.042V8.86011H83.7622V9.3636H84.2238C84.8045 9.3636 84.8666 9.71941 84.6434 10.0769C84.2271 10.7163 82.2283 12.7974 80.0699 14.5664V10.6223C80.0699 9.87885 80.1757 9.3636 81.2028 9.3636H81.7063V8.86011H76.4615ZM89.8042 8.86011V9.3636H90.3077C91.0512 9.3636 91.3147 9.89899 91.3147 10.7482V19.7272C91.3147 20.4858 91.1586 20.8181 90.2657 20.8181H89.8042V21.3216H95.0909V20.8181H94.6713C94 20.8181 93.5804 20.6151 93.5804 19.5594V10.6223C93.5804 9.71437 93.7684 9.3636 94.5874 9.3636H95.0909V8.86011H89.8042ZM96.8112 8.86011V9.3636C97.1989 9.37871 97.8685 9.44248 98.6573 10.6643V19.6014C98.6573 20.5681 98.3653 20.8181 97.3986 20.8181H96.979V21.3216H101.51V20.8181H101.007C100.04 20.8182 99.7483 20.511 99.7483 19.5594V11.7972L108.182 21.8671V10.7063C108.182 9.47102 108.501 9.32164 109.231 9.32164H109.692V8.86011H105.497V9.32164H105.874C106.975 9.32164 107.175 9.6657 107.175 10.6643V17.3356L99.958 8.86011H96.8112ZM123.455 8.86011L123.329 11.923H123.748C123.896 10.7767 124.087 9.69927 125.888 9.69927H127.483V19.6014C127.483 20.3902 127.273 20.8181 126.35 20.8181H125.888V21.3216H131.175V20.8181H130.755C130.07 20.8181 129.664 20.6453 129.664 19.5594V9.69927H131.343C132.444 9.69927 133.301 10.1071 133.524 11.923H133.902L133.818 8.86011H123.455ZM147.119 8.86011V9.3636C147.52 9.37871 148.166 9.44248 148.923 10.6643V19.6014C148.923 20.5681 148.671 20.8181 147.706 20.8181H147.245V21.3216H151.818V20.8181H151.315C150.333 20.8182 150.056 20.511 150.056 19.5594V11.7972L158.49 21.8671V10.7063C158.49 9.47102 158.823 9.32164 159.538 9.32164H160V8.86011H155.804V9.32164H156.182C157.283 9.32164 157.483 9.6657 157.483 10.6643V17.3356L150.266 8.86011H147.119ZM140.406 9.19577C142.503 9.19577 143.888 11.1829 143.888 15.1119C143.888 18.7874 142.373 21.0279 140.364 21.0279C138.236 21.0279 136.881 18.9653 136.881 15.1119C136.881 11.3927 138.204 9.19577 140.406 9.19577ZM53.6783 27.8671C52.6848 27.8671 51.6224 28.4209 51.6224 29.5454C51.6224 30.5759 52.4431 30.883 53.2587 31.0979C54.0677 31.3127 54.8951 31.4285 54.8951 32.0209C54.8951 32.5832 54.2271 32.6923 53.8042 32.6923C53.158 32.6923 52.5874 32.417 52.5874 31.6853H51.4126C51.3975 33.0397 52.5471 33.6573 53.7622 33.6573C55.2559 33.6573 56.0699 32.9054 56.0699 31.8951C56.0699 30.6498 54.8347 30.3577 54.4336 30.2587C53.0557 29.9029 52.7972 29.8861 52.7972 29.4615C52.7972 29 53.252 28.8321 53.6364 28.8321C54.2154 28.8321 54.6467 29.01 54.6853 29.6713H55.8601C55.8601 28.4008 54.8246 27.8671 53.6783 27.8671ZM59.2587 27.8671C57.5569 27.8671 56.5734 29.1728 56.5734 30.8042C56.5734 32.3902 57.5569 33.6573 59.2587 33.6573C59.7908 33.6573 60.3463 33.4475 60.7692 32.9021L60.8951 33.4895H61.6503V30.5524H59.3427V31.4335H60.5594C60.489 32.1955 60.0442 32.6084 59.2587 32.6084C58.1729 32.6084 57.7902 31.7188 57.7902 30.8042C57.7902 29.8425 58.1729 28.9161 59.2587 28.916C59.8277 28.916 60.2943 29.2299 60.4336 29.8391H61.5664C61.4355 28.5905 60.3832 27.8671 59.2587 27.8671ZM67.3986 27.8671C65.6968 27.8671 64.6713 29.1728 64.6713 30.8042C64.6713 32.3902 65.6968 33.6573 67.3986 33.6573C67.929 33.6573 68.4862 33.4475 68.9091 32.9021L69.035 33.4895H69.7902V30.5524H67.4825V31.4335H68.6993C68.6288 32.1955 68.1841 32.6084 67.3986 32.6084C66.3127 32.6084 65.8881 31.7188 65.8881 30.8042C65.8881 29.8425 66.3127 28.9161 67.3986 28.916C67.9676 28.916 68.3922 29.2299 68.5315 29.8391H69.7063C69.5737 28.5905 68.5231 27.8671 67.3986 27.8671ZM107.762 27.8671C106.062 27.8671 105.077 29.1728 105.077 30.8042C105.077 32.3902 106.062 33.6573 107.762 33.6573C108.294 33.6573 108.85 33.4475 109.273 32.9021L109.399 33.4895H110.196V30.5524H107.888V31.4335H109.105C109.036 32.1955 108.548 32.6084 107.762 32.6084C106.676 32.6084 106.294 31.7188 106.294 30.8042C106.294 29.8425 106.676 28.9161 107.762 28.916C108.333 28.916 108.798 29.2299 108.937 29.8391H110.112C109.981 28.5905 108.887 27.8671 107.762 27.8671ZM46.0839 27.993V33.4895H47.2168V29.8391L49.5245 33.4895H50.7413V27.993H49.6084V31.6853H49.5664L47.3007 27.993H46.0839ZM89.4685 27.993V33.4895H90.6853V31.2237H92.951V30.3007H90.6853V29.0419H93.3287V27.993H89.4685ZM93.7902 27.993V33.4895H94.8811V27.993H93.7902ZM110.993 27.993V33.4895H112.084V27.993H110.993ZM127.902 27.993V33.4895H130.587C131.581 33.4895 132.517 33.0112 132.517 31.8951C132.517 31.2103 132.18 30.7035 131.51 30.5105C131.987 30.2805 132.266 29.9163 132.266 29.3776C132.266 28.3538 131.551 27.993 130.503 27.993H127.902ZM141.622 28.0349V28.916H142.713V28.0349H141.622ZM100.503 28.3286V29.5454H99.8322V30.2587H100.503V32.6084C100.503 33.4005 101.094 33.5734 101.762 33.5734C101.979 33.5734 102.207 33.5616 102.392 33.5314V32.6503C102.277 32.6721 102.172 32.6923 102.056 32.6923C101.687 32.6923 101.594 32.6 101.594 32.2307V30.2587H102.392V29.5454H101.594V28.3286H100.503ZM129.119 28.958H130.252C130.683 28.958 131.091 29.0637 131.091 29.5874C131.091 30.0489 130.76 30.2587 130.336 30.2587H129.119V28.958ZM72.8951 29.4195C72.3648 29.4195 71.8378 29.7586 71.6364 30.2587H71.5944V29.5454H70.5874V33.4895H71.6783V31.7272C71.6783 31.0257 71.9284 30.4265 72.7273 30.4265C72.8582 30.4265 73.0478 30.445 73.1469 30.4685V29.4615C73.078 29.438 72.9723 29.4195 72.8951 29.4195ZM75.4126 29.4195C74.1656 29.4195 73.3566 30.247 73.3566 31.5174C73.3566 32.7795 74.1656 33.6153 75.4126 33.6154C76.668 33.6154 77.4685 32.7795 77.4685 31.5174C77.4685 30.247 76.668 29.4195 75.4126 29.4195ZM84.7692 29.4195C84.2775 29.4195 83.8143 29.626 83.5524 30.0489V29.5454H82.5035V34.916H83.5944V33.0279H83.6364C83.8982 33.4207 84.3345 33.6153 84.8112 33.6154C85.9743 33.6154 86.5734 32.6218 86.5734 31.5594C86.5734 30.4282 86.0162 29.4195 84.7692 29.4195ZM97.4825 29.4195C96.5896 29.4195 95.6548 29.7368 95.5944 30.7622H96.6853C96.7239 30.3309 96.9841 30.1748 97.3986 30.1748C97.7829 30.1748 98.1119 30.2084 98.1119 30.6783C98.1119 31.1247 97.4808 31.123 96.8112 31.2237C96.1348 31.316 95.4685 31.5393 95.4685 32.4405C95.4685 33.2562 96.0576 33.6154 96.8112 33.6154C97.2962 33.6154 97.8081 33.4744 98.1538 33.1119C98.1622 33.2428 98.1992 33.367 98.2378 33.4895H99.3706C99.2699 33.3284 99.2028 32.9692 99.2028 32.6084V30.5524C99.2028 29.5991 98.2764 29.4195 97.4825 29.4195ZM114.727 29.4195C113.834 29.4195 112.901 29.7368 112.839 30.7622H113.93C113.967 30.3309 114.271 30.1748 114.685 30.1748C115.071 30.1748 115.357 30.2084 115.357 30.6783C115.357 31.1247 114.768 31.123 114.098 31.2237C113.42 31.316 112.713 31.5393 112.713 32.4405C112.713 33.2562 113.343 33.6154 114.098 33.6154C114.581 33.6154 115.095 33.4744 115.441 33.1119C115.449 33.2428 115.446 33.367 115.483 33.4895H116.615C116.515 33.3284 116.49 32.9692 116.49 32.6084V30.5524C116.49 29.5991 115.521 29.4195 114.727 29.4195ZM119.007 29.4195C118.151 29.4195 117.287 29.7049 117.287 30.7202C117.287 31.4218 117.914 31.6299 118.545 31.7692C119.331 31.937 119.804 32.0679 119.804 32.3986C119.804 32.7829 119.406 32.9021 119.091 32.9021C118.66 32.9021 118.258 32.7074 118.252 32.2307H117.203C117.248 33.2847 118.126 33.6154 119.049 33.6154C119.957 33.6154 120.895 33.278 120.895 32.2307C120.895 31.4923 120.274 31.2439 119.636 31.0979C119.012 30.9519 118.378 30.9032 118.378 30.5105C118.378 30.1865 118.718 30.1748 118.965 30.1748C119.358 30.1748 119.688 30.2537 119.72 30.6783H120.769C120.684 29.6998 119.876 29.4195 119.007 29.4195ZM123.161 29.4195C122.307 29.4195 121.441 29.7049 121.441 30.7202C121.441 31.4218 122.068 31.6299 122.699 31.7692C123.485 31.937 123.958 32.0679 123.958 32.3986C123.958 32.7829 123.56 32.9021 123.245 32.9021C122.813 32.9021 122.414 32.7074 122.406 32.2307H121.357C121.402 33.2847 122.32 33.6154 123.245 33.6154C124.153 33.6154 125.049 33.278 125.049 32.2307C125.049 31.4923 124.428 31.2439 123.79 31.0979C123.166 30.9519 122.531 30.9032 122.531 30.5105C122.531 30.1865 122.916 30.1748 123.161 30.1748C123.554 30.1748 123.886 30.2537 123.916 30.6783H124.923C124.837 29.6998 124.03 29.4195 123.161 29.4195ZM139.273 29.4195C138.418 29.4195 137.51 29.7049 137.51 30.7202C137.51 31.4218 138.138 31.6299 138.769 31.7692C139.555 31.937 140.028 32.0679 140.028 32.3986C140.028 32.7829 139.63 32.9021 139.315 32.9021C138.883 32.9021 138.484 32.7074 138.476 32.2307H137.427C137.472 33.2847 138.392 33.6154 139.315 33.6154C140.224 33.6154 141.119 33.278 141.119 32.2307C141.119 31.4923 140.5 31.2439 139.86 31.0979C139.237 30.9519 138.601 30.9032 138.601 30.5105C138.601 30.1865 138.986 30.1748 139.231 30.1748C139.625 30.1748 139.956 30.2537 139.986 30.6783H140.993C140.909 29.6998 140.142 29.4195 139.273 29.4195ZM145.734 29.4195C145.273 29.4195 144.793 29.6444 144.517 30.0909H144.476V29.5454H143.469V33.4895H144.559V31.4335C144.559 30.6246 144.806 30.3007 145.399 30.3007C145.907 30.3007 146.112 30.6112 146.112 31.2657V33.4895H147.203V31.0559C147.203 30.0691 146.897 29.4195 145.734 29.4195ZM149.804 29.4195C148.596 29.4195 147.79 30.3242 147.79 31.5174C147.79 32.7493 148.549 33.6154 149.804 33.6154C150.705 33.6154 151.383 33.2126 151.692 32.2727H150.727C150.658 32.5194 150.284 32.7762 149.846 32.7762C149.239 32.7762 148.913 32.4623 148.881 31.7692H151.734C151.811 30.5457 151.159 29.4195 149.804 29.4195ZM154.084 29.4195C153.23 29.4195 152.364 29.7049 152.364 30.7202C152.364 31.4218 152.991 31.6299 153.622 31.7692C154.408 31.937 154.881 32.0679 154.881 32.3986C154.881 32.7829 154.483 32.9021 154.168 32.9021C153.737 32.9021 153.335 32.7074 153.329 32.2307H152.28C152.327 33.2847 153.203 33.6154 154.126 33.6154C155.034 33.6154 155.972 33.278 155.972 32.2307C155.972 31.4923 155.351 31.2439 154.713 31.0979C154.089 30.9519 153.455 30.9032 153.455 30.5105C153.455 30.1865 153.837 30.1748 154.084 30.1748C154.477 30.1748 154.767 30.2537 154.797 30.6783H155.846C155.761 29.6998 154.955 29.4195 154.084 29.4195ZM158.154 29.4195C157.3 29.4195 156.392 29.7049 156.392 30.7202C156.392 31.4218 157.061 31.6299 157.692 31.7692C158.478 31.937 158.909 32.0679 158.909 32.3986C158.909 32.7829 158.511 32.9021 158.196 32.9021C157.764 32.9021 157.365 32.7074 157.357 32.2307H156.308C156.353 33.2847 157.273 33.6154 158.196 33.6154C159.104 33.6154 160 33.278 160 32.2307C160 31.4923 159.379 31.2439 158.741 31.0979C158.117 30.9519 157.524 30.9032 157.524 30.5105C157.524 30.1865 157.865 30.1748 158.112 30.1748C158.505 30.1748 158.835 30.2537 158.867 30.6783H159.916C159.83 29.6998 159.025 29.4195 158.154 29.4195ZM78.0979 29.5454V31.979C78.0979 32.9642 78.4034 33.6153 79.5664 33.6154C80.028 33.6154 80.5063 33.3905 80.7832 32.944V33.4895H81.8322V29.5454H80.7413V31.6014C80.7413 32.4086 80.4962 32.7762 79.9021 32.7762C79.3952 32.7762 79.1888 32.4237 79.1888 31.7692V29.5454H78.0979ZM133.063 29.5454V31.979C133.063 32.9642 133.368 33.6153 134.531 33.6154C134.995 33.6154 135.471 33.3905 135.748 32.944V33.4895H136.797V29.5454H135.706V31.6014C135.706 32.4086 135.46 32.7762 134.867 32.7762C134.359 32.7762 134.154 32.4237 134.154 31.7692V29.5454H133.063ZM141.622 29.5454V33.4895H142.713V29.5454H141.622ZM75.4126 30.2587C76.1594 30.2587 76.3776 30.8797 76.3776 31.5174C76.3776 32.1485 76.1594 32.7762 75.4126 32.7762C74.6741 32.7762 74.4476 32.1485 74.4476 31.5174C74.4476 30.8797 74.6741 30.2587 75.4126 30.2587ZM84.5175 30.2587C85.219 30.2587 85.4825 30.8864 85.4825 31.5174C85.4825 32.1636 85.2324 32.7762 84.5175 32.7762C83.8092 32.7762 83.5524 32.1636 83.5524 31.5174C83.5524 30.8713 83.8025 30.2587 84.5175 30.2587ZM149.804 30.2587C150.335 30.2587 150.543 30.544 150.643 31.0979H148.881C148.898 30.7907 149.111 30.2587 149.804 30.2587ZM129.119 31.0559H130.462C130.978 31.0559 131.301 31.2909 131.301 31.8531C131.301 32.4237 130.896 32.5664 130.42 32.5664H129.119V31.0559ZM98.1119 31.5594V31.979C98.1119 32.2173 98.085 32.9021 97.2308 32.9021C96.8783 32.9021 96.5594 32.8064 96.5594 32.3986C96.5594 31.9991 96.8917 31.88 97.2308 31.8112C97.5698 31.7491 97.9273 31.7222 98.1119 31.5594ZM115.357 31.5594V31.979C115.357 32.2173 115.33 32.9021 114.476 32.9021C114.123 32.9021 113.804 32.8064 113.804 32.3986C113.804 31.9991 114.137 31.88 114.476 31.8112C114.813 31.7491 115.172 31.7222 115.357 31.5594Z" fill="#717A90"/>
</svg>
