<?xml version="1.0" encoding="utf-8"?><svg viewBox="0 0 710 746" xmlns="http://www.w3.org/2000/svg" xmlns:xlink="http://www.w3.org/1999/xlink"><style>:root>svg{display:none}:root>svg:target{display:block}</style><svg fill="none" viewBox="0 0 710 746" id="estimate_decor" xmlns="http://www.w3.org/2000/svg"><path d="M270.335 636.618a374.862 374.862 0 00-2.873-3.618M52.392 222.386c72.988 40.564 236.363 153.509 305.963 280.779 5.745 10.506 101.94 177.265 109.41 186.354M74.04 141.598c2.124.969 4.326 1.999 6.602 3.088M394.94 433.552a468.85 468.85 0 00-8.273-15.026m8.273 15.026L286.827 641.037M394.94 433.552c21.437 40.7 40.32 77.138 56.721 109.216M532.3 706.812c-5.084-11.39-15.816-34.228-32.475-68.136m138.6 96.572c-72.467-101.869-231.669-326.34-309.824-438.852m-229.2-249.45c2.623.787 5.454 1.712 8.479 2.778m244.914 198.844c21.16 30.576 44.52 65.04 68.522 100.889m-68.522-100.889L255.71 349.881m97.084-101.313a572.622 572.622 0 00-9.672-13.549m299.025 453.832c-2.652-4.592-14.736-23.767-33.087-52.438m33.087 52.438l-.376 47.293m.376-47.293a323.806 323.806 0 013.404 6.036m12.952 45.74c.847-6.039.276-12.205-1.343-18.548M104.397 28.303c42.164 19.259 100.61 35.32 209.113 155.581m373.341 523.607c-.049 20.071-6.809 33.699-10.183 38.004m10.183-38.004c-.103-25.354-1.179-45.118-2.956-60.738m2.956 60.738c.008-3.069-.582-6.996-1.73-11.48m-30.422-54.007c-68.592-70.819-124.786-130.653-171.635-181.674m171.635 181.674l-.196-102.525m.196 102.525a104.193 104.193 0 013.885 4.243M320.278 140.458c102.469 91.16 312.227 278.051 331.511 296.334 22.25 21.095 38.535 43.648 45.027 69.05M320.278 140.458c17.61 13.234 33.955 25.161 49.265 36.038m-49.265-36.038l-81.46 50.654m81.46-50.654a425.172 425.172 0 00-9.799-11.234m9.799 11.234c20.782 24.687 45.317 53.829 71.511 84.955m262.714 314.066c-8.674-11.384-69.51-84.147-141.103-169.42m141.103 169.42a245.574 245.574 0 004.399 5.574m24.993 101.7c-5.882-51.691-19.445-58.001-30.838-71.283-11.868-13.838-194.325-223.198-284.07-326.149-19.838-24.713-38.286-46.382-55.477-65.437m370.385 462.869c.115-5.448.153-10.552.117-15.34M111.57 1.533c6.104-.768 13.692-.67 22.446.366m188.63 104.865C221.975 28.144 139.556 5.444 110.93 3.923m211.716 102.841l315.477 214.672c15.342 9.234 49.624 38.3 64.025 80.688m-379.502-295.36c12.724 11.759 27.158 25.096 42.711 39.464m-42.711-39.464a375.531 375.531 0 00-27.333-26.105m357.272 330.216c-9.787-8.777-51.381-47.033-103.817-95.368m103.817 95.368l-2.192 73.193m2.192-73.193a472.567 472.567 0 014.946 4.488m45.577 159.684c.203 23.008-12.647 47.164-19.096 56.366m19.096-56.366c-1.199-25.059-2.811-45.653-4.874-62.79m4.874 62.79c.299-4.522-.475-11.547-3.173-20.32m-15.923 76.686c-.056-7.314-.283-13.892-.665-19.838m14.887-99.318c7.593-12.196 13.843-34.012 8.755-60.674m-8.755 60.674c-1.004-8.335-2.114-15.853-3.336-22.669m3.336 22.669a99.694 99.694 0 00-1.418-6.415m-59.592-152.368l2.164-50.144m-2.164 50.144a284.94 284.94 0 016.777 5.301m-6.777-5.301c-22.126-16.787-42.161-30.893-61.31-43.668m74.479 174.262c-17.74-15.732-63.625-55.654-119.007-103.691m119.007 103.691a229.58 229.58 0 017.186 6.646M280.796 163.518a581.623 581.623 0 016.481 6.407m-6.481-6.407a585.54 585.54 0 00-7.136-6.829m7.136 6.829c29.368 25.37 67.845 58.629 108.991 94.224m-108.991-94.224c-12.618-13.268-33.083-32.756-57.473-52.703M101.835 37.864c36.398 11.507 76.12 37.252 109.985 63.747m-39.629-91.124a286.982 286.982 0 0111.147 3.77m-11.147-3.77c4.157.204 9.747.948 16.52 2.406m-16.52-2.406a261.2 261.2 0 00-9.497-2.8m9.497 2.8l-31.962 5.678m171.518 60.524a373.75 373.75 0 00-13.977-10.938m13.977 10.938c7.362 6.046 17.452 13.758 29.536 22.666m-29.536-22.666c9.311 4.595 19.91 9.823 31.453 15.51M639.388 303.33a130.501 130.501 0 015.397 3.76m-5.397-3.76a13779.196 13779.196 0 01-54.14-36.008m121.741 184.261a110.555 110.555 0 00-2.02-8.662m2.02 8.662c-.12-14.26-1.211-27.349-3.056-39.332m-1.785-10.127c4.238-11.147 6.45-28.696 1.858-49.201m-1.858 49.201a192.837 192.837 0 00-1.664-7.557m1.664 7.557c.128.644.254 1.292.378 1.943m-685.23-50.698c33.748-1.705 114.304 31.211 214.138 156.905m95.31 141.459c-33.03-56.753-65.055-103.367-95.31-141.459M64.049 178.885c4.24 2.063 9.696 5.113 16.234 9.207m463.968 521.922c-24.81-31.943-65.4-83.771-110.997-141.232M246.504 71.599c37.661 21.392 71.341 38.709 102.453 53.613M246.504 71.599L189.317 90.94m57.187-19.34c1.14.83 2.281 1.672 3.423 2.522m-3.423-2.523a415.156 415.156 0 00-7.529-5.363m465.031 286.687a112.48 112.48 0 00-1.21-4.885m1.21 4.885c.269-6.755-.096-15.121-1.396-24.43m-83.898-116.268l-4.286 36.073m4.286-36.073c2.187.913 4.322 1.868 6.405 2.865m-6.405-2.865c-14.733-6.142-34.12-15.057-56.39-25.7M232.228 27.357c5.081 1.152 14.579 4.883 27.403 10.55m-27.403-10.55a297.108 297.108 0 018.904 4.057m-8.904-4.057l-10.331 3.738m10.331-3.738a281.19 281.19 0 00-8.392-3.499m474.885 285.123c-5.392-17.328-29.635-58.357-83.468-83.849C567.786 202.655 429.273 134.617 343.2 92.2M698.721 308.98c.522-6.874.179-15.435-1.479-24.99m1.479 24.99a172.21 172.21 0 00-1.905-6.77m1.905 6.77l1.921 32.025m-1.921-32.025a174.716 174.716 0 011.862 7.928M584.561 165.672c-17.812-5.819-38.336-12.292-60.46-19.118m60.46 19.118l7.173-26.77m-7.173 26.77c2.554.835 5.055 1.7 7.502 2.595M230.519 60.507c39.068 10.994 104.097 29.577 171.472 49.388M230.519 60.506a415.56 415.56 0 013.755 2.507m-3.755-2.507c-.581-.384-1.162-.765-1.743-1.144m468.466 224.629C695.21 197.78 624.434 157.399 589.3 147.985L297.77 65.751m399.472 218.24c.605-9.521-.091-21.886-2.949-35.465m2.949 35.465a130.37 130.37 0 00-2.71-12.117M591.734 138.902c-16.144-4.693-34.17-9.918-53.248-15.438m53.248 15.438c2.579.75 5.098 1.545 7.559 2.382m-309.567-89.49c49.36 5.585 173.027 19.606 274.213 31.177M289.726 51.794c20.368 5.848 49.655 14.264 83.012 23.863m-83.012-23.862c11.778 5.595 24.828 11.928 38.775 18.778m-38.775-18.778c-8.353-3.968-16.066-7.565-23.005-10.71M297.77 65.75a357.025 357.025 0 00-21.404-14.771M685.75 220.966a87.55 87.55 0 00-.896-7.005m.896 7.005c.204-4.06.181-8.55-.124-13.355m.124 13.355a149.631 149.631 0 00-2.3-5.235m2.3 5.235c.239.575.475 1.151.706 1.726M410.078 86.406c11.586.741 41.54 3.68 142.109 12.695.586.053 1.169.108 1.749.165m-143.858-12.86l18.313 5.276m-18.313-5.276c-12.822-3.693-25.344-7.297-37.34-10.75M231.434 510.275l-71.287 96.819M80.642 144.686l-8.267 3.127m8.267-3.127c6.761 3.237 14.176 6.999 22.13 11.271m1.304.703L65.97 171.714m38.106-15.054a702.935 702.935 0 0122.694 12.826m-22.694-12.826l-1.304-.703m23.998 13.529L58.477 199.68m68.293-30.194a801.414 801.414 0 0122.011 13.459m0 0l-98.95 49.002m98.95-49.002a851.177 851.177 0 0121.358 13.988m0 0L39.968 268.756m130.171-71.823a869.941 869.941 0 0120.934 14.612m0 0l-162.12 98.323m162.12-98.323a867.881 867.881 0 0120.3 15.067m0 0L16.335 356.954m195.038-130.342a852.363 852.363 0 0120.09 15.85m0 0L33.338 388.153 1.54 412.168c9.122 5.825 19.946 12.966 31.984 21.178m197.938-190.884a827.94 827.94 0 0119.035 15.966m0 0L67.363 406.493l-33.838 26.853m216.973-174.918a797.131 797.131 0 0117.784 15.85m0 0L99.54 424.081l-35.158 30.823m203.9-180.626a762.008 762.008 0 0116.756 15.866m0 0L129.182 442.527l-35.017 34.121m190.873-186.504a721.493 721.493 0 0116.538 16.678m0 0L122.038 497.87m179.538-191.048a682.574 682.574 0 0115.506 16.704M122.038 497.87a1570.832 1570.832 0 0125.769 20.472m-25.769-20.472a1734.828 1734.828 0 00-27.873-21.222m222.917-153.122L147.807 518.342m169.275-194.816a643.108 643.108 0 0113.9 16.006m-183.175 178.81a1361.55 1361.55 0 0124.93 20.731m0 0l158.245-199.541M172.737 539.073c14.928 12.725 29.478 25.736 43.151 38.779m115.094-238.32a609.27 609.27 0 0113.095 16.14m0 0L230.239 509.954m113.838-154.282a576.61 576.61 0 0111.917 15.759M215.888 577.852l140.106-206.421M215.888 577.852a758.672 758.672 0 0119.044 18.798m121.062-225.219a545.51 545.51 0 0111.312 16.105m0 0L234.932 596.65m132.374-209.114c3.35 4.96 6.618 9.98 9.798 15.059M234.932 596.65a587.294 587.294 0 0117.529 18.716m0 0l124.643-212.771M252.461 615.366c5.305 5.93 10.322 11.816 15.001 17.634m109.642-230.405a492.367 492.367 0 019.563 15.931m0 0L267.462 633m86.545-163.328c-32.177-39.895-63.897-78.737-91.882-112.184a1247.907 1247.907 0 00-6.415-7.607m98.297 119.791l67.309-120.215m-67.309 120.215c26.727 33.138 53.769 67.003 79.247 99.11m-11.938-219.325a14512.324 14512.324 0 0157.859 87.143m-66.682-54.215l43.024-81.214m-43.024 81.214a7404.243 7404.243 0 0070.571 77.945m-70.571-77.945C274.025 227.24 240.608 176.583 156.349 119.371m299.168 181.8c19.536 23.235 39.081 46.493 57.883 68.888m-57.883-68.888c-21.59-25.678-43.17-51.329-63.728-75.758M463.9 321.89l27.762-59.05M463.9 321.89c23.197 20.09 46.053 39.896 67.486 58.487M463.9 321.89a184677.006 184677.006 0 00-74.113-64.148m101.875 5.098c19.749 18.222 39.069 36.041 57.106 52.667m-57.106-52.667a269076.767 269076.767 0 01-60.589-55.923m100.313 173.46l17.382-64.87M513.4 370.059l-30.336 90.271m-3.889-23.73l-45.921 132.182M479.175 436.6a18972.509 18972.509 0 0149.113 74.915m-76.627 31.253l-43.651 130.74m43.651-130.74c17.706 34.631 32.52 64.182 44.532 88.53m-12.892 62.384l12.892-62.384m0 0a5765.2 5765.2 0 013.632 7.378m0 0l28.463-127.161m0 0a19921.85 19921.85 0 0143.332 66.721m0 0l-18.047 134.276m18.047-134.276a15227.517 15227.517 0 0137.44 58.177m0 0l-6.727 89.164m43.218-30.69l.284 42.346m-.284-42.346a206.693 206.693 0 013.909 7.452m0 0l-.04 35.855m.04-35.855c.883 1.777 1.72 3.537 2.502 5.282m0 0l.326 31.341m-.326-31.341a110.89 110.89 0 012.292 5.482m0 0l.745 26.586m-.745-26.586c1.171 3.034 2.152 6.024 2.906 8.976m0 0l-.092 18.164m1.834-195.19l-.318 101.194m.318-101.194c1.308 1.618 2.593 3.191 3.847 4.764m-4.165 96.43a116.083 116.083 0 015.452 6.803m0 0l-1.287-103.233m1.287 103.233a128.032 128.032 0 014.553 6.554m-5.84-109.787c1.634 2.049 3.216 4.098 4.731 6.246m0 0l1.109 103.541m-1.109-103.541a77.983 77.983 0 013.444 5.311m-2.335 98.23a136.056 136.056 0 013.459 5.615m0 0l-1.124-103.845m1.124 103.845a139.618 139.618 0 013.444 6.268m-4.568-110.113a68.607 68.607 0 013.545 6.847m0 0l1.023 103.266m-1.023-103.266a72.826 72.826 0 011.523 3.659m-.5 99.607a140.84 140.84 0 012.959 6.085m0 0l-2.459-105.692m2.459 105.692a130.089 130.089 0 012.926 6.933m-5.385-112.625a83.548 83.548 0 012.342 7.032m0 0l3.043 105.593m-3.043-105.593c.962 3.362 1.82 7.074 2.56 11.224m.483 94.369a116 116 0 011.751 4.824m0 0l-2.234-99.193m2.234 99.193a94.13 94.13 0 011.993 6.682m-4.227-105.875c1.088 6.106 1.921 13.159 2.453 21.439m0 0l1.774 84.436m-27.542-205.297l-.048-75.351m.048 75.351a213.75 213.75 0 016.256 6.291m-6.304-81.642a199.887 199.887 0 015.71 5.459m0 0l.594 76.183m-.594-76.183c1.513 1.51 2.98 3.039 4.402 4.608m-3.808 71.575a202.739 202.739 0 015.157 5.612m0 0l-1.349-77.187m1.349 77.187a191.183 191.183 0 014.87 5.727m-6.219-82.914a99.519 99.519 0 014.475 5.288m0 0l1.744 77.626m-1.744-77.626a87.637 87.637 0 014.478 6.232m-2.734 71.394a181.024 181.024 0 014.769 6.103m0 0l-2.035-77.497m2.035 77.497a166.858 166.858 0 015.2 7.365m-7.235-84.862a87.608 87.608 0 013.712 6.225m0 0l3.523 78.637m-3.523-78.637a96.943 96.943 0 012.997 6.026m.526 72.611a156.029 156.029 0 013.059 4.78m0 0l-3.585-77.391m3.585 77.391a146.125 146.125 0 013.737 6.443m-7.322-83.834a115.714 115.714 0 013.738 9.296m0 0l3.584 74.538m-3.584-74.538a147.38 147.38 0 012.459 7.614m1.125 66.924a134.696 134.696 0 012.905 5.63m0 0l-4.03-72.554m4.03 72.554a124.694 124.694 0 012.283 4.967m-6.313-77.521c1.199 4.077 2.325 8.496 3.381 13.313m0 0l2.932 64.208m-2.932-64.208a269.808 269.808 0 012.015 10.164m.917 54.044c.68 1.57 1.304 3.105 1.876 4.601m0 0l-2.793-58.645m2.793 58.645a102.677 102.677 0 012.244 6.494m-3.119-48.885l3.119 48.885m-55.934-195.952l.784-51.685m-.784 51.685a267.941 267.941 0 016.493 5.408m-5.709-57.093a131.242 131.242 0 016.77 5.329m0 0l-1.061 51.764m1.061-51.764a135.03 135.03 0 013.943 3.45m-5.004 48.314a250.258 250.258 0 016.412 5.709m0 0l-1.408-54.023m1.408 54.023a232.119 232.119 0 015.307 5.05m-6.715-59.073a138.088 138.088 0 016.303 6.116m0 0l.412 52.957m-.412-52.957a140.204 140.204 0 015.163 5.642m-4.751 47.315a215.273 215.273 0 016.233 6.378m0 0l-1.482-53.693m1.482 53.693a201.297 201.297 0 015.527 6.143m-7.009-59.836a142.748 142.748 0 015.957 7.354m0 0l1.052 52.482m-1.052-52.482a146.16 146.16 0 014.473 6.251m-3.421 46.231a186.75 186.75 0 014.647 5.603m0 0l-1.226-51.834m1.226 51.834a174.569 174.569 0 014.737 6.225m-5.963-58.059a147.515 147.515 0 013.555 5.513m0 0l2.408 52.546m-2.408-52.546a152.118 152.118 0 014.258 7.397m-1.85 45.149a162.226 162.226 0 014.792 6.974m0 0l-2.942-52.123m2.942 52.123a150.16 150.16 0 014.623 7.603m-7.565-59.726a156.394 156.394 0 014.819 9.74m0 0l2.746 49.986m-2.746-49.986a162.926 162.926 0 013.421 8.142m-.675 41.844a141.621 141.621 0 012.697 4.977m-2.022-46.821l2.022 46.821m-2.022-46.821a171.257 171.257 0 013.803 10.855m-1.781 35.966a137.346 137.346 0 012.01 4.059m-.229-40.025l.229 40.025m-.229-40.025a178.809 178.809 0 011.993 6.837m-1.764 33.188a130.06 130.06 0 012.254 5.022m-.49-38.21l.49 38.21m-.49-38.21c.43 1.592.844 3.208 1.241 4.851m-.751 33.359a124.107 124.107 0 012.183 5.511m-1.432-38.87l1.432 38.87m0 0c.508 1.377.984 2.746 1.43 4.105m0 0l-.82-33.475m.82 33.475c.594 1.81 1.134 3.603 1.623 5.379m-2.443-38.854c.508 2.669.978 5.396 1.407 8.184m1.036 30.67l-1.036-30.67m-89.507-163.953c-.369-.21-.74-.42-1.112-.629-21.222-11.949-41.416-22.367-61.134-31.9m62.246 32.529a299.954 299.954 0 016.643 3.891m0 0l4.048-37.099m-4.048 37.099a279.68 279.68 0 017.242 4.522m-3.194-41.621a132.876 132.876 0 016.756 3.471m0 0l-3.562 38.15m3.562-38.15a130.881 130.881 0 015.759 3.366m-9.321 34.784a261.717 261.717 0 016.52 4.351m0 0l2.801-39.135m-2.801 39.135a246.216 246.216 0 016.452 4.603m-3.651-43.738a128.262 128.262 0 016.526 4.324m-2.875 39.414l2.875-39.414m-2.875 39.414a229.984 229.984 0 016.682 5.122m-3.807-44.536a126.98 126.98 0 015.125 3.821m0 0l-1.318 40.715m1.318-40.715a127.784 127.784 0 015.654 4.713m-6.972 36.002a218.417 218.417 0 015.365 4.414m0 0l1.607-40.416m-1.607 40.416a205.596 205.596 0 016.622 5.881m-5.015-46.297a127.809 127.809 0 015.123 4.783m0 0l-.108 41.514m.108-41.514a129.641 129.641 0 014.808 5.001m-4.916 36.513a188.813 188.813 0 015.494 5.308m0 0l-.578-41.821m.578 41.821a179.59 179.59 0 014.605 4.805m-5.183-46.626a132.312 132.312 0 013.724 4.268m0 0l1.459 42.358m-1.459-42.358a135.553 135.553 0 015.156 6.572m-3.697 35.786a169.723 169.723 0 015.12 5.804m0 0l-1.423-41.59m1.423 41.59a159.682 159.682 0 014.601 5.721m-6.024-47.311a139.14 139.14 0 014.253 6.117m0 0l1.771 41.194m-1.771-41.194a143.09 143.09 0 013.407 5.45m-1.636 35.744a151.468 151.468 0 014.31 5.905m0 0l-2.674-41.649m2.674 41.649c1.089 1.57 2.13 3.137 3.126 4.7m-5.8-46.349a148.756 148.756 0 014.282 7.714m0 0l1.518 38.635m-1.518-38.635a155.496 155.496 0 013.461 7.133m-1.943 31.502a139.132 139.132 0 013.686 6.12m0 0l-1.743-37.622m1.743 37.622a133.708 133.708 0 013.343 6.273m-5.086-43.895a159.254 159.254 0 012.564 5.963m2.522 37.932l-2.522-37.932m2.522 37.932a129.224 129.224 0 012.658 5.671m-5.18-43.603c.853 2.1 1.654 4.197 2.406 6.287m2.774 37.316l-2.774-37.316m2.774 37.316a123.142 123.142 0 011.983 4.789m-4.757-42.105a169.7 169.7 0 012.695 8.138m2.062 33.967l-2.062-33.967m2.062 33.967a119.864 119.864 0 011.764 4.828m0 0c.385 1.129.749 2.251 1.092 3.367m0 0l-1.151-27.464m1.151 27.464c.379 1.23.732 2.452 1.062 3.665m-2.213-31.129c.838 3.984 1.508 7.86 2.027 11.584m.186 19.545l-.186-19.545M563.939 82.971l1.242.142c1.842.21 3.658.446 5.448.704m-6.69-.846l-10.003 16.295m0 0c2.273.223 4.509.483 6.709.777m9.984-16.226l-9.984 16.226m9.984-16.226c1.996.289 3.961.607 5.893.953m-15.877 15.273c2.253.301 4.469.638 6.646 1.01m9.231-16.283l-9.231 16.283m9.231-16.283c2.399.43 4.748.903 7.049 1.418m-16.28 14.865c2.737.467 5.416.988 8.036 1.562m8.244-16.427l-8.244 16.427m8.244-16.427c2.207.494 4.37 1.027 6.489 1.596m-14.733 14.831c2.29.501 4.536 1.042 6.738 1.621m7.995-16.452l-7.995 16.452m7.995-16.452c2.066.556 4.089 1.146 6.072 1.77m-14.067 14.682c2.185.574 4.327 1.185 6.427 1.831m0 0l7.64-16.513m-7.64 16.513c1.999.615 3.961 1.262 5.885 1.939m1.755-18.452c1.792.563 3.55 1.154 5.276 1.771m0 0l-7.031 16.681m7.031-16.68c2.151.769 4.251 1.578 6.301 2.427m-13.332 14.253c2.463.867 4.864 1.783 7.205 2.746m0 0l6.127-17m-6.127 17c2.357.969 4.653 1.985 6.889 3.044m-.762-20.043c1.869.774 3.698 1.58 5.485 2.416m0 0l-4.723 17.627m4.723-17.627c1.69.79 3.343 1.608 4.96 2.452m-9.683 15.175c1.686.798 3.338 1.621 4.956 2.467m0 0l4.727-17.642m-4.727 17.642a137.388 137.388 0 016.464 3.601m-1.737-21.243c1.831.954 3.615 1.942 5.355 2.961m-3.618 18.282l3.618-18.282m-3.618 18.282a137.08 137.08 0 015.268 3.288m-1.65-21.57c1.653.967 3.264 1.962 4.837 2.983m-3.187 18.587l3.187-18.587m-3.187 18.587a134.862 134.862 0 016.259 4.368m-3.072-22.955a120.692 120.692 0 014.763 3.259m-1.691 19.696l1.691-19.696m-1.691 19.696a133.408 133.408 0 0110.288 8.452m-8.597-28.148a119.084 119.084 0 015.106 3.889m-.963 18.891l.963-18.891m0 0a118.195 118.195 0 015.005 4.267m-1.514 19.992l1.514-19.992m-1.514 19.992a133.87 133.87 0 014.894 4.679m-3.38-24.671a117.847 117.847 0 014.29 4.067m-.91 20.604l.91-20.604m-.91 20.604c1.166 1.172 2.3 2.356 3.404 3.55m-2.494-24.154c1.445 1.44 2.84 2.906 4.188 4.393m-1.694 19.761l1.694-19.761m-1.694 19.761a135.587 135.587 0 015.29 6.074m-3.596-25.835a120.547 120.547 0 014.382 5.121m-.786 20.714l.786-20.714m-.786 20.714a138.118 138.118 0 014.382 5.634m-3.596-26.348c1.222 1.512 2.4 3.043 3.534 4.59m.062 21.758l-.062-21.758m.062 21.758c.83 1.126 1.638 2.257 2.422 3.39m-2.484-25.148a125.2 125.2 0 014.24 6.167m-1.756 18.981l1.756-18.981m-1.756 18.981a141.51 141.51 0 014.356 6.69m-2.6-25.671c1.26 1.956 2.456 3.93 3.59 5.918m-.99 19.753l.99-19.753m-.99 19.753a143.23 143.23 0 013.157 5.425m-2.167-25.178a132.181 132.181 0 013.878 7.322m-1.711 17.856l1.711-17.856m-1.711 17.856a143.887 143.887 0 012.607 4.937m-.896-22.793a137.94 137.94 0 013.382 7.456m-2.486 15.337l2.486-15.337m-2.486 15.337a145.66 145.66 0 013.052 6.452m-.566-21.789a141.53 141.53 0 012.298 5.859m-1.732 15.93l1.732-15.93m-1.732 15.93a144.085 144.085 0 012.296 5.485m-.564-21.415a145.645 145.645 0 012.417 7.169m-1.853 14.246l1.853-14.246m-1.853 14.246c.489 1.239.954 2.467 1.395 3.683m.458-17.929a147.806 147.806 0 012.213 7.964m-2.671 9.965l2.671-9.965m-2.671 9.965a138.572 138.572 0 011.559 4.537m1.112-14.502c.467 1.883.891 3.751 1.274 5.599m-2.386 8.903l2.386-8.903m-2.386 8.903c.398 1.226.771 2.437 1.121 3.628m1.265-12.531c.318 1.534.608 3.055.871 4.56m-2.136 7.971l2.136-7.971m-2.136 7.971c.498 1.698.949 3.359 1.354 4.977m.782-12.948c.321 1.84.603 3.656.846 5.443m-1.628 7.505l1.628-7.505m-1.628 7.505c.375 1.495.711 2.952 1.01 4.368m.618-11.873c.313 2.298.564 4.549.756 6.743m-1.374 5.13l1.374-5.13m-1.374 5.13c.326 1.545.608 3.041.849 4.48m.525-9.61c.097 1.102.179 2.189.247 3.26m-.772 6.35l.772-6.35m-147.14-84.147l-14.385 23.09m14.385-23.09a82654.66 82654.66 0 00-57.302-16.558m42.917 39.648a7990.019 7990.019 0 00-62.069-18.847m43.419 31.086l-18.363 27.421m18.363-27.421c20.161 9.972 39.403 19.383 56.871 27.732m-56.871-27.732c-18.937-9.367-38.686-19.228-58.536-29.165m40.173 56.586c21.613 9.348 43.054 18.899 65.092 29.555m-65.092-29.555c-43.3-18.728-87.286-36.644-138.131-61.002m213.365 61.313l-10.142 29.244m33.068 51.553l-9.334 42.484m9.334-42.484a16283.888 16283.888 0 01-57.758-38.762m48.424 81.246c-22.801-15.211-44.344-28.536-66.661-42.253m18.237-38.993l-18.237 38.993m18.237-38.993a12563.937 12563.937 0 01-59.744-40.523m41.507 79.516c-21.41-13.159-43.532-26.68-68.161-42.575m26.654-36.941l-26.654 36.941m26.654-36.941a8433.022 8433.022 0 01-46.6-32.031m19.946 68.972c-21.534-13.897-44.984-29.609-71.549-48.482m34.496-32.383l-34.496 32.383m34.496-32.383c5.602 3.91 11.315 7.88 17.107 11.893m-17.107-11.893c-23.611-16.476-45.271-31.87-62.756-44.758m79.863 56.651l25.769-26.378m0 0c-19.658-9.842-39.416-19.758-58.586-29.345m-39.372 24.929l39.372-24.929m0 0c-20.945-10.474-41.187-20.553-59.828-29.71m73.49 39.322l26.4-18.213m-26.4 18.213a12306.069 12306.069 0 0160.041 17.812m-33.641-36.025c17.429 5.022 35.206 10.148 52.793 15.224m-19.152 20.801l19.152-20.801m-139.901-7.552l-41.192 20.837-88.235 47.254M343.2 92.2l29.538-16.543m-44.237-5.084l-54.088 23.268m0 0c1.92 1.669 3.839 3.367 5.755 5.096m-5.755-5.096a413.458 413.458 0 00-5.672-4.843m323.322 79.269l7.23-26.983m-7.23 26.983c2.292.837 4.537 1.7 6.736 2.588m.494-29.571c2.307.785 4.563 1.608 6.769 2.467m0 0l-7.263 27.104m7.263-27.104c1.882.732 3.728 1.491 5.539 2.275m-12.802 24.829c2.272.916 4.496 1.859 6.672 2.826m0 0l6.13-27.655m-6.13 27.655c2.094.931 4.144 1.884 6.151 2.859m-.021-30.514c1.864.806 3.69 1.64 5.478 2.498m0 0l-5.457 28.016m5.457-28.016a150.149 150.149 0 016.536 3.333m-11.993 24.683a189.425 189.425 0 018.103 4.177m3.89-28.86l-3.89 28.86m3.89-28.86a144.678 144.678 0 016.878 3.971m-10.768 24.889a181.342 181.342 0 016.441 3.69m4.327-28.579l-4.327 28.579m4.327-28.579a141.411 141.411 0 015.025 3.236m-9.352 25.343a174.822 174.822 0 016.138 3.861m0 0l3.214-29.204m-3.214 29.204a168.612 168.612 0 016.784 4.708m-3.57-33.912a138.81 138.81 0 015.796 4.13m0 0l-2.226 29.782m2.226-29.782a135.158 135.158 0 014.456 3.5m-6.682 26.282a162.437 162.437 0 015.232 3.99m0 0l1.45-30.272m-1.45 30.272a158 158 0 016.276 5.259m-4.826-35.531a133.892 133.892 0 015.408 4.675m0 0l-.582 30.856m.582-30.856a135.416 135.416 0 014.69 4.489m-5.272 26.367a154.922 154.922 0 014.93 4.548m0 0l.342-30.915m-.342 30.915a150.683 150.683 0 015.438 5.518m-5.096-36.433a134.305 134.305 0 014.792 5.071m0 0l.304 31.362m-.304-31.362a134.947 134.947 0 014.865 5.736m-4.561 25.626a148.1 148.1 0 014.218 4.701m0 0l.343-30.327m-.343 30.327a148.036 148.036 0 013.545 4.286m-3.202-34.613a137.691 137.691 0 013.794 4.963m0 0l-.592 29.65m.592-29.65a138.44 138.44 0 013.698 5.333m-4.29 24.317c1.439 1.81 2.816 3.63 4.134 5.457m0 0l.156-29.774m-.156 29.774a143.62 143.62 0 014.674 6.893m-4.518-36.667a140.061 140.061 0 013.231 5.138m0 0l1.287 31.529m-1.287-31.529a142.563 142.563 0 013.306 5.826m-2.019 25.703a144.673 144.673 0 013.342 5.522m0 0l-1.323-31.225m1.323 31.225a142.05 142.05 0 013.121 5.732m-4.444-36.957a145.821 145.821 0 013.896 7.806m.548 29.151l-.548-29.151m.548 29.151a142.531 142.531 0 012.158 4.374m0 0l.3-26.564m-.3 26.564a140.076 140.076 0 012.87 6.498m-2.57-33.062a151.016 151.016 0 012.046 5.378m0 0l.524 27.684m-.524-27.684a155.014 155.014 0 013.489 10.997m-2.965 16.687a139.499 139.499 0 012.994 7.95m-.029-24.637l.029 24.637m-.029-24.637a154.867 154.867 0 012.302 9.459m-2.273 15.178c.945 2.763 1.78 5.491 2.512 8.17m-.239-23.348l.239 23.348m-381.022-87.99l51.847-37.656m0 0c20.423 18.865 42.775 39.508 65.716 60.689m-192.255-15.805c28.413 26.353 56.451 57.142 80.62 92.069 2.911 4.208 5.969 8.618 9.163 13.215m-89.783-105.284a649.843 649.843 0 00-13.203-11.914m30.095 170.683a1230.669 1230.669 0 00-13.888-16.05m0 0l101.3-98.812m-101.3 98.812a1172.749 1172.749 0 00-14.004-15.619m115.304-83.193a571.474 571.474 0 00-10.43-13.733m0 0l-104.874 96.926m104.874-96.926a573.539 573.539 0 00-10.385-12.87m-94.489 109.796a1124.349 1124.349 0 00-15.919-17.077m0 0l110.408-92.719m-110.408 92.719a1058.013 1058.013 0 00-16.068-16.519m126.476-76.2a576.12 576.12 0 00-11.712-13.655m0 0l-114.764 89.855m114.764-89.855a577.353 577.353 0 00-11.483-12.596M195.831 284.616a995.839 995.839 0 00-16.832-16.536m0 0l120.113-85.915M178.999 268.08a919.101 919.101 0 00-17.657-16.501m137.77-69.414a581.666 581.666 0 00-11.835-12.24m0 0l-125.935 81.654m0 0a824.066 824.066 0 00-19.231-16.969m0 0l131.549-77.921M142.111 234.61a716.324 716.324 0 00-19.51-16.103m151.059-61.818a582.979 582.979 0 00-13.175-12.02m49.994-15.445l-84.864 49.974m84.864-49.974a420.636 420.636 0 00-19.86-20.531m-65.004 70.505a669.219 669.219 0 00-13.759-11.753m-89.255 51.062l137.884-73.838m-137.884 73.838a578.268 578.268 0 00-20.642-15.704m158.526-58.134a577.17 577.17 0 00-44.937-35.938m-3.692 58.714a681.477 681.477 0 00-46.172-35.153m-63.725 70.511l188.66-94.11m-188.66 94.11c-8.142-5.898-15.407-10.785-21.676-14.711m210.336-79.399a419.563 419.563 0 00-10.451-9.756M80.283 188.092l199.885-89.155m-177.396 57.02l112.776-47.226m0 0a561.087 561.087 0 00-14.258-9.942m-35.606 33.503c-31.484-21.91-59.144-37.14-77.042-45.19l63.646-17.633m13.396 62.823l103.057-43.294m0 0a417.525 417.525 0 00-11.157-9.033m28.389-7.108l-74.153 28.754m74.153-28.754a376.972 376.972 0 019.34 7.802m-9.34-7.802a375.356 375.356 0 00-10.161-7.93M211.82 101.61a678.142 678.142 0 0111.503 9.204m34.261-30.85l-101.235 39.406m101.235-39.406a415.048 415.048 0 00-7.657-5.843m-93.578 45.249a739.38 739.38 0 00-16.558-10.911m61.499-9.67L71.266 146.215M201.29 98.789a545.36 545.36 0 00-11.973-7.849M78.975 123.179l105.52-35.274m0 0a531.92 531.92 0 014.822 3.035m-4.822-3.035a520.566 520.566 0 00-10.801-6.539m15.623 9.574l-49.526 17.52m94.483-45.447l-60.58 18.353m60.58-18.353a409.172 409.172 0 014.701 3.223m-65.281 15.13a506.407 506.407 0 00-5.165-3m5.165 3l-51.65 16.014m36.522-24.569l62.332-18.464M158.566 72.81a464.013 464.013 0 00-6.278-3.342m6.278 3.342a487.492 487.492 0 019.963 5.555m-9.963-5.555l-51.563 15.56m113.895-34.024a412.704 412.704 0 017.878 5.015m-7.878-5.015a417.754 417.754 0 00-4.494-2.75m-8.097-4.758l-65.944 17.603m65.944-17.603c-.668-.383-1.335-.762-2.001-1.138m2.001 1.138a408.963 408.963 0 018.097 4.758m-74.041 12.845a434.893 434.893 0 019.925 5.027m-9.925-5.027L90.82 78.975a1500.81 1500.81 0 0116.183 9.396m35.36-23.929a400.143 400.143 0 00-7.039-3.368m-9.833-4.414l69.861-16.925M125.491 56.66c3.159 1.36 6.44 2.831 9.833 4.414m-9.833-4.414l-30.629 7.228m30.629-7.228a310.105 310.105 0 00-8.996-3.714m78.857-13.211a395.237 395.237 0 00-12.19-6.132m12.19 6.132l28.758-7.497m-28.758 7.497a402.845 402.845 0 0110.954 5.966m-23.144-12.098L107.88 49.724m75.282-16.121a385.169 385.169 0 00-10.072-4.672m10.072 4.672l32.278-5.735M107.88 49.725a253.23 253.23 0 018.615 3.222m-8.615-3.222l-9.974 2.806m2.969-11.081l68.135-14.31m0 0a363.133 363.133 0 00-7.832-3.278m7.832 3.278c1.349.583 2.709 1.18 4.08 1.792m-17.704-7.356l-52.294 11.597m52.294-11.597a336.5 336.5 0 00-4.188-1.578m4.188 1.578c1.9.73 3.831 1.492 5.792 2.286m-17.667-6.597l-38.089 7.215m38.089-7.215a315.436 315.436 0 00-3.282-1.1m3.282 1.1c2.491.85 5.056 1.76 7.687 2.733m-20.234-6.708l-23.332 2.941m23.332-2.941a238.258 238.258 0 00-10.415-2.791m10.415 2.79l31.73-5.601m-31.73 5.602c2.947.859 6.04 1.815 9.265 2.876m-23.4-6.533a155.581 155.581 0 00-7.052-1.407l33.888-4.883m-26.836 6.29l-7.813 1.432m7.813-1.432c1.198.266 2.439.555 3.72.866m47.98 67.868l-84.37 25.467m55.632 4.627a933.608 933.608 0 00-17.747-11.08m0 0c-4.841-2.95-9.849-5.949-15.041-9.009m28.321-27.297l-42.352 9.87m23.523-17.998L96.177 58.98m232.424 237.416l63.188-70.983m-2.002 32.329l41.286-50.825M94.165 476.648a1822.075 1822.075 0 00-29.783-21.744m0 0a1727.674 1727.674 0 00-30.857-21.558m189.798-322.531l71.99-30.156m-45.386-6.537l25.885-9.196m0 0a375.527 375.527 0 00-9.951-7.245m-26.886 8.555l26.886-8.555m0 0a379.945 379.945 0 00-3.023-2.104m-34.062 3.785l27.334-8.314m0 0a377.245 377.245 0 016.728 4.529m-6.728-4.529a375.445 375.445 0 00-3.492-2.267m10.22 6.796l13.528-4.597m0 0a340.756 340.756 0 00-9.458-5.814m0 0l-14.29 3.615m14.29-3.615a334.198 334.198 0 00-4.654-2.707m-9.636 6.322a370.45 370.45 0 00-7.681-4.797m0 0l13.978-3.406m-13.978 3.406a366.955 366.955 0 00-7.74-4.576m7.74 4.576l-28.533 7.613m42.511-11.019c1.108.616 2.221 1.243 3.339 1.88m-3.339-1.88a327.292 327.292 0 00-3.575-1.956m6.914 3.837l4.467-1.375m0 0a820.785 820.785 0 00-7.09-3.176m0 0l-4.291.714m0 0a318.583 318.583 0 00-5.162-2.724m0 0l-12.981 3.51m12.981-3.51a310.212 310.212 0 00-9.046-4.484m-3.935 7.994c-.89-.512-1.779-1.018-2.667-1.518m-4.908-2.717l11.51-3.76m-11.51 3.76a360.788 360.788 0 00-5.512-2.935m5.512 2.935c1.632.887 3.268 1.792 4.908 2.717m-12.633-6.795a350.393 350.393 0 00-6.457-3.226m6.457 3.226c.737.377 1.474.758 2.213 1.143m-11.124-5.552l10.85-2.828m-10.85 2.828a341.42 341.42 0 00-7.793-3.6m7.793 3.6c.816.39 1.634.784 2.454 1.183m8.396-4.01a263.746 263.746 0 00-8.509-3.22m0 0l-10.134 2.447m10.134-2.447a242.74 242.74 0 00-8.692-2.936m-1.442 5.383c-.459-.205-.916-.408-1.374-.61m-6.604-2.83l9.42-1.943m-9.42 1.943c-.946-.393-1.89-.78-2.83-1.16m2.83 1.16c2.185.908 4.387 1.851 6.604 2.83m2.816-4.773a215.03 215.03 0 00-9.503-2.775m-6.219 2.176l6.219-2.176m-6.219 2.176a310.045 310.045 0 00-7.575-2.847m7.575 2.847c1.152.45 2.309.911 3.472 1.382m2.747-3.558a179.528 179.528 0 00-8.421-2.035m-5.373 1.364l5.373-1.364m-5.373 1.364l-32.14 5.74M134.016 1.899l-23.482 3.5m23.482-3.5c3.077.364 6.298.844 9.649 1.443m0 0c2.964.53 6.03 1.154 9.188 1.873m0 0l-32.304 5.283m32.304-5.283a232.33 232.33 0 019.841 2.472m31.691 10.799l-33.207 5.375m11.912 5.07l30.729-6.455m2.487 23.225l28.224-7.811" stroke="#414756"/></svg><svg fill="none" viewBox="0 0 256 256" id="favicon" xmlns="http://www.w3.org/2000/svg"><g opacity=".6" filter="url(#bfilter0_ii_52_14)"><rect x="9" width="123" height="188" rx="15" fill="url(#bpaint0_linear_52_14)"/></g><g opacity=".8" filter="url(#bfilter1_ii_52_14)"><rect x="66" y="35" width="125" height="186" rx="15" fill="url(#bpaint1_linear_52_14)"/></g><g filter="url(#bfilter2_ii_52_14)"><rect x="125" y="70" width="123" height="185" rx="15" fill="url(#bpaint2_linear_52_14)"/></g><defs><linearGradient id="bpaint0_linear_52_14" x1="9" y1="0" x2="110.287" y2="186.781" gradientUnits="userSpaceOnUse"><stop stop-color="#A9C1FF"/><stop offset="1" stop-color="#004FFD"/></linearGradient><linearGradient id="bpaint1_linear_52_14" x1="66" y1="35" x2="164.729" y2="222.014" gradientUnits="userSpaceOnUse"><stop stop-color="#A9C1FF"/><stop offset="1" stop-color="#004FFD"/></linearGradient><linearGradient id="bpaint2_linear_52_14" x1="125" y1="70" x2="223.791" y2="255.133" gradientUnits="userSpaceOnUse"><stop stop-color="#A9C1FF"/><stop offset="1" stop-color="#004FFD"/></linearGradient><filter id="bfilter0_ii_52_14" x="9" y="0" width="123" height="188" filterUnits="userSpaceOnUse" color-interpolation-filters="sRGB"><feFlood flood-opacity="0" result="BackgroundImageFix"/><feBlend in="SourceGraphic" in2="BackgroundImageFix" result="shape"/><feColorMatrix in="SourceAlpha" values="0 0 0 0 0 0 0 0 0 0 0 0 0 0 0 0 0 0 127 0" result="hardAlpha"/><feOffset dx="6" dy="6"/><feComposite in2="hardAlpha" operator="arithmetic" k2="-1" k3="1"/><feColorMatrix values="0 0 0 0 0.7875 0 0 0 0 0.848594 0 0 0 0 1 0 0 0 1 0"/><feBlend in2="shape" result="effect1_innerShadow_52_14"/><feColorMatrix in="SourceAlpha" values="0 0 0 0 0 0 0 0 0 0 0 0 0 0 0 0 0 0 127 0" result="hardAlpha"/><feOffset dx="-4" dy="-4"/><feComposite in2="hardAlpha" operator="arithmetic" k2="-1" k3="1"/><feColorMatrix values="0 0 0 0 0.138542 0 0 0 0 0.182292 0 0 0 0 0.291667 0 0 0 0.5 0"/><feBlend in2="effect1_innerShadow_52_14" result="effect2_innerShadow_52_14"/></filter><filter id="bfilter1_ii_52_14" x="66" y="35" width="125" height="186" filterUnits="userSpaceOnUse" color-interpolation-filters="sRGB"><feFlood flood-opacity="0" result="BackgroundImageFix"/><feBlend in="SourceGraphic" in2="BackgroundImageFix" result="shape"/><feColorMatrix in="SourceAlpha" values="0 0 0 0 0 0 0 0 0 0 0 0 0 0 0 0 0 0 127 0" result="hardAlpha"/><feOffset dx="6" dy="6"/><feComposite in2="hardAlpha" operator="arithmetic" k2="-1" k3="1"/><feColorMatrix values="0 0 0 0 0.7875 0 0 0 0 0.848594 0 0 0 0 1 0 0 0 1 0"/><feBlend in2="shape" result="effect1_innerShadow_52_14"/><feColorMatrix in="SourceAlpha" values="0 0 0 0 0 0 0 0 0 0 0 0 0 0 0 0 0 0 127 0" result="hardAlpha"/><feOffset dx="-4" dy="-4"/><feComposite in2="hardAlpha" operator="arithmetic" k2="-1" k3="1"/><feColorMatrix values="0 0 0 0 0.138542 0 0 0 0 0.182292 0 0 0 0 0.291667 0 0 0 0.5 0"/><feBlend in2="effect1_innerShadow_52_14" result="effect2_innerShadow_52_14"/></filter><filter id="bfilter2_ii_52_14" x="125" y="70" width="123" height="185" filterUnits="userSpaceOnUse" color-interpolation-filters="sRGB"><feFlood flood-opacity="0" result="BackgroundImageFix"/><feBlend in="SourceGraphic" in2="BackgroundImageFix" result="shape"/><feColorMatrix in="SourceAlpha" values="0 0 0 0 0 0 0 0 0 0 0 0 0 0 0 0 0 0 127 0" result="hardAlpha"/><feOffset dx="6" dy="6"/><feComposite in2="hardAlpha" operator="arithmetic" k2="-1" k3="1"/><feColorMatrix values="0 0 0 0 0.7875 0 0 0 0 0.848594 0 0 0 0 1 0 0 0 1 0"/><feBlend in2="shape" result="effect1_innerShadow_52_14"/><feColorMatrix in="SourceAlpha" values="0 0 0 0 0 0 0 0 0 0 0 0 0 0 0 0 0 0 127 0" result="hardAlpha"/><feOffset dx="-4" dy="-4"/><feComposite in2="hardAlpha" operator="arithmetic" k2="-1" k3="1"/><feColorMatrix values="0 0 0 0 0.138542 0 0 0 0 0.182292 0 0 0 0 0.291667 0 0 0 0.5 0"/><feBlend in2="effect1_innerShadow_52_14" result="effect2_innerShadow_52_14"/></filter></defs></svg><svg fill="none" viewBox="0 0 16 13" id="icon_arrow_next" xmlns="http://www.w3.org/2000/svg"><path d="M15.695 5.39L10.569.265a.882.882 0 00-1.26 0 .882.882 0 000 1.26l3.613 3.613H.891a.896.896 0 00-.891.89c0 .488.403.89.89.89h12.015L9.31 10.533a.882.882 0 000 1.26.918.918 0 00.639.269.878.878 0 00.638-.269l5.142-5.142a.918.918 0 00.27-.639 1.142 1.142 0 00-.303-.621z" fill="currentColor"/></svg><svg fill="none" viewBox="0 0 16 13" id="icon_arrow_prev" xmlns="http://www.w3.org/2000/svg"><path d="M.305 5.39L5.431.265a.882.882 0 011.26 0 .882.882 0 010 1.26L3.078 5.138h12.031c.488 0 .891.403.891.89 0 .488-.403.89-.89.89H3.094l3.596 3.614a.882.882 0 010 1.26.918.918 0 01-.639.269.878.878 0 01-.638-.269L.272 6.65a.918.918 0 01-.27-.639c.035-.218.135-.453.303-.621z" fill="currentColor"/></svg><svg fill="none" viewBox="0 0 15 11" id="icon_arrow_right" xmlns="http://www.w3.org/2000/svg"><path d="M14.314 4.916L9.64.24a.805.805 0 00-1.15 0 .805.805 0 000 1.15l3.295 3.295H.812A.818.818 0 000 5.498c0 .445.368.812.812.812H11.77L8.49 9.605a.805.805 0 000 1.15.838.838 0 00.583.245.8.8 0 00.582-.245l4.69-4.69a.837.837 0 00.245-.582 1.04 1.04 0 00-.276-.567z" fill="currentColor"/></svg><svg fill="none" viewBox="0 0 13 16" id="icon_arrow_up" xmlns="http://www.w3.org/2000/svg"><path d="M5.39.302L.265 5.428a.882.882 0 000 1.26.882.882 0 001.26 0l3.613-3.613v12.032c0 .487.403.89.89.89.488 0 .89-.403.89-.89V3.091l3.614 3.596a.882.882 0 001.26 0 .918.918 0 00.269-.639.878.878 0 00-.269-.638L6.65.269A.918.918 0 006.011 0a1.141 1.141 0 00-.621.302z" fill="currentColor"/></svg><svg fill="none" viewBox="0 0 20 18" id="icon_attach" xmlns="http://www.w3.org/2000/svg"><path fill-rule="evenodd" clip-rule="evenodd" d="M17.6 6.353c.15.15.15.394 0 .544l-7.575 7.561c-1.652 1.65-4.27 1.709-5.922.06l-.577-.575a4.216 4.216 0 010-5.97l5.761-5.75c.08-.08.155-.159.242-.228v-.001c.008-.009.02-.011.03-.02.455-.455.472-1.177.016-1.632a1.17 1.17 0 00-1.652 0c-.01.008-.012.02-.02.03L7.89.36 1.919 6.32a6.532 6.532 0 000 9.25l.546.544c2.559 2.554 6.648 2.494 9.207-.06l7.538-7.523a2.69 2.69 0 000-3.808l-3.227-3.214a2.7 2.7 0 00-3.814 0L4.612 9.052a2.688 2.688 0 000 3.807l.52.52a2.7 2.7 0 003.815 0l5.812-5.802c.048-.035.087-.07.13-.114.456-.455.473-1.177.017-1.632a1.17 1.17 0 00-1.653 0c-.013.013-.017.03-.028.043l-5.908 5.897a.382.382 0 01-.54 0l-.546-.544a.381.381 0 010-.54l7.655-7.639a.376.376 0 01.295-.107l3.42 3.412z" fill="currentColor"/></svg><svg fill="none" viewBox="0 0 39 44" id="icon_camera" xmlns="http://www.w3.org/2000/svg"><path d="M38.53 16.154a.952.952 0 00-.953-.022l-6.25 3.419v-2.928a.976.976 0 00-.965-.983h-1.57a8.848 8.848 0 003.216-6.838C32.008 3.947 28.12 0 23.348 0c-4.076 0-7.507 2.878-8.42 6.738-1.199-1.468-3.01-2.41-5.033-2.41-3.6 0-6.53 2.978-6.53 6.639 0 1.823.724 3.473 1.896 4.673H4.38a.976.976 0 00-.967.983v4.46H.966a.976.976 0 00-.966.982v3.86c0 .541.434.982.966.982h2.447v4.46c0 .541.434.982.967.982h11.398L10.54 42.561a.988.988 0 00.411 1.323c.139.073.29.114.447.114a.967.967 0 00.86-.527l5.117-9.976 5.118 9.976a.958.958 0 001.302.418.989.989 0 00.411-1.323l-5.243-10.217h11.399a.976.976 0 00.966-.981v-2.929l6.25 3.42c.3.163.661.154.952-.023a.984.984 0 00.47-.841V17a.992.992 0 00-.47-.846zM3.41 24.943h-1.48v-1.896h1.48v1.896zM23.343 1.96c3.708 0 6.728 3.069 6.728 6.838 0 3.774-3.02 6.838-6.728 6.838-3.709 0-6.728-3.069-6.728-6.838 0-3.77 3.02-6.838 6.728-6.838zm-7.377 11.448a8.732 8.732 0 001.932 2.232h-3.373a6.664 6.664 0 001.44-2.232zM9.89 6.293c2.536 0 4.599 2.096 4.599 4.674 0 2.577-2.063 4.673-4.6 4.673-2.536 0-4.598-2.096-4.598-4.673 0-2.578 2.062-4.674 4.599-4.674zm19.504 14.904v9.188H5.341v-12.78h24.054v3.592zm7.673 8.147l-5.74-3.142v-4.424l5.74-3.141v10.707zM23.343 13.085c2.326 0 4.214-1.923 4.214-4.283 0-2.364-1.892-4.283-4.214-4.283-2.326 0-4.214 1.924-4.214 4.283 0 2.36 1.892 4.283 4.214 4.283zm0-6.601c1.257 0 2.281 1.04 2.281 2.318s-1.024 2.32-2.281 2.32c-1.257 0-2.282-1.042-2.282-2.32 0-1.282 1.025-2.318 2.282-2.318zM9.89 13.949c1.62 0 2.934-1.336 2.934-2.982 0-1.646-1.315-2.983-2.934-2.983-1.62 0-2.935 1.337-2.935 2.983 0 1.646 1.32 2.982 2.935 2.982zm0-4.196c.658 0 1.194.545 1.194 1.214 0 .668-.537 1.213-1.194 1.213a1.207 1.207 0 01-1.195-1.213c0-.669.537-1.214 1.195-1.214zM9.72 27.53h10.508a.926.926 0 00.917-.932v-5.201a.926.926 0 00-.917-.932H9.721a.926.926 0 00-.917.932v5.201c0 .514.411.932.917.932zm.917-5.201h8.67v3.332h-8.67V22.33zm13.689.05c0-.541.434-.982.966-.982.533 0 .966.44.966.982 0 .54-.429.982-.966.982a.973.973 0 01-.966-.982zm0 3.232c0-.54.434-.982.966-.982.533 0 .966.441.966.982a.976.976 0 01-.966.982.973.973 0 01-.966-.982z" fill="currentColor"/></svg><svg fill="none" viewBox="0 0 10 10" id="icon_cross" xmlns="http://www.w3.org/2000/svg"><path d="M.512 1.927L3.695 5.11.512 8.293a1 1 0 001.415 1.414L5.11 6.524l3.183 3.183a1 1 0 001.414-1.414L6.524 5.11l3.183-3.183A1 1 0 008.293.512L5.11 3.695 1.927.512A1 1 0 00.512 1.927z" fill="currentColor"/></svg><svg fill="none" viewBox="0 0 155 49" id="icon_logo" xmlns="http://www.w3.org/2000/svg"><path fill-rule="evenodd" clip-rule="evenodd" d="M6.555 8.82c-.203-2.401.406-3.84 2.398-3.527 1.992.314 10.572 2.25 12.003 2.62 1.43.37 1.841.912 1.841 2.947 0 .496 0 .938-.01 1.31-.006.596-.011 1.017.01 1.2H15.85c-2.093 0-3.575 1.099-3.624 3.035-.042 1.548-.017 11.874 0 16.843-.239.11-.92.388-1.737.68-1.021.367-2.144.523-2.298-1.412C8.07 30.968 7.05 16.073 6.555 8.82zM4.31 8.401c-.307-3.4.408-5.283 3.064-4.813 1.435.255 5.198 1.136 8.603 1.934 2.896.677 5.532 1.294 6.26 1.419 1.583.262 1.838 1.622 1.838 3.61v2.772h3.73c1.606 0 1.592 1.419 1.582 2.554v.27c0 .546-.044 1.29-.084 1.98-.035.59-.066 1.136-.066 1.473h4.696l-.412 1.125h-4.287l-.358 7.24-1.279 1.6c.222-4.046.613-12.293.613-13.426 0-1.538-.613-1.695-1.787-1.695h-9.96c-1.634 0-2.551 1.067-2.551 2.584V38.48c0 1.31.41 1.935 1.635 1.464.98-.377 2.996-1.31 3.881-1.726l-1.94 1.988c-.768.498-1.591.9-2.452 1.2-1.379.472-2.758.525-2.758-1.2v-5.858c-.762.376-1.545.708-2.344.993-1.328.47-3.269.68-3.422-1.31-.13-1.588-1.521-17.748-2.202-25.63z" fill="currentColor"/><path d="M1.138 46.314c-2.874-4.586.344-13.998 2.527-18.27.31-.623.62 0 0 1.375s-4.54 11.656 0 15.677c4.54 4.022 15.787-2.595 25.693-15.066S40.244 6.462 35.806 3.458C31.37.454 24.611 4.832 22.6 6.156c-1.615 1.062-1.651.743-1.548.306 3.457-3.157 11.811-7.86 16.763-4.756 2.941 1.844 7.687 10.64-6.551 29.88C18.832 48.382 4.614 51.863 1.138 46.315zM22.746 43.859l-1.541 1.193v2.443c0 1.352 1.85 1.508 2.93.988 1.079-.52 10.385-5.251 11.721-5.979 1.08-.587 1.491-1.61 1.646-2.963.123-1.084.497-10.328.668-14.817l-1.08 2.028c-.155 3.587-.473 10.97-.514 11.801-.059 1.193-.257 2.586-1.44 3.224-1.542.831-9.356 4.882-10.487 5.407-.905.415-1.903.26-1.903-.676v-2.65zM66.852 19.687a2.54 2.54 0 01-.022.296c-.01.133-.03.266-.057.397a4.795 4.795 0 01-.091.42c-.036.13-.081.255-.136.376a1.181 1.181 0 01-.183.284.26.26 0 01-.192.102 1.008 1.008 0 01-.477-.193 8.86 8.86 0 00-.8-.432 6.961 6.961 0 00-1.191-.432 6.362 6.362 0 00-1.67-.192 5.3 5.3 0 00-1.773.284 5.441 5.441 0 00-1.478.76 5.715 5.715 0 00-1.17 1.142c-.334.432-.62.901-.852 1.397a7.47 7.47 0 00-.512 1.556 7.738 7.738 0 00-.17 1.597c-.01.523.075 1.042.25 1.534.152.417.397.794.716 1.102.329.302.718.53 1.141.67a4.65 4.65 0 001.5.229c.371 0 .74-.038 1.103-.114.35-.072.69-.187 1.012-.342l.684-3.398h-2.772a.257.257 0 01-.216-.103.615.615 0 01-.08-.352c.002-.099.01-.198.023-.296.015-.12.034-.245.057-.374s.064-.273.102-.41c.034-.125.08-.246.137-.362.052-.096.117-.184.193-.263a.317.317 0 01.228-.101h4.966a.585.585 0 01.534.25c.106.166.128.4.068.704l-1.182 5.886a2.009 2.009 0 01-.114.375 1.09 1.09 0 01-.181.272c-.083.092-.277.201-.58.33-.364.141-.736.263-1.113.364-.478.128-.963.227-1.453.297-.545.084-1.095.126-1.647.125a9.628 9.628 0 01-2.784-.364 5.382 5.382 0 01-2.023-1.079 4.739 4.739 0 01-1.227-1.772 6.439 6.439 0 01-.419-2.41c0-.81.087-1.617.261-2.408.178-.774.446-1.526.799-2.238a9.51 9.51 0 011.307-1.966 8.346 8.346 0 011.806-1.569 8.775 8.775 0 012.296-1.026 9.662 9.662 0 012.761-.376 8.593 8.593 0 011.568.137c.447.072.888.179 1.318.318.342.1.673.233.988.398.188.091.364.206.523.342a.557.557 0 01.183.261c.03.12.045.244.04.367zM126.621 32.084c-.063.16-.151.31-.261.443a.892.892 0 01-.398.238c-.207.06-.42.094-.635.103-.251.015-.569.023-.955.023-.409 0-.743-.008-1-.023a2.587 2.587 0 01-.591-.091.515.515 0 01-.284-.229.895.895 0 01-.091-.386l-.534-9.42h-.023l-4.079 9.341a1.925 1.925 0 01-.249.443.751.751 0 01-.343.238c-.191.062-.39.096-.591.103-.249.015-.571.023-.966.023-.456 0-.82-.008-1.091-.023a2.405 2.405 0 01-.635-.103.488.488 0 01-.296-.25 1.447 1.447 0 01-.08-.465l-.798-12.931a4.152 4.152 0 01.011-.58.445.445 0 01.193-.318.92.92 0 01.466-.136c.294-.026.59-.037.886-.034.262-.002.523.01.784.034.16.003.319.038.466.102.045.015.086.04.12.074a.312.312 0 01.073.12c.034.106.05.217.046.328l.295 11.215h.023l4.965-11.203c.048-.123.113-.238.193-.342a.689.689 0 01.307-.206c.16-.06.329-.093.5-.101.212-.016.493-.023.841-.023s.625.007.829.023c.16.004.319.039.467.101a.346.346 0 01.204.205c.035.118.054.24.057.363l.57 11.181h.023l4.828-11.34a.804.804 0 01.149-.26.62.62 0 01.284-.172c.167-.044.338-.07.511-.078.212-.016.485-.023.818-.023.254-.005.509.01.761.045a.573.573 0 01.387.159.413.413 0 01.034.375 5.766 5.766 0 01-.239.636l-5.952 12.821zM139.452 25.334a2.933 2.933 0 00-.886-.932 1.96 1.96 0 00-1.114-.318 1.744 1.744 0 00-.875.228 2.445 2.445 0 00-.704.614 4.292 4.292 0 00-.545.875 7.78 7.78 0 00-.387 1.045 8.809 8.809 0 00-.228 1.09 7.965 7.965 0 00-.068 1.013c-.001.216.014.432.045.647.033.192.098.376.193.546a.983.983 0 00.944.523c.362-.008.716-.11 1.026-.296.367-.22.696-.496.978-.818a6.01 6.01 0 001.306-2.682l.315-1.535zm1.409 7.113c-.031.16-.151.272-.364.342a3.455 3.455 0 01-.999.103c-.235 0-.429-.008-.58-.023a1.739 1.739 0 01-.352-.069.354.354 0 01-.182-.135.41.41 0 01-.011-.217l.317-1.625a3.103 3.103 0 01-.545.773 4.771 4.771 0 01-.885.728c-.358.226-.741.41-1.141.545a3.82 3.82 0 01-1.274.216c-.608 0-1.112-.107-1.51-.319a2.63 2.63 0 01-.966-.852 3.705 3.705 0 01-.523-1.238c-.1-.478-.15-.966-.148-1.454a9.678 9.678 0 01.137-1.558c.092-.575.233-1.141.419-1.693.19-.56.434-1.1.728-1.613.286-.51.641-.976 1.057-1.386a4.85 4.85 0 011.42-.954 4.371 4.371 0 011.819-.364 3.43 3.43 0 011.67.397c.506.278.941.668 1.272 1.14l.182-.896c.03-.16.148-.273.352-.342.33-.082.671-.117 1.011-.103.191-.002.381.01.57.034.121.008.24.035.353.08a.29.29 0 01.182.136c.031.06.039.129.022.194l-2.031 10.153zM146.537 32.435a.393.393 0 01-.114.206.645.645 0 01-.25.136 1.976 1.976 0 01-.456.08 7.135 7.135 0 01-1.397 0 1.544 1.544 0 01-.409-.08.443.443 0 01-.204-.136.31.31 0 01-.023-.206l2.988-14.945a.433.433 0 01.103-.205.555.555 0 01.261-.148c.148-.051.301-.086.456-.102a6.03 6.03 0 01.705-.035c.229-.003.458.009.685.035.145.013.286.048.421.102.08.024.149.077.193.148.03.064.038.136.023.205l-2.982 14.945zM152.01 32.436a.393.393 0 01-.114.205.634.634 0 01-.249.136 1.989 1.989 0 01-.457.08c-.23.025-.462.036-.693.034a5.854 5.854 0 01-.704-.034 1.548 1.548 0 01-.41-.08.437.437 0 01-.204-.136.31.31 0 01-.023-.205l2.988-14.946a.444.444 0 01.103-.205.56.56 0 01.261-.148c.148-.051.301-.086.456-.102a6.04 6.04 0 01.705-.035c.229-.003.458.009.685.035.145.013.286.047.421.102.08.024.149.076.193.148.03.063.038.136.022.205l-2.98 14.946zM70.05 32.435a.39.39 0 01-.114.206.633.633 0 01-.25.136 1.964 1.964 0 01-.456.08c-.23.025-.462.036-.694.034a5.848 5.848 0 01-.704-.035 1.56 1.56 0 01-.41-.08.44.44 0 01-.203-.135.318.318 0 01-.023-.206l2.989-14.945a.441.441 0 01.102-.205.57.57 0 01.26-.148c.148-.052.302-.086.457-.102.234-.026.469-.037.704-.035.229-.003.457.009.684.035.145.013.286.048.42.102.08.024.15.076.193.148.032.063.04.136.023.205L70.05 32.435zM81.104 25.335a2.94 2.94 0 00-.886-.933 1.96 1.96 0 00-1.114-.318 1.742 1.742 0 00-.875.228c-.272.158-.51.366-.704.614-.216.269-.4.563-.545.875a7.805 7.805 0 00-.387 1.045c-.1.359-.175.723-.228 1.091a8.194 8.194 0 00-.068 1.012c-.001.216.014.433.045.647.033.192.098.377.193.546a.98.98 0 00.944.523c.362-.007.716-.11 1.026-.296a4.13 4.13 0 00.978-.818 6.022 6.022 0 001.306-2.682l.315-1.534zm1.41 7.112c-.031.16-.152.273-.365.342a3.458 3.458 0 01-.999.103c-.235 0-.429-.008-.58-.023a1.734 1.734 0 01-.352-.068.353.353 0 01-.181-.136.399.399 0 01-.012-.217l.318-1.625a3.153 3.153 0 01-.546.773 4.75 4.75 0 01-.885.728 5.29 5.29 0 01-1.141.545 3.818 3.818 0 01-1.266.215c-.608 0-1.112-.107-1.51-.319-.388-.2-.72-.492-.967-.852a3.716 3.716 0 01-.522-1.238c-.1-.478-.15-.966-.148-1.454.004-.522.05-1.043.137-1.558.092-.575.233-1.141.42-1.693.19-.56.433-1.1.727-1.613.286-.51.642-.976 1.057-1.386.413-.4.894-.723 1.42-.954a4.37 4.37 0 011.819-.364 3.43 3.43 0 011.67.397c.506.278.941.668 1.272 1.14l.182-.896c.03-.16.148-.273.352-.342.33-.082.67-.117 1.01-.103a3.9 3.9 0 01.571.035c.121.007.24.034.353.08a.292.292 0 01.182.135c.031.06.04.129.022.194l-2.039 10.154zM93.858 22.744a2.83 2.83 0 01-.045.41c-.025.18-.063.358-.115.533a2.33 2.33 0 01-.192.477c-.069.13-.147.193-.239.193a.831.831 0 01-.352-.102 4.492 4.492 0 00-.477-.24c-.216-.099-.44-.179-.671-.238a3.434 3.434 0 00-.886-.101 2.36 2.36 0 00-.716.101c-.188.06-.362.156-.51.284a1.185 1.185 0 00-.32.41 1.279 1.279 0 00-.102.511.74.74 0 00.284.591c.226.178.47.33.728.456.287.137.598.282.931.433.333.15.646.343.932.57a2.9 2.9 0 01.715.83c.202.376.3.8.285 1.226a3.9 3.9 0 01-.329 1.598 3.537 3.537 0 01-.966 1.255 4.584 4.584 0 01-1.534.84 6.482 6.482 0 01-2.034.296c-.35.001-.7-.026-1.045-.08a7.713 7.713 0 01-.886-.193 3.392 3.392 0 01-.66-.261 2.069 2.069 0 01-.408-.273.646.646 0 01-.137-.193.846.846 0 01-.034-.26c0-.07 0-.157.01-.263.012-.106.035-.228.058-.352.023-.123.06-.258.091-.386.035-.12.076-.238.125-.353a.932.932 0 01.148-.25.217.217 0 01.17-.101.626.626 0 01.352.135c.162.111.328.214.5.307.242.122.492.225.75.307.366.1.745.145 1.125.136.272.005.544-.029.806-.102.212-.063.409-.167.58-.306.144-.12.257-.272.33-.444.076-.168.115-.35.114-.534a.822.822 0 00-.284-.647 3.202 3.202 0 00-.694-.467c-.28-.143-.587-.291-.92-.442a4.667 4.667 0 01-.913-.557 2.852 2.852 0 01-.706-.818 2.5 2.5 0 01-.272-1.228c-.004-.516.1-1.026.307-1.499a3.4 3.4 0 01.898-1.205 4.122 4.122 0 011.431-.806 5.728 5.728 0 011.909-.296c.308 0 .616.022.92.069.273.031.543.084.807.158.215.059.424.135.626.228.144.06.275.148.386.258a.506.506 0 01.13.385zM103.27 22.744a2.814 2.814 0 01-.044.41c-.024.18-.063.358-.114.533a2.402 2.402 0 01-.193.477c-.069.13-.149.193-.239.193a.821.821 0 01-.352-.102 4.541 4.541 0 00-.477-.24c-.216-.099-.44-.179-.671-.238a3.435 3.435 0 00-.886-.101 2.36 2.36 0 00-.716.101 1.443 1.443 0 00-.51.284 1.185 1.185 0 00-.32.41 1.28 1.28 0 00-.102.511.744.744 0 00.284.591c.226.178.47.33.727.456.289.137.6.282.932.433.333.151.646.343.932.57.289.229.532.51.716.83.201.376.299.8.284 1.226a3.885 3.885 0 01-.33 1.598 3.54 3.54 0 01-.965 1.255 4.592 4.592 0 01-1.535.84 6.472 6.472 0 01-2.033.296c-.35.001-.7-.026-1.046-.08a7.845 7.845 0 01-.886-.193 3.402 3.402 0 01-.659-.261 2.083 2.083 0 01-.41-.273.642.642 0 01-.135-.193.843.843 0 01-.034-.26c0-.07 0-.157.011-.263.011-.106.034-.228.057-.352.023-.123.06-.258.09-.386a3.29 3.29 0 01.126-.353.96.96 0 01.147-.25.221.221 0 01.171-.101.62.62 0 01.351.135c.162.111.329.214.501.307.242.122.492.225.75.307.366.1.745.145 1.125.136.272.005.544-.029.806-.102a1.69 1.69 0 00.58-.306c.144-.12.257-.272.33-.444a1.28 1.28 0 00.114-.534.822.822 0 00-.284-.647 3.168 3.168 0 00-.693-.467c-.28-.143-.588-.291-.92-.442a4.713 4.713 0 01-.913-.557 2.863 2.863 0 01-.704-.818 2.5 2.5 0 01-.273-1.228c-.004-.516.1-1.026.307-1.499.205-.464.512-.875.898-1.205a4.121 4.121 0 011.432-.806 5.727 5.727 0 011.908-.296c.308 0 .616.022.92.069.273.031.543.084.808.158.214.059.423.135.624.228.144.058.275.143.387.25a.516.516 0 01.105.183c.021.068.029.14.021.21zM110.754 26.448c-.002.084-.01.167-.022.25-.01.126-.029.251-.057.374-.03.137-.068.278-.115.421a3.01 3.01 0 01-.159.387 1.01 1.01 0 01-.216.296.41.41 0 01-.284.114h-4.727a.357.357 0 01-.295-.114.795.795 0 01-.08-.41c0-.06 0-.147.011-.261a3.64 3.64 0 01.046-.376c.031-.138.069-.274.114-.408.041-.134.094-.263.159-.387a.853.853 0 01.215-.284.458.458 0 01.296-.102h4.726a.311.311 0 01.296.136c.068.109.1.236.092.364z" fill="currentColor"/></svg><svg fill="none" viewBox="0 0 15 22" id="icon_phone" xmlns="http://www.w3.org/2000/svg"><path d="M13.33 0H1.67C.749 0 0 .725 0 1.615v18.77C0 21.275.749 22 1.669 22H13.33c.92 0 1.669-.725 1.669-1.615V1.615C15 .725 14.251 0 13.33 0zm-.046 1.661v12.837H1.716V1.66h11.568zM1.716 20.34v-4.18h11.567v4.18H1.716zm3.125-16.49v-.766c0-.246.208-.447.462-.447h4.393c.254 0 .462.201.462.447v.766a.456.456 0 01-.462.448H5.303a.456.456 0 01-.462-.448zm4.104 13.976v.742c0 .567-.475 1.027-1.061 1.027h-.768c-.586 0-1.061-.46-1.061-1.027v-.742c0-.567.475-1.028 1.061-1.028h.767c.586 0 1.062.46 1.062 1.028z" fill="currentColor"/></svg><svg fill="none" viewBox="0 0 41 40" id="icon_play" xmlns="http://www.w3.org/2000/svg"><path d="M41 20L11 37.32V2.68L41 20z" fill="currentColor"/></svg><svg fill="none" viewBox="0 0 108 117" id="logo_best_office" xmlns="http://www.w3.org/2000/svg"><path d="M0 0h108v117H0V0z" fill="#AF9368"/><path d="M57.688 15.36V31h-2.674V15.36h2.674zm4.91 0v2.148h-12.45v-2.149h12.45zM46.162 26.972a2.3 2.3 0 00-.15-.86 1.678 1.678 0 00-.505-.687c-.244-.208-.587-.408-1.031-.602-.437-.2-.996-.404-1.676-.612a18.562 18.562 0 01-2.063-.763 7.847 7.847 0 01-1.633-.988 4.228 4.228 0 01-1.084-1.3c-.258-.494-.387-1.063-.387-1.708 0-.637.132-1.217.397-1.74a4.06 4.06 0 011.15-1.354 5.5 5.5 0 011.772-.891 7.466 7.466 0 012.256-.322c1.16 0 2.16.214 2.997.644.845.43 1.493 1.006 1.944 1.73.459.723.688 1.521.688 2.395h-2.675c0-.516-.11-.97-.333-1.364a2.258 2.258 0 00-.988-.945c-.437-.23-.992-.344-1.665-.344-.638 0-1.168.096-1.59.29-.423.193-.738.455-.945.784a2.05 2.05 0 00-.312 1.117c0 .294.068.562.204.806.136.236.344.458.623.666.28.2.63.39 1.053.57.422.178.92.35 1.493.515.867.258 1.622.544 2.267.86.644.307 1.181.658 1.611 1.052.43.394.752.841.967 1.343.215.494.322 1.056.322 1.686 0 .659-.132 1.253-.397 1.783-.265.523-.645.97-1.139 1.343-.487.365-1.074.648-1.762.849-.68.193-1.44.29-2.277.29-.752 0-1.493-.1-2.224-.3A6.56 6.56 0 0139.094 30a4.718 4.718 0 01-1.418-1.547c-.351-.623-.527-1.35-.527-2.18h2.697c0 .508.086.941.258 1.3.179.357.426.65.74.88.316.222.681.387 1.096.494.423.108.874.161 1.354.161.63 0 1.157-.09 1.579-.268.43-.18.752-.43.967-.752.215-.322.322-.695.322-1.117zM35.731 28.862V31h-8.303v-2.138h8.303zm-7.54-13.503V31h-2.697V15.36h2.696zm6.456 6.532v2.105h-7.22v-2.105h7.22zm1.03-6.532v2.149h-8.25v-2.149h8.25zM17.459 23.932h-3.985l-.022-1.966h3.48c.588 0 1.086-.086 1.494-.258.415-.179.73-.433.945-.763.215-.336.322-.74.322-1.214 0-.522-.1-.948-.3-1.278-.2-.33-.509-.57-.924-.72-.409-.15-.931-.225-1.569-.225h-2.61V31h-2.696V15.36H16.9c.86 0 1.626.082 2.3.246.68.165 1.256.423 1.729.774.48.344.841.78 1.085 1.31.25.53.376 1.16.376 1.891a3.5 3.5 0 01-.462 1.773c-.308.53-.763.963-1.364 1.3-.602.336-1.35.536-2.246.6l-.859.678zM17.341 31h-4.716l1.214-2.138h3.502c.608 0 1.117-.1 1.525-.3.408-.208.713-.491.913-.85.208-.364.312-.79.312-1.277 0-.509-.09-.95-.269-1.322a1.85 1.85 0 00-.848-.87c-.387-.207-.892-.311-1.515-.311h-3.03l.022-1.966h3.943l.612.741c.86.029 1.565.218 2.116.57.559.35.974.805 1.246 1.364.272.558.408 1.16.408 1.804 0 .996-.218 1.83-.655 2.503-.43.673-1.05 1.186-1.858 1.536-.81.344-1.784.516-2.922.516zM81.834 51.862V54H73.53v-2.138h8.304zM74.293 38.36V54h-2.696V38.36h2.696zm6.456 6.532v2.105H73.53v-2.105h7.219zm1.031-6.532v2.149h-8.25v-2.149h8.25zM66.462 48.908h2.685c-.086 1.024-.372 1.937-.859 2.74-.487.794-1.17 1.421-2.052 1.88-.88.458-1.951.687-3.212.687-.966 0-1.837-.172-2.61-.516a5.721 5.721 0 01-1.987-1.482c-.552-.645-.974-1.422-1.268-2.331-.286-.91-.43-1.927-.43-3.051v-1.3c0-1.124.147-2.141.44-3.05.302-.91.731-1.687 1.29-2.332a5.572 5.572 0 012.009-1.493c.787-.344 1.672-.515 2.653-.515 1.246 0 2.299.229 3.158.687a4.966 4.966 0 011.998 1.901c.48.81.774 1.737.881 2.783h-2.685c-.072-.674-.23-1.25-.473-1.73a2.436 2.436 0 00-1.053-1.096c-.465-.257-1.074-.386-1.826-.386-.616 0-1.153.114-1.611.343a3.04 3.04 0 00-1.15 1.01c-.308.444-.54.992-.698 1.644-.15.644-.225 1.382-.225 2.213v1.321c0 .788.068 1.504.204 2.148.143.638.358 1.186.644 1.644.294.458.666.813 1.117 1.063.451.251.992.376 1.622.376.767 0 1.386-.121 1.859-.365.48-.243.841-.598 1.085-1.063.25-.473.415-1.05.494-1.73zM53.872 38.36V54h-2.696V38.36h2.696zM41.572 38.36V54h-2.696V38.36h2.696zm6.381 6.842v2.138h-7.068v-2.138h7.068zm.892-6.843v2.149h-7.96v-2.149h7.96zM29.455 38.36V54H26.76V38.36h2.696zm6.38 6.842v2.138h-7.067v-2.138h7.068zm.892-6.843v2.149h-7.96v-2.149h7.96zM24.063 45.75v.86c0 1.181-.154 2.24-.462 3.18-.308.937-.749 1.736-1.322 2.395a5.683 5.683 0 01-2.04 1.514c-.796.344-1.677.516-2.643.516-.96 0-1.837-.172-2.632-.516a5.912 5.912 0 01-2.052-1.514c-.58-.66-1.031-1.458-1.353-2.396-.316-.938-.473-1.998-.473-3.18v-.859c0-1.182.157-2.238.473-3.169.315-.938.759-1.737 1.332-2.396a5.737 5.737 0 012.051-1.514c.795-.351 1.673-.526 2.632-.526.967 0 1.848.175 2.643.526a5.617 5.617 0 012.052 1.514c.573.66 1.013 1.458 1.32 2.396.316.931.474 1.987.474 3.169zm-2.697.86v-.882c0-.873-.086-1.643-.258-2.31-.164-.672-.411-1.234-.74-1.686a3.099 3.099 0 00-1.193-1.03 3.53 3.53 0 00-1.6-.355c-.595 0-1.125.118-1.59.354-.466.23-.864.573-1.193 1.031-.322.452-.57 1.014-.741 1.687-.172.666-.258 1.436-.258 2.31v.88c0 .874.086 1.648.258 2.32.172.674.422 1.243.752 1.709.336.458.737.805 1.203 1.042.465.229.995.343 1.59.343.601 0 1.135-.114 1.6-.343.466-.237.86-.584 1.182-1.042.322-.466.566-1.035.73-1.708.172-.673.258-1.447.258-2.32zM95.242 73.154c0-.43-.071-.813-.215-1.15a2.335 2.335 0 00-.709-.901c-.322-.273-.759-.523-1.31-.752a16.251 16.251 0 00-2.041-.699 18.623 18.623 0 01-2.116-.73 7.398 7.398 0 01-1.623-.913 3.61 3.61 0 01-1.02-1.203c-.236-.466-.355-1.007-.355-1.622a3.5 3.5 0 01.387-1.644 3.85 3.85 0 011.085-1.278 5.254 5.254 0 011.665-.827 7.338 7.338 0 012.116-.29c1.096 0 2.041.207 2.836.623.803.415 1.422.977 1.859 1.686.444.702.666 1.49.666 2.363h-1.322c0-.68-.16-1.285-.483-1.815-.315-.537-.773-.956-1.375-1.257-.594-.308-1.321-.462-2.18-.462-.86 0-1.583.133-2.17.398-.58.258-1.021.605-1.322 1.042-.293.43-.44.91-.44 1.44 0 .371.071.715.215 1.03.143.308.376.598.698.87.33.266.763.516 1.3.752.537.23 1.2.448 1.987.656.83.229 1.568.483 2.213.762.644.28 1.189.602 1.633.967a3.6 3.6 0 011.01 1.257c.229.48.343 1.038.343 1.676 0 .637-.136 1.21-.408 1.719-.265.5-.64.927-1.128 1.278-.48.35-1.05.62-1.708.806a7.76 7.76 0 01-2.138.279c-.694 0-1.385-.09-2.073-.269a6.403 6.403 0 01-1.89-.827 4.369 4.369 0 01-1.365-1.46c-.336-.595-.505-1.304-.505-2.128h1.31c0 .66.133 1.214.398 1.665.265.451.616.817 1.053 1.096.444.28.931.483 1.461.612a7.271 7.271 0 001.611.183c.824 0 1.537-.122 2.138-.365.609-.244 1.078-.584 1.407-1.02a2.49 2.49 0 00.505-1.548zM76.25 77h-3.545l.022-1.128h3.523c1.124 0 2.091-.25 2.9-.752a5.084 5.084 0 001.891-2.105c.444-.895.666-1.934.666-3.116v-1.46c0-.903-.129-1.72-.387-2.45a5.245 5.245 0 00-1.085-1.869 4.768 4.768 0 00-1.697-1.203c-.652-.28-1.382-.419-2.191-.419H72.64v-1.139h3.706c.974 0 1.865.169 2.675.505.816.33 1.521.81 2.116 1.44a6.348 6.348 0 011.385 2.245c.33.873.495 1.847.495 2.922v1.428c0 1.075-.165 2.049-.495 2.922a6.348 6.348 0 01-1.385 2.245A6.19 6.19 0 0179 76.506c-.824.33-1.74.494-2.75.494zm-2.954-15.64V77h-1.321V61.36h1.32zM57.956 61.36h5.081c1.081 0 2.02.175 2.815.526.794.35 1.407.87 1.837 1.557.436.68.655 1.519.655 2.514 0 .738-.158 1.407-.473 2.009a4.346 4.346 0 01-1.278 1.515 4.81 4.81 0 01-1.89.827l-.463.171h-5.425l-.021-1.127h4.544c.816 0 1.497-.158 2.04-.473.545-.315.953-.73 1.225-1.246.28-.523.42-1.082.42-1.676 0-.709-.154-1.321-.462-1.837-.301-.523-.749-.924-1.343-1.203-.595-.28-1.322-.419-2.18-.419h-3.76V77h-1.322V61.36zM67.613 77l-4.05-6.993 1.418-.01 4.04 6.863V77h-1.408zM49.373 62.294L43.959 77h-1.375l5.908-15.64h.956l-.075.934zM54.293 77l-5.425-14.706-.075-.935h.956L55.668 77h-1.375zm-.967-5.522v1.14h-8.303v-1.14h8.303zM28.952 72.864l3.395-11.505h1.063l-.86 3.416L28.93 77h-1.02l1.042-4.136zM25.01 61.36l2.857 11.398.86 4.243h-1.064l-4.007-15.64h1.354zm12.976 11.398l2.815-11.398h1.353L38.158 77h-1.063l.891-4.243zm-4.458-11.398l3.352 11.505L37.91 77h-1.02l-3.545-12.225-.87-3.416h1.052zM17.125 62.294L11.711 77h-1.375l5.908-15.64h.956l-.075.934zM22.045 77L16.62 62.294l-.075-.935h.956L23.42 77h-1.375zm-.967-5.522v1.14h-8.304v-1.14h8.304zM55.484 84.241h.183v1.128h-.183c-.988 0-1.869.161-2.642.484a5.224 5.224 0 00-1.944 1.396c-.523.602-.92 1.332-1.193 2.191-.272.86-.408 1.823-.408 2.89v2.16c0 .723.097 1.37.29 1.944.193.565.462 1.049.806 1.45.343.4.744.705 1.203.913.458.208.952.311 1.482.311.523 0 .992-.107 1.407-.322a3.03 3.03 0 001.053-.902c.294-.387.516-.83.666-1.332a5.487 5.487 0 00.236-1.633c0-.551-.071-1.07-.214-1.558a3.846 3.846 0 00-.634-1.31 3.017 3.017 0 00-1.074-.892c-.43-.215-.935-.322-1.515-.322-.659 0-1.275.15-1.848.451a4.03 4.03 0 00-1.407 1.203 2.96 2.96 0 00-.57 1.644l-.74-.011a5.02 5.02 0 01.461-1.815 4.328 4.328 0 011.02-1.386c.43-.387.921-.68 1.473-.881a5.137 5.137 0 011.804-.311c.752 0 1.407.136 1.966.408a3.883 3.883 0 011.407 1.128c.38.472.663 1.02.849 1.643a6.49 6.49 0 01.29 1.955c0 .752-.107 1.454-.322 2.106a4.995 4.995 0 01-.924 1.697A4.209 4.209 0 0155 99.807c-.566.272-1.207.408-1.923.408-.788 0-1.493-.151-2.116-.451a4.772 4.772 0 01-1.6-1.246 5.813 5.813 0 01-1.01-1.827 7.053 7.053 0 01-.344-2.223v-1.375c0-1.332.154-2.539.462-3.62.308-1.089.77-2.023 1.386-2.804a6.132 6.132 0 012.33-1.794c.939-.422 2.038-.634 3.298-.634zM41.863 84.295V100h-1.278V85.917l-4.254 1.58v-1.215l5.317-1.987h.215zM33.108 90.837v2.632c0 1.146-.107 2.145-.322 2.997-.215.845-.53 1.547-.945 2.105-.408.552-.91.963-1.504 1.236-.587.272-1.26.408-2.02.408a5.07 5.07 0 01-1.654-.258 3.899 3.899 0 01-1.343-.784 4.704 4.704 0 01-.988-1.343c-.272-.537-.48-1.167-.623-1.89a12.906 12.906 0 01-.215-2.471v-2.632c0-1.153.108-2.148.322-2.986.222-.838.538-1.533.946-2.084.415-.552.92-.96 1.514-1.225.595-.272 1.268-.408 2.02-.408.602 0 1.153.09 1.654.268.509.172.956.43 1.343.774.394.343.723.784.988 1.321.272.53.477 1.157.613 1.88.143.723.214 1.543.214 2.46zm-1.278 2.782v-2.943c0-.71-.05-1.354-.15-1.934a6.536 6.536 0 00-.42-1.525 3.53 3.53 0 00-.708-1.096 2.627 2.627 0 00-.988-.655 3.361 3.361 0 00-1.268-.226c-.58 0-1.092.118-1.536.355-.437.229-.802.573-1.096 1.031-.294.451-.516 1.017-.666 1.697-.143.68-.215 1.465-.215 2.353v2.943c0 .702.047 1.343.14 1.923.093.573.236 1.081.43 1.525.193.444.43.82.708 1.128.287.301.616.53.989.688.38.15.802.225 1.267.225.595 0 1.11-.118 1.547-.354a3.048 3.048 0 001.096-1.064c.294-.472.512-1.049.655-1.73.144-.687.215-1.467.215-2.34zM21.27 98.894V100h-9.786v-.999l5.124-5.812a22.078 22.078 0 001.526-1.9c.38-.552.651-1.054.816-1.505.172-.458.258-.902.258-1.332 0-.63-.125-1.185-.376-1.665a2.64 2.64 0 00-1.096-1.128c-.487-.272-1.088-.408-1.804-.408s-1.34.154-1.87.462c-.53.308-.938.738-1.224 1.289-.28.544-.42 1.164-.42 1.858h-1.277c0-.859.19-1.647.569-2.363a4.356 4.356 0 011.654-1.708c.716-.43 1.572-.645 2.568-.645.945 0 1.758.169 2.438.505.68.33 1.203.806 1.569 1.43.372.622.558 1.374.558 2.255 0 .473-.086.949-.258 1.429-.165.48-.394.96-.687 1.44-.287.472-.616.94-.988 1.406-.366.466-.749.924-1.15 1.375l-4.361 4.91h8.217z" fill="#fff"/></svg><svg fill="none" viewBox="0 0 68 40" id="partners_agc" xmlns="http://www.w3.org/2000/svg"><mask id="na" style="mask-type:luminance" maskUnits="userSpaceOnUse" x="0" y="8" width="69" height="24"><path d="M0 8h68.4v24H0V8z" fill="#fff"/></mask><g mask="url(#na)" fill-rule="evenodd" clip-rule="evenodd" fill="#717A90"><path d="M67.495 9.45S65.4 8.424 61.098 8.424c-4.301 0-13.082 1.94-13.082 11.526 0 9.253 7.936 11.81 13.735 11.81 2.866 0 4.98-.702 6.137-1.185l-1.079-4.513c-.893.414-2.463.796-4.524.796-2.445 0-7.185-.781-7.185-6.908 0-6.128 4.83-6.628 6.554-6.628 1.725 0 3.45.329 4.623.974l1.218-4.848zM9.98 21.98l1.1-3.771 1.057-4.192h.133l1.057 4.192 1.079 3.77-4.426.001zm7.109 9.49h7.352L16.75 9.07H7.76l-7.796 22.4h7.355l1.298-4.654h7.165l1.308 4.653-.001.001zM44.252 9.635s-2.6-1.21-7.194-1.21c-4.227 0-12.915 1.788-12.915 11.597 0 9.533 8.01 11.695 13.051 11.695 3.647 0 6.203-.514 7.806-1.11V17.6h-5.7v9.238c-.563.14-1.397.198-2.436.198-1.564 0-5.958-.775-5.958-7.014 0-5.978 4.36-6.668 6.634-6.668 1.929 0 4.141.434 5.489 1.117l1.223-4.836z"/><path d="M35.4 22.4h3.9l5.7-4.8h-9.6v4.8z"/></g></svg><svg fill="none" viewBox="0 0 146 40" id="partners_alutech" xmlns="http://www.w3.org/2000/svg"><path fill-rule="evenodd" clip-rule="evenodd" d="M98.833 10.784v7.174h-5.9v-7.174h-3.42v17.433h3.42v-7.175h5.9v7.175h3.419V10.784h-3.42zM80.46 13.399c1.61 0 2.682 1.005 2.95 2.749h3.487c-.47-3.822-3.085-5.767-6.437-5.767-1.878 0-3.42.604-4.694 1.878a5.017 5.017 0 00-1.408 2.615c-.2 1.005-.268 2.682-.268 4.626 0 1.878.067 3.621.268 4.627a5.017 5.017 0 001.408 2.615c1.274 1.274 2.816 1.944 4.694 1.944 3.352 0 5.967-1.944 6.437-5.766h-3.42c-.268 1.743-1.274 2.749-2.95 2.749-.939 0-1.676-.268-2.146-.939-.737-.737-.871-1.81-.871-5.23 0-3.352.134-4.425.871-5.23.47-.603 1.207-.871 2.079-.871zM60.279 28.217h11.465V25.2h-8.046v-4.158h6.906v-3.017h-6.906v-4.157h8.046v-3.017H60.28v17.366zM45.393 13.8h4.56v14.416h3.42V13.8h4.559v-3.017H45.393V13.8zm-5.43 8.582c0 2.012-1.208 3.219-3.018 3.219-1.81 0-3.017-1.207-3.017-3.219v-11.6h-3.42v11.734c0 3.688 2.816 6.102 6.437 6.102 3.554 0 6.437-2.414 6.437-6.102V10.784h-3.353v11.6h-.067zm-18.91-11.6h-3.419v17.434h11.332V25.2h-7.912V10.784zM5.566 22.25l2.213-6.37 2.146 6.37H5.565zm.805-11.465L0 28.217h3.554l1.073-3.084h6.168l1.006 3.084h3.554l-6.37-17.433H6.37zM129.942 21.042h-.805V37h3.085a9.846 9.846 0 001.609-2.682c1.944-4.894.268-10.325-3.889-13.276zM134.501 37h10.594v-6.638c-4.626-.2-8.85 2.481-10.594 6.638zm-1.341-15.958c1.811 4.828 6.772 7.845 11.935 7.108v-7.108H133.16z" fill="#717A90"/><path fill-rule="evenodd" clip-rule="evenodd" d="M137.452 32.977A10.852 10.852 0 01141.408 37h3.687v-6.638c-2.883-.134-5.565.872-7.643 2.615zm-8.315-3.084V37h3.085a9.846 9.846 0 001.609-2.682c.872-2.078 1.073-4.291.603-6.37-1.609 1.14-3.419 1.81-5.297 1.945zm11.935-8.85h-7.912c1.073 2.95 3.42 5.23 6.169 6.37-.067-2.28.536-4.493 1.743-6.37zM121.963 29.021a15.807 15.807 0 004.157-7.979h-15.958V37h15.958a17.566 17.566 0 00-4.157-7.979z" fill="#717A90"/><path fill-rule="evenodd" clip-rule="evenodd" d="M121.561 21.042h-11.399v2.883c2.817 0 5.499.738 7.778 2.012 1.408-1.408 2.682-3.084 3.621-4.895zm-3.621 11.064c-2.346 1.274-4.961 2.011-7.778 2.011V37h11.399c-.939-1.81-2.213-3.486-3.621-4.894z" fill="#171C28"/><path fill-rule="evenodd" clip-rule="evenodd" d="M110.162 23.992v3.42c1.341.402 2.615 1.006 3.755 1.676 1.475-.872 2.816-1.877 4.023-3.084-2.346-1.341-4.961-2.012-7.778-2.012zm0 6.705v3.42c2.817 0 5.499-.738 7.778-2.012-1.207-1.207-2.548-2.212-4.023-3.084-1.207.67-2.481 1.274-3.755 1.676zM129.137 18.026h15.958v-6.907h-15.958v6.907zm0-15.959v7.577h15.958V2.067h-15.958z" fill="#717A90"/><path fill-rule="evenodd" clip-rule="evenodd" d="M129.137 15.813h15.958v-3.286h-15.958v3.286zm0-13.746V7.7h15.958V2.067h-15.958zM118.258 13.136c-1.073-.67-1.793-1.48-2.463-2.486-.269-1.14-.134-2.347.536-3.42 1.274-2.078 4.023-2.749 6.169-1.475 2.078 1.274 2.749 4.023 1.475 6.169-.201.335-.469.603-.738.872-.737.469-.983.836-2.414.871 2.012.201 4.024-.67 5.297-2.347V2.067h-15.958v15.959h15.958V13.8c-2.48 1.006-5.448.81-7.862-.665z" fill="#717A90"/><path fill-rule="evenodd" clip-rule="evenodd" d="M115.057 9.309c-.469-1.878-.268-4.024.872-5.834.335-.536.737-1.073 1.207-1.475h-1.811c-1.207 2.347-1.274 5.029-.268 7.309zm8.65 8.716h2.413v-1.61a15.116 15.116 0 01-2.413 1.61zM111.101 2.067h-.939v1.341c.067-.067.067-.134.135-.201.201-.402.469-.805.804-1.14zm-.939 11.868v4.09h4.426c-.268-.134-.604-.335-.872-.47a10.192 10.192 0 01-3.554-3.62z" fill="#171C28"/><path fill-rule="evenodd" clip-rule="evenodd" d="M118.41 13.198c-3.822-2.347-5.096-7.242-3.084-11.13h-2.414c-2.615 4.224-1.274 9.722 2.883 12.337 3.285 2.011 8.918 1.184 10.326-.738-2.481 1.006-5.297 1.006-7.711-.47zm6.035-10.661c-.336-.201-.671-.336-.939-.47h-4.425a6.09 6.09 0 00-2.951 2.414c-.536.872-.804 1.81-.871 2.816a6.153 6.153 0 01.603-1.542c1.475-2.414 4.694-3.218 7.174-1.676 2.414 1.475 3.219 4.693 1.677 7.174-.872 1.476-2.414 2.28-3.956 2.414 2.011.201 4.09-.445 5.364-2.121V4.079c-.402-.604-1.006-1.14-1.676-1.542z" fill="#717A90"/></svg><svg fill="none" viewBox="0 0 169 40" id="partners_guardian_sunguard" xmlns="http://www.w3.org/2000/svg"><path d="M52.656 20.262c-.589 0-1.01.113-7.85.113-6.702 0-6.169-.057-6.842-.057-.449 0-.533.113-.533.253v.532c0 .169.084.309.533.309l.533-.028c1.85 0 1.962.336 1.962 1.598v4.206c0 1.794-.588 2.916-2.159 3.28-2.467.561-4.486.841-8.355.841-5.075 0-7.823-.672-11.328-2.355-4.037-1.934-6.589-5.636-6.589-9.73 0-3.14 2.356-6.28 5.776-8.186a18.033 18.033 0 015.832-2.16c.898-.168 1.795-.308 2.748-.364 2.636-.224 6.785-.196 10.851 1.262 1.738.617 3.252 1.738 4.01 2.523l.14.337-5.075 1.037v-.028l-6.786 1.374c-.056-.252-.224-.364-.14-.476v-.028c.168-.169.112 0 .337.084.112.028.196-.14.308-.28.056-.085.112.083.168-.057a3.04 3.04 0 00.225-.533c.112-.336-.084-.616-.337-.813a.637.637 0 00-.7 0c-.253.14-.393.449-.421.785-.028.42-.561.056-1.178.028h-.112c-.533-.028-.925.393-1.29.561-.112.056-.196.084-.252.112-.225.113-.449.197-.533.365.056.224.14.42.224.476.169.113.337.28.561.421l-7.29 1.43v.028h-.028l-.196.449 7.346-1.458h-.028c-.365.196-.617.617-.589.953l.084.224c-.336-.168-.056.309-.336.449l-2.019-.337c-1.093-.112-1.99.617-3 .898-1.15.14-2.019 1.43-3.225 1.093-.616-.168-1.654-.617-2.13-.7-.59-.085-1.15.195-1.655.56.533-.112 1.01.056 1.458.392.449.365.87 1.206 1.599 1.346 1.037.225 2.747.169 3.224-1.43.028-.056.196-.448.364-.588l.113.028c-.057.672-.057 1.317.252 1.85l.084.112c.336.757 1.037 1.038 1.514 1.655.617.392-.14 1.009-.224 1.514a.379.379 0 00.336.224c.365.084-.056.589.253.729.84.533 1.43 1.43 1.85 2.327.084.112.252.084.393.112.252.168-.14.42-.028.617.252.196.757.196 1.065.028a1.361 1.361 0 00-.224-.589c-.617-.532-1.038-1.261-1.627-1.822-.084-.252-.28-.477-.252-.757l.645.336c.056.253.309.337.505.42l-.14.225c-.085.253.056.449.224.589.112.084.364.168.42.084.253-.336-.084-.981-.196-1.43l-.196-.224c-.533-.196-.953-.589-1.43-.897l.028-.477c-.196-.729.533-1.206.757-1.822.617.448 1.346.729 2.13.897.365.392 1.15.084 1.459.532.364.673.841 1.346 1.346 1.907-.337.42-1.01.168-1.374.224-.309-.308-.673.225-.953-.084l.112-.224-.309-.112c-.392-.056-.645.196-.869.476l-.028.225c.365.112.757.084 1.15.168.168.084.336.28.532.196.786-.448 1.767.28 2.44-.533.168-.28-.056-.476-.112-.729-.057-.42-.14-.869-.14-1.29.813.029 1.401.029 2.186.113a.588.588 0 01.113.308c-.253.533-.533 1.01-.954 1.458-.168.197.14.449-.196.59-.14.027-.168-.113-.28-.085-.421.196-.337.729-.421 1.094l.196.056c.197-.253.561-.393.645-.701.897-.617.897-1.655 1.654-2.328.113-.336.113-.7-.14-.925-.532-.14-1.01-.42-1.402-.729l.225-.224c.196-.42.532-.813.7-1.262a1.31 1.31 0 00.085-.477l.56-.672c.225-.309.393-.645.645-.926l.028-.056.225-.28c0-.14.196-.252.308-.337.224.365.757.253 1.094.449l-.028.028a.763.763 0 01.448.224l.028.056c.084.084.14.225.168.337.113.224.337-.084.45.112.28.196.392-.224.588-.364.084-.309.112-.617.056-.898-.364-.504-.673-1.065-.981-1.626l-.253-.449a4.993 4.993 0 01-.056-.645c.056-.224-.028-.448-.028-.616-.112.084-.336.504-.617.588-.196.028-.56-.196-1.01-.056-.532.197-1.289.253-1.737.056-.056.225.14.309.14.337-.309.224-.673.196-.925.14-.029.14.084.28.14.337 0 0-.197.056-.701.056 0 0-.28-.028-.477.168-.308-.084-.56-.14-.589-.196-.14-.14-.224-.113-.112-.393l.112-.252 7.094-1.402 11.16-2.187c.56-.028.28.224 1.12-.14.169-.056.87-.505.87-.505s-.589-.14-.981-.168c-.898-.084-.59.084-1.234.364-.028 0 0 0-.168.056h-.028c-1.178-.504-5.047-2.159-7.88-2.888-5.69-1.43-10.598-1.486-12.14-1.458-8.019-.028-13.458 1.262-18.561 3.365C3.196 12.72 0 16.085 0 19.253c0 4.206 2.3 7.15 6.841 9.561 5.131 2.804 13.851 4.038 21.59 4.038 2.888 0 5.664-.169 8.72-.561 1.037-.14 1.206-.196 2.916-.42 3.757-.477 4.402-.477 7.234-.197a15.62 15.62 0 013.477.785s.028-3.084.028-3.589v-6.28c0-1.01.084-1.262 1.43-1.262h.588c.449 0 .533-.056.533-.28v-.533c-.028-.169-.084-.253-.7-.253zM155.947 9.776h.224c.197 0 .393 0 .393-.28 0-.225-.168-.253-.336-.253h-.309v.533h.028zm-.224-.701h.561c.364 0 .532.14.532.448 0 .28-.168.42-.392.42l.42.702h-.252l-.393-.673h-.252v.673h-.224v-1.57zm.476 1.962c.589 0 1.038-.504 1.038-1.15 0-.644-.477-1.149-1.038-1.149-.588 0-1.037.505-1.037 1.15 0 .645.449 1.15 1.037 1.15zm0-2.523c.701 0 1.262.589 1.262 1.346 0 .785-.589 1.346-1.262 1.346-.7 0-1.261-.59-1.261-1.346 0-.757.589-1.346 1.261-1.346zM69.34 9.047h-7.962v7.402h7.963V13.84h-4.15v-1.99h6.617v4.037c0 1.094-.196 1.823-.56 2.187-.394.365-1.094.561-2.16.561h-7.57c-1.038 0-1.767-.196-2.131-.56-.393-.365-.561-1.122-.561-2.188v-6.14c0-1.094.196-1.823.56-2.187C59.78 7.196 60.48 7 61.519 7h7.57c1.01 0 1.739.196 2.131.56.393.365.589 1.066.589 2.104v.28l-2.496.477V9.047h.029zM76.211 9.075v7.795h6.225V9.075h2.215v7.29c0 .897-.168 1.486-.505 1.795-.336.308-.953.476-1.85.476H76.35c-.897 0-1.514-.168-1.85-.476-.337-.309-.477-.898-.477-1.795v-7.29h2.187zM89.972 14.795h4.122l-2.103-3.981-2.019 3.981zm-4.234 3.841l5.328-9.56h2.103l5.411 9.56h-2.467l-1.122-2.103h-5.944l-1.122 2.103h-2.187zM106.825 10.73h-4.991v2.635h4.991c.673 0 1.009-.252 1.009-.757v-1.122c0-.504-.336-.757-1.009-.757zm-7.15 7.906v-9.56h8.103c1.402 0 2.103.616 2.103 1.85v2.27c0 1.235-.701 1.823-2.103 1.823h-1.233l4.262 3.617h-3.141l-3.757-3.617h-2.047v3.617h-2.187zM114.372 16.842h2.832c1.458 0 2.495-.224 3.112-.645.701-.477 1.037-1.318 1.037-2.523 0-1.935-1.037-2.916-3.112-2.916h-3.869v6.084zm-2.215 1.794v-9.56h6.056c1.766 0 3.084.42 4.01 1.233.925.841 1.373 1.99 1.373 3.505 0 3.224-1.99 4.822-5.944 4.822h-5.495zM127.743 9.075h-2.187v9.561h2.187v-9.56zM132.85 14.795h4.122l-2.103-3.981-2.019 3.981zm-4.234 3.841l5.328-9.56h2.103l5.411 9.56h-2.467l-1.122-2.103h-5.944l-1.122 2.103h-2.187zM142.544 18.636v-9.56h1.515l7.626 6.364V9.075h1.963v9.561h-1.486l-7.627-6.448v6.448h-1.991zM68.555 23.598h-7.206v2.524h6.841c1.037 0 1.766.196 2.159.56.392.365.589 1.122.589 2.188v1.598c0 1.093-.197 1.822-.59 2.187-.392.364-1.12.56-2.158.56h-6.757c-1.038 0-1.767-.196-2.16-.56-.392-.365-.588-1.122-.588-2.187v-.309l2.243-.504v1.373h7.739v-2.663h-6.842c-1.037 0-1.766-.196-2.159-.56-.392-.365-.56-1.122-.56-2.188v-1.29c0-1.093.196-1.822.56-2.187.393-.364 1.094-.56 2.16-.56h6.224c1.01 0 1.71.168 2.103.532.392.365.616 1.038.616 2.02v.251l-2.243.561v-1.346h.029zM75.594 23.655v7.794h6.224v-7.794h2.215v7.318c0 .897-.168 1.486-.504 1.794-.337.309-.954.477-1.85.477h-5.945c-.897 0-1.514-.168-1.85-.477-.337-.308-.477-.897-.477-1.794v-7.318h2.187zM86.523 33.244v-9.59h1.487l7.626 6.366v-6.365h1.99v9.589h-1.513l-7.599-6.449v6.449h-1.99zM110.585 23.655h-7.963v7.402h7.963V28.45h-4.15v-1.991h6.645v4.038c0 1.093-.196 1.822-.56 2.187-.393.364-1.094.56-2.159.56h-7.571c-1.037 0-1.766-.196-2.131-.56-.392-.365-.56-1.122-.56-2.187v-6.14c0-1.094.196-1.823.56-2.188.393-.364 1.094-.56 2.131-.56h7.571c1.009 0 1.738.196 2.131.56.392.365.588 1.066.588 2.103v.28l-2.495.477v-1.374zM117.766 23.655v7.794h6.225v-7.794h2.215v7.318c0 .897-.168 1.486-.505 1.794-.336.309-.953.477-1.85.477h-5.945c-.897 0-1.514-.168-1.85-.477-.337-.308-.477-.897-.477-1.794v-7.318h2.187zM131.335 29.402h4.121l-2.103-3.981-2.018 3.981zm-4.262 3.841l5.327-9.56h2.103l5.411 9.56h-2.467l-1.122-2.102h-5.944l-1.121 2.102h-2.187zM148.292 25.31h-4.991v2.635h4.991c.673 0 1.009-.253 1.009-.757v-1.122c0-.477-.336-.757-1.009-.757zm-7.15 7.934v-9.59h8.103c1.402 0 2.103.618 2.103 1.851v2.271c0 1.234-.701 1.823-2.103 1.823h-1.234l4.262 3.617h-3.14l-3.757-3.617h-2.075v3.617h-2.159v.028zM156.057 31.45h2.832c1.458 0 2.496-.225 3.113-.645.7-.477 1.037-1.318 1.037-2.524 0-1.934-1.037-2.916-3.112-2.916h-3.87v6.085zm-2.187 1.794v-9.59h6.057c1.766 0 3.084.421 4.009 1.235.925.84 1.374 1.99 1.374 3.504 0 3.225-1.991 4.823-5.944 4.823h-5.496v.028zM166.69 24.917h.225c.196 0 .392 0 .392-.28 0-.225-.168-.253-.336-.253h-.309v.533h.028zm-.224-.729h.561c.364 0 .532.14.532.449 0 .28-.168.42-.392.42l.42.701h-.252l-.392-.673h-.253v.673h-.224v-1.57zm.505 1.963c.588 0 1.037-.505 1.037-1.15 0-.645-.477-1.15-1.037-1.15-.589 0-1.038.505-1.038 1.15-.028.645.449 1.15 1.038 1.15zm0-2.524c.701 0 1.261.589 1.261 1.346 0 .785-.588 1.346-1.261 1.346-.701 0-1.262-.589-1.262-1.346a1.277 1.277 0 011.262-1.346z" fill="#717A90"/></svg><svg fill="none" viewBox="0 0 160 40" id="partners_pilkington" xmlns="http://www.w3.org/2000/svg"><path d="M0 19.762C0 9.4 8.4 1 18.762 1s18.762 8.4 18.762 18.762-8.4 18.762-18.762 18.762S0 30.124 0 19.762z" fill="#717A90"/><path d="M.992 19.762C.992 9.947 8.947 1.99 18.764 1.99c9.815 0 17.77 7.957 17.77 17.772 0 9.815-7.955 17.772-17.77 17.772-9.817 0-17.772-7.957-17.772-17.772z" fill="#171C28"/><path d="M2.25 19.762c0-9.12 7.393-16.515 16.513-16.515 9.122 0 16.515 7.395 16.515 16.515 0 9.12-7.393 16.513-16.515 16.513-9.12 0-16.513-7.393-16.513-16.513z" fill="#717A90"/><path d="M10.698 22.964c-1.19 1.28-1.339 2.723-1.025 4.732 0 .045.089.193.089.193s-.09-.09-.223-.148c-1.236-.73-2.113-2.098-2.144-3.498-.015-.997.269-1.918.952-2.544.104-.089.268-.163.268-.163l-.238.059c-2.054.507-3.273-.698-4.33-1.65-.12-.106-.208-.134-.297-.18.089-.015.178-.045.297-.18 1.057-.936 2.276-2.156 4.33-1.65.12.03.238.075.238.075s-.164-.09-.268-.178c-.683-.626-.967-1.549-.952-2.53.03-1.414.908-2.753 2.144-3.512.134-.06.223-.15.223-.15s-.09.15-.09.194c-.313 2.009-.164 3.467 1.026 4.761 1.786 1.89 5.446 1.146 6.28 1.459-.43-.595.595-4.478-1.384-6.354-1.296-1.175-2.752-1.338-4.761-1.026-.046 0-.195.089-.195.089s.09-.089.15-.223c.758-1.235 2.099-2.113 3.51-2.143.984-.014 1.905.268 2.531.953.09.104.178.267.178.267s-.044-.118-.074-.239c-.507-2.052.713-3.257 1.682-4.328a.543.543 0 00.148-.297c.045.089.073.178.18.297.95 1.07 2.156 2.276 1.65 4.328-.03.121-.073.239-.073.239s.087-.163.208-.267c.594-.685 1.519-.967 2.514-.953 1.398.03 2.768.908 3.496 2.143.06.134.15.223.15.223s-.15-.089-.194-.089c-2.009-.312-3.452-.178-4.73 1.026-1.995 1.86-1 5.684-1.416 6.354.774-.356 4.465.461 6.28-1.459 1.206-1.294 1.368-2.752 1.026-4.761 0-.044-.089-.193-.089-.193s.09.089.223.15c1.266.758 2.143 2.097 2.159 3.51 0 .982-.284 1.905-.969 2.531-.104.087-.267.178-.267.178s.133-.045.252-.076c2.07-.505 3.26.715 4.33 1.652.12.134.195.164.284.18-.09.045-.165.073-.284.18-1.07.95-2.26 2.156-4.33 1.649-.119-.03-.252-.059-.252-.059s.163.074.267.163c.685.626.969 1.547.969 2.544-.015 1.4-.893 2.768-2.159 3.498-.134.059-.223.148-.223.148s.09-.148.09-.193c.341-2.01.179-3.453-1.026-4.732-1.786-1.95-5.492-1.146-6.28-1.473.46.596-.595 4.48 1.414 6.339 1.279 1.19 2.722 1.37 4.731 1.027.044 0 .193-.089.193-.089s-.089.089-.149.223c-.728 1.264-2.098 2.113-3.496 2.157-.995 0-1.92-.282-2.514-.967a1.076 1.076 0 01-.208-.268s.043.119.074.253c.505 2.068-.7 3.258-1.652 4.33-.106.12-.134.208-.18.282a.561.561 0 00-.147-.282c-.968-1.072-2.189-2.262-1.682-4.33.03-.134.074-.253.074-.253s-.089.164-.178.268c-.626.685-1.547.967-2.53.967-1.412-.044-2.753-.893-3.512-2.157-.059-.134-.15-.223-.15-.223s.15.089.195.089c2.01.342 3.466.163 4.762-1.027 1.979-1.86.953-5.728 1.385-6.34-.835.328-4.495-.446-6.28 1.474z" fill="#171C28"/><path d="M52.923 4.958c-.804 0-2.445.084-3.86.084-1.34.045-3.063.042-3.063.042v.503h.84c.996 0 1.216.277 1.216 1.72v11.79c0 1.073-.285 1.721-1.343 1.721h-.63v.504h6.337v-.504h-.756c-.892 0-1.468-.617-1.468-1.762v-4.951c.565.178 1.146.335 2.56.335 2.825 0 5.034-2.294 5.034-5.076 0-2.337-1.757-4.406-4.867-4.406zm-.713.755c2.47 0 3.189 1.877 3.189 3.944 0 2.47-1.348 3.976-3.357 3.902-.787-.015-1.445-.221-1.846-.503V5.923c.283-.104 1.329-.21 2.014-.21zM140.406 8.4c-3.364 0-5.958 2.695-5.958 6.713 0 4.092 2.643 6.671 5.916 6.671 3.437 0 5.916-2.818 5.916-6.671 0-4.315-2.853-6.713-5.874-6.713zm-23.119.167c-3.63-.03-6.584 2.144-6.42 6.756.089 3.736 2.315 6.17 5.958 6.377 2.709.163 4.087-.604 5.203-1.259v-3.692c0-.938.188-1.3 1.007-1.3h.252v-.504h-5.077v.503h.755c.656 0 1.175.452 1.175 1.301v3.357c-.403.372-1.318.839-2.643.839-2.291 0-4.322-2.064-4.322-5.874 0-3.6 1.519-5.832 4.196-5.832 2.009 0 3.304 1.428 3.944 2.81l.377-.083-.377-3.273h-.462c-.059.49-.231.615-.797.42-.446-.163-1.489-.546-2.769-.546zm-58.406.294v.504h.504c.713 0 1.007.535 1.007 1.384v8.98c0 .758-.183 1.09-1.091 1.09h-.42v.504h5.287v-.504h-.42c-.713 0-1.133-.203-1.133-1.259v-8.937c0-.908.2-1.258 1.05-1.258h.503V8.86H58.88zm7.3 0v.504h.504c.73 0 1.007.41 1.007 1.258v8.937c0 .803-.156 1.26-1.049 1.26h-.461v.503h8.895l.965-3.399-.42-.084c-.788 2.007-1.695 2.644-3.272 2.644h-1.888c-.52 0-.504-.373-.504-.924v-8.937c0-.908.188-1.258 1.007-1.258h.504V8.86h-5.287zm10.28 0v.504h.504c.893 0 .965.246.965 1.258v8.937c0 1.012-.198 1.26-1.09 1.26h-.379v.503h5.245v-.504h-.377c-.67 0-1.26-.158-1.26-1.259v-4.615s3.906 4.365 4.323 4.825c.522.58.307 1.05-.378 1.05h-.42v.503h5.455v-.546h-.336c-.64 0-1.383-.681-1.888-1.217l-4.993-5.412c1.623-1.591 3.26-3.119 3.944-3.818.594-.594 1.05-.965 1.72-.965h.546V8.86h-4.28v.504h.462c.58 0 .643.355.42.713-.417.64-2.416 2.72-4.574 4.49v-3.945c0-.743.106-1.258 1.133-1.258h.503V8.86h-5.245zm13.343 0v.504h.504c.743 0 1.007.535 1.007 1.384v8.98c0 .758-.156 1.09-1.05 1.09h-.46v.504h5.286v-.504h-.42c-.671 0-1.09-.203-1.09-1.259v-8.937c0-.908.187-1.258 1.006-1.258h.504V8.86h-5.287zm7.007 0v.504c.388.015 1.057.078 1.846 1.3v8.937c0 .967-.292 1.217-1.258 1.217h-.42v.504h4.531v-.504h-.503c-.967 0-1.259-.307-1.259-1.259v-7.762l8.434 10.07v-11.16c0-1.236.319-1.385 1.049-1.385h.461V8.86h-4.195v.462h.377c1.101 0 1.301.344 1.301 1.342v6.672L99.958 8.86h-3.147zm26.644 0l-.126 3.063h.419c.148-1.146.339-2.224 2.14-2.224h1.595v9.902c0 .79-.21 1.217-1.133 1.217h-.462v.504h5.287v-.504h-.42c-.685 0-1.091-.173-1.091-1.259V9.7h1.679c1.101 0 1.958.408 2.181 2.224h.378l-.084-3.063h-10.363zm23.664 0v.504c.401.015 1.047.078 1.804 1.3v8.937c0 .967-.252 1.217-1.217 1.217h-.461v.504h4.573v-.504h-.503c-.982 0-1.259-.307-1.259-1.259v-7.762l8.434 10.07v-11.16c0-1.236.333-1.385 1.048-1.385H160V8.86h-4.196v.462h.378c1.101 0 1.301.344 1.301 1.342v6.672l-7.217-8.476h-3.147zm-6.713.336c2.097 0 3.482 1.987 3.482 5.916 0 3.675-1.515 5.916-3.524 5.916-2.128 0-3.483-2.063-3.483-5.916 0-3.72 1.323-5.916 3.525-5.916zM53.678 27.867c-.993 0-2.056.554-2.056 1.678 0 1.03.821 1.338 1.637 1.553.809.215 1.636.33 1.636.923 0 .562-.668.671-1.09.671-.647 0-1.218-.275-1.218-1.007h-1.174c-.015 1.355 1.134 1.972 2.35 1.972 1.493 0 2.307-.752 2.307-1.762 0-1.245-1.235-1.537-1.636-1.636-1.378-.356-1.637-.373-1.637-.797 0-.462.455-.63.84-.63.578 0 1.01.178 1.048.84h1.175c0-1.271-1.035-1.805-2.182-1.805zm5.58 0c-1.701 0-2.685 1.306-2.685 2.937 0 1.586.984 2.853 2.686 2.853.532 0 1.087-.21 1.51-.755l.126.587h.755v-2.937h-2.307v.881h1.216c-.07.763-.515 1.175-1.3 1.175-1.086 0-1.469-.89-1.469-1.804 0-.961.383-1.888 1.469-1.888.569 0 1.035.314 1.175.923h1.132c-.13-1.248-1.183-1.972-2.307-1.972zm8.14 0c-1.701 0-2.727 1.306-2.727 2.937 0 1.586 1.026 2.853 2.728 2.853.53 0 1.087-.21 1.51-.755l.126.587h.755v-2.937h-2.308v.881H68.7c-.07.763-.515 1.175-1.3 1.175-1.086 0-1.51-.89-1.51-1.804 0-.961.424-1.888 1.51-1.888.569 0 .993.314 1.132.923h1.175c-.132-1.248-1.183-1.972-2.307-1.972zm40.364 0c-1.7 0-2.685 1.306-2.685 2.937 0 1.586.985 2.853 2.685 2.853.532 0 1.088-.21 1.511-.755l.126.587h.797v-2.937h-2.308v.881h1.217c-.069.763-.557 1.175-1.343 1.175-1.086 0-1.468-.89-1.468-1.804 0-.961.382-1.888 1.468-1.888.571 0 1.036.314 1.175.923h1.175c-.131-1.248-1.225-1.972-2.35-1.972zm-61.678.126v5.497h1.133v-3.65l2.308 3.65h1.216v-5.497h-1.133v3.692h-.042l-2.265-3.692h-1.217zm43.385 0v5.497h1.216v-2.266h2.266V30.3h-2.266v-1.26h2.644v-1.048h-3.86zm4.321 0v5.497h1.091v-5.497h-1.09zm17.203 0v5.497h1.091v-5.497h-1.091zm16.909 0v5.497h2.685c.994 0 1.93-.479 1.93-1.595 0-.685-.337-1.192-1.007-1.384.477-.23.756-.595.756-1.133 0-1.024-.715-1.385-1.763-1.385h-2.601zm13.72.042v.881h1.091v-.881h-1.091zm-41.119.294v1.216h-.67v.714h.67v2.35c0 .791.591.964 1.259.964.217 0 .445-.011.63-.042v-.88c-.115.021-.22.041-.336.041-.369 0-.462-.092-.462-.461v-1.972h.798v-.714h-.798V28.33h-1.091zm28.616.629h1.133c.431 0 .839.106.839.63 0 .46-.331.67-.755.67h-1.217v-1.3zm-56.224.462c-.53 0-1.057.339-1.259.839h-.042v-.714h-1.007v3.944h1.091v-1.762c0-.701.25-1.3 1.05-1.3.13 0 .32.018.419.041v-1.006a.89.89 0 00-.252-.043zm2.518 0c-1.247 0-2.056.827-2.056 2.097 0 1.262.809 2.098 2.056 2.098 1.255 0 2.056-.836 2.056-2.098 0-1.27-.801-2.098-2.056-2.098zm9.356 0c-.492 0-.955.206-1.217.629v-.504h-1.049v5.371h1.091v-1.888h.042c.262.393.699.587 1.175.587 1.163 0 1.762-.993 1.762-2.056 0-1.13-.557-2.14-1.804-2.14zm12.713 0c-.892 0-1.827.317-1.888 1.342h1.091c.039-.431.3-.587.714-.587.384 0 .713.033.713.503 0 .447-.631.445-1.3.546-.677.092-1.343.315-1.343 1.216 0 .816.589 1.175 1.342 1.175.485 0 .997-.14 1.343-.503a1.6 1.6 0 00.084.377h1.133c-.101-.16-.168-.52-.168-.88v-2.057c0-.953-.927-1.133-1.72-1.133zm17.245 0c-.893 0-1.826.317-1.888 1.342h1.091c.037-.431.341-.587.755-.587.386 0 .672.033.672.503 0 .447-.589.445-1.259.546-.678.092-1.385.315-1.385 1.216 0 .816.63 1.175 1.385 1.175.483 0 .997-.14 1.343-.503.008.13.005.255.042.377h1.132c-.1-.16-.125-.52-.125-.88v-2.057c0-.953-.969-1.133-1.763-1.133zm4.28 0c-.856 0-1.72.285-1.72 1.3 0 .702.627.91 1.258 1.05.786.167 1.259.298 1.259.629 0 .384-.398.503-.713.503-.431 0-.833-.195-.839-.671h-1.049c.045 1.054.923 1.384 1.846 1.384.908 0 1.846-.337 1.846-1.384 0-.739-.621-.987-1.259-1.133-.624-.146-1.258-.195-1.258-.587 0-.325.34-.336.587-.336.393 0 .723.079.755.503h1.049c-.085-.978-.893-1.259-1.762-1.259zm4.154 0c-.854 0-1.72.285-1.72 1.3 0 .702.627.91 1.258 1.05.786.167 1.259.298 1.259.629 0 .384-.398.503-.713.503-.432 0-.831-.195-.839-.671h-1.049c.045 1.054.963 1.384 1.888 1.384.908 0 1.804-.337 1.804-1.384 0-.739-.621-.987-1.259-1.133-.624-.146-1.259-.195-1.259-.587 0-.325.385-.336.63-.336.393 0 .725.079.755.503h1.007c-.086-.978-.893-1.259-1.762-1.259zm16.112 0c-.855 0-1.763.285-1.763 1.3 0 .702.628.91 1.259 1.05.786.167 1.259.298 1.259.629 0 .384-.398.503-.713.503-.432 0-.831-.195-.839-.671h-1.049c.045 1.054.965 1.384 1.888 1.384.909 0 1.804-.337 1.804-1.384 0-.739-.619-.987-1.259-1.133-.623-.146-1.259-.195-1.259-.587 0-.325.385-.336.63-.336.394 0 .725.079.755.503h1.007c-.084-.978-.851-1.259-1.72-1.259zm6.461 0a1.43 1.43 0 00-1.217.67h-.041v-.545h-1.007v3.944h1.09v-2.055c0-.81.247-1.133.84-1.133.508 0 .713.31.713.965v2.224h1.091v-2.434c0-.987-.306-1.637-1.469-1.637zm4.07 0c-1.208 0-2.014.904-2.014 2.097 0 1.232.759 2.098 2.014 2.098.901 0 1.579-.402 1.888-1.342h-.965c-.069.246-.443.503-.881.503-.607 0-.933-.314-.965-1.007h2.853c.077-1.223-.575-2.35-1.93-2.35zm4.28 0c-.854 0-1.72.285-1.72 1.3 0 .702.627.91 1.258 1.05.786.167 1.259.298 1.259.629 0 .384-.398.503-.713.503-.431 0-.833-.195-.839-.671h-1.049c.047 1.054.923 1.384 1.846 1.384.908 0 1.846-.337 1.846-1.384 0-.739-.621-.987-1.259-1.133-.624-.146-1.258-.195-1.258-.587 0-.325.382-.336.629-.336.393 0 .683.079.713.503h1.049c-.085-.978-.891-1.259-1.762-1.259zm4.07 0c-.854 0-1.762.285-1.762 1.3 0 .702.669.91 1.3 1.05.786.167 1.217.298 1.217.629 0 .384-.398.503-.713.503-.432 0-.831-.195-.839-.671h-1.049c.045 1.054.965 1.384 1.888 1.384.908 0 1.804-.337 1.804-1.384 0-.739-.621-.987-1.259-1.133-.624-.146-1.217-.195-1.217-.587 0-.325.341-.336.588-.336.393 0 .723.079.755.503h1.049c-.086-.978-.891-1.259-1.762-1.259zm-80.056.125v2.434c0 .985.305 1.636 1.468 1.636.462 0 .94-.224 1.217-.671v.545h1.05v-3.944H80.74v2.056c0 .808-.245 1.175-.839 1.175-.507 0-.713-.352-.713-1.007v-2.224h-1.091zm54.965 0v2.434c0 .985.305 1.636 1.468 1.636.464 0 .94-.224 1.217-.671v.545h1.049v-3.944h-1.091v2.056c0 .808-.246 1.175-.839 1.175-.508 0-.713-.352-.713-1.007v-2.224h-1.091zm8.559 0v3.944h1.091v-3.944h-1.091zm-66.21.714c.747 0 .966.62.966 1.258 0 .631-.219 1.26-.965 1.26-.739 0-.965-.629-.965-1.26 0-.637.226-1.258.965-1.258zm9.105 0c.702 0 .966.627.966 1.258 0 .647-.25 1.26-.966 1.26-.708 0-.965-.613-.965-1.26 0-.646.25-1.258.965-1.258zm65.287 0c.531 0 .739.285.839.839h-1.762c.017-.307.23-.84.923-.84zm-20.685.797h1.343c.516 0 .839.235.839.797 0 .57-.405.713-.881.713h-1.301v-1.51zm-31.007.503v.42c0 .238-.027.923-.881.923-.353 0-.672-.096-.672-.503 0-.4.333-.519.672-.588.339-.062.696-.089.88-.252zm17.245 0v.42c0 .238-.027.923-.881.923-.353 0-.672-.096-.672-.503 0-.4.333-.519.672-.588.337-.062.696-.089.881-.252z" fill="#717A90"/></svg></svg>